G04*
G04 #@! TF.GenerationSoftware,Altium Limited,Altium Designer,18.1.6 (161)*
G04*
G04 Layer_Color=16711935*
%FSTAX24Y24*%
%MOIN*%
G70*
G01*
G75*
%ADD13C,0.0060*%
%ADD22C,0.0030*%
%ADD130C,0.0010*%
%ADD131C,0.0000*%
%ADD132C,0.0039*%
D13*
X016763Y007785D02*
Y007804D01*
X016782Y007842D01*
X016801Y007861D01*
X016839Y00788D01*
X016915D01*
X016954Y007861D01*
X016973Y007842D01*
X016992Y007804D01*
Y007766D01*
X016973Y007728D01*
X016935Y007671D01*
X016744Y00748D01*
X017011D01*
X015689Y009691D02*
X015651Y009672D01*
X015613Y009634D01*
X015594Y009596D01*
X015575Y009539D01*
Y009444D01*
X015594Y009387D01*
X015613Y009348D01*
X015651Y00931D01*
X015689Y009291D01*
X015765D01*
X015803Y00931D01*
X015841Y009348D01*
X01586Y009387D01*
X015879Y009444D01*
Y009539D01*
X01586Y009596D01*
X015841Y009634D01*
X015803Y009672D01*
X015765Y009691D01*
X015689D01*
X015973D02*
Y009291D01*
Y009691D02*
X016239Y009291D01*
Y009691D02*
Y009291D01*
X015799Y007804D02*
X015837Y007823D01*
X015894Y00788D01*
Y00748D01*
X017782Y00788D02*
X017992D01*
X017877Y007728D01*
X017935D01*
X017973Y007709D01*
X017992Y00769D01*
X018011Y007633D01*
Y007595D01*
X017992Y007537D01*
X017954Y007499D01*
X017896Y00748D01*
X017839D01*
X017782Y007499D01*
X017763Y007518D01*
X017744Y007556D01*
X020503Y007785D02*
Y007804D01*
X020522Y007842D01*
X020541Y007861D01*
X020579Y00788D01*
X020656D01*
X020694Y007861D01*
X020713Y007842D01*
X020732Y007804D01*
Y007766D01*
X020713Y007728D01*
X020675Y007671D01*
X020484Y00748D01*
X020751D01*
X019429Y009691D02*
X019391Y009672D01*
X019353Y009634D01*
X019334Y009596D01*
X019315Y009539D01*
Y009444D01*
X019334Y009387D01*
X019353Y009348D01*
X019391Y00931D01*
X019429Y009291D01*
X019505D01*
X019543Y00931D01*
X019582Y009348D01*
X019601Y009387D01*
X01962Y009444D01*
Y009539D01*
X019601Y009596D01*
X019582Y009634D01*
X019543Y009672D01*
X019505Y009691D01*
X019429D01*
X019713D02*
Y009291D01*
Y009691D02*
X01998Y009291D01*
Y009691D02*
Y009291D01*
X019539Y007804D02*
X019577Y007823D01*
X019635Y00788D01*
Y00748D01*
X021522Y00788D02*
X021732D01*
X021618Y007728D01*
X021675D01*
X021713Y007709D01*
X021732Y00769D01*
X021751Y007633D01*
Y007595D01*
X021732Y007537D01*
X021694Y007499D01*
X021637Y00748D01*
X021579D01*
X021522Y007499D01*
X021503Y007518D01*
X021484Y007556D01*
D22*
X000564Y006271D02*
X000897Y006604D01*
X000564D02*
X000897Y006271D01*
X000564Y006438D02*
X000897D01*
X000731Y006604D02*
Y006271D01*
X025357Y026292D02*
X025024Y025958D01*
X025357D02*
X025024Y026292D01*
X025357Y026125D02*
X025024D01*
X02519Y025958D02*
Y026292D01*
X043252Y035759D02*
X042918Y036092D01*
X043252D02*
X042918Y035759D01*
X043252Y035925D02*
X042918D01*
X043085Y036092D02*
Y035759D01*
X033982Y018005D02*
X033649Y017672D01*
Y018005D02*
X033982Y017672D01*
X033815Y018005D02*
Y017672D01*
X033649Y017839D02*
X033982D01*
X032537Y023337D02*
X032204Y023671D01*
X032537D02*
X032204Y023337D01*
X032537Y023504D02*
X032204D01*
X03237Y023671D02*
Y023337D01*
D130*
X000514Y006537D02*
X000864D01*
X000514D02*
Y007757D01*
X000864D01*
Y006537D02*
Y007757D01*
X002286Y006537D02*
X002636D01*
X002286D02*
Y007757D01*
X002636D01*
Y006537D02*
Y007757D01*
X000275Y006537D02*
X002875D01*
Y003777D02*
Y006537D01*
X000275Y003777D02*
X002875D01*
X000275D02*
Y006537D01*
X025382Y02609D02*
Y02628D01*
X025817D01*
Y02609D02*
Y02628D01*
X025382Y02609D02*
X025817D01*
X025382Y02559D02*
Y02578D01*
X025817D01*
Y02559D02*
Y02578D01*
X025382Y02559D02*
X025817D01*
X025382Y02509D02*
Y02528D01*
X025817D01*
Y02509D02*
Y02528D01*
X025382Y02509D02*
X025817D01*
X025382Y02459D02*
Y02478D01*
X025817D01*
Y02459D02*
Y02478D01*
X025382Y02459D02*
X025817D01*
X025382Y02409D02*
Y02428D01*
X025817D01*
Y02409D02*
Y02428D01*
X025382Y02409D02*
X025817D01*
X025382Y02359D02*
Y02378D01*
X025817D01*
Y02359D02*
Y02378D01*
X025382Y02359D02*
X025817D01*
X025382Y02309D02*
Y02328D01*
X025817D01*
Y02309D02*
Y02328D01*
X025382Y02309D02*
X025817D01*
X023812D02*
Y02328D01*
X023377Y02309D02*
X023812D01*
X023377D02*
Y02328D01*
X023812D01*
Y02359D02*
Y02378D01*
X023377Y02359D02*
X023812D01*
X023377D02*
Y02378D01*
X023812D01*
Y02409D02*
Y02428D01*
X023377Y02409D02*
X023812D01*
X023377D02*
Y02428D01*
X023812D01*
Y02459D02*
Y02478D01*
X023377Y02459D02*
X023812D01*
X023377D02*
Y02478D01*
X023812D01*
Y02509D02*
Y02528D01*
X023377Y02509D02*
X023812D01*
X023377D02*
Y02528D01*
X023812D01*
Y02559D02*
Y02578D01*
X023377Y02559D02*
X023812D01*
X023377D02*
Y02578D01*
X023812D01*
Y02609D02*
Y02628D01*
X023377Y02609D02*
X023812D01*
X023377D02*
Y02628D01*
X023812D01*
Y022965D02*
X025382D01*
X023812D02*
Y026405D01*
X025382D01*
Y022965D02*
Y026405D01*
X043387Y035629D02*
Y037599D01*
X041417Y035629D02*
X043387D01*
X041417D02*
Y037599D01*
X043387D01*
X041417Y035964D02*
Y036084D01*
Y035964D02*
Y036084D01*
Y03616D02*
Y03628D01*
Y03616D02*
Y03628D01*
Y036357D02*
Y036477D01*
Y036357D02*
Y036477D01*
Y036554D02*
Y036674D01*
Y036554D02*
Y036674D01*
Y036751D02*
Y036871D01*
Y036751D02*
Y036871D01*
Y036948D02*
Y037068D01*
Y036948D02*
Y037068D01*
Y037145D02*
Y037265D01*
Y037145D02*
Y037265D01*
X041751Y037599D02*
X041871D01*
X041751D02*
X041871D01*
X041948D02*
X042068D01*
X041948D02*
X042068D01*
X042145D02*
X042265D01*
X042145D02*
X042265D01*
X042342D02*
X042462D01*
X042342D02*
X042462D01*
X042538D02*
X042658D01*
X042538D02*
X042658D01*
X042735D02*
X042855D01*
X042735D02*
X042855D01*
X042932D02*
X043052D01*
X042932D02*
X043052D01*
X043387Y037145D02*
Y037265D01*
Y037145D02*
Y037265D01*
Y036948D02*
Y037068D01*
Y036948D02*
Y037068D01*
Y036751D02*
Y036871D01*
Y036751D02*
Y036871D01*
Y036554D02*
Y036674D01*
Y036554D02*
Y036674D01*
Y036357D02*
Y036477D01*
Y036357D02*
Y036477D01*
Y03616D02*
Y03628D01*
Y03616D02*
Y03628D01*
Y035964D02*
Y036084D01*
Y035964D02*
Y036084D01*
X042932Y035629D02*
X043052D01*
X042932D02*
X043052D01*
X042735D02*
X042855D01*
X042735D02*
X042855D01*
X042538D02*
X042658D01*
X042538D02*
X042658D01*
X042342D02*
X042462D01*
X042342D02*
X042462D01*
X042145D02*
X042265D01*
X042145D02*
X042265D01*
X041948D02*
X042068D01*
X041948D02*
X042068D01*
X041751D02*
X041871D01*
X041751D02*
X041871D01*
X042887D02*
X043387Y036129D01*
X03369Y01803D02*
X03388D01*
Y01863D01*
X03369D02*
X03388D01*
X03369Y01803D02*
Y01863D01*
X03319Y01803D02*
X03338D01*
Y01863D01*
X03319D02*
X03338D01*
X03319Y01803D02*
Y01863D01*
X03269Y01803D02*
X03288D01*
Y01863D01*
X03269D02*
X03288D01*
X03269Y01803D02*
Y01863D01*
X03219Y01803D02*
X03238D01*
Y01863D01*
X03219D02*
X03238D01*
X03219Y01803D02*
Y01863D01*
X03169Y01803D02*
X03188D01*
Y01863D01*
X03169D02*
X03188D01*
X03169Y01803D02*
Y01863D01*
X03119Y01803D02*
X03138D01*
Y01863D01*
X03119D02*
X03138D01*
X03119Y01803D02*
Y01863D01*
X03069Y01803D02*
X03088D01*
Y01863D01*
X03069D02*
X03088D01*
X03069Y01803D02*
Y01863D01*
X03019Y01803D02*
X03038D01*
Y01863D01*
X03019D02*
X03038D01*
X03019Y01803D02*
Y01863D01*
X02969Y01803D02*
X02988D01*
Y01863D01*
X02969D02*
X02988D01*
X02969Y01803D02*
Y01863D01*
X02919Y01803D02*
X02938D01*
Y01863D01*
X02919D02*
X02938D01*
X02919Y01803D02*
Y01863D01*
Y01504D02*
X02938D01*
X02919Y01444D02*
Y01504D01*
Y01444D02*
X02938D01*
Y01504D01*
X02969D02*
X02988D01*
X02969Y01444D02*
Y01504D01*
Y01444D02*
X02988D01*
Y01504D01*
X03019D02*
X03038D01*
X03019Y01444D02*
Y01504D01*
Y01444D02*
X03038D01*
Y01504D01*
X03069D02*
X03088D01*
X03069Y01444D02*
Y01504D01*
Y01444D02*
X03088D01*
Y01504D01*
X03119D02*
X03138D01*
X03119Y01444D02*
Y01504D01*
Y01444D02*
X03138D01*
Y01504D01*
X03169D02*
X03188D01*
X03169Y01444D02*
Y01504D01*
Y01444D02*
X03188D01*
Y01504D01*
X03219D02*
X03238D01*
X03219Y01444D02*
Y01504D01*
Y01444D02*
X03238D01*
Y01504D01*
X03269D02*
X03288D01*
X03269Y01444D02*
Y01504D01*
Y01444D02*
X03288D01*
Y01504D01*
X03319D02*
X03338D01*
X03319Y01444D02*
Y01504D01*
Y01444D02*
X03338D01*
Y01504D01*
X03369D02*
X03388D01*
X03369Y01444D02*
Y01504D01*
Y01444D02*
X03388D01*
Y01504D01*
X028975D02*
Y01803D01*
Y01504D02*
X034095D01*
Y01803D01*
X028975D02*
X034095D01*
X032562Y023265D02*
Y026105D01*
X029722Y023265D02*
X032562D01*
X029722D02*
Y026105D01*
X032562D01*
X032062Y023265D02*
X032562Y023765D01*
X029332Y023547D02*
X029722D01*
X029332D02*
Y023657D01*
X029722D01*
Y023547D02*
Y023657D01*
X029332Y023744D02*
X029722D01*
X029332D02*
Y023854D01*
X029722D01*
Y023744D02*
Y023854D01*
X029332Y023941D02*
X029722D01*
X029332D02*
Y024051D01*
X029722D01*
Y023941D02*
Y024051D01*
X029332Y024138D02*
X029722D01*
X029332D02*
Y024248D01*
X029722D01*
Y024138D02*
Y024248D01*
X029332Y024335D02*
X029722D01*
X029332D02*
Y024445D01*
X029722D01*
Y024335D02*
Y024445D01*
X029332Y024532D02*
X029722D01*
X029332D02*
Y024642D01*
X029722D01*
Y024532D02*
Y024642D01*
X029332Y024728D02*
X029722D01*
X029332D02*
Y024838D01*
X029722D01*
Y024728D02*
Y024838D01*
X029332Y024925D02*
X029722D01*
X029332D02*
Y025035D01*
X029722D01*
Y024925D02*
Y025035D01*
X029332Y025122D02*
X029722D01*
X029332D02*
Y025232D01*
X029722D01*
Y025122D02*
Y025232D01*
X029332Y025319D02*
X029722D01*
X029332D02*
Y025429D01*
X029722D01*
Y025319D02*
Y025429D01*
X029332Y025516D02*
X029722D01*
X029332D02*
Y025626D01*
X029722D01*
Y025516D02*
Y025626D01*
X029332Y025713D02*
X029722D01*
X029332D02*
Y025823D01*
X029722D01*
Y025713D02*
Y025823D01*
X030004Y026105D02*
Y026495D01*
X030114D01*
Y026105D02*
Y026495D01*
X030004Y026105D02*
X030114D01*
X030201D02*
Y026495D01*
X030311D01*
Y026105D02*
Y026495D01*
X030201Y026105D02*
X030311D01*
X030398D02*
Y026495D01*
X030508D01*
Y026105D02*
Y026495D01*
X030398Y026105D02*
X030508D01*
X030595D02*
Y026495D01*
X030705D01*
Y026105D02*
Y026495D01*
X030595Y026105D02*
X030705D01*
X030791D02*
Y026495D01*
X030901D01*
Y026105D02*
Y026495D01*
X030791Y026105D02*
X030901D01*
X030988D02*
Y026495D01*
X031098D01*
Y026105D02*
Y026495D01*
X030988Y026105D02*
X031098D01*
X031185D02*
Y026495D01*
X031295D01*
Y026105D02*
Y026495D01*
X031185Y026105D02*
X031295D01*
X031382D02*
Y026495D01*
X031492D01*
Y026105D02*
Y026495D01*
X031382Y026105D02*
X031492D01*
X031579D02*
Y026495D01*
X031689D01*
Y026105D02*
Y026495D01*
X031579Y026105D02*
X031689D01*
X031776D02*
Y026495D01*
X031886D01*
Y026105D02*
Y026495D01*
X031776Y026105D02*
X031886D01*
X031973D02*
Y026495D01*
X032083D01*
Y026105D02*
Y026495D01*
X031973Y026105D02*
X032083D01*
X032169D02*
Y026495D01*
X032279D01*
Y026105D02*
Y026495D01*
X032169Y026105D02*
X032279D01*
X032562Y025823D02*
X032952D01*
Y025713D02*
Y025823D01*
X032562Y025713D02*
X032952D01*
X032562D02*
Y025823D01*
Y025626D02*
X032952D01*
Y025516D02*
Y025626D01*
X032562Y025516D02*
X032952D01*
X032562D02*
Y025626D01*
Y025429D02*
X032952D01*
Y025319D02*
Y025429D01*
X032562Y025319D02*
X032952D01*
X032562D02*
Y025429D01*
Y025232D02*
X032952D01*
Y025122D02*
Y025232D01*
X032562Y025122D02*
X032952D01*
X032562D02*
Y025232D01*
Y025035D02*
X032952D01*
Y024925D02*
Y025035D01*
X032562Y024925D02*
X032952D01*
X032562D02*
Y025035D01*
Y024838D02*
X032952D01*
Y024728D02*
Y024838D01*
X032562Y024728D02*
X032952D01*
X032562D02*
Y024838D01*
Y024642D02*
X032952D01*
Y024532D02*
Y024642D01*
X032562Y024532D02*
X032952D01*
X032562D02*
Y024642D01*
Y024445D02*
X032952D01*
Y024335D02*
Y024445D01*
X032562Y024335D02*
X032952D01*
X032562D02*
Y024445D01*
Y024248D02*
X032952D01*
Y024138D02*
Y024248D01*
X032562Y024138D02*
X032952D01*
X032562D02*
Y024248D01*
Y024051D02*
X032952D01*
Y023941D02*
Y024051D01*
X032562Y023941D02*
X032952D01*
X032562D02*
Y024051D01*
Y023854D02*
X032952D01*
Y023744D02*
Y023854D01*
X032562Y023744D02*
X032952D01*
X032562D02*
Y023854D01*
Y023657D02*
X032952D01*
Y023547D02*
Y023657D01*
X032562Y023547D02*
X032952D01*
X032562D02*
Y023657D01*
X032279Y022875D02*
Y023265D01*
X032169Y022875D02*
X032279D01*
X032169D02*
Y023265D01*
X032279D01*
X032083Y022875D02*
Y023265D01*
X031973Y022875D02*
X032083D01*
X031973D02*
Y023265D01*
X032083D01*
X031886Y022875D02*
Y023265D01*
X031776Y022875D02*
X031886D01*
X031776D02*
Y023265D01*
X031886D01*
X031689Y022875D02*
Y023265D01*
X031579Y022875D02*
X031689D01*
X031579D02*
Y023265D01*
X031689D01*
X031492Y022875D02*
Y023265D01*
X031382Y022875D02*
X031492D01*
X031382D02*
Y023265D01*
X031492D01*
X031295Y022875D02*
Y023265D01*
X031185Y022875D02*
X031295D01*
X031185D02*
Y023265D01*
X031295D01*
X031098Y022875D02*
Y023265D01*
X030988Y022875D02*
X031098D01*
X030988D02*
Y023265D01*
X031098D01*
X030901Y022875D02*
Y023265D01*
X030791Y022875D02*
X030901D01*
X030791D02*
Y023265D01*
X030901D01*
X030705Y022875D02*
Y023265D01*
X030595Y022875D02*
X030705D01*
X030595D02*
Y023265D01*
X030705D01*
X030508Y022875D02*
Y023265D01*
X030398Y022875D02*
X030508D01*
X030398D02*
Y023265D01*
X030508D01*
X030311Y022875D02*
Y023265D01*
X030201Y022875D02*
X030311D01*
X030201D02*
Y023265D01*
X030311D01*
X030114Y022875D02*
Y023265D01*
X030004Y022875D02*
X030114D01*
X030004D02*
Y023265D01*
X030114D01*
D131*
X024477Y026405D02*
G03*
X024717Y026405I00012J0D01*
G01*
X034095Y016655D02*
G03*
X034095Y016415I0J-00012D01*
G01*
D132*
X002062Y022598D02*
G03*
X002062Y022205I0J-000197D01*
G01*
Y02063D02*
G03*
X002062Y020236I0J-000197D01*
G01*
Y024567D02*
G03*
X002062Y024173I0J-000197D01*
G01*
X040207Y037697D02*
X040738D01*
X040207Y038524D02*
X040738D01*
X040207Y037697D02*
Y038524D01*
X040738Y037697D02*
Y038524D01*
X02253Y035693D02*
X028998D01*
X02253D02*
Y039315D01*
X028998D01*
Y035693D02*
Y039315D01*
X015663Y035693D02*
X022132D01*
X015663D02*
Y039315D01*
X022132D01*
Y035693D02*
Y039315D01*
X000108Y015317D02*
X00373D01*
X000108Y011848D02*
Y015317D01*
Y011848D02*
X00373D01*
Y015317D01*
X000105Y0189D02*
X003727D01*
X000105Y015431D02*
Y0189D01*
Y015431D02*
X003727D01*
Y0189D01*
X016136Y004203D02*
X022604D01*
Y000581D02*
Y004203D01*
X016136Y000581D02*
X022604D01*
X016136D02*
Y004203D01*
X009394D02*
X015862D01*
Y000581D02*
Y004203D01*
X009394Y000581D02*
X015862D01*
X009394D02*
Y004203D01*
X015134Y010532D02*
X018646D01*
X018646Y006634D02*
Y010532D01*
X015134Y006634D02*
X018646D01*
X015134D02*
Y010532D01*
X018874D02*
X022386D01*
X022386Y006634D02*
Y010532D01*
X018874Y006634D02*
X022386D01*
X018874D02*
Y010532D01*
X002416Y019213D02*
X002515Y019449D01*
X00279D02*
X002889Y019213D01*
X002416D02*
X002889D01*
X000093Y019449D02*
X002515D01*
X00279D02*
X003637D01*
Y025354D01*
X000093Y019449D02*
Y025354D01*
X002751Y022146D02*
X003637D01*
X002751Y022657D02*
X003637D01*
X002045Y022206D02*
X002751Y022146D01*
X002045Y022597D02*
X002751Y022657D01*
X002045Y020628D02*
X002751Y020689D01*
X002045Y020238D02*
X002751Y020177D01*
Y020689D02*
X003637D01*
X002751Y020177D02*
X003637D01*
X000743Y025354D02*
X003637D01*
X000093D02*
X000467D01*
X000369Y025591D02*
X000467Y025354D01*
X000369Y025591D02*
X000841D01*
X000743Y025354D02*
X000841Y025591D01*
X002751Y024114D02*
X003637D01*
X002751Y024626D02*
X003637D01*
X002045Y024175D02*
X002751Y024114D01*
X002045Y024565D02*
X002751Y024626D01*
X028012Y023386D02*
Y025748D01*
X026634Y023386D02*
X028012D01*
X026634D02*
Y025748D01*
X028012D01*
X035974Y023583D02*
Y025945D01*
X034596Y023583D02*
X035974D01*
X034596D02*
Y025945D01*
X035974D01*
X03329Y025394D02*
X033822D01*
X03329Y024567D02*
X033822D01*
Y025394D01*
X03329Y024567D02*
Y025394D01*
X00123Y035217D02*
X001762D01*
X00123Y036043D02*
X001762D01*
X00123Y035217D02*
Y036043D01*
X001762Y035217D02*
Y036043D01*
X002096Y035197D02*
X002628D01*
X002096Y036024D02*
X002628D01*
X002096Y035197D02*
Y036024D01*
X002628Y035197D02*
Y036024D01*
X002963Y035197D02*
X003494D01*
X002963Y036024D02*
X003494D01*
X002963Y035197D02*
Y036024D01*
X003494Y035197D02*
Y036024D01*
X00375Y035177D02*
X004281D01*
X00375Y036004D02*
X004281D01*
X00375Y035177D02*
Y036004D01*
X004281Y035177D02*
Y036004D01*
X004783Y030118D02*
Y03248D01*
X006161D01*
Y030118D02*
Y03248D01*
X004783Y030118D02*
X006161D01*
X00187D02*
Y03248D01*
X003248D01*
Y030118D02*
Y03248D01*
X00187Y030118D02*
X003248D01*
X008691Y03122D02*
Y031752D01*
X009518Y03122D02*
Y031752D01*
X008691D02*
X009518D01*
X008691Y03122D02*
X009518D01*
X008691Y030512D02*
Y031043D01*
X009518Y030512D02*
Y031043D01*
X008691D02*
X009518D01*
X008691Y030512D02*
X009518D01*
X038366Y006063D02*
Y008425D01*
X036988Y006063D02*
X038366D01*
X036988D02*
Y008425D01*
X038366D01*
X043917Y003514D02*
Y004045D01*
X043091Y003514D02*
Y004045D01*
Y003514D02*
X043917D01*
X043091Y004045D02*
X043917D01*
X045551Y002687D02*
Y003219D01*
X044724Y002687D02*
Y003219D01*
Y002687D02*
X045551D01*
X044724Y003219D02*
X045551D01*
X042894Y002687D02*
Y003219D01*
X04372Y002687D02*
Y003219D01*
X042894D02*
X04372D01*
X042894Y002687D02*
X04372D01*
M02*
