G04*
G04 #@! TF.GenerationSoftware,Altium Limited,Altium Designer,18.1.6 (161)*
G04*
G04 Layer_Color=65535*
%FSTAX24Y24*%
%MOIN*%
G70*
G01*
G75*
%ADD10C,0.0200*%
%ADD11C,0.0080*%
%ADD12C,0.0098*%
%ADD13C,0.0060*%
%ADD14C,0.0079*%
%ADD15C,0.0158*%
%ADD16C,0.0050*%
%ADD17C,0.0040*%
%ADD18C,0.0111*%
%ADD19C,0.0070*%
%ADD20C,0.0100*%
%ADD21C,0.0250*%
%ADD22C,0.0030*%
G36*
X00553Y038966D02*
X00528Y039216D01*
X00578D01*
X00553Y038966D01*
D02*
G37*
G36*
X042673Y037779D02*
X042523D01*
Y037879D01*
X042673D01*
Y037779D01*
D02*
G37*
G36*
X007084Y037556D02*
X006584D01*
X006834Y037806D01*
X007084Y037556D01*
D02*
G37*
G36*
X041237Y036145D02*
X041137D01*
Y036295D01*
X041237D01*
Y036145D01*
D02*
G37*
G36*
X032309Y029891D02*
X032059Y030141D01*
X032559D01*
X032309Y029891D01*
D02*
G37*
G36*
X030569Y027261D02*
X030069D01*
X030319Y027511D01*
X030569Y027261D01*
D02*
G37*
G36*
X006219Y027103D02*
X005719D01*
X005968Y027353D01*
X006219Y027103D01*
D02*
G37*
G36*
X020014Y027071D02*
X019514D01*
X019764Y027321D01*
X020014Y027071D01*
D02*
G37*
G36*
X001006Y026864D02*
X000506D01*
X000756Y027114D01*
X001006Y026864D01*
D02*
G37*
G36*
X030921Y026655D02*
X030771D01*
Y026755D01*
X030921D01*
Y026655D01*
D02*
G37*
G36*
X003024Y025725D02*
X002524D01*
X002774Y025975D01*
X003024Y025725D01*
D02*
G37*
G36*
X000933D02*
X000433D01*
X000683Y025975D01*
X000933Y025725D01*
D02*
G37*
G36*
X036517Y02561D02*
X036267Y02536D01*
Y02586D01*
X036517Y02561D01*
D02*
G37*
G36*
X033212Y025299D02*
X033112D01*
Y025449D01*
X033212D01*
Y025299D01*
D02*
G37*
G36*
X029172Y024708D02*
X029072D01*
Y024858D01*
X029172D01*
Y024708D01*
D02*
G37*
G36*
X036832Y023543D02*
X036582Y023293D01*
Y023793D01*
X036832Y023543D01*
D02*
G37*
G36*
X030725Y022615D02*
X030575D01*
Y022715D01*
X030725D01*
Y022615D01*
D02*
G37*
G36*
X027748Y020804D02*
X027248D01*
X027498Y021054D01*
X027748Y020804D01*
D02*
G37*
G36*
X02936Y01887D02*
X02921D01*
Y01897D01*
X02936D01*
Y01887D01*
D02*
G37*
G36*
X007398Y018858D02*
X007149Y018608D01*
Y019108D01*
X007398Y018858D01*
D02*
G37*
G36*
X046502Y015425D02*
X046252Y015675D01*
X046752D01*
X046502Y015425D01*
D02*
G37*
G36*
X03386Y0141D02*
X03371D01*
Y0142D01*
X03386D01*
Y0141D01*
D02*
G37*
G36*
X010416Y013474D02*
X010166Y013724D01*
X010416Y013974D01*
Y013474D01*
D02*
G37*
G36*
X039164Y012953D02*
X038914Y012703D01*
Y013203D01*
X039164Y012953D01*
D02*
G37*
G36*
X010495Y011299D02*
X010245Y011549D01*
X010495Y011799D01*
Y011299D01*
D02*
G37*
G36*
X009078Y01126D02*
X008828Y01151D01*
X009078Y01176D01*
Y01126D01*
D02*
G37*
G36*
X026723Y010118D02*
X026473Y009868D01*
Y010368D01*
X026723Y010118D01*
D02*
G37*
G36*
X025424Y010104D02*
X025174Y009854D01*
Y010354D01*
X025424Y010104D01*
D02*
G37*
G36*
X022747D02*
X022497Y009854D01*
Y010354D01*
X022747Y010104D01*
D02*
G37*
G36*
X009794D02*
X009544Y009854D01*
Y010354D01*
X009794Y010104D01*
D02*
G37*
G36*
X024125Y010094D02*
X023875Y009844D01*
Y010344D01*
X024125Y010094D01*
D02*
G37*
G36*
X013771Y010061D02*
X013521Y009811D01*
Y010311D01*
X013771Y010061D01*
D02*
G37*
G36*
X012432D02*
X012182Y009811D01*
Y010311D01*
X012432Y010061D01*
D02*
G37*
G36*
X011133Y010055D02*
X010883Y009805D01*
Y010305D01*
X011133Y010055D01*
D02*
G37*
G36*
X028927Y006471D02*
X028929Y006471D01*
X029Y006437D01*
X029Y006437D01*
X029001Y006437D01*
X029059Y006399D01*
X029059Y006399D01*
X02906Y006399D01*
X029139Y006328D01*
X029139Y006328D01*
X029139Y006328D01*
X029202Y00627D01*
X029202Y006269D01*
X029203Y006269D01*
X029265Y006185D01*
X029265Y006185D01*
X029265Y006185D01*
X029299Y006139D01*
X029299Y006139D01*
X029299Y006138D01*
X029328Y006071D01*
X029328Y006071D01*
X029328Y006071D01*
X029349Y006021D01*
X029349Y006021D01*
X02935Y00602D01*
X029375Y005908D01*
X029375Y005908D01*
X029375Y005908D01*
X029391Y005829D01*
X029391Y005828D01*
X029391Y005828D01*
X029404Y005741D01*
X029404Y00574D01*
X029404Y00574D01*
Y005648D01*
X029404Y005648D01*
X029404Y005648D01*
X029395Y005518D01*
X029395Y005518D01*
X029395Y005518D01*
X029387Y00541D01*
X029387Y00541D01*
X029387Y005409D01*
X029379Y005359D01*
X029379Y005359D01*
X029379Y005359D01*
X029362Y005272D01*
X029362Y005272D01*
X029362Y005271D01*
X029352Y005237D01*
X029351Y005237D01*
X029351Y005236D01*
X029323Y005172D01*
X029323Y005172D01*
X029323Y005171D01*
X029287Y005119D01*
X029286Y005119D01*
X029286Y005119D01*
X02923Y005055D01*
X02923Y005054D01*
X029229Y005054D01*
X029216Y005044D01*
X029216Y005011D01*
X029216Y00501D01*
X029216Y005009D01*
X029215Y005008D01*
X029215Y005006D01*
X029214Y005006D01*
X029213Y005005D01*
X029212Y005005D01*
X02921Y005004D01*
X029209Y005004D01*
X029208Y005004D01*
X029104Y005034D01*
X029103Y005034D01*
X029102Y005034D01*
X029048Y005068D01*
X029048Y005068D01*
X029048Y005068D01*
X028952Y005143D01*
X028951Y005144D01*
X028951Y005144D01*
X028867Y005253D01*
X028867Y005253D01*
X028867Y005253D01*
X028829Y00532D01*
X028829Y005321D01*
X028829Y005321D01*
X028791Y005421D01*
X028762Y005496D01*
X028762Y005496D01*
X028762Y005497D01*
X028741Y00558D01*
X028741Y00558D01*
X028741Y00558D01*
X028721Y005663D01*
X028721Y005664D01*
X02872Y005664D01*
X028716Y005739D01*
X028716Y00574D01*
X028716Y00574D01*
Y005898D01*
X028716Y005898D01*
X028716Y005899D01*
X028724Y005994D01*
X028724Y005994D01*
X028724Y005995D01*
X028737Y006107D01*
X028737Y006108D01*
X028737Y006109D01*
X028766Y006188D01*
X028766Y006188D01*
X028766Y006188D01*
X028796Y006263D01*
X028796Y006263D01*
X028796Y006264D01*
X028855Y00636D01*
X028855Y00636D01*
X028855Y00636D01*
X0289Y006426D01*
X028921Y006468D01*
X028923Y006469D01*
X028925Y006471D01*
X028925Y006471D01*
X028925Y006471D01*
X028927Y006471D01*
D02*
G37*
G36*
X028479Y00524D02*
X02848Y00524D01*
X02848Y00524D01*
X028572Y005215D01*
X028572Y005215D01*
X028572Y005215D01*
X028639Y005194D01*
X028639Y005194D01*
X02864Y005194D01*
X028711Y005156D01*
X028712Y005155D01*
X028773Y005123D01*
X028774Y005123D01*
X028774Y005123D01*
X028895Y005043D01*
X028896Y005042D01*
X028896Y005042D01*
X029013Y004892D01*
X029013Y004891D01*
X029014Y004891D01*
X029093Y004762D01*
X029093Y004762D01*
X029093Y004762D01*
X029118Y004721D01*
X029118Y004718D01*
X029118Y004716D01*
X029098Y004579D01*
X029097Y004578D01*
X029097Y004577D01*
X029096Y004576D01*
X029096Y004575D01*
X029095Y004575D01*
X029095Y004574D01*
X029095Y004574D01*
X029094Y004574D01*
X028927Y004495D01*
X028927Y004495D01*
X028926Y004494D01*
X028738Y004453D01*
X028738Y004453D01*
X028737Y004452D01*
X028592Y004448D01*
X028591Y004448D01*
X02859Y004448D01*
X028415Y004473D01*
X028415Y004473D01*
X028415Y004473D01*
X028302Y004507D01*
X028302Y004507D01*
X028301D01*
X028231Y004536D01*
X02823Y004537D01*
X028229Y004537D01*
X028179Y004574D01*
X028179Y004574D01*
X028179Y004575D01*
X0281Y004637D01*
X0281Y004638D01*
X028099Y004638D01*
X028037Y004705D01*
X028036Y004705D01*
X028036Y004706D01*
X027932Y004885D01*
X027931Y004885D01*
X027931Y004885D01*
X027881Y004989D01*
X027881Y00499D01*
X027881Y00499D01*
X027852Y00506D01*
X027852Y005062D01*
X027852Y005064D01*
X027852Y005065D01*
X027852Y005065D01*
X027853Y005067D01*
X027855Y005068D01*
X027963Y005139D01*
X027963Y005139D01*
X027963Y00514D01*
X028084Y005202D01*
X028085Y005202D01*
X028085Y005202D01*
X02816Y005227D01*
X02816Y005227D01*
X02816Y005227D01*
X028219Y005244D01*
X028219Y005244D01*
X02822Y005244D01*
X028295Y005253D01*
X028295Y005252D01*
X028296Y005253D01*
X028479Y00524D01*
D02*
G37*
G36*
X029926Y005199D02*
X029926Y0052D01*
X030026Y005183D01*
X030027Y005183D01*
X030027Y005183D01*
X030118Y005162D01*
X030119Y005161D01*
X03012Y005161D01*
X030186Y005132D01*
X030186Y005132D01*
X030186D01*
X030253Y005103D01*
X030253Y005103D01*
X030254Y005102D01*
X030337Y005044D01*
X030338Y005042D01*
X03034Y005041D01*
X03034Y00504D01*
X03034Y00504D01*
X03034Y005038D01*
X030339Y005036D01*
X030323Y005003D01*
X030298Y004941D01*
X030298Y004941D01*
X030298Y00494D01*
X03026Y004865D01*
X03026Y004865D01*
X03026Y004865D01*
X030214Y004774D01*
X030214Y004773D01*
X030214Y004773D01*
X030164Y00471D01*
X030164Y00471D01*
X030164Y00471D01*
X030114Y004651D01*
X030113Y004651D01*
X030113Y00465D01*
X030034Y004592D01*
X030033Y004592D01*
X030033Y004592D01*
X029917Y004517D01*
X029916Y004517D01*
X029915Y004516D01*
X029815Y004479D01*
X029815Y004479D01*
X029815Y004479D01*
X029761Y004462D01*
X02976Y004462D01*
X029759Y004462D01*
X029655Y004453D01*
X029655Y004454D01*
X029654Y004453D01*
X029458Y004474D01*
X029458Y004474D01*
X029458Y004474D01*
X02937Y004487D01*
X02937Y004487D01*
X02937Y004487D01*
X029307Y004504D01*
X029307Y004504D01*
X029307Y004504D01*
X029257Y00452D01*
X029256Y004521D01*
X029255Y004521D01*
X029185Y004563D01*
X029184Y004563D01*
X029184Y004564D01*
X029183Y004564D01*
X029183Y004564D01*
X029183Y004566D01*
X029182Y004567D01*
X029182Y004567D01*
X029182Y004568D01*
X029182Y004569D01*
X029182Y004569D01*
X029202Y004698D01*
X029203Y004699D01*
X029203Y0047D01*
X029274Y004838D01*
X029274Y004838D01*
X029274Y004838D01*
X029324Y004913D01*
X029325Y004914D01*
X029325Y004914D01*
X029395Y004984D01*
X029396Y004985D01*
X029396Y004985D01*
X029484Y005057D01*
X029484Y005057D01*
X029484Y005057D01*
X029494Y005063D01*
X029494Y005064D01*
X029495Y005064D01*
X029515Y005076D01*
X029515Y005076D01*
X029515Y005076D01*
X029536Y005088D01*
X029536Y005088D01*
X029536Y005088D01*
X029558Y005098D01*
X029558Y005098D01*
X029558Y005098D01*
X029569Y005103D01*
X029639Y005136D01*
X029639Y005136D01*
X02964Y005136D01*
X029731Y005174D01*
X029732Y005174D01*
X029732Y005174D01*
X029812Y005191D01*
X029812Y005191D01*
X029813Y005191D01*
X029925Y0052D01*
X029926Y005199D01*
D02*
G37*
G36*
X027962Y004374D02*
X027963Y004374D01*
X028134Y004362D01*
X028134Y004361D01*
X028135Y004361D01*
X028268Y004324D01*
X028268Y004324D01*
X028269Y004324D01*
X028448Y004249D01*
X028448Y004248D01*
X028449Y004248D01*
X028536Y004198D01*
X028537Y004198D01*
X028537Y004198D01*
X028587Y004152D01*
X028588Y004151D01*
X028588Y004151D01*
X02863Y004092D01*
X02863Y004092D01*
X02863Y004092D01*
X02868Y004017D01*
X02868Y004017D01*
X02868Y004017D01*
X028763Y003888D01*
X028763Y003888D01*
X028764Y003887D01*
X028789Y003837D01*
X028818Y003779D01*
X028818Y003778D01*
X028819Y003776D01*
Y00376D01*
X028818Y003758D01*
X028818Y003757D01*
X028769Y003634D01*
X028769Y003633D01*
X028769Y003633D01*
X028768Y003632D01*
X028768Y003632D01*
X028767Y003631D01*
X028766Y00363D01*
X028765Y00363D01*
X028765Y00363D01*
X028689Y003612D01*
X028635Y003595D01*
X028635Y003595D01*
X028634Y003595D01*
X028555Y003578D01*
X028555Y003578D01*
X028555Y003578D01*
X028447Y003557D01*
X028447Y003557D01*
X028447Y003557D01*
X028351Y003541D01*
X02835Y003541D01*
X02835Y00354D01*
X028258D01*
X028258Y003541D01*
X028257Y00354D01*
X028166Y003549D01*
X028165Y003549D01*
X028165Y003549D01*
X028094Y003566D01*
X028094Y003566D01*
X028094Y003566D01*
X027994Y003595D01*
X027993Y003596D01*
X027993Y003596D01*
X02788Y003658D01*
X02788Y003658D01*
X02788Y003658D01*
X027821Y003696D01*
X027821Y003696D01*
X02782Y003697D01*
X027703Y003817D01*
X027703Y003817D01*
X027703Y003817D01*
X027633Y003892D01*
X027633Y003893D01*
X027633Y003893D01*
X027587Y003947D01*
X027586Y003948D01*
X027586Y003948D01*
X027552Y00401D01*
X027486Y004127D01*
X027486Y004127D01*
X027486Y004127D01*
X027452Y00419D01*
X027452Y004192D01*
X027452Y004194D01*
X027452Y004194D01*
X027452Y004195D01*
X027453Y004196D01*
X027454Y004198D01*
X027571Y004277D01*
X027572Y004277D01*
X027572Y004278D01*
X027647Y004311D01*
X027648Y004311D01*
X027648Y004311D01*
X027744Y004341D01*
X027744Y004341D01*
X027744Y004341D01*
X027831Y004366D01*
X027832Y004366D01*
X027833Y004366D01*
X027962Y004374D01*
X027962Y004374D01*
D02*
G37*
G36*
X029702Y004225D02*
X029703Y004225D01*
X029782Y004217D01*
X029783Y004216D01*
X029783Y004216D01*
X029858Y004196D01*
X030008Y004158D01*
X030009Y004158D01*
X030009D01*
X030059Y004137D01*
X030059Y004137D01*
X03006Y004137D01*
X030172Y004079D01*
X030172Y004078D01*
X030173Y004078D01*
X030273Y004012D01*
X030273Y004011D01*
X030273Y004011D01*
X030315Y003978D01*
X030315Y003977D01*
X030317Y003975D01*
X030317Y003974D01*
X030317Y003974D01*
X030317Y003972D01*
X030317Y003971D01*
X030288Y003896D01*
X030287Y003895D01*
X030287Y003895D01*
X030241Y003807D01*
X030241Y003807D01*
X030241Y003807D01*
X030208Y003745D01*
X030208Y003745D01*
X030208Y003744D01*
X03012Y003619D01*
X03012Y003619D01*
X03012Y003618D01*
X030061Y00356D01*
X030061Y00356D01*
X03006Y003559D01*
X029994Y003513D01*
X029993Y003513D01*
X029993Y003513D01*
X029926Y003479D01*
X029926Y003479D01*
X029926Y003479D01*
X02983Y003434D01*
X02983Y003434D01*
X02983Y003434D01*
X029772Y003409D01*
X029771Y003409D01*
X02977Y003408D01*
X02967Y003392D01*
X02967Y003392D01*
X029669Y003391D01*
X029519Y003387D01*
X029519Y003387D01*
X029519Y003387D01*
X02936Y003395D01*
X02936Y003396D01*
X029359Y003396D01*
X029239Y003421D01*
X029239Y003421D01*
X029238Y003421D01*
X029138Y00345D01*
X029138Y00345D01*
X029137Y00345D01*
X029037Y003496D01*
X029037Y003496D01*
X029037Y003496D01*
X028962Y003542D01*
X028962Y003543D01*
X028961Y003543D01*
X028907Y003584D01*
X028907Y003585D01*
X028906Y003585D01*
X028906Y003586D01*
X028905Y003587D01*
X028905Y003588D01*
X028904Y003589D01*
X028904Y003589D01*
X028904Y00359D01*
X028905Y00359D01*
X028905Y003591D01*
X028984Y003841D01*
X028985Y003843D01*
X028986Y003845D01*
X029011Y003861D01*
X029102Y003969D01*
X029143Y004019D01*
X029144Y004019D01*
X029144Y004019D01*
X029207Y004073D01*
X029207Y004074D01*
X029207Y004074D01*
X029312Y004141D01*
X029312Y004141D01*
X029312Y004141D01*
X0294Y004183D01*
X0294Y004183D01*
X029401Y004183D01*
X029551Y004212D01*
X029552Y004212D01*
X029552Y004213D01*
X029702Y004225D01*
X029702Y004225D01*
D02*
G37*
G36*
X041654Y003277D02*
X041404Y003527D01*
X041904D01*
X041654Y003277D01*
D02*
G37*
D10*
X045367Y03362D02*
G03*
X045367Y03362I-00015J0D01*
G01*
D11*
X038617Y030089D02*
G03*
X038617Y030089I-002574J0D01*
G01*
D12*
X039949Y037731D02*
G03*
X039949Y037731I-000049J0D01*
G01*
D13*
X008025Y021902D02*
G03*
X008025Y021902I-00005J0D01*
G01*
X045167Y03757D02*
X045877D01*
X046662Y03432D02*
X047507D01*
X045167D02*
Y034547D01*
Y03432D02*
X045877D01*
X045167Y037343D02*
Y03757D01*
X046662D02*
X047507D01*
Y03432D02*
Y03757D01*
X038478Y035696D02*
X038553D01*
X037273D02*
X037349D01*
X037273D02*
Y037256D01*
X038478D02*
X038553D01*
Y035696D02*
Y037256D01*
X037273D02*
X037349D01*
X041367Y035579D02*
Y035853D01*
Y037649D02*
X04164D01*
X043437Y037376D02*
Y037649D01*
Y035579D02*
Y035853D01*
X041367Y035579D02*
X04164D01*
X041367Y037376D02*
Y037649D01*
X043163D02*
X043437D01*
X043163Y035579D02*
X043437D01*
X005924Y020246D02*
X006674D01*
X005924Y020708D02*
Y021024D01*
Y021486D02*
X006674D01*
X00875Y021343D02*
Y021742D01*
X0081Y020968D02*
Y021236D01*
Y020462D02*
X00875D01*
Y020861D01*
X0081Y021742D02*
X00875D01*
X034021Y01499D02*
X034145D01*
X028925D02*
Y01808D01*
Y01499D02*
X029049D01*
X034145D02*
Y01808D01*
X034021D02*
X034145D01*
X028925D02*
X029049D01*
X01674Y01188D02*
Y011955D01*
Y01316D02*
X0183D01*
X01674Y013084D02*
Y01316D01*
Y01188D02*
X0183D01*
Y011955D01*
Y013084D02*
Y01316D01*
X02078Y015801D02*
Y015876D01*
X01922Y014596D02*
X02078D01*
Y014672D01*
X01922Y015876D02*
X02078D01*
X01922Y015801D02*
Y015876D01*
Y014596D02*
Y014672D01*
X029672Y023215D02*
Y023436D01*
Y026155D02*
X029893D01*
X032612Y025934D02*
Y026155D01*
Y023215D02*
Y023436D01*
X029672Y023215D02*
X029893D01*
X029672Y025934D02*
Y026155D01*
X03239D02*
X032612D01*
X03239Y023215D02*
X032612D01*
X016763Y007785D02*
Y007804D01*
X016782Y007842D01*
X016801Y007861D01*
X016839Y00788D01*
X016915D01*
X016954Y007861D01*
X016973Y007842D01*
X016992Y007804D01*
Y007766D01*
X016973Y007728D01*
X016935Y007671D01*
X016744Y00748D01*
X017011D01*
X015799Y007804D02*
X015837Y007823D01*
X015894Y00788D01*
Y00748D01*
X015689Y009691D02*
X015651Y009672D01*
X015613Y009634D01*
X015594Y009596D01*
X015575Y009539D01*
Y009444D01*
X015594Y009387D01*
X015613Y009348D01*
X015651Y00931D01*
X015689Y009291D01*
X015765D01*
X015803Y00931D01*
X015841Y009348D01*
X01586Y009387D01*
X015879Y009444D01*
Y009539D01*
X01586Y009596D01*
X015841Y009634D01*
X015803Y009672D01*
X015765Y009691D01*
X015689D01*
X015973D02*
Y009291D01*
Y009691D02*
X016239Y009291D01*
Y009691D02*
Y009291D01*
X017782Y00788D02*
X017992D01*
X017877Y007728D01*
X017935D01*
X017973Y007709D01*
X017992Y00769D01*
X018011Y007633D01*
Y007595D01*
X017992Y007537D01*
X017954Y007499D01*
X017896Y00748D01*
X017839D01*
X017782Y007499D01*
X017763Y007518D01*
X017744Y007556D01*
X020503Y007785D02*
Y007804D01*
X020522Y007842D01*
X020541Y007861D01*
X020579Y00788D01*
X020656D01*
X020694Y007861D01*
X020713Y007842D01*
X020732Y007804D01*
Y007766D01*
X020713Y007728D01*
X020675Y007671D01*
X020484Y00748D01*
X020751D01*
X019539Y007804D02*
X019577Y007823D01*
X019635Y00788D01*
Y00748D01*
X019429Y009691D02*
X019391Y009672D01*
X019353Y009634D01*
X019334Y009596D01*
X019315Y009539D01*
Y009444D01*
X019334Y009387D01*
X019353Y009348D01*
X019391Y00931D01*
X019429Y009291D01*
X019505D01*
X019543Y00931D01*
X019582Y009348D01*
X019601Y009387D01*
X01962Y009444D01*
Y009539D01*
X019601Y009596D01*
X019582Y009634D01*
X019543Y009672D01*
X019505Y009691D01*
X019429D01*
X019713D02*
Y009291D01*
Y009691D02*
X01998Y009291D01*
Y009691D02*
Y009291D01*
X021522Y00788D02*
X021732D01*
X021618Y007728D01*
X021675D01*
X021713Y007709D01*
X021732Y00769D01*
X021751Y007633D01*
Y007595D01*
X021732Y007537D01*
X021694Y007499D01*
X021637Y00748D01*
X021579D01*
X021522Y007499D01*
X021503Y007518D01*
X021484Y007556D01*
D14*
X046732Y010276D02*
G03*
X046732Y010276I-000039J0D01*
G01*
X03955Y034911D02*
X03985D01*
X03954Y037451D02*
X03986D01*
X03889Y034921D02*
Y037451D01*
X03986Y034911D02*
Y037451D01*
X03889Y034921D02*
X039119D01*
X03889Y037451D02*
X039119D01*
X023746Y035693D02*
X024781D01*
X025246D02*
X026281D01*
X026746D02*
X027482D01*
X028998D02*
Y039315D01*
X02253D02*
X028998D01*
X02253Y035693D02*
Y039315D01*
X028545Y035693D02*
X028998D01*
X022529D02*
X023281D01*
X01688D02*
X017915D01*
X01838D02*
X019415D01*
X01988D02*
X020616D01*
X022132D02*
Y039315D01*
X015663D02*
X022132D01*
X015663Y035693D02*
Y039315D01*
X021679Y035693D02*
X022132D01*
X015663D02*
X016415D01*
X00373Y011848D02*
Y0126D01*
Y014864D02*
Y015317D01*
X000108Y011848D02*
X00373D01*
X000108D02*
Y015317D01*
X00373D01*
Y013065D02*
Y013801D01*
X003727Y015431D02*
Y016183D01*
Y018447D02*
Y0189D01*
X000105Y015431D02*
X003727D01*
X000105D02*
Y0189D01*
X003727D01*
Y016648D02*
Y017384D01*
X020352Y004203D02*
X021388D01*
X018852D02*
X019888D01*
X017652D02*
X018388D01*
X016136Y000581D02*
Y004203D01*
Y000581D02*
X022604D01*
Y004203D01*
X016136D02*
X016589D01*
X021852D02*
X022604D01*
X01361D02*
X014646D01*
X01211D02*
X013146D01*
X010909D02*
X011646D01*
X009394Y000581D02*
Y004203D01*
Y000581D02*
X015862D01*
Y004203D01*
X009394D02*
X009846D01*
X01511D02*
X015862D01*
X015094Y010551D02*
X018685D01*
X015094Y006614D02*
Y010551D01*
Y006614D02*
X018685D01*
Y010551D01*
X018835D02*
X022425D01*
X018835Y006614D02*
Y010551D01*
Y006614D02*
X022425D01*
Y010551D01*
X000093Y019449D02*
Y025354D01*
X003637Y019449D02*
Y025354D01*
X00279Y019449D02*
X003637D01*
X000093D02*
X002515D01*
X002416Y019213D02*
X002889D01*
X00279Y019449D02*
X002889Y019213D01*
X002416D02*
X002515Y019449D01*
X000743Y025354D02*
X000841Y025591D01*
X000369D02*
X000841D01*
X000369D02*
X000467Y025354D01*
X000093D02*
X000467D01*
X000743D02*
X003637D01*
X026634Y023386D02*
Y025748D01*
X026909D01*
X026634Y023386D02*
X026909D01*
X027736D02*
X028012D01*
X027736Y025748D02*
X028012D01*
Y023386D02*
Y025748D01*
X034596Y023583D02*
Y025945D01*
X034872D01*
X034596Y023583D02*
X034872D01*
X035699D02*
X035974D01*
X035699Y025945D02*
X035974D01*
Y023583D02*
Y025945D01*
X006161Y030118D02*
Y03248D01*
X005886Y030118D02*
X006161D01*
X005886Y03248D02*
X006161D01*
X004783D02*
X005059D01*
X004783Y030118D02*
X005059D01*
X004783D02*
Y03248D01*
X003248Y030118D02*
Y03248D01*
X002972Y030118D02*
X003248D01*
X002972Y03248D02*
X003248D01*
X00187D02*
X002146D01*
X00187Y030118D02*
X002146D01*
X00187D02*
Y03248D01*
X036988Y006063D02*
Y008425D01*
X037264D01*
X036988Y006063D02*
X037264D01*
X038091D02*
X038366D01*
X038091Y008425D02*
X038366D01*
Y006063D02*
Y008425D01*
D15*
X027561Y002712D02*
X027851Y002816D01*
X028074Y002917D01*
X028399Y003117D01*
X028516Y003213D01*
X02867Y003359D01*
X028741Y003451D01*
X02882Y003567D01*
X028891Y003738D01*
X029016Y004092D01*
X029028Y004146D01*
X029066Y004313D01*
X029103Y004484D01*
X029126Y004584D01*
X029134Y004688D01*
X029142Y004792D01*
X029147Y004884D01*
X029159Y005225D01*
D16*
X031019Y027521D02*
X031669D01*
X031819Y027671D01*
X029819Y027721D02*
Y028421D01*
Y027721D02*
X030019Y027521D01*
X030619D01*
X030769Y027671D01*
X030869D01*
X031019Y027521D01*
X031819Y027671D02*
X031919D01*
X032069Y027521D01*
X032619D01*
X032809Y027711D01*
Y028431D01*
X032619Y028621D02*
X032809Y028431D01*
X032019Y028621D02*
X032619D01*
X031869Y028471D02*
X032019Y028621D01*
X031769Y028471D02*
X031869D01*
X031619Y028621D02*
X031769Y028471D01*
X031019Y028621D02*
X031619D01*
X030869Y028471D02*
X031019Y028621D01*
X030769Y028471D02*
X030869D01*
X030629Y028611D02*
X030769Y028471D01*
X030009Y028611D02*
X030629D01*
X029819Y028421D02*
X030009Y028611D01*
X007469Y018528D02*
X007559Y018438D01*
X007469Y018528D02*
Y019198D01*
X007459Y018098D02*
X007559Y018198D01*
Y018438D01*
X007469Y018528D02*
Y018558D01*
X008328Y018198D02*
X008439Y018088D01*
X008328Y018198D02*
Y018438D01*
X008439Y018548D01*
X007618Y019348D02*
X008309D01*
X007469Y019198D02*
X007618Y019348D01*
X007459Y017558D02*
Y018098D01*
Y017558D02*
X007638Y017378D01*
X008268D01*
X008439Y017548D01*
Y018088D01*
Y018548D02*
Y019218D01*
X008309Y019348D02*
X008439Y019218D01*
X001117Y03316D02*
Y03468D01*
Y03316D02*
X001797D01*
Y03468D01*
X001117D02*
X001797D01*
X002022Y03316D02*
Y03468D01*
Y03316D02*
X002702D01*
Y03468D01*
X002022D02*
X002702D01*
X002849Y033199D02*
Y034719D01*
Y033199D02*
X003529D01*
Y034719D01*
X002849D02*
X003529D01*
X003715Y033194D02*
Y034714D01*
Y033194D02*
X004395D01*
Y034714D01*
X003715D02*
X004395D01*
X044178Y037215D02*
X044848D01*
X044178D02*
Y038755D01*
X044848D01*
Y037215D02*
Y038755D01*
X040142Y035743D02*
X040812D01*
X040142D02*
Y037283D01*
X040812D01*
Y035743D02*
Y037283D01*
X04284Y034237D02*
Y034907D01*
X0413Y034237D02*
X04284D01*
X0413D02*
Y034907D01*
X04284D01*
X042475Y038046D02*
Y038716D01*
X044015D01*
Y038046D02*
Y038716D01*
X042475Y038046D02*
X044015D01*
X046525Y038095D02*
Y038765D01*
X044985Y038095D02*
X046525D01*
X044985D02*
Y038765D01*
X046525D01*
X040822Y03831D02*
Y03881D01*
Y03736D02*
Y03791D01*
X040122Y03831D02*
Y03881D01*
Y03736D02*
Y03791D01*
X040222Y03891D02*
X040722D01*
X040822Y03881D01*
X040122D02*
X040222Y03891D01*
X040122Y03736D02*
X040822D01*
X042397Y038046D02*
Y038726D01*
X040877Y038046D02*
X042397D01*
X040877D02*
Y038726D01*
X042397D01*
X021226Y029079D02*
Y029749D01*
X019686Y029079D02*
X021226D01*
X019686D02*
Y029749D01*
X021226D01*
X037742Y024033D02*
X037872Y023903D01*
Y023233D02*
Y023903D01*
Y022233D02*
Y022773D01*
X037702Y022063D02*
X037872Y022233D01*
X037072Y022063D02*
X037702D01*
X036892Y022243D02*
X037072Y022063D01*
X036892Y022243D02*
Y022783D01*
X036902Y023883D02*
X037052Y024033D01*
X037742D01*
X037762Y023123D02*
X037872Y023233D01*
X037762Y022883D02*
Y023123D01*
Y022883D02*
X037872Y022773D01*
X036902Y023213D02*
Y023243D01*
X036992Y022883D02*
Y023123D01*
X036892Y022783D02*
X036992Y022883D01*
X036902Y023213D02*
Y023883D01*
Y023213D02*
X036992Y023123D01*
X037427Y0261D02*
X037557Y02597D01*
Y0253D02*
Y02597D01*
Y0243D02*
Y02484D01*
X037387Y02413D02*
X037557Y0243D01*
X036757Y02413D02*
X037387D01*
X036577Y02431D02*
X036757Y02413D01*
X036577Y02431D02*
Y02485D01*
X036587Y02595D02*
X036737Y0261D01*
X037427D01*
X037447Y02519D02*
X037557Y0253D01*
X037447Y02495D02*
Y02519D01*
Y02495D02*
X037557Y02484D01*
X036587Y02528D02*
Y02531D01*
X036677Y02495D02*
Y02519D01*
X036577Y02485D02*
X036677Y02495D01*
X036587Y02528D02*
Y02595D01*
Y02528D02*
X036677Y02519D01*
X007649Y019581D02*
Y020261D01*
X009168D01*
Y019581D02*
Y020261D01*
X007649Y019581D02*
X009168D01*
X005664Y019463D02*
Y020133D01*
X007204D01*
Y019463D02*
Y020133D01*
X005664Y019463D02*
X007204D01*
X00717Y021639D02*
Y022308D01*
X00563Y021639D02*
X00717D01*
X00563D02*
Y022308D01*
X00717D01*
X032888Y027648D02*
X033568D01*
X032888D02*
Y029168D01*
X033568D01*
Y027648D02*
Y029168D01*
X007788Y01115D02*
X007918Y01102D01*
X007788Y01115D02*
Y01182D01*
Y01228D02*
Y01282D01*
X007958Y01299D01*
X008588D01*
X008768Y01281D01*
Y01227D02*
Y01281D01*
X008608Y01102D02*
X008758Y01117D01*
X007918Y01102D02*
X008608D01*
X007788Y01182D02*
X007898Y01193D01*
Y01217D01*
X007788Y01228D02*
X007898Y01217D01*
X008758Y01181D02*
Y01184D01*
X008668Y01193D02*
Y01217D01*
X008768Y01227D01*
X008758Y01117D02*
Y01184D01*
X008668Y01193D02*
X008758Y01184D01*
X009205Y011189D02*
X009335Y011059D01*
X009205Y011189D02*
Y011859D01*
Y012319D02*
Y012859D01*
X009375Y013029D01*
X010005D01*
X010185Y012849D01*
Y012309D02*
Y012849D01*
X010025Y011059D02*
X010175Y011209D01*
X009335Y011059D02*
X010025D01*
X009205Y011859D02*
X009315Y011969D01*
Y012209D01*
X009205Y012319D02*
X009315Y012209D01*
X010175Y011849D02*
Y011879D01*
X010085Y011969D02*
Y012209D01*
X010185Y012309D01*
X010175Y011209D02*
Y011879D01*
X010085Y011969D02*
X010175Y011879D01*
X009066Y013414D02*
X009256Y013224D01*
X009066Y013414D02*
Y014034D01*
X009206Y014174D01*
Y014274D01*
X009056Y014424D02*
X009206Y014274D01*
X009056Y014424D02*
Y015024D01*
X009206Y015174D01*
Y015274D01*
X009056Y015424D02*
X009206Y015274D01*
X009056Y015424D02*
Y016024D01*
X009246Y016214D01*
X009966D01*
X010156Y016024D01*
Y015474D02*
Y016024D01*
X010006Y015324D02*
X010156Y015474D01*
X010006Y015224D02*
Y015324D01*
Y014274D02*
X010156Y014424D01*
X010006Y014174D02*
Y014274D01*
Y014174D02*
X010156Y014024D01*
Y013424D02*
Y014024D01*
X009956Y013224D02*
X010156Y013424D01*
X009256Y013224D02*
X009956D01*
X010006Y015224D02*
X010156Y015074D01*
Y014424D02*
Y015074D01*
X014202Y015132D02*
Y015812D01*
X012682Y015132D02*
X014202D01*
X012682D02*
Y015812D01*
X014202D01*
X015861Y015122D02*
Y015802D01*
X014341Y015122D02*
X015861D01*
X014341D02*
Y015802D01*
X015861D01*
X017672Y015093D02*
Y015773D01*
X016152Y015093D02*
X017672D01*
X016152D02*
Y015773D01*
X017672D01*
X013342Y010561D02*
X013532Y010371D01*
Y009751D02*
Y010371D01*
X013392Y009611D02*
X013532Y009751D01*
X013392Y009511D02*
Y009611D01*
Y009511D02*
X013542Y009361D01*
Y008761D02*
Y009361D01*
X013392Y008611D02*
X013542Y008761D01*
X013392Y008511D02*
Y008611D01*
Y008511D02*
X013542Y008361D01*
Y007761D02*
Y008361D01*
X013352Y007571D02*
X013542Y007761D01*
X012632Y007571D02*
X013352D01*
X012442Y007761D02*
X012632Y007571D01*
X012442Y007761D02*
Y008311D01*
X012592Y008461D01*
Y008561D01*
X012442Y009361D02*
X012592Y009511D01*
Y009611D01*
X012442Y009761D02*
X012592Y009611D01*
X012442Y009761D02*
Y010361D01*
X012642Y010561D01*
X013342D01*
X012442Y008711D02*
X012592Y008561D01*
X012442Y008711D02*
Y009361D01*
X014681Y010561D02*
X014871Y010371D01*
Y009751D02*
Y010371D01*
X014731Y009611D02*
X014871Y009751D01*
X014731Y009511D02*
Y009611D01*
Y009511D02*
X014881Y009361D01*
Y008761D02*
Y009361D01*
X014731Y008611D02*
X014881Y008761D01*
X014731Y008511D02*
Y008611D01*
Y008511D02*
X014881Y008361D01*
Y007761D02*
Y008361D01*
X014691Y007571D02*
X014881Y007761D01*
X013971Y007571D02*
X014691D01*
X013781Y007761D02*
X013971Y007571D01*
X013781Y007761D02*
Y008311D01*
X013931Y008461D01*
Y008561D01*
X013781Y009361D02*
X013931Y009511D01*
Y009611D01*
X013781Y009761D02*
X013931Y009611D01*
X013781Y009761D02*
Y010361D01*
X013981Y010561D01*
X014681D01*
X013781Y008711D02*
X013931Y008561D01*
X013781Y008711D02*
Y009361D01*
X02194Y011786D02*
Y012466D01*
X02346D01*
Y011786D02*
Y012466D01*
X02194Y011786D02*
X02346D01*
X020286D02*
Y012466D01*
X021806D01*
Y011786D02*
Y012466D01*
X020286Y011786D02*
X021806D01*
X019384Y011698D02*
X020064D01*
X019384D02*
Y013218D01*
X020064D01*
Y011698D02*
Y013218D01*
X010704Y010604D02*
X010894Y010414D01*
Y009794D02*
Y010414D01*
X010754Y009654D02*
X010894Y009794D01*
X010754Y009554D02*
Y009654D01*
Y009554D02*
X010904Y009404D01*
Y008804D02*
Y009404D01*
X010754Y008654D02*
X010904Y008804D01*
X010754Y008554D02*
Y008654D01*
Y008554D02*
X010904Y008404D01*
Y007804D02*
Y008404D01*
X010714Y007614D02*
X010904Y007804D01*
X009994Y007614D02*
X010714D01*
X009804Y007804D02*
X009994Y007614D01*
X009804Y007804D02*
Y008354D01*
X009954Y008504D01*
Y008604D01*
X009804Y009404D02*
X009954Y009554D01*
Y009654D01*
X009804Y009804D02*
X009954Y009654D01*
X009804Y009804D02*
Y010404D01*
X010004Y010604D01*
X010704D01*
X009804Y008754D02*
X009954Y008604D01*
X009804Y008754D02*
Y009404D01*
X012043Y010555D02*
X012233Y010365D01*
Y009745D02*
Y010365D01*
X012093Y009605D02*
X012233Y009745D01*
X012093Y009505D02*
Y009605D01*
Y009505D02*
X012243Y009355D01*
Y008755D02*
Y009355D01*
X012093Y008605D02*
X012243Y008755D01*
X012093Y008505D02*
Y008605D01*
Y008505D02*
X012243Y008355D01*
Y007755D02*
Y008355D01*
X012053Y007565D02*
X012243Y007755D01*
X011333Y007565D02*
X012053D01*
X011143Y007755D02*
X011333Y007565D01*
X011143Y007755D02*
Y008305D01*
X011293Y008455D01*
Y008555D01*
X011143Y009355D02*
X011293Y009505D01*
Y009605D01*
X011143Y009755D02*
X011293Y009605D01*
X011143Y009755D02*
Y010355D01*
X011343Y010555D01*
X012043D01*
X011143Y008705D02*
X011293Y008555D01*
X011143Y008705D02*
Y009355D01*
X025035Y010594D02*
X025225Y010404D01*
Y009784D02*
Y010404D01*
X025085Y009644D02*
X025225Y009784D01*
X025085Y009544D02*
Y009644D01*
Y009544D02*
X025235Y009394D01*
Y008794D02*
Y009394D01*
X025085Y008644D02*
X025235Y008794D01*
X025085Y008544D02*
Y008644D01*
Y008544D02*
X025235Y008394D01*
Y007794D02*
Y008394D01*
X025045Y007604D02*
X025235Y007794D01*
X024325Y007604D02*
X025045D01*
X024135Y007794D02*
X024325Y007604D01*
X024135Y007794D02*
Y008344D01*
X024285Y008494D01*
Y008594D01*
X024135Y009394D02*
X024285Y009544D01*
Y009644D01*
X024135Y009794D02*
X024285Y009644D01*
X024135Y009794D02*
Y010394D01*
X024335Y010594D01*
X025035D01*
X024135Y008744D02*
X024285Y008594D01*
X024135Y008744D02*
Y009394D01*
X023657Y010604D02*
X023847Y010414D01*
Y009794D02*
Y010414D01*
X023707Y009654D02*
X023847Y009794D01*
X023707Y009554D02*
Y009654D01*
Y009554D02*
X023857Y009404D01*
Y008804D02*
Y009404D01*
X023707Y008654D02*
X023857Y008804D01*
X023707Y008554D02*
Y008654D01*
Y008554D02*
X023857Y008404D01*
Y007804D02*
Y008404D01*
X023667Y007614D02*
X023857Y007804D01*
X022947Y007614D02*
X023667D01*
X022757Y007804D02*
X022947Y007614D01*
X022757Y007804D02*
Y008354D01*
X022907Y008504D01*
Y008604D01*
X022757Y009404D02*
X022907Y009554D01*
Y009654D01*
X022757Y009804D02*
X022907Y009654D01*
X022757Y009804D02*
Y010404D01*
X022957Y010604D01*
X023657D01*
X022757Y008754D02*
X022907Y008604D01*
X022757Y008754D02*
Y009404D01*
X027633Y010618D02*
X027823Y010428D01*
Y009808D02*
Y010428D01*
X027683Y009668D02*
X027823Y009808D01*
X027683Y009568D02*
Y009668D01*
Y009568D02*
X027833Y009418D01*
Y008818D02*
Y009418D01*
X027683Y008668D02*
X027833Y008818D01*
X027683Y008568D02*
Y008668D01*
Y008568D02*
X027833Y008418D01*
Y007818D02*
Y008418D01*
X027643Y007628D02*
X027833Y007818D01*
X026923Y007628D02*
X027643D01*
X026733Y007818D02*
X026923Y007628D01*
X026733Y007818D02*
Y008368D01*
X026883Y008518D01*
Y008618D01*
X026733Y009418D02*
X026883Y009568D01*
Y009668D01*
X026733Y009818D02*
X026883Y009668D01*
X026733Y009818D02*
Y010418D01*
X026933Y010618D01*
X027633D01*
X026733Y008768D02*
X026883Y008618D01*
X026733Y008768D02*
Y009418D01*
X026334Y010604D02*
X026524Y010414D01*
Y009794D02*
Y010414D01*
X026384Y009654D02*
X026524Y009794D01*
X026384Y009554D02*
Y009654D01*
Y009554D02*
X026534Y009404D01*
Y008804D02*
Y009404D01*
X026384Y008654D02*
X026534Y008804D01*
X026384Y008554D02*
Y008654D01*
Y008554D02*
X026534Y008404D01*
Y007804D02*
Y008404D01*
X026344Y007614D02*
X026534Y007804D01*
X025624Y007614D02*
X026344D01*
X025434Y007804D02*
X025624Y007614D01*
X025434Y007804D02*
Y008354D01*
X025584Y008504D01*
Y008604D01*
X025434Y009404D02*
X025584Y009554D01*
Y009654D01*
X025434Y009804D02*
X025584Y009654D01*
X025434Y009804D02*
Y010404D01*
X025634Y010604D01*
X026334D01*
X025434Y008754D02*
X025584Y008604D01*
X025434Y008754D02*
Y009404D01*
X028046Y025265D02*
X028726D01*
Y023745D02*
Y025265D01*
X028046Y023745D02*
X028726D01*
X028046D02*
Y025265D01*
X034808Y026993D02*
Y027673D01*
X033288Y026993D02*
X034808D01*
X033288D02*
Y027673D01*
X034808D01*
X032619Y028791D02*
X032809Y028981D01*
X031999Y028791D02*
X032619D01*
X031859Y028931D02*
X031999Y028791D01*
X031759Y028931D02*
X031859D01*
X031609Y028781D02*
X031759Y028931D01*
X031009Y028781D02*
X031609D01*
X030859Y028931D02*
X031009Y028781D01*
X030759Y028931D02*
X030859D01*
X030609Y028781D02*
X030759Y028931D01*
X030009Y028781D02*
X030609D01*
X029819Y028971D02*
X030009Y028781D01*
X029819Y028971D02*
Y029691D01*
X030009Y029881D01*
X030559D01*
X030709Y029731D01*
X030809D01*
X031609Y029881D02*
X031759Y029731D01*
X031859D01*
X032009Y029881D01*
X032609D01*
X032809Y029681D01*
Y028981D02*
Y029681D01*
X030809Y029731D02*
X030959Y029881D01*
X031609D01*
X026998Y021964D02*
X027188Y022154D01*
X027808D01*
X027948Y022014D01*
X028048D01*
X028198Y022164D01*
X028798D01*
X028948Y022014D01*
X029048D01*
X029198Y022164D01*
X029798D01*
X029988Y021974D01*
Y021254D02*
Y021974D01*
X029798Y021064D02*
X029988Y021254D01*
X029248Y021064D02*
X029798D01*
X029098Y021214D02*
X029248Y021064D01*
X028998Y021214D02*
X029098D01*
X028048D02*
X028198Y021064D01*
X027948Y021214D02*
X028048D01*
X027798Y021064D02*
X027948Y021214D01*
X027198Y021064D02*
X027798D01*
X026998Y021264D02*
X027198Y021064D01*
X026998Y021264D02*
Y021964D01*
X028848Y021064D02*
X028998Y021214D01*
X028198Y021064D02*
X028848D01*
X033206Y02428D02*
Y02478D01*
Y02518D02*
Y02573D01*
X033906Y02428D02*
Y02478D01*
Y02518D02*
Y02573D01*
X033306Y02418D02*
X033806D01*
X033206Y02428D02*
X033306Y02418D01*
X033806D02*
X033906Y02428D01*
X033206Y02573D02*
X033906D01*
X000193Y026885D02*
X000323Y027015D01*
X000993D01*
X001453D02*
X001993D01*
X002163Y026845D01*
Y026215D02*
Y026845D01*
X001983Y026035D02*
X002163Y026215D01*
X001443Y026035D02*
X001983D01*
X000193Y026195D02*
X000343Y026045D01*
X000193Y026195D02*
Y026885D01*
X000993Y027015D02*
X001103Y026905D01*
X001343D01*
X001453Y027015D01*
X000983Y026045D02*
X001013D01*
X001103Y026135D02*
X001343D01*
X001443Y026035D01*
X000343Y026045D02*
X001013D01*
X001103Y026135D01*
X001846Y03583D02*
Y03633D01*
Y03488D02*
Y03543D01*
X001146Y03583D02*
Y03633D01*
Y03488D02*
Y03543D01*
X001246Y03643D02*
X001746D01*
X001846Y03633D01*
X001146D02*
X001246Y03643D01*
X001146Y03488D02*
X001846D01*
X002712Y03581D02*
Y03631D01*
Y03486D02*
Y03541D01*
X002012Y03581D02*
Y03631D01*
Y03486D02*
Y03541D01*
X002112Y03641D02*
X002612D01*
X002712Y03631D01*
X002012D02*
X002112Y03641D01*
X002012Y03486D02*
X002712D01*
X003578Y03581D02*
Y03631D01*
Y03486D02*
Y03541D01*
X002878Y03581D02*
Y03631D01*
Y03486D02*
Y03541D01*
X002978Y03641D02*
X003478D01*
X003578Y03631D01*
X002878D02*
X002978Y03641D01*
X002878Y03486D02*
X003578D01*
X004366Y035791D02*
Y036291D01*
Y034841D02*
Y035391D01*
X003666Y035791D02*
Y036291D01*
Y034841D02*
Y035391D01*
X003766Y036391D02*
X004266D01*
X004366Y036291D01*
X003666D02*
X003766Y036391D01*
X003666Y034841D02*
X004366D01*
X004936Y036259D02*
X005606D01*
Y034719D02*
Y036259D01*
X004936Y034719D02*
X005606D01*
X004936D02*
Y036259D01*
X005469Y028263D02*
X005659Y028453D01*
X006278D01*
X006418Y028313D01*
X006518D01*
X006668Y028463D01*
X007268D01*
X007419Y028313D01*
X007519D01*
X007668Y028463D01*
X008268D01*
X008458Y028273D01*
Y027553D02*
Y028273D01*
X008268Y027363D02*
X008458Y027553D01*
X007718Y027363D02*
X008268D01*
X007569Y027513D02*
X007718Y027363D01*
X007469Y027513D02*
X007569D01*
X006518D02*
X006668Y027363D01*
X006418Y027513D02*
X006518D01*
X006269Y027363D02*
X006418Y027513D01*
X005669Y027363D02*
X006269D01*
X005469Y027563D02*
X005669Y027363D01*
X005469Y027563D02*
Y028263D01*
X007319Y027363D02*
X007469Y027513D01*
X006668Y027363D02*
X007319D01*
X006344Y038716D02*
X006474Y038846D01*
X007144D01*
X007604D02*
X008144D01*
X008314Y038676D01*
Y038046D02*
Y038676D01*
X008134Y037866D02*
X008314Y038046D01*
X007594Y037866D02*
X008134D01*
X006344Y038026D02*
X006494Y037876D01*
X006344Y038026D02*
Y038716D01*
X007144Y038846D02*
X007254Y038736D01*
X007494D01*
X007604Y038846D01*
X007134Y037876D02*
X007164D01*
X007254Y037966D02*
X007494D01*
X007594Y037866D01*
X006494Y037876D02*
X007164D01*
X007254Y037966D01*
X003715Y03131D02*
X004395D01*
X003715D02*
Y03283D01*
X004395D01*
Y03131D02*
Y03283D01*
X000959Y031388D02*
X001639D01*
X000959D02*
Y032908D01*
X001639D01*
Y031388D02*
Y032908D01*
X003804Y029567D02*
X004474D01*
X003804D02*
Y031107D01*
X004474D01*
Y029567D02*
Y031107D01*
X000959Y031186D02*
X001629D01*
Y029646D02*
Y031186D01*
X000959Y029646D02*
X001629D01*
X000959D02*
Y031186D01*
X009304Y031136D02*
X009804D01*
X008354D02*
X008904D01*
X009304Y031836D02*
X009804D01*
X008354D02*
X008904D01*
X009904Y031236D02*
Y031736D01*
X009804Y031136D02*
X009904Y031236D01*
X009804Y031836D02*
X009904Y031736D01*
X008354Y031136D02*
Y031836D01*
X009304Y030428D02*
X009804D01*
X008354D02*
X008904D01*
X009304Y031128D02*
X009804D01*
X008354D02*
X008904D01*
X009904Y030528D02*
Y031028D01*
X009804Y030428D02*
X009904Y030528D01*
X009804Y031128D02*
X009904Y031028D01*
X008354Y030428D02*
Y031128D01*
X040074Y013453D02*
X040264Y013263D01*
Y012643D02*
Y013263D01*
X040124Y012503D02*
X040264Y012643D01*
X040124Y012403D02*
Y012503D01*
Y012403D02*
X040274Y012253D01*
Y011653D02*
Y012253D01*
X040124Y011503D02*
X040274Y011653D01*
X040124Y011403D02*
Y011503D01*
Y011403D02*
X040274Y011253D01*
Y010653D02*
Y011253D01*
X040084Y010463D02*
X040274Y010653D01*
X039364Y010463D02*
X040084D01*
X039174Y010653D02*
X039364Y010463D01*
X039174Y010653D02*
Y011203D01*
X039324Y011353D01*
Y011453D01*
X039174Y012253D02*
X039324Y012403D01*
Y012503D01*
X039174Y012653D02*
X039324Y012503D01*
X039174Y012653D02*
Y013253D01*
X039374Y013453D01*
X040074D01*
X039174Y011603D02*
X039324Y011453D01*
X039174Y011603D02*
Y012253D01*
X041964Y002177D02*
X042154Y002367D01*
X041344Y002177D02*
X041964D01*
X041204Y002317D02*
X041344Y002177D01*
X041104Y002317D02*
X041204D01*
X040954Y002167D02*
X041104Y002317D01*
X040354Y002167D02*
X040954D01*
X040204Y002317D02*
X040354Y002167D01*
X040104Y002317D02*
X040204D01*
X039954Y002167D02*
X040104Y002317D01*
X039354Y002167D02*
X039954D01*
X039164Y002357D02*
X039354Y002167D01*
X039164Y002357D02*
Y003077D01*
X039354Y003267D01*
X039904D01*
X040054Y003117D01*
X040154D01*
X040954Y003267D02*
X041104Y003117D01*
X041204D01*
X041354Y003267D01*
X041954D01*
X042154Y003067D01*
Y002367D02*
Y003067D01*
X040154Y003117D02*
X040304Y003267D01*
X040954D01*
X047013Y004764D02*
X049734D01*
Y009882D01*
X047013D02*
X049734D01*
X038917Y004764D02*
X039286D01*
X038917D02*
Y004936D01*
Y00971D02*
Y009882D01*
X039286D01*
X045895Y00344D02*
Y00412D01*
X044375Y00344D02*
X045895D01*
X044375D02*
Y00412D01*
X045895D01*
X046038Y004123D02*
X046718D01*
Y002603D02*
Y004123D01*
X046038Y002603D02*
X046718D01*
X046038D02*
Y004123D01*
X042804Y00413D02*
X043304D01*
X043704D02*
X044254D01*
X042804Y00343D02*
X043304D01*
X043704D02*
X044254D01*
X042704Y00353D02*
Y00403D01*
X042804Y00413D01*
X042704Y00353D02*
X042804Y00343D01*
X044254D02*
Y00413D01*
X044438Y003303D02*
X044938D01*
X045338D02*
X045888D01*
X044438Y002603D02*
X044938D01*
X045338D02*
X045888D01*
X044338Y002703D02*
Y003203D01*
X044438Y003303D01*
X044338Y002703D02*
X044438Y002603D01*
X045888D02*
Y003303D01*
X041373Y003518D02*
Y004198D01*
X039853Y003518D02*
X041373D01*
X039853D02*
Y004198D01*
X041373D01*
X037327Y005684D02*
X038007D01*
Y004164D02*
Y005684D01*
X037327Y004164D02*
X038007D01*
X037327D02*
Y005684D01*
X043507Y002603D02*
X044007D01*
X042557D02*
X043107D01*
X043507Y003303D02*
X044007D01*
X042557D02*
X043107D01*
X044107Y002703D02*
Y003203D01*
X044007Y002603D02*
X044107Y002703D01*
X044007Y003303D02*
X044107Y003203D01*
X042557Y002603D02*
Y003303D01*
X037317Y004198D02*
X037997D01*
Y002678D02*
Y004198D01*
X037317Y002678D02*
X037997D01*
X037317D02*
Y004198D01*
D17*
X001737Y03382D02*
Y03402D01*
X001187Y03382D02*
Y03402D01*
X002642Y03382D02*
Y03402D01*
X002092Y03382D02*
Y03402D01*
X003469Y033859D02*
Y034059D01*
X002919Y033859D02*
Y034059D01*
X004335Y033854D02*
Y034054D01*
X003785Y033854D02*
Y034054D01*
X044768Y037845D02*
Y038125D01*
X044242Y037845D02*
Y038135D01*
X040732Y036373D02*
Y036653D01*
X040207Y036373D02*
Y036663D01*
X04193Y034827D02*
X04221D01*
X04192Y034301D02*
X04221D01*
X043105Y038126D02*
X043385D01*
X043105Y038652D02*
X043395D01*
X045615Y038685D02*
X045895D01*
X045605Y038159D02*
X045895D01*
X041537Y038656D02*
X041737D01*
X041537Y038106D02*
X041737D01*
X020316Y029669D02*
X020596D01*
X020306Y029144D02*
X020596D01*
X008309Y019651D02*
X008508D01*
X008309Y020201D02*
X008508D01*
X006294Y019543D02*
X006574D01*
X006294Y020069D02*
X006584D01*
X00626Y022229D02*
X00654D01*
X00625Y021703D02*
X00654D01*
X033498Y028308D02*
Y028508D01*
X032948Y028308D02*
Y028508D01*
X013342Y015742D02*
X013542D01*
X013342Y015192D02*
X013542D01*
X015001Y015732D02*
X015201D01*
X015001Y015182D02*
X015201D01*
X016812Y015703D02*
X017012D01*
X016812Y015153D02*
X017012D01*
X0226Y011856D02*
X0228D01*
X0226Y012406D02*
X0228D01*
X020946Y011856D02*
X021146D01*
X020946Y012406D02*
X021146D01*
X019994Y012358D02*
Y012558D01*
X019444Y012358D02*
Y012558D01*
X028116Y024405D02*
Y024605D01*
X028666Y024405D02*
Y024605D01*
X033948Y027603D02*
X034148D01*
X033948Y027053D02*
X034148D01*
X005016Y035349D02*
Y035629D01*
X005541Y035339D02*
Y035629D01*
X004325Y03197D02*
Y03217D01*
X003775Y03197D02*
Y03217D01*
X001569Y032048D02*
Y032248D01*
X001019Y032048D02*
Y032248D01*
X004394Y030197D02*
Y030477D01*
X003868Y030197D02*
Y030487D01*
X001039Y030276D02*
Y030556D01*
X001565Y030266D02*
Y030556D01*
X045035Y00405D02*
X045235D01*
X045035Y0035D02*
X045235D01*
X046108Y003263D02*
Y003463D01*
X046658Y003263D02*
Y003463D01*
X040513Y004128D02*
X040713D01*
X040513Y003578D02*
X040713D01*
X037397Y004824D02*
Y005024D01*
X037947Y004824D02*
Y005024D01*
X037387Y003338D02*
Y003538D01*
X037937Y003338D02*
Y003538D01*
D18*
X035783Y016614D02*
Y020354D01*
Y016614D02*
X037752D01*
Y020354D01*
X035783D02*
X037752D01*
X049528Y026614D02*
Y033701D01*
X039291Y026614D02*
X049528D01*
X039291D02*
Y033701D01*
X049528D01*
X046921Y010472D02*
Y013622D01*
X040425Y010472D02*
X046921D01*
X040425D02*
Y013622D01*
X046921D01*
D19*
X020274Y027471D02*
Y028631D01*
X019204Y027471D02*
X029214D01*
X019204Y028641D02*
X029214D01*
Y027471D02*
Y028641D01*
X019204Y027471D02*
Y028641D01*
X046002Y014125D02*
Y015255D01*
X040952Y014105D02*
X047012D01*
X040952Y015255D02*
X047012D01*
Y014105D02*
Y015255D01*
X040952Y014105D02*
Y015255D01*
X00508Y037916D02*
Y038906D01*
X00203Y037906D02*
Y038906D01*
Y037906D02*
X00603D01*
Y038906D01*
X00203D02*
X00603D01*
X000186Y028474D02*
X005366D01*
X000186Y027254D02*
X005366D01*
X000186D02*
Y028474D01*
X005366Y027254D02*
Y028474D01*
X001246Y027274D02*
Y028454D01*
X003224Y026035D02*
Y027025D01*
X006274Y026035D02*
Y027035D01*
X002274D02*
X006274D01*
X002274Y026035D02*
Y027035D01*
Y026035D02*
X006274D01*
D20*
X05231Y016048D02*
Y021448D01*
X04246D02*
X05231D01*
X04246Y016048D02*
Y021448D01*
Y016048D02*
X05231D01*
X023495Y000887D02*
Y001675D01*
X023889D01*
X02402Y001543D01*
Y001281D01*
X023889Y00115D01*
X023495D01*
X024283Y000887D02*
Y001412D01*
X024545Y001675D01*
X024807Y001412D01*
Y000887D01*
Y001281D01*
X024283D01*
X02507Y001675D02*
Y001543D01*
X025332Y001281D01*
X025595Y001543D01*
Y001675D01*
X025332Y001281D02*
Y000887D01*
X026644Y001675D02*
X026906D01*
X026775D01*
Y000887D01*
X026644D01*
X026906D01*
X0273Y001675D02*
X027825D01*
X027562D01*
Y000887D01*
X029399Y001675D02*
X028874D01*
Y001281D01*
X029137D01*
X028874D01*
Y000887D01*
X030055Y001675D02*
X029793D01*
X029661Y001543D01*
Y001019D01*
X029793Y000887D01*
X030055D01*
X030186Y001019D01*
Y001543D01*
X030055Y001675D01*
X030449Y000887D02*
Y001675D01*
X030842D01*
X030973Y001543D01*
Y001281D01*
X030842Y00115D01*
X030449D01*
X030711D02*
X030973Y000887D01*
X031236Y001675D02*
Y000887D01*
X031498Y00115D01*
X031761Y000887D01*
Y001675D01*
X032023Y000887D02*
Y001412D01*
X032285Y001675D01*
X032548Y001412D01*
Y000887D01*
Y001281D01*
X032023D01*
X03281Y000887D02*
Y001675D01*
X033204D01*
X033335Y001543D01*
Y001281D01*
X033204Y00115D01*
X03281D01*
X033072D02*
X033335Y000887D01*
X033597Y001675D02*
Y000887D01*
X033991D01*
X034122Y001019D01*
Y001543D01*
X033991Y001675D01*
X033597D01*
X028666Y002407D02*
Y002969D01*
X028947D01*
X029041Y002875D01*
Y002688D01*
X028947Y002594D01*
X028666D01*
X029228Y002969D02*
X029415D01*
X029322D01*
Y002407D01*
X029228D01*
X029415D01*
X030072Y002969D02*
X029697D01*
Y002688D01*
X029884D01*
X029697D01*
Y002407D01*
X048972Y021535D02*
X049372D01*
X049572Y021335D01*
X049372Y021136D01*
X048972D01*
X049272D01*
Y021535D01*
X048972Y020936D02*
X049572D01*
X048972Y020536D01*
X049572D01*
Y020336D02*
Y019936D01*
Y020136D01*
X048972D01*
X049572Y019336D02*
Y019736D01*
X048972D01*
Y019336D01*
X049272Y019736D02*
Y019536D01*
X048972Y019136D02*
X049572D01*
X048972Y018736D01*
X049572D01*
Y017937D02*
X048972D01*
X049272D01*
Y017537D01*
X049572D01*
X048972D01*
X049572Y016937D02*
Y017337D01*
X048972D01*
Y016937D01*
X049272Y017337D02*
Y017137D01*
X048972Y016737D02*
X049572D01*
Y016437D01*
X049472Y016337D01*
X049272D01*
X049172Y016437D01*
Y016737D01*
Y016537D02*
X048972Y016337D01*
X049572Y015737D02*
Y016137D01*
X048972D01*
Y015737D01*
X049272Y016137D02*
Y015937D01*
X029893Y028946D02*
Y029546D01*
X030193D01*
X030293Y029446D01*
Y029246D01*
X030193Y029146D01*
X029893D01*
X030893Y028946D02*
X030493D01*
X030893Y029346D01*
Y029446D01*
X030793Y029546D01*
X030593D01*
X030493Y029446D01*
X041241Y038778D02*
Y038278D01*
X041341Y038178D01*
X041541D01*
X041641Y038278D01*
Y038778D01*
X042241D02*
X041841D01*
Y038478D01*
X042041Y038578D01*
X042141D01*
X042241Y038478D01*
Y038278D01*
X042141Y038178D01*
X041941D01*
X041841Y038278D01*
X005516Y022415D02*
Y021916D01*
X005616Y021816D01*
X005816D01*
X005916Y021916D01*
Y022415D01*
X006115Y022315D02*
X006215Y022415D01*
X006415D01*
X006515Y022315D01*
Y022215D01*
X006415Y022115D01*
X006315D01*
X006415D01*
X006515Y022016D01*
Y021916D01*
X006415Y021816D01*
X006215D01*
X006115Y021916D01*
X028822Y019919D02*
Y019419D01*
X028922Y019319D01*
X029122D01*
X029222Y019419D01*
Y019919D01*
X029822Y019319D02*
X029422D01*
X029822Y019719D01*
Y019819D01*
X029722Y019919D01*
X029522D01*
X029422Y019819D01*
X005191Y033649D02*
X005091Y033749D01*
X004891D01*
X004791Y033649D01*
Y033549D01*
X004891Y033449D01*
X005091D01*
X005191Y033349D01*
Y033249D01*
X005091Y033149D01*
X004891D01*
X004791Y033249D01*
X00539Y033749D02*
X00579D01*
Y033649D01*
X00539Y033249D01*
Y033149D01*
X002284Y033644D02*
X002184Y033744D01*
X001984D01*
X001884Y033644D01*
Y033544D01*
X001984Y033444D01*
X002184D01*
X002284Y033344D01*
Y033244D01*
X002184Y033144D01*
X001984D01*
X001884Y033244D01*
X002884Y033744D02*
X002684Y033644D01*
X002484Y033444D01*
Y033244D01*
X002584Y033144D01*
X002784D01*
X002884Y033244D01*
Y033344D01*
X002784Y033444D01*
X002484D01*
X037398Y009593D02*
X037298Y009693D01*
X037098D01*
X036998Y009593D01*
Y009493D01*
X037098Y009393D01*
X037298D01*
X037398Y009293D01*
Y009194D01*
X037298Y009094D01*
X037098D01*
X036998Y009194D01*
X037998Y009693D02*
X037598D01*
Y009393D01*
X037798Y009493D01*
X037898D01*
X037998Y009393D01*
Y009194D01*
X037898Y009094D01*
X037698D01*
X037598Y009194D01*
X019248Y011441D02*
X019148Y011541D01*
X018948D01*
X018848Y011441D01*
Y011341D01*
X018948Y011241D01*
X019148D01*
X019248Y011141D01*
Y011041D01*
X019148Y010941D01*
X018948D01*
X018848Y011041D01*
X019748Y010941D02*
Y011541D01*
X019448Y011241D01*
X019848D01*
X015506Y011439D02*
X015406Y011539D01*
X015206D01*
X015106Y011439D01*
Y011339D01*
X015206Y011239D01*
X015406D01*
X015506Y011139D01*
Y011039D01*
X015406Y010939D01*
X015206D01*
X015106Y011039D01*
X015706Y011439D02*
X015806Y011539D01*
X016006D01*
X016106Y011439D01*
Y011339D01*
X016006Y011239D01*
X015906D01*
X016006D01*
X016106Y011139D01*
Y011039D01*
X016006Y010939D01*
X015806D01*
X015706Y011039D01*
X027043Y026917D02*
X026943Y027017D01*
X026743D01*
X026643Y026917D01*
Y026817D01*
X026743Y026717D01*
X026943D01*
X027043Y026617D01*
Y026517D01*
X026943Y026417D01*
X026743D01*
X026643Y026517D01*
X027643Y026417D02*
X027243D01*
X027643Y026817D01*
Y026917D01*
X027543Y027017D01*
X027343D01*
X027243Y026917D01*
X03501Y027113D02*
X03491Y027213D01*
X03471D01*
X03461Y027113D01*
Y027013D01*
X03471Y026913D01*
X03491D01*
X03501Y026813D01*
Y026713D01*
X03491Y026613D01*
X03471D01*
X03461Y026713D01*
X03521Y026613D02*
X03541D01*
X03531D01*
Y027213D01*
X03521Y027113D01*
X003792Y033159D02*
Y033759D01*
X004092D01*
X004192Y033659D01*
Y033459D01*
X004092Y033359D01*
X003792D01*
X003992D02*
X004192Y033159D01*
X004392Y033659D02*
X004492Y033759D01*
X004692D01*
X004792Y033659D01*
Y033559D01*
X004692Y033459D01*
X004592D01*
X004692D01*
X004792Y033359D01*
Y033259D01*
X004692Y033159D01*
X004492D01*
X004392Y033259D01*
X005392Y033759D02*
X005192Y033659D01*
X004992Y033459D01*
Y033259D01*
X005092Y033159D01*
X005292D01*
X005392Y033259D01*
Y033359D01*
X005292Y033459D01*
X004992D01*
X001034Y033233D02*
Y033833D01*
X001334D01*
X001434Y033733D01*
Y033533D01*
X001334Y033433D01*
X001034D01*
X001234D02*
X001434Y033233D01*
X001634Y033733D02*
X001734Y033833D01*
X001934D01*
X002034Y033733D01*
Y033633D01*
X001934Y033533D01*
X001834D01*
X001934D01*
X002034Y033433D01*
Y033333D01*
X001934Y033233D01*
X001734D01*
X001634Y033333D01*
X002634Y033833D02*
X002234D01*
Y033533D01*
X002434Y033633D01*
X002534D01*
X002634Y033533D01*
Y033333D01*
X002534Y033233D01*
X002334D01*
X002234Y033333D01*
X003791Y035038D02*
Y035638D01*
X004091D01*
X004191Y035538D01*
Y035338D01*
X004091Y035238D01*
X003791D01*
X003991D02*
X004191Y035038D01*
X004391Y035538D02*
X00449Y035638D01*
X00469D01*
X00479Y035538D01*
Y035438D01*
X00469Y035338D01*
X00459D01*
X00469D01*
X00479Y035238D01*
Y035138D01*
X00469Y035038D01*
X00449D01*
X004391Y035138D01*
X00529Y035038D02*
Y035638D01*
X00499Y035338D01*
X00539D01*
X002924Y035047D02*
Y035647D01*
X003224D01*
X003324Y035547D01*
Y035347D01*
X003224Y035247D01*
X002924D01*
X003124D02*
X003324Y035047D01*
X003524Y035547D02*
X003624Y035647D01*
X003824D01*
X003924Y035547D01*
Y035447D01*
X003824Y035347D01*
X003724D01*
X003824D01*
X003924Y035247D01*
Y035147D01*
X003824Y035047D01*
X003624D01*
X003524Y035147D01*
X004124Y035547D02*
X004224Y035647D01*
X004424D01*
X004524Y035547D01*
Y035447D01*
X004424Y035347D01*
X004324D01*
X004424D01*
X004524Y035247D01*
Y035147D01*
X004424Y035047D01*
X004224D01*
X004124Y035147D01*
X002099Y035008D02*
Y035608D01*
X002398D01*
X002498Y035508D01*
Y035308D01*
X002398Y035208D01*
X002099D01*
X002298D02*
X002498Y035008D01*
X002698Y035508D02*
X002798Y035608D01*
X002998D01*
X003098Y035508D01*
Y035408D01*
X002998Y035308D01*
X002898D01*
X002998D01*
X003098Y035208D01*
Y035108D01*
X002998Y035008D01*
X002798D01*
X002698Y035108D01*
X003698Y035008D02*
X003298D01*
X003698Y035408D01*
Y035508D01*
X003598Y035608D01*
X003398D01*
X003298Y035508D01*
X001194Y035D02*
Y0356D01*
X001493D01*
X001593Y0355D01*
Y0353D01*
X001493Y0352D01*
X001194D01*
X001393D02*
X001593Y035D01*
X001793Y0355D02*
X001893Y0356D01*
X002093D01*
X002193Y0355D01*
Y0354D01*
X002093Y0353D01*
X001993D01*
X002093D01*
X002193Y0352D01*
Y0351D01*
X002093Y035D01*
X001893D01*
X001793Y0351D01*
X002393Y035D02*
X002593D01*
X002493D01*
Y0356D01*
X002393Y0355D01*
X040952Y039049D02*
Y039649D01*
X041252D01*
X041352Y039549D01*
Y039349D01*
X041252Y039249D01*
X040952D01*
X041152D02*
X041352Y039049D01*
X041952D02*
X041552D01*
X041952Y039449D01*
Y039549D01*
X041852Y039649D01*
X041652D01*
X041552Y039549D01*
X042152D02*
X042252Y039649D01*
X042452D01*
X042552Y039549D01*
Y039449D01*
X042452Y039349D01*
X042552Y039249D01*
Y039149D01*
X042452Y039049D01*
X042252D01*
X042152Y039149D01*
Y039249D01*
X042252Y039349D01*
X042152Y039449D01*
Y039549D01*
X042252Y039349D02*
X042452D01*
X037388Y004522D02*
Y005122D01*
X037688D01*
X037788Y005022D01*
Y004822D01*
X037688Y004722D01*
X037388D01*
X037588D02*
X037788Y004522D01*
X037988D02*
X038188D01*
X038088D01*
Y005122D01*
X037988Y005022D01*
X038488Y004622D02*
X038588Y004522D01*
X038788D01*
X038888Y004622D01*
Y005022D01*
X038788Y005122D01*
X038588D01*
X038488Y005022D01*
Y004922D01*
X038588Y004822D01*
X038888D01*
X037406Y006011D02*
Y006611D01*
X037706D01*
X037806Y006511D01*
Y006311D01*
X037706Y006211D01*
X037406D01*
X037606D02*
X037806Y006011D01*
X038006D02*
X038206D01*
X038106D01*
Y006611D01*
X038006Y006511D01*
X038506D02*
X038606Y006611D01*
X038806D01*
X038906Y006511D01*
Y006411D01*
X038806Y006311D01*
X038906Y006211D01*
Y006111D01*
X038806Y006011D01*
X038606D01*
X038506Y006111D01*
Y006211D01*
X038606Y006311D01*
X038506Y006411D01*
Y006511D01*
X038606Y006311D02*
X038806D01*
X039923Y00452D02*
Y00512D01*
X040223D01*
X040323Y00502D01*
Y00482D01*
X040223Y00472D01*
X039923D01*
X040123D02*
X040323Y00452D01*
X040523D02*
X040723D01*
X040623D01*
Y00512D01*
X040523Y00502D01*
X041023Y00512D02*
X041423D01*
Y00502D01*
X041023Y00462D01*
Y00452D01*
X046114Y004453D02*
Y005052D01*
X046414D01*
X046514Y004952D01*
Y004752D01*
X046414Y004652D01*
X046114D01*
X046314D02*
X046514Y004453D01*
X046714D02*
X046914D01*
X046814D01*
Y005052D01*
X046714Y004952D01*
X047614Y005052D02*
X047414Y004952D01*
X047214Y004752D01*
Y004552D01*
X047314Y004453D01*
X047514D01*
X047614Y004552D01*
Y004652D01*
X047514Y004752D01*
X047214D01*
X044454Y004446D02*
Y005046D01*
X044754D01*
X044854Y004946D01*
Y004746D01*
X044754Y004646D01*
X044454D01*
X044654D02*
X044854Y004446D01*
X045054D02*
X045253D01*
X045153D01*
Y005046D01*
X045054Y004946D01*
X045953Y005046D02*
X045553D01*
Y004746D01*
X045753Y004846D01*
X045853D01*
X045953Y004746D01*
Y004546D01*
X045853Y004446D01*
X045653D01*
X045553Y004546D01*
X032963Y029496D02*
Y030095D01*
X033263D01*
X033363Y029996D01*
Y029796D01*
X033263Y029696D01*
X032963D01*
X033163D02*
X033363Y029496D01*
X033563D02*
X033763D01*
X033663D01*
Y030095D01*
X033563Y029996D01*
X034363Y029496D02*
Y030095D01*
X034063Y029796D01*
X034463D01*
X007725Y020586D02*
Y021185D01*
X008025D01*
X008125Y021085D01*
Y020885D01*
X008025Y020785D01*
X007725D01*
X007925D02*
X008125Y020586D01*
X008325D02*
X008525D01*
X008425D01*
Y021185D01*
X008325Y021085D01*
X008825D02*
X008925Y021185D01*
X009125D01*
X009225Y021085D01*
Y020985D01*
X009125Y020885D01*
X009025D01*
X009125D01*
X009225Y020785D01*
Y020685D01*
X009125Y020586D01*
X008925D01*
X008825Y020685D01*
X022015Y012791D02*
Y013391D01*
X022315D01*
X022414Y013291D01*
Y013091D01*
X022315Y012991D01*
X022015D01*
X022215D02*
X022414Y012791D01*
X022614D02*
X022814D01*
X022714D01*
Y013391D01*
X022614Y013291D01*
X023514Y012791D02*
X023114D01*
X023514Y013191D01*
Y013291D01*
X023414Y013391D01*
X023214D01*
X023114Y013291D01*
X020361Y012791D02*
Y013391D01*
X020661D01*
X020761Y013291D01*
Y013091D01*
X020661Y012991D01*
X020361D01*
X020561D02*
X020761Y012791D01*
X020961D02*
X021161D01*
X021061D01*
Y013391D01*
X020961Y013291D01*
X021461Y012791D02*
X021661D01*
X021561D01*
Y013391D01*
X021461Y013291D01*
X019458Y013541D02*
Y014141D01*
X019758D01*
X019858Y014041D01*
Y013841D01*
X019758Y013741D01*
X019458D01*
X019658D02*
X019858Y013541D01*
X020058D02*
X020258D01*
X020158D01*
Y014141D01*
X020058Y014041D01*
X020558D02*
X020658Y014141D01*
X020858D01*
X020958Y014041D01*
Y013641D01*
X020858Y013541D01*
X020658D01*
X020558Y013641D01*
Y014041D01*
X012759Y016141D02*
Y016741D01*
X013059D01*
X013159Y016641D01*
Y016441D01*
X013059Y016341D01*
X012759D01*
X012959D02*
X013159Y016141D01*
X013358Y016241D02*
X013458Y016141D01*
X013658D01*
X013758Y016241D01*
Y016641D01*
X013658Y016741D01*
X013458D01*
X013358Y016641D01*
Y016541D01*
X013458Y016441D01*
X013758D01*
X014417Y016127D02*
Y016727D01*
X014717D01*
X014817Y016627D01*
Y016427D01*
X014717Y016327D01*
X014417D01*
X014617D02*
X014817Y016127D01*
X015017Y016627D02*
X015117Y016727D01*
X015317D01*
X015417Y016627D01*
Y016527D01*
X015317Y016427D01*
X015417Y016327D01*
Y016227D01*
X015317Y016127D01*
X015117D01*
X015017Y016227D01*
Y016327D01*
X015117Y016427D01*
X015017Y016527D01*
Y016627D01*
X015117Y016427D02*
X015317D01*
X016231Y016101D02*
Y0167D01*
X016531D01*
X016631Y0166D01*
Y0164D01*
X016531Y0163D01*
X016231D01*
X016431D02*
X016631Y016101D01*
X016831Y0167D02*
X017231D01*
Y0166D01*
X016831Y016201D01*
Y016101D01*
X028123Y025587D02*
Y026187D01*
X028423D01*
X028523Y026087D01*
Y025887D01*
X028423Y025787D01*
X028123D01*
X028323D02*
X028523Y025587D01*
X029123D02*
X028723D01*
X029123Y025987D01*
Y026087D01*
X029023Y026187D01*
X028823D01*
X028723Y026087D01*
X033363Y027993D02*
Y028593D01*
X033663D01*
X033763Y028493D01*
Y028293D01*
X033663Y028193D01*
X033363D01*
X033563D02*
X033763Y027993D01*
X033963D02*
X034163D01*
X034063D01*
Y028593D01*
X033963Y028493D01*
X008249Y022383D02*
Y022783D01*
X008149Y022883D01*
X007949D01*
X007849Y022783D01*
Y022383D01*
X007949Y022283D01*
X008149D01*
X008049Y022483D02*
X008249Y022283D01*
X008149D02*
X008249Y022383D01*
X008849Y022283D02*
X008449D01*
X008849Y022683D01*
Y022783D01*
X008749Y022883D01*
X008549D01*
X008449Y022783D01*
X002334Y027372D02*
Y027971D01*
X002634D01*
X002734Y027871D01*
Y027672D01*
X002634Y027572D01*
X002334D01*
X002934Y027871D02*
X003034Y027971D01*
X003234D01*
X003334Y027871D01*
Y027772D01*
X003234Y027672D01*
X003134D01*
X003234D01*
X003334Y027572D01*
Y027472D01*
X003234Y027372D01*
X003034D01*
X002934Y027472D01*
X003934Y027372D02*
X003534D01*
X003934Y027772D01*
Y027871D01*
X003834Y027971D01*
X003634D01*
X003534Y027871D01*
X005546Y028785D02*
Y029385D01*
X005846D01*
X005946Y029285D01*
Y029085D01*
X005846Y028985D01*
X005546D01*
X006146Y029285D02*
X006246Y029385D01*
X006446D01*
X006546Y029285D01*
Y029185D01*
X006446Y029085D01*
X006346D01*
X006446D01*
X006546Y028985D01*
Y028885D01*
X006446Y028785D01*
X006246D01*
X006146Y028885D01*
X006746Y028785D02*
X006946D01*
X006846D01*
Y029385D01*
X006746Y029285D01*
X006418Y039168D02*
Y039768D01*
X006718D01*
X006818Y039668D01*
Y039468D01*
X006718Y039368D01*
X006418D01*
X007018Y039668D02*
X007118Y039768D01*
X007318D01*
X007418Y039668D01*
Y039568D01*
X007318Y039468D01*
X007218D01*
X007318D01*
X007418Y039368D01*
Y039268D01*
X007318Y039168D01*
X007118D01*
X007018Y039268D01*
X007618Y039668D02*
X007718Y039768D01*
X007918D01*
X008018Y039668D01*
Y039268D01*
X007918Y039168D01*
X007718D01*
X007618Y039268D01*
Y039668D01*
X000251Y028809D02*
Y029408D01*
X00055D01*
X00065Y029308D01*
Y029108D01*
X00055Y029008D01*
X000251D01*
X00125Y028809D02*
X00085D01*
X00125Y029208D01*
Y029308D01*
X00115Y029408D01*
X00095D01*
X00085Y029308D01*
X00145Y028908D02*
X00155Y028809D01*
X00175D01*
X00185Y028908D01*
Y029308D01*
X00175Y029408D01*
X00155D01*
X00145Y029308D01*
Y029208D01*
X00155Y029108D01*
X00185D01*
X002093Y039513D02*
Y040113D01*
X002392D01*
X002492Y040013D01*
Y039813D01*
X002392Y039713D01*
X002093D01*
X003092Y039513D02*
X002692D01*
X003092Y039913D01*
Y040013D01*
X002992Y040113D01*
X002792D01*
X002692Y040013D01*
X003292D02*
X003392Y040113D01*
X003592D01*
X003692Y040013D01*
Y039913D01*
X003592Y039813D01*
X003692Y039713D01*
Y039613D01*
X003592Y039513D01*
X003392D01*
X003292Y039613D01*
Y039713D01*
X003392Y039813D01*
X003292Y039913D01*
Y040013D01*
X003392Y039813D02*
X003592D01*
X000269Y027337D02*
Y027937D01*
X000569D01*
X000669Y027837D01*
Y027637D01*
X000569Y027537D01*
X000269D01*
X001268Y027337D02*
X000868D01*
X001268Y027737D01*
Y027837D01*
X001168Y027937D01*
X000968D01*
X000868Y027837D01*
X001468Y027937D02*
X001868D01*
Y027837D01*
X001468Y027437D01*
Y027337D01*
X036368Y026422D02*
Y027022D01*
X036668D01*
X036768Y026922D01*
Y026722D01*
X036668Y026622D01*
X036368D01*
X037367Y026422D02*
X036967D01*
X037367Y026822D01*
Y026922D01*
X037267Y027022D01*
X037067D01*
X036967Y026922D01*
X037967Y027022D02*
X037767Y026922D01*
X037567Y026722D01*
Y026522D01*
X037667Y026422D01*
X037867D01*
X037967Y026522D01*
Y026622D01*
X037867Y026722D01*
X037567D01*
X036685Y024353D02*
Y024953D01*
X036985D01*
X037085Y024853D01*
Y024653D01*
X036985Y024553D01*
X036685D01*
X037685Y024353D02*
X037285D01*
X037685Y024753D01*
Y024853D01*
X037585Y024953D01*
X037385D01*
X037285Y024853D01*
X038284Y024953D02*
X037885D01*
Y024653D01*
X038085Y024753D01*
X038184D01*
X038284Y024653D01*
Y024453D01*
X038184Y024353D01*
X037985D01*
X037885Y024453D01*
X041021Y015975D02*
Y016575D01*
X041321D01*
X041421Y016475D01*
Y016275D01*
X041321Y016175D01*
X041021D01*
X042021Y015975D02*
X041621D01*
X042021Y016375D01*
Y016475D01*
X041921Y016575D01*
X041721D01*
X041621Y016475D01*
X042521Y015975D02*
Y016575D01*
X042221Y016275D01*
X042621D01*
X039017Y013776D02*
Y014376D01*
X039317D01*
X039417Y014276D01*
Y014076D01*
X039317Y013976D01*
X039017D01*
X040016Y013776D02*
X039617D01*
X040016Y014176D01*
Y014276D01*
X039916Y014376D01*
X039717D01*
X039617Y014276D01*
X040216D02*
X040316Y014376D01*
X040516D01*
X040616Y014276D01*
Y014176D01*
X040516Y014076D01*
X040416D01*
X040516D01*
X040616Y013976D01*
Y013876D01*
X040516Y013776D01*
X040316D01*
X040216Y013876D01*
X039243Y003827D02*
Y004427D01*
X039543D01*
X039643Y004327D01*
Y004127D01*
X039543Y004027D01*
X039243D01*
X040243Y003827D02*
X039843D01*
X040243Y004227D01*
Y004327D01*
X040143Y004427D01*
X039943D01*
X039843Y004327D01*
X040842Y003827D02*
X040443D01*
X040842Y004227D01*
Y004327D01*
X040742Y004427D01*
X040542D01*
X040443Y004327D01*
X015676Y0397D02*
Y0403D01*
X015976D01*
X016076Y0402D01*
Y04D01*
X015976Y0399D01*
X015676D01*
X016676Y0397D02*
X016276D01*
X016676Y0401D01*
Y0402D01*
X016576Y0403D01*
X016376D01*
X016276Y0402D01*
X016876Y0397D02*
X017076D01*
X016976D01*
Y0403D01*
X016876Y0402D01*
X02254Y039708D02*
Y040308D01*
X022839D01*
X022939Y040208D01*
Y040008D01*
X022839Y039908D01*
X02254D01*
X023539Y039708D02*
X023139D01*
X023539Y040108D01*
Y040208D01*
X023439Y040308D01*
X023239D01*
X023139Y040208D01*
X023739D02*
X023839Y040308D01*
X024039D01*
X024139Y040208D01*
Y039808D01*
X024039Y039708D01*
X023839D01*
X023739Y039808D01*
Y040208D01*
X009218Y019291D02*
X009818D01*
Y018991D01*
X009718Y018891D01*
X009518D01*
X009418Y018991D01*
Y019291D01*
X009218Y018691D02*
Y018492D01*
Y018591D01*
X009818D01*
X009718Y018691D01*
X009318Y018192D02*
X009218Y018092D01*
Y017892D01*
X009318Y017792D01*
X009718D01*
X009818Y017892D01*
Y018092D01*
X009718Y018192D01*
X009618D01*
X009518Y018092D01*
Y017792D01*
X000118Y019291D02*
Y019891D01*
X000417D01*
X000517Y019791D01*
Y019591D01*
X000417Y019491D01*
X000118D01*
X000717Y019291D02*
X000917D01*
X000817D01*
Y019891D01*
X000717Y019791D01*
X001217D02*
X001317Y019891D01*
X001517D01*
X001617Y019791D01*
Y019691D01*
X001517Y019591D01*
X001617Y019491D01*
Y019391D01*
X001517Y019291D01*
X001317D01*
X001217Y019391D01*
Y019491D01*
X001317Y019591D01*
X001217Y019691D01*
Y019791D01*
X001317Y019591D02*
X001517D01*
X000118Y015701D02*
Y016301D01*
X000417D01*
X000517Y016201D01*
Y016001D01*
X000417Y015901D01*
X000118D01*
X000717Y015701D02*
X000917D01*
X000817D01*
Y016301D01*
X000717Y016201D01*
X001217Y016301D02*
X001617D01*
Y016201D01*
X001217Y015801D01*
Y015701D01*
X026575Y010939D02*
Y011539D01*
X026875D01*
X026975Y011439D01*
Y011239D01*
X026875Y011139D01*
X026575D01*
X027175Y010939D02*
X027375D01*
X027275D01*
Y011539D01*
X027175Y011439D01*
X028075Y011539D02*
X027875Y011439D01*
X027675Y011239D01*
Y011039D01*
X027775Y010939D01*
X027975D01*
X028075Y011039D01*
Y011139D01*
X027975Y011239D01*
X027675D01*
X025276Y010934D02*
Y011534D01*
X025576D01*
X025676Y011434D01*
Y011234D01*
X025576Y011134D01*
X025276D01*
X025876Y010934D02*
X026075D01*
X025976D01*
Y011534D01*
X025876Y011434D01*
X026775Y011534D02*
X026375D01*
Y011234D01*
X026575Y011334D01*
X026675D01*
X026775Y011234D01*
Y011034D01*
X026675Y010934D01*
X026475D01*
X026375Y011034D01*
X023977Y010917D02*
Y011517D01*
X024277D01*
X024377Y011417D01*
Y011217D01*
X024277Y011117D01*
X023977D01*
X024577Y010917D02*
X024777D01*
X024677D01*
Y011517D01*
X024577Y011417D01*
X025377Y010917D02*
Y011517D01*
X025077Y011217D01*
X025477D01*
X0226Y010931D02*
Y01153D01*
X0229D01*
X023Y01143D01*
Y011231D01*
X0229Y011131D01*
X0226D01*
X0232Y010931D02*
X0234D01*
X0233D01*
Y01153D01*
X0232Y01143D01*
X0237D02*
X0238Y01153D01*
X024D01*
X0241Y01143D01*
Y01133D01*
X024Y011231D01*
X0239D01*
X024D01*
X0241Y011131D01*
Y011031D01*
X024Y010931D01*
X0238D01*
X0237Y011031D01*
X009641Y010924D02*
Y011524D01*
X009941D01*
X010041Y011424D01*
Y011224D01*
X009941Y011124D01*
X009641D01*
X010241Y010924D02*
X010441D01*
X010341D01*
Y011524D01*
X010241Y011424D01*
X01114Y010924D02*
X01074D01*
X01114Y011324D01*
Y011424D01*
X01104Y011524D01*
X01084D01*
X01074Y011424D01*
X010987Y010881D02*
Y011481D01*
X011287D01*
X011387Y011381D01*
Y011181D01*
X011287Y011081D01*
X010987D01*
X011587Y010881D02*
X011787D01*
X011687D01*
Y011481D01*
X011587Y011381D01*
X012087Y010881D02*
X012287D01*
X012187D01*
Y011481D01*
X012087Y011381D01*
X012285Y010889D02*
Y011489D01*
X012585D01*
X012685Y011389D01*
Y011189D01*
X012585Y011089D01*
X012285D01*
X012885Y010889D02*
X013084D01*
X012984D01*
Y011489D01*
X012885Y011389D01*
X013384D02*
X013484Y011489D01*
X013684D01*
X013784Y011389D01*
Y010989D01*
X013684Y010889D01*
X013484D01*
X013384Y010989D01*
Y011389D01*
X013616Y010887D02*
Y011487D01*
X013916D01*
X014016Y011387D01*
Y011187D01*
X013916Y011087D01*
X013616D01*
X014216Y010987D02*
X014316Y010887D01*
X014516D01*
X014616Y010987D01*
Y011387D01*
X014516Y011487D01*
X014316D01*
X014216Y011387D01*
Y011287D01*
X014316Y011187D01*
X014616D01*
X016143Y004595D02*
Y005195D01*
X016443D01*
X016543Y005095D01*
Y004895D01*
X016443Y004795D01*
X016143D01*
X016743Y005095D02*
X016843Y005195D01*
X017043D01*
X017143Y005095D01*
Y004995D01*
X017043Y004895D01*
X017143Y004795D01*
Y004695D01*
X017043Y004595D01*
X016843D01*
X016743Y004695D01*
Y004795D01*
X016843Y004895D01*
X016743Y004995D01*
Y005095D01*
X016843Y004895D02*
X017043D01*
X009405Y004588D02*
Y005188D01*
X009705D01*
X009805Y005088D01*
Y004888D01*
X009705Y004788D01*
X009405D01*
X010004Y005188D02*
X010404D01*
Y005088D01*
X010004Y004688D01*
Y004588D01*
X009127Y016542D02*
Y017142D01*
X009427D01*
X009527Y017042D01*
Y016842D01*
X009427Y016742D01*
X009127D01*
X010127Y017142D02*
X009927Y017042D01*
X009727Y016842D01*
Y016642D01*
X009827Y016542D01*
X010027D01*
X010127Y016642D01*
Y016742D01*
X010027Y016842D01*
X009727D01*
X009276Y013356D02*
Y013956D01*
X009576D01*
X009676Y013856D01*
Y013656D01*
X009576Y013556D01*
X009276D01*
X010275Y013956D02*
X009876D01*
Y013656D01*
X010075Y013756D01*
X010175D01*
X010275Y013656D01*
Y013456D01*
X010175Y013356D01*
X009976D01*
X009876Y013456D01*
X007865Y013315D02*
Y013915D01*
X008164D01*
X008264Y013815D01*
Y013615D01*
X008164Y013515D01*
X007865D01*
X008764Y013315D02*
Y013915D01*
X008464Y013615D01*
X008864D01*
X027072Y022492D02*
Y023092D01*
X027372D01*
X027472Y022992D01*
Y022792D01*
X027372Y022692D01*
X027072D01*
X027672Y022992D02*
X027772Y023092D01*
X027972D01*
X028072Y022992D01*
Y022892D01*
X027972Y022792D01*
X027872D01*
X027972D01*
X028072Y022692D01*
Y022592D01*
X027972Y022492D01*
X027772D01*
X027672Y022592D01*
X029891Y030437D02*
Y031037D01*
X030191D01*
X030291Y030937D01*
Y030737D01*
X030191Y030637D01*
X029891D01*
X030491Y030437D02*
X030691D01*
X030591D01*
Y031037D01*
X030491Y030937D01*
X039336Y034056D02*
Y034656D01*
X039536Y034456D01*
X039736Y034656D01*
Y034056D01*
X039936D02*
X040136D01*
X040036D01*
Y034656D01*
X039936Y034556D01*
X040436D02*
X040536Y034656D01*
X040736D01*
X040836Y034556D01*
Y034156D01*
X040736Y034056D01*
X040536D01*
X040436Y034156D01*
Y034556D01*
X038292Y025881D02*
Y026481D01*
X038492Y026281D01*
X038692Y026481D01*
Y025881D01*
X038892Y025981D02*
X038992Y025881D01*
X039192D01*
X039292Y025981D01*
Y026381D01*
X039192Y026481D01*
X038992D01*
X038892Y026381D01*
Y026281D01*
X038992Y026181D01*
X039292D01*
X042514Y0218D02*
Y0224D01*
X042714Y0222D01*
X042914Y0224D01*
Y0218D01*
X043114Y0224D02*
X043514D01*
Y0223D01*
X043114Y0219D01*
Y0218D01*
X03549Y021931D02*
Y022531D01*
X03569Y022331D01*
X03589Y022531D01*
Y021931D01*
X03649Y022531D02*
X03629Y022431D01*
X03609Y022231D01*
Y022031D01*
X03619Y021931D01*
X03639D01*
X03649Y022031D01*
Y022131D01*
X03639Y022231D01*
X03609D01*
X038682Y010657D02*
Y011257D01*
X038882Y011057D01*
X039082Y011257D01*
Y010657D01*
X039681Y011257D02*
X039282D01*
Y010957D01*
X039481Y011057D01*
X039581D01*
X039681Y010957D01*
Y010757D01*
X039581Y010657D01*
X039382D01*
X039282Y010757D01*
X040465Y013981D02*
Y014581D01*
X040665Y014381D01*
X040865Y014581D01*
Y013981D01*
X041365D02*
Y014581D01*
X041065Y014281D01*
X041465D01*
X019269Y033666D02*
Y034266D01*
X019469Y034066D01*
X019669Y034266D01*
Y033666D01*
X019869Y034166D02*
X019969Y034266D01*
X020169D01*
X020269Y034166D01*
Y034066D01*
X020169Y033966D01*
X020069D01*
X020169D01*
X020269Y033866D01*
Y033766D01*
X020169Y033666D01*
X019969D01*
X019869Y033766D01*
X01889Y017037D02*
Y017637D01*
X01909Y017437D01*
X01929Y017637D01*
Y017037D01*
X01989D02*
X01949D01*
X01989Y017437D01*
Y017537D01*
X01979Y017637D01*
X01959D01*
X01949Y017537D01*
X010652Y017021D02*
Y017621D01*
X010852Y017421D01*
X011052Y017621D01*
Y017021D01*
X011252D02*
X011452D01*
X011352D01*
Y017621D01*
X011252Y017521D01*
X045381Y0385D02*
X045181D01*
X045281D01*
Y038D01*
X045181Y0379D01*
X045082D01*
X044982Y038D01*
X045981Y0379D02*
X045581D01*
X045981Y0383D01*
Y0384D01*
X045881Y0385D01*
X045681D01*
X045581Y0384D01*
X0005Y026576D02*
X0003D01*
X0004D01*
Y026077D01*
X0003Y025977D01*
X0002D01*
X0001Y026077D01*
X0007Y025977D02*
X0009D01*
X0008D01*
Y026576D01*
X0007Y026477D01*
X008426Y032763D02*
Y032163D01*
X008726D01*
X008826Y032263D01*
Y032663D01*
X008726Y032763D01*
X008426D01*
X009026Y032163D02*
X009226D01*
X009126D01*
Y032763D01*
X009026Y032663D01*
X009926Y032163D02*
X009526D01*
X009926Y032563D01*
Y032663D01*
X009826Y032763D01*
X009626D01*
X009526Y032663D01*
X008431Y032057D02*
Y031457D01*
X008731D01*
X008831Y031557D01*
Y031957D01*
X008731Y032057D01*
X008431D01*
X009031Y031457D02*
X009231D01*
X009131D01*
Y032057D01*
X009031Y031957D01*
X00953Y031457D02*
X00973D01*
X00963D01*
Y032057D01*
X00953Y031957D01*
X003744Y037315D02*
Y036715D01*
X004044D01*
X004144Y036815D01*
Y037215D01*
X004044Y037315D01*
X003744D01*
X004344Y036715D02*
X004544D01*
X004444D01*
Y037315D01*
X004344Y037215D01*
X004844D02*
X004944Y037315D01*
X005144D01*
X005244Y037215D01*
Y036815D01*
X005144Y036715D01*
X004944D01*
X004844Y036815D01*
Y037215D01*
X002957Y037333D02*
Y036733D01*
X003257D01*
X003357Y036833D01*
Y037233D01*
X003257Y037333D01*
X002957D01*
X003557Y036833D02*
X003657Y036733D01*
X003857D01*
X003957Y036833D01*
Y037233D01*
X003857Y037333D01*
X003657D01*
X003557Y037233D01*
Y037133D01*
X003657Y037033D01*
X003957D01*
X00209Y037333D02*
Y036733D01*
X00239D01*
X00249Y036833D01*
Y037233D01*
X00239Y037333D01*
X00209D01*
X00269Y037233D02*
X00279Y037333D01*
X00299D01*
X00309Y037233D01*
Y037133D01*
X00299Y037033D01*
X00309Y036933D01*
Y036833D01*
X00299Y036733D01*
X00279D01*
X00269Y036833D01*
Y036933D01*
X00279Y037033D01*
X00269Y037133D01*
Y037233D01*
X00279Y037033D02*
X00299D01*
X001221Y037358D02*
Y036758D01*
X00152D01*
X00162Y036858D01*
Y037258D01*
X00152Y037358D01*
X001221D01*
X00182D02*
X00222D01*
Y037258D01*
X00182Y036858D01*
Y036758D01*
X038923Y038728D02*
Y038128D01*
X039223D01*
X039323Y038228D01*
Y038628D01*
X039223Y038728D01*
X038923D01*
X039922D02*
X039722Y038628D01*
X039522Y038428D01*
Y038228D01*
X039622Y038128D01*
X039822D01*
X039922Y038228D01*
Y038328D01*
X039822Y038428D01*
X039522D01*
X040194Y039831D02*
Y039231D01*
X040494D01*
X040594Y039331D01*
Y039731D01*
X040494Y039831D01*
X040194D01*
X041194D02*
X040794D01*
Y039531D01*
X040994Y039631D01*
X041094D01*
X041194Y039531D01*
Y039331D01*
X041094Y039231D01*
X040894D01*
X040794Y039331D01*
X042629Y004227D02*
Y003627D01*
X042929D01*
X043029Y003727D01*
Y004127D01*
X042929Y004227D01*
X042629D01*
X043528Y003627D02*
Y004227D01*
X043229Y003927D01*
X043628D01*
X04441Y004227D02*
Y003627D01*
X04471D01*
X04481Y003727D01*
Y004127D01*
X04471Y004227D01*
X04441D01*
X04501Y004127D02*
X04511Y004227D01*
X04531D01*
X04541Y004127D01*
Y004027D01*
X04531Y003927D01*
X04521D01*
X04531D01*
X04541Y003827D01*
Y003727D01*
X04531Y003627D01*
X04511D01*
X04501Y003727D01*
X042775Y005057D02*
Y004457D01*
X043075D01*
X043175Y004557D01*
Y004957D01*
X043075Y005057D01*
X042775D01*
X043775Y004457D02*
X043375D01*
X043775Y004857D01*
Y004957D01*
X043675Y005057D01*
X043475D01*
X043375Y004957D01*
X033286Y026654D02*
Y026055D01*
X033586D01*
X033686Y026155D01*
Y026554D01*
X033586Y026654D01*
X033286D01*
X033885Y026055D02*
X034085D01*
X033985D01*
Y026654D01*
X033885Y026554D01*
X004279Y031932D02*
X004179Y032032D01*
X003979D01*
X003879Y031932D01*
Y031532D01*
X003979Y031432D01*
X004179D01*
X004279Y031532D01*
X004479Y031932D02*
X004579Y032032D01*
X004779D01*
X004879Y031932D01*
Y031832D01*
X004779Y031732D01*
X004679D01*
X004779D01*
X004879Y031632D01*
Y031532D01*
X004779Y031432D01*
X004579D01*
X004479Y031532D01*
X005378Y031432D02*
Y032032D01*
X005078Y031732D01*
X005478D01*
X001435Y03201D02*
X001335Y03211D01*
X001135D01*
X001035Y03201D01*
Y03161D01*
X001135Y03151D01*
X001335D01*
X001435Y03161D01*
X001635Y03201D02*
X001735Y03211D01*
X001935D01*
X002035Y03201D01*
Y03191D01*
X001935Y03181D01*
X001835D01*
X001935D01*
X002035Y03171D01*
Y03161D01*
X001935Y03151D01*
X001735D01*
X001635Y03161D01*
X002235Y03201D02*
X002335Y03211D01*
X002534D01*
X002634Y03201D01*
Y03191D01*
X002534Y03181D01*
X002435D01*
X002534D01*
X002634Y03171D01*
Y03161D01*
X002534Y03151D01*
X002335D01*
X002235Y03161D01*
X005414Y037082D02*
X005314Y037182D01*
X005114D01*
X005014Y037082D01*
Y036683D01*
X005114Y036583D01*
X005314D01*
X005414Y036683D01*
X005614Y037082D02*
X005714Y037182D01*
X005914D01*
X006014Y037082D01*
Y036982D01*
X005914Y036883D01*
X005814D01*
X005914D01*
X006014Y036783D01*
Y036683D01*
X005914Y036583D01*
X005714D01*
X005614Y036683D01*
X006614Y036583D02*
X006214D01*
X006614Y036982D01*
Y037082D01*
X006514Y037182D01*
X006314D01*
X006214Y037082D01*
X04295Y039541D02*
X04285Y039641D01*
X04265D01*
X04255Y039541D01*
Y039141D01*
X04265Y039041D01*
X04285D01*
X04295Y039141D01*
X04315Y039541D02*
X04325Y039641D01*
X04345D01*
X04355Y039541D01*
Y039441D01*
X04345Y039341D01*
X04335D01*
X04345D01*
X04355Y039241D01*
Y039141D01*
X04345Y039041D01*
X04325D01*
X04315Y039141D01*
X04375Y039041D02*
X04395D01*
X04385D01*
Y039641D01*
X04375Y039541D01*
X045458Y039592D02*
X045358Y039692D01*
X045158D01*
X045058Y039592D01*
Y039192D01*
X045158Y039092D01*
X045358D01*
X045458Y039192D01*
X045658Y039592D02*
X045758Y039692D01*
X045958D01*
X046058Y039592D01*
Y039492D01*
X045958Y039392D01*
X045858D01*
X045958D01*
X046058Y039292D01*
Y039192D01*
X045958Y039092D01*
X045758D01*
X045658Y039192D01*
X046258Y039592D02*
X046358Y039692D01*
X046558D01*
X046658Y039592D01*
Y039192D01*
X046558Y039092D01*
X046358D01*
X046258Y039192D01*
Y039592D01*
X044655Y039585D02*
X044555Y039685D01*
X044355D01*
X044255Y039585D01*
Y039185D01*
X044355Y039085D01*
X044555D01*
X044655Y039185D01*
X045255Y039085D02*
X044855D01*
X045255Y039485D01*
Y039585D01*
X045155Y039685D01*
X044955D01*
X044855Y039585D01*
X045455Y039185D02*
X045555Y039085D01*
X045755D01*
X045855Y039185D01*
Y039585D01*
X045755Y039685D01*
X045555D01*
X045455Y039585D01*
Y039485D01*
X045555Y039385D01*
X045855D01*
X040617Y038108D02*
X040517Y038208D01*
X040317D01*
X040217Y038108D01*
Y037708D01*
X040317Y037608D01*
X040517D01*
X040617Y037708D01*
X041217Y037608D02*
X040817D01*
X041217Y038008D01*
Y038108D01*
X041117Y038208D01*
X040917D01*
X040817Y038108D01*
X041417D02*
X041517Y038208D01*
X041717D01*
X041817Y038108D01*
Y038008D01*
X041717Y037908D01*
X041817Y037808D01*
Y037708D01*
X041717Y037608D01*
X041517D01*
X041417Y037708D01*
Y037808D01*
X041517Y037908D01*
X041417Y038008D01*
Y038108D01*
X041517Y037908D02*
X041717D01*
X041774Y035729D02*
X041674Y035829D01*
X041474D01*
X041374Y035729D01*
Y035329D01*
X041474Y035229D01*
X041674D01*
X041774Y035329D01*
X042374Y035229D02*
X041974D01*
X042374Y035629D01*
Y035729D01*
X042274Y035829D01*
X042074D01*
X041974Y035729D01*
X042574Y035829D02*
X042973D01*
Y035729D01*
X042574Y035329D01*
Y035229D01*
X039476Y036667D02*
X039576Y036767D01*
Y036967D01*
X039476Y037067D01*
X039076D01*
X038976Y036967D01*
Y036767D01*
X039076Y036667D01*
X038976Y036067D02*
Y036467D01*
X039376Y036067D01*
X039476D01*
X039576Y036167D01*
Y036367D01*
X039476Y036467D01*
X039576Y035467D02*
X039476Y035667D01*
X039276Y035867D01*
X039076D01*
X038976Y035767D01*
Y035567D01*
X039076Y035467D01*
X039176D01*
X039276Y035567D01*
Y035867D01*
X020158Y030574D02*
X020058Y030674D01*
X019858D01*
X019758Y030574D01*
Y030174D01*
X019858Y030074D01*
X020058D01*
X020158Y030174D01*
X020758Y030074D02*
X020358D01*
X020758Y030474D01*
Y030574D01*
X020658Y030674D01*
X020458D01*
X020358Y030574D01*
X020958D02*
X021058Y030674D01*
X021258D01*
X021358Y030574D01*
Y030174D01*
X021258Y030074D01*
X021058D01*
X020958Y030174D01*
Y030574D01*
X006101Y023134D02*
X006001Y023234D01*
X005801D01*
X005701Y023134D01*
Y022734D01*
X005801Y022634D01*
X006001D01*
X006101Y022734D01*
X006301Y022634D02*
X006501D01*
X006401D01*
Y023234D01*
X006301Y023134D01*
X006801Y023234D02*
X007201D01*
Y023134D01*
X006801Y022734D01*
Y022634D01*
X006139Y020958D02*
X006039Y021058D01*
X005839D01*
X005739Y020958D01*
Y020558D01*
X005839Y020458D01*
X006039D01*
X006139Y020558D01*
X006339Y020458D02*
X006539D01*
X006439D01*
Y021058D01*
X006339Y020958D01*
X007239Y021058D02*
X007039Y020958D01*
X006839Y020758D01*
Y020558D01*
X006939Y020458D01*
X007139D01*
X007239Y020558D01*
Y020658D01*
X007139Y020758D01*
X006839D01*
X019565Y016701D02*
X019465Y016801D01*
X019265D01*
X019165Y016701D01*
Y016301D01*
X019265Y016201D01*
X019465D01*
X019565Y016301D01*
X019765Y016701D02*
X019865Y016801D01*
X020065D01*
X020165Y016701D01*
Y016601D01*
X020065Y016501D01*
X020165Y016401D01*
Y016301D01*
X020065Y016201D01*
X019865D01*
X019765Y016301D01*
Y016401D01*
X019865Y016501D01*
X019765Y016601D01*
Y016701D01*
X019865Y016501D02*
X020065D01*
X017081Y013993D02*
X016981Y014093D01*
X016782D01*
X016682Y013993D01*
Y013593D01*
X016782Y013493D01*
X016981D01*
X017081Y013593D01*
X017281Y014093D02*
X017681D01*
Y013993D01*
X017281Y013593D01*
Y013493D01*
X033531Y033605D02*
Y033006D01*
X033831D01*
X033931Y033105D01*
Y033205D01*
X033831Y033305D01*
X033531D01*
X033831D01*
X033931Y033405D01*
Y033505D01*
X033831Y033605D01*
X033531D01*
X034131Y033006D02*
X034331D01*
X034231D01*
Y033605D01*
X034131Y033505D01*
D21*
X037643Y031176D02*
X036894D01*
X037268Y030801D02*
Y031551D01*
D22*
X043842Y035759D02*
X043508Y036092D01*
X043842D02*
X043508Y035759D01*
X043842Y035925D02*
X043508D01*
X043675Y036092D02*
Y035759D01*
X007072Y019956D02*
X006738Y020289D01*
X007072D02*
X006738Y019956D01*
X007072Y020122D02*
X006738D01*
X006905Y020289D02*
Y019956D01*
X034362Y01864D02*
X034029Y018307D01*
Y01864D02*
X034362Y018307D01*
X034195Y01864D02*
Y018307D01*
X034029Y018474D02*
X034362D01*
X033387Y023187D02*
X033054Y023521D01*
X033387D02*
X033054Y023187D01*
X033387Y023354D02*
X033054D01*
X03322Y023521D02*
Y023187D01*
M02*
