G04*
G04 #@! TF.GenerationSoftware,Altium Limited,Altium Designer,18.1.6 (161)*
G04*
G04 Layer_Color=32896*
%FSTAX24Y24*%
%MOIN*%
G70*
G01*
G75*
%ADD10C,0.0200*%
%ADD12C,0.0098*%
%ADD13C,0.0060*%
%ADD14C,0.0079*%
%ADD16C,0.0050*%
%ADD17C,0.0040*%
%ADD18C,0.0111*%
%ADD20C,0.0100*%
%ADD22C,0.0030*%
%ADD129C,0.0059*%
G36*
X023137Y02426D02*
X023037D01*
Y02411D01*
X023137D01*
Y02426D01*
D02*
G37*
D10*
X045367Y03362D02*
G03*
X045367Y03362I-00015J0D01*
G01*
D12*
X000276Y009094D02*
G03*
X000276Y009094I-000049J0D01*
G01*
X004681Y00935D02*
G03*
X004681Y00935I-000049J0D01*
G01*
X004695Y012224D02*
G03*
X004695Y012224I-000049J0D01*
G01*
X004734Y018799D02*
G03*
X004734Y018799I-000049J0D01*
G01*
X004616Y015807D02*
G03*
X004616Y015807I-000049J0D01*
G01*
D13*
X037543Y028211D02*
G03*
X037543Y028211I-00005J0D01*
G01*
X045899Y028294D02*
G03*
X045899Y028294I-00005J0D01*
G01*
X045939Y03046D02*
G03*
X045939Y03046I-00005J0D01*
G01*
X042041Y033728D02*
G03*
X042041Y033728I-00005J0D01*
G01*
X043587Y033737D02*
G03*
X043587Y033737I-00005J0D01*
G01*
X000514Y006808D02*
Y007087D01*
X002286Y006808D02*
Y007087D01*
X000864Y006808D02*
Y007087D01*
X002636Y006808D02*
Y007087D01*
X023762Y022915D02*
X025432D01*
X023762Y026455D02*
X025432D01*
X037333Y028336D02*
Y028986D01*
X036053D02*
X036452D01*
X036053Y028336D02*
Y028986D01*
X036559Y028336D02*
X036827D01*
X036934Y028986D02*
X037333D01*
X045974Y028454D02*
X046624D01*
Y029335D02*
Y029734D01*
X045974D02*
X046624D01*
X045974Y02896D02*
Y029228D01*
X046624Y028454D02*
Y028853D01*
X046014Y03062D02*
X046664D01*
Y031501D02*
Y0319D01*
X046014D02*
X046664D01*
X046014Y031126D02*
Y031394D01*
X046664Y03062D02*
Y031019D01*
X042116Y033888D02*
X042766D01*
Y034769D02*
Y035168D01*
X042116D02*
X042766D01*
X042116Y034394D02*
Y034662D01*
X042766Y033888D02*
Y034287D01*
X043662Y033897D02*
X044312D01*
Y034778D02*
Y035177D01*
X043662D02*
X044312D01*
X043662Y034403D02*
Y034671D01*
X044312Y033897D02*
Y034296D01*
D14*
X000433Y010059D02*
Y010315D01*
Y008898D02*
Y009154D01*
X001024Y010906D02*
X003031D01*
X001024Y008307D02*
X003031D01*
Y010059D02*
Y010906D01*
Y008307D02*
Y009114D01*
X000433Y008898D02*
X001024Y008307D01*
X000433Y010315D02*
X001024Y010906D01*
X005223Y00935D02*
Y011988D01*
X006325Y00935D02*
Y011988D01*
X005223Y00935D02*
X006325D01*
X005223Y011988D02*
X006325D01*
X005236Y012224D02*
Y014862D01*
X006339Y012224D02*
Y014862D01*
X005236Y012224D02*
X006339D01*
X005236Y014862D02*
X006339D01*
X005276Y018799D02*
Y021437D01*
X006378Y018799D02*
Y021437D01*
X005276Y018799D02*
X006378D01*
X005276Y021437D02*
X006378D01*
X005157Y015807D02*
Y018445D01*
X00626Y015807D02*
Y018445D01*
X005157Y015807D02*
X00626D01*
X005157Y018445D02*
X00626D01*
D16*
X003085Y006648D02*
Y008188D01*
X003755D01*
Y006648D02*
Y008188D01*
X003085Y006648D02*
X003755D01*
X001103Y010999D02*
X002643D01*
X001103D02*
Y011669D01*
X002643D01*
Y010999D02*
Y011669D01*
X0034Y009489D02*
Y011029D01*
X00407D01*
Y009489D02*
Y011029D01*
X0034Y009489D02*
X00407D01*
X005743Y015655D02*
X007283D01*
Y014985D02*
Y015655D01*
X005743Y014985D02*
X007283D01*
X005743D02*
Y015655D01*
X00594Y02223D02*
X00748D01*
Y02156D02*
Y02223D01*
X00594Y02156D02*
X00748D01*
X00594D02*
Y02223D01*
X004404D02*
X005944D01*
Y02156D02*
Y02223D01*
X004404Y02156D02*
X005944D01*
X004404D02*
Y02223D01*
X004129Y015694D02*
X005669D01*
Y015024D02*
Y015694D01*
X004129Y015024D02*
X005669D01*
X004129D02*
Y015694D01*
X007485Y031136D02*
X009005D01*
X007485D02*
Y031816D01*
X009005D01*
Y031136D02*
Y031816D01*
X007491Y030447D02*
X009011D01*
X007491D02*
Y031127D01*
X009011D01*
Y030447D02*
Y031127D01*
X034001Y016378D02*
Y017918D01*
X033331Y016378D02*
X034001D01*
X033331D02*
Y017918D01*
X034001D01*
X022042Y027466D02*
X023582D01*
Y026796D02*
Y027466D01*
X022042Y026796D02*
X023582D01*
X022042D02*
Y027466D01*
X035616Y02717D02*
Y02869D01*
X034936Y02717D02*
X035616D01*
X034936D02*
Y02869D01*
X035616D01*
X034778Y023859D02*
Y025399D01*
X035448D01*
Y023859D02*
Y025399D01*
X034778Y023859D02*
X035448D01*
X027731Y023814D02*
Y025354D01*
X028401D01*
Y023814D02*
Y025354D01*
X027731Y023814D02*
X028401D01*
X033843Y023844D02*
Y025364D01*
X034523D01*
Y023844D02*
Y025364D01*
X033843Y023844D02*
X034523D01*
X030381Y027389D02*
X031901D01*
Y026709D02*
Y027389D01*
X030381Y026709D02*
X031901D01*
X030381D02*
Y027389D01*
X03004Y022101D02*
X03156D01*
X03004D02*
Y022781D01*
X03156D01*
Y022101D02*
Y022781D01*
X028794Y022515D02*
Y024055D01*
X029464D01*
Y022515D02*
Y024055D01*
X028794Y022515D02*
X029464D01*
X033844Y024036D02*
Y025576D01*
X033174Y024036D02*
X033844D01*
X033174D02*
Y025576D01*
X033844D01*
X03153Y021993D02*
X03307D01*
X03153D02*
Y022663D01*
X03307D01*
Y021993D02*
Y022663D01*
X043662Y012427D02*
X045202D01*
Y011757D02*
Y012427D01*
X043662Y011757D02*
X045202D01*
X043662D02*
Y012427D01*
X038243Y020197D02*
Y021737D01*
X038913D01*
Y020197D02*
Y021737D01*
X038243Y020197D02*
X038913D01*
X040822Y024778D02*
X042362D01*
X040822D02*
Y025448D01*
X042362D01*
Y024778D02*
Y025448D01*
X036058Y020841D02*
X037598D01*
X036058D02*
Y021511D01*
X037598D01*
Y020841D02*
Y021511D01*
X038125Y018465D02*
Y020005D01*
X038795D01*
Y018465D02*
Y020005D01*
X038125Y018465D02*
X038795D01*
X043784Y02912D02*
X045304D01*
Y02844D02*
Y02912D01*
X043784Y02844D02*
X045304D01*
X043784D02*
Y02912D01*
X043751Y030526D02*
X045271D01*
X043751D02*
Y031206D01*
X045271D01*
Y030526D02*
Y031206D01*
X040084Y035222D02*
X041604D01*
Y034542D02*
Y035222D01*
X040084Y034542D02*
X041604D01*
X040084D02*
Y035222D01*
X040168Y034553D02*
X041688D01*
Y033873D02*
Y034553D01*
X040168Y033873D02*
X041688D01*
X040168D02*
Y034553D01*
X042377Y035793D02*
X043897D01*
Y035113D02*
Y035793D01*
X042377Y035113D02*
X043897D01*
X042377D02*
Y035793D01*
X040247Y029001D02*
X041767D01*
Y028321D02*
Y029001D01*
X040247Y028321D02*
X041767D01*
X040247D02*
Y029001D01*
X042609Y028253D02*
X044129D01*
Y027573D02*
Y028253D01*
X042609Y027573D02*
X044129D01*
X042609D02*
Y028253D01*
X040719Y028214D02*
X042239D01*
Y027534D02*
Y028214D01*
X040719Y027534D02*
X042239D01*
X040719D02*
Y028214D01*
X043514Y03286D02*
X045034D01*
Y03218D02*
Y03286D01*
X043514Y03218D02*
X045034D01*
X043514D02*
Y03286D01*
X041546D02*
X043066D01*
Y03218D02*
Y03286D01*
X041546Y03218D02*
X043066D01*
X041546D02*
Y03286D01*
D17*
X003691Y007279D02*
Y007569D01*
X003165Y007279D02*
Y007559D01*
X001723Y011604D02*
X002013D01*
X001733Y011079D02*
X002013D01*
X004006Y010119D02*
Y010409D01*
X00348Y010119D02*
Y010399D01*
X006373Y015049D02*
X006663D01*
X006373Y015575D02*
X006653D01*
X00657Y021624D02*
X00686D01*
X00657Y02215D02*
X00685D01*
X005034Y021624D02*
X005324D01*
X005034Y02215D02*
X005314D01*
X004759Y015088D02*
X005049D01*
X004759Y015614D02*
X005039D01*
X008145Y031756D02*
X008345D01*
X008145Y031206D02*
X008345D01*
X008151Y031067D02*
X008351D01*
X008151Y030517D02*
X008351D01*
X033396Y016998D02*
Y017288D01*
X033921Y017008D02*
Y017288D01*
X022672Y02686D02*
X022962D01*
X022672Y027386D02*
X022952D01*
X034996Y02783D02*
Y02803D01*
X035546Y02783D02*
Y02803D01*
X035384Y024489D02*
Y024779D01*
X034858Y024489D02*
Y024769D01*
X028337Y024444D02*
Y024734D01*
X027811Y024444D02*
Y024724D01*
X034463Y024504D02*
Y024704D01*
X033913Y024504D02*
Y024704D01*
X031041Y026769D02*
X031241D01*
X031041Y027319D02*
X031241D01*
X0307Y022721D02*
X0309D01*
X0307Y022171D02*
X0309D01*
X0294Y023145D02*
Y023435D01*
X028874Y023145D02*
Y023425D01*
X033238Y024656D02*
Y024946D01*
X033764Y024666D02*
Y024946D01*
X03215Y022599D02*
X03244D01*
X03216Y022073D02*
X03244D01*
X044292Y011821D02*
X044582D01*
X044292Y012347D02*
X044572D01*
X038849Y020827D02*
Y021117D01*
X038323Y020827D02*
Y021107D01*
X041442Y025384D02*
X041732D01*
X041452Y024858D02*
X041732D01*
X036678Y021447D02*
X036968D01*
X036688Y020921D02*
X036968D01*
X03873Y019095D02*
Y019385D01*
X038205Y019095D02*
Y019375D01*
X044444Y0285D02*
X044644D01*
X044444Y02905D02*
X044644D01*
X044411Y031146D02*
X044611D01*
X044411Y030596D02*
X044611D01*
X040744Y034602D02*
X040944D01*
X040744Y035152D02*
X040944D01*
X040828Y033933D02*
X041028D01*
X040828Y034483D02*
X041028D01*
X043037Y035173D02*
X043237D01*
X043037Y035723D02*
X043237D01*
X040907Y028381D02*
X041107D01*
X040907Y028931D02*
X041107D01*
X043269Y027633D02*
X043469D01*
X043269Y028183D02*
X043469D01*
X041379Y027594D02*
X041579D01*
X041379Y028144D02*
X041579D01*
X044174Y03224D02*
X044374D01*
X044174Y03279D02*
X044374D01*
X042206Y03224D02*
X042406D01*
X042206Y03279D02*
X042406D01*
D18*
X05063Y016016D02*
X050669Y016055D01*
Y021882D01*
X039134Y016016D02*
X05063D01*
X039094Y021882D02*
X050669D01*
X039094Y016016D02*
Y021882D01*
D20*
X04946Y016048D02*
X05231D01*
X04946D02*
Y021448D01*
X05231D01*
Y016048D02*
Y021448D01*
X047534Y004773D02*
Y009873D01*
Y004773D02*
X049734D01*
Y009873D01*
X047534D02*
X049734D01*
X026109Y027695D02*
Y027195D01*
X026009Y027095D01*
X025809D01*
X025709Y027195D01*
Y027695D01*
X025209Y027095D02*
Y027695D01*
X025509Y027395D01*
X025109D01*
X008926Y032138D02*
Y032737D01*
X008626D01*
X008526Y032637D01*
Y032438D01*
X008626Y032338D01*
X008926D01*
X008726D02*
X008526Y032138D01*
X008326Y032637D02*
X008226Y032737D01*
X008026D01*
X007926Y032637D01*
Y032538D01*
X008026Y032438D01*
X008126D01*
X008026D01*
X007926Y032338D01*
Y032238D01*
X008026Y032138D01*
X008226D01*
X008326Y032238D01*
X007726Y032637D02*
X007626Y032737D01*
X007426D01*
X007326Y032637D01*
Y032538D01*
X007426Y032438D01*
X007326Y032338D01*
Y032238D01*
X007426Y032138D01*
X007626D01*
X007726Y032238D01*
Y032338D01*
X007626Y032438D01*
X007726Y032538D01*
Y032637D01*
X007626Y032438D02*
X007426D01*
X008938Y03145D02*
Y03205D01*
X008638D01*
X008538Y03195D01*
Y03175D01*
X008638Y03165D01*
X008938D01*
X008738D02*
X008538Y03145D01*
X008338Y03195D02*
X008238Y03205D01*
X008038D01*
X007938Y03195D01*
Y03185D01*
X008038Y03175D01*
X008138D01*
X008038D01*
X007938Y03165D01*
Y03155D01*
X008038Y03145D01*
X008238D01*
X008338Y03155D01*
X007738Y03205D02*
X007339D01*
Y03195D01*
X007738Y03155D01*
Y03145D01*
X0452Y031534D02*
Y032134D01*
X0449D01*
X0448Y032034D01*
Y031834D01*
X0449Y031734D01*
X0452D01*
X045D02*
X0448Y031534D01*
X0446Y032034D02*
X0445Y032134D01*
X0443D01*
X0442Y032034D01*
Y031934D01*
X0443Y031834D01*
X0444D01*
X0443D01*
X0442Y031734D01*
Y031634D01*
X0443Y031534D01*
X0445D01*
X0446Y031634D01*
X044Y032034D02*
X0439Y032134D01*
X0437D01*
X0436Y032034D01*
Y031634D01*
X0437Y031534D01*
X0439D01*
X044Y031634D01*
Y032034D01*
X045225Y029443D02*
Y030043D01*
X044925D01*
X044825Y029943D01*
Y029743D01*
X044925Y029643D01*
X045225D01*
X045025D02*
X044825Y029443D01*
X044225D02*
X044625D01*
X044225Y029843D01*
Y029943D01*
X044325Y030043D01*
X044525D01*
X044625Y029943D01*
X044026Y029543D02*
X043926Y029443D01*
X043726D01*
X043626Y029543D01*
Y029943D01*
X043726Y030043D01*
X043926D01*
X044026Y029943D01*
Y029843D01*
X043926Y029743D01*
X043626D01*
X04169Y029323D02*
Y029923D01*
X04139D01*
X04129Y029823D01*
Y029623D01*
X04139Y029523D01*
X04169D01*
X04149D02*
X04129Y029323D01*
X04069D02*
X04109D01*
X04069Y029723D01*
Y029823D01*
X04079Y029923D01*
X04099D01*
X04109Y029823D01*
X040491Y029923D02*
X040091D01*
Y029823D01*
X040491Y029423D01*
Y029323D01*
X043819Y036121D02*
Y036721D01*
X043519D01*
X043419Y036621D01*
Y036421D01*
X043519Y036321D01*
X043819D01*
X043619D02*
X043419Y036121D01*
X04282D02*
X043219D01*
X04282Y036521D01*
Y036621D01*
X04292Y036721D01*
X043119D01*
X043219Y036621D01*
X04222Y036721D02*
X04242Y036621D01*
X04262Y036421D01*
Y036221D01*
X04252Y036121D01*
X04232D01*
X04222Y036221D01*
Y036321D01*
X04232Y036421D01*
X04262D01*
X044954Y033185D02*
Y033785D01*
X044655D01*
X044555Y033685D01*
Y033485D01*
X044655Y033385D01*
X044954D01*
X044755D02*
X044555Y033185D01*
X043955D02*
X044355D01*
X043955Y033585D01*
Y033685D01*
X044055Y033785D01*
X044255D01*
X044355Y033685D01*
X043355Y033785D02*
X043755D01*
Y033485D01*
X043555Y033585D01*
X043455D01*
X043355Y033485D01*
Y033285D01*
X043455Y033185D01*
X043655D01*
X043755Y033285D01*
X042992Y033186D02*
Y033786D01*
X042692D01*
X042592Y033686D01*
Y033486D01*
X042692Y033386D01*
X042992D01*
X042792D02*
X042592Y033186D01*
X041992D02*
X042392D01*
X041992Y033586D01*
Y033686D01*
X042092Y033786D01*
X042292D01*
X042392Y033686D01*
X041492Y033186D02*
Y033786D01*
X041792Y033486D01*
X041392D01*
X041529Y035551D02*
Y036151D01*
X041229D01*
X041129Y036051D01*
Y035851D01*
X041229Y035751D01*
X041529D01*
X041329D02*
X041129Y035551D01*
X04053D02*
X04093D01*
X04053Y035951D01*
Y036051D01*
X04063Y036151D01*
X04083D01*
X04093Y036051D01*
X04033D02*
X04023Y036151D01*
X04003D01*
X03993Y036051D01*
Y035951D01*
X04003Y035851D01*
X04013D01*
X04003D01*
X03993Y035751D01*
Y035651D01*
X04003Y035551D01*
X04023D01*
X04033Y035651D01*
X042159Y028536D02*
Y029136D01*
X041859D01*
X04176Y029036D01*
Y028836D01*
X041859Y028736D01*
X042159D01*
X041959D02*
X04176Y028536D01*
X04116D02*
X04156D01*
X04116Y028936D01*
Y029036D01*
X04126Y029136D01*
X04146D01*
X04156Y029036D01*
X04056Y028536D02*
X04096D01*
X04056Y028936D01*
Y029036D01*
X04066Y029136D01*
X04086D01*
X04096Y029036D01*
X041612Y034877D02*
Y035477D01*
X041312D01*
X041212Y035377D01*
Y035177D01*
X041312Y035077D01*
X041612D01*
X041412D02*
X041212Y034877D01*
X040612D02*
X041012D01*
X040612Y035277D01*
Y035377D01*
X040712Y035477D01*
X040912D01*
X041012Y035377D01*
X040412Y034877D02*
X040212D01*
X040312D01*
Y035477D01*
X040412Y035377D01*
X044051Y028574D02*
Y029174D01*
X043751D01*
X043651Y029074D01*
Y028874D01*
X043751Y028774D01*
X044051D01*
X043851D02*
X043651Y028574D01*
X043051D02*
X043451D01*
X043051Y028974D01*
Y029074D01*
X043151Y029174D01*
X043351D01*
X043451Y029074D01*
X042851D02*
X042751Y029174D01*
X042551D01*
X042451Y029074D01*
Y028674D01*
X042551Y028574D01*
X042751D01*
X042851Y028674D01*
Y029074D01*
X034449Y025692D02*
Y026291D01*
X034149D01*
X034049Y026191D01*
Y025991D01*
X034149Y025892D01*
X034449D01*
X034249D02*
X034049Y025692D01*
X033449Y026291D02*
X033649Y026191D01*
X033849Y025991D01*
Y025792D01*
X033749Y025692D01*
X033549D01*
X033449Y025792D01*
Y025892D01*
X033549Y025991D01*
X033849D01*
X03183Y027715D02*
Y028315D01*
X03153D01*
X03143Y028215D01*
Y028015D01*
X03153Y027915D01*
X03183D01*
X03163D02*
X03143Y027715D01*
X03083Y028315D02*
X03123D01*
Y028015D01*
X03103Y028115D01*
X03093D01*
X03083Y028015D01*
Y027815D01*
X03093Y027715D01*
X03113D01*
X03123Y027815D01*
X03149Y023104D02*
Y023704D01*
X03119D01*
X03109Y023604D01*
Y023404D01*
X03119Y023304D01*
X03149D01*
X03129D02*
X03109Y023104D01*
X03059D02*
Y023704D01*
X03089Y023404D01*
X03049D01*
X035537Y029012D02*
Y029612D01*
X035237D01*
X035137Y029512D01*
Y029312D01*
X035237Y029212D01*
X035537D01*
X035337D02*
X035137Y029012D01*
X034937Y029512D02*
X034837Y029612D01*
X034637D01*
X034537Y029512D01*
Y029412D01*
X034637Y029312D01*
X034737D01*
X034637D01*
X034537Y029212D01*
Y029112D01*
X034637Y029012D01*
X034837D01*
X034937Y029112D01*
X04647Y032326D02*
Y032726D01*
X04657Y032826D01*
X046769D01*
X046869Y032726D01*
Y032326D01*
X046769Y032226D01*
X04657D01*
X04667Y032426D02*
X04647Y032226D01*
X04657D02*
X04647Y032326D01*
X04587Y032826D02*
X04607Y032726D01*
X04627Y032526D01*
Y032326D01*
X04617Y032226D01*
X04597D01*
X04587Y032326D01*
Y032426D01*
X04597Y032526D01*
X04627D01*
X046429Y030166D02*
Y030566D01*
X046529Y030666D01*
X046729D01*
X046829Y030566D01*
Y030166D01*
X046729Y030066D01*
X046529D01*
X046629Y030266D02*
X046429Y030066D01*
X046529D02*
X046429Y030166D01*
X045829Y030666D02*
X046229D01*
Y030366D01*
X046029Y030466D01*
X045929D01*
X045829Y030366D01*
Y030166D01*
X045929Y030066D01*
X046129D01*
X046229Y030166D01*
X044117Y03561D02*
Y03601D01*
X044217Y03611D01*
X044417D01*
X044517Y03601D01*
Y03561D01*
X044417Y03551D01*
X044217D01*
X044317Y03571D02*
X044117Y03551D01*
X044217D02*
X044117Y03561D01*
X043617Y03551D02*
Y03611D01*
X043917Y03581D01*
X043517D01*
X042572Y035601D02*
Y036D01*
X042672Y0361D01*
X042872D01*
X042972Y036D01*
Y035601D01*
X042872Y035501D01*
X042672D01*
X042772Y035701D02*
X042572Y035501D01*
X042672D02*
X042572Y035601D01*
X042372Y036D02*
X042273Y0361D01*
X042073D01*
X041973Y036D01*
Y0359D01*
X042073Y035801D01*
X042173D01*
X042073D01*
X041973Y035701D01*
Y035601D01*
X042073Y035501D01*
X042273D01*
X042372Y035601D01*
X037077Y029695D02*
Y030095D01*
X037177Y030195D01*
X037377D01*
X037477Y030095D01*
Y029695D01*
X037377Y029595D01*
X037177D01*
X037277Y029795D02*
X037077Y029595D01*
X037177D02*
X037077Y029695D01*
X036877Y029595D02*
X036677D01*
X036777D01*
Y030195D01*
X036877Y030095D01*
X00293Y00845D02*
Y00905D01*
X00263D01*
X00253Y00895D01*
Y00875D01*
X00263Y00865D01*
X00293D01*
X00233Y00905D02*
X00213D01*
X00223D01*
Y00845D01*
X00233D01*
X00213D01*
X00183D02*
X00163D01*
X00173D01*
Y00905D01*
X00183Y00895D01*
X007404Y013009D02*
X007204D01*
X007304D01*
Y012409D01*
X007404D01*
X007204D01*
X006505Y012909D02*
X006605Y013009D01*
X006805D01*
X006904Y012909D01*
Y012509D01*
X006805Y012409D01*
X006605D01*
X006505Y012509D01*
X006005Y012409D02*
Y013009D01*
X006305Y012709D01*
X005905D01*
X007421Y015883D02*
X007221D01*
X007321D01*
Y015283D01*
X007421D01*
X007221D01*
X006522Y015783D02*
X006622Y015883D01*
X006822D01*
X006922Y015783D01*
Y015383D01*
X006822Y015283D01*
X006622D01*
X006522Y015383D01*
X006322Y015783D02*
X006222Y015883D01*
X006022D01*
X005922Y015783D01*
Y015683D01*
X006022Y015583D01*
X006122D01*
X006022D01*
X005922Y015483D01*
Y015383D01*
X006022Y015283D01*
X006222D01*
X006322Y015383D01*
X007464Y022457D02*
X007264D01*
X007364D01*
Y021857D01*
X007464D01*
X007264D01*
X006564Y022357D02*
X006664Y022457D01*
X006864D01*
X006964Y022357D01*
Y021957D01*
X006864Y021857D01*
X006664D01*
X006564Y021957D01*
X005964Y021857D02*
X006364D01*
X005964Y022257D01*
Y022357D01*
X006064Y022457D01*
X006264D01*
X006364Y022357D01*
X007341Y019458D02*
X007141D01*
X007241D01*
Y018858D01*
X007341D01*
X007141D01*
X006441Y019358D02*
X006541Y019458D01*
X006741D01*
X006841Y019358D01*
Y018958D01*
X006741Y018858D01*
X006541D01*
X006441Y018958D01*
X006241Y018858D02*
X006042D01*
X006141D01*
Y019458D01*
X006241Y019358D01*
X05063Y022834D02*
Y022234D01*
Y022534D01*
X05023D01*
Y022834D01*
Y022234D01*
X04963Y022734D02*
X04973Y022834D01*
X04993D01*
X05003Y022734D01*
Y022334D01*
X04993Y022234D01*
X04973D01*
X04963Y022334D01*
X04943Y022234D02*
X04923D01*
X04933D01*
Y022834D01*
X04943Y022734D01*
X04853Y022234D02*
X04893D01*
X04853Y022634D01*
Y022734D01*
X04863Y022834D01*
X04883D01*
X04893Y022734D01*
X038442Y022559D02*
X038542Y022658D01*
X038742D01*
X038842Y022559D01*
Y022159D01*
X038742Y022059D01*
X038542D01*
X038442Y022159D01*
X037842Y022059D02*
X038242D01*
X037842Y022459D01*
Y022559D01*
X037942Y022658D01*
X038142D01*
X038242Y022559D01*
X037243Y022658D02*
X037643D01*
Y022359D01*
X037443Y022459D01*
X037343D01*
X037243Y022359D01*
Y022159D01*
X037343Y022059D01*
X037543D01*
X037643Y022159D01*
X041882Y026269D02*
X041982Y026369D01*
X042182D01*
X042282Y026269D01*
Y025869D01*
X042182Y025769D01*
X041982D01*
X041882Y025869D01*
X041282Y025769D02*
X041682D01*
X041282Y026169D01*
Y026269D01*
X041382Y026369D01*
X041582D01*
X041682Y026269D01*
X040783Y025769D02*
Y026369D01*
X041082Y026069D01*
X040683D01*
X037119Y022333D02*
X037219Y022432D01*
X037419D01*
X037519Y022333D01*
Y021933D01*
X037419Y021833D01*
X037219D01*
X037119Y021933D01*
X036519Y021833D02*
X036919D01*
X036519Y022233D01*
Y022333D01*
X036619Y022432D01*
X036819D01*
X036919Y022333D01*
X036319D02*
X036219Y022432D01*
X03602D01*
X03592Y022333D01*
Y022233D01*
X03602Y022133D01*
X03612D01*
X03602D01*
X03592Y022033D01*
Y021933D01*
X03602Y021833D01*
X036219D01*
X036319Y021933D01*
X038321Y02083D02*
X038421Y02093D01*
X038621D01*
X038721Y02083D01*
Y02043D01*
X038621Y02033D01*
X038421D01*
X038321Y02043D01*
X037721Y02033D02*
X038121D01*
X037721Y02073D01*
Y02083D01*
X037821Y02093D01*
X038021D01*
X038121Y02083D01*
X037121Y02033D02*
X037521D01*
X037121Y02073D01*
Y02083D01*
X037221Y02093D01*
X037421D01*
X037521Y02083D01*
X04473Y013255D02*
X04483Y013355D01*
X04503D01*
X04513Y013255D01*
Y012856D01*
X04503Y012756D01*
X04483D01*
X04473Y012856D01*
X04413Y012756D02*
X04453D01*
X04413Y013155D01*
Y013255D01*
X04423Y013355D01*
X04443D01*
X04453Y013255D01*
X04393Y012756D02*
X04373D01*
X04383D01*
Y013355D01*
X04393Y013255D01*
X023103Y028287D02*
X023203Y028387D01*
X023403D01*
X023503Y028287D01*
Y027887D01*
X023403Y027787D01*
X023203D01*
X023103Y027887D01*
X022903Y027787D02*
X022703D01*
X022803D01*
Y028387D01*
X022903Y028287D01*
X022404Y027887D02*
X022304Y027787D01*
X022104D01*
X022004Y027887D01*
Y028287D01*
X022104Y028387D01*
X022304D01*
X022404Y028287D01*
Y028187D01*
X022304Y028087D01*
X022004D01*
X003597Y011855D02*
X003697Y011955D01*
X003897D01*
X003997Y011855D01*
Y011455D01*
X003897Y011356D01*
X003697D01*
X003597Y011455D01*
X003397Y011356D02*
X003197D01*
X003297D01*
Y011955D01*
X003397Y011855D01*
X002897D02*
X002797Y011955D01*
X002597D01*
X002497Y011855D01*
Y011755D01*
X002597Y011655D01*
X002497Y011555D01*
Y011455D01*
X002597Y011356D01*
X002797D01*
X002897Y011455D01*
Y011555D01*
X002797Y011655D01*
X002897Y011755D01*
Y011855D01*
X002797Y011655D02*
X002597D01*
X006807Y016476D02*
X006907Y016576D01*
X007107D01*
X007207Y016476D01*
Y016076D01*
X007107Y015976D01*
X006907D01*
X006807Y016076D01*
X006607Y015976D02*
X006407D01*
X006507D01*
Y016576D01*
X006607Y016476D01*
X005707Y016576D02*
X006107D01*
Y016276D01*
X005907Y016376D01*
X005807D01*
X005707Y016276D01*
Y016076D01*
X005807Y015976D01*
X006007D01*
X006107Y016076D01*
X007006Y023057D02*
X007106Y023157D01*
X007306D01*
X007406Y023057D01*
Y022657D01*
X007306Y022557D01*
X007106D01*
X007006Y022657D01*
X006806Y022557D02*
X006606D01*
X006706D01*
Y023157D01*
X006806Y023057D01*
X006006Y022557D02*
Y023157D01*
X006306Y022857D01*
X005906D01*
X005472Y023052D02*
X005572Y023152D01*
X005772D01*
X005871Y023052D01*
Y022652D01*
X005772Y022553D01*
X005572D01*
X005472Y022652D01*
X005272Y022553D02*
X005072D01*
X005172D01*
Y023152D01*
X005272Y023052D01*
X004772D02*
X004672Y023152D01*
X004472D01*
X004372Y023052D01*
Y022952D01*
X004472Y022852D01*
X004572D01*
X004472D01*
X004372Y022752D01*
Y022652D01*
X004472Y022553D01*
X004672D01*
X004772Y022652D01*
X00519Y016417D02*
X00549D01*
X00559Y016317D01*
Y016117D01*
X00549Y016017D01*
X00519D01*
X00499D02*
X00479D01*
X00489D01*
Y016617D01*
X00499Y016517D01*
X004091Y016017D02*
X00449D01*
X004091Y016417D01*
Y016517D01*
X004191Y016617D01*
X00439D01*
X00449Y016517D01*
X003276Y009009D02*
X003376Y009109D01*
X003576D01*
X003676Y009009D01*
Y008609D01*
X003576Y008509D01*
X003376D01*
X003276Y008609D01*
X003076Y008509D02*
X002877D01*
X002977D01*
Y009109D01*
X003076Y009009D01*
X002577Y008509D02*
X002377D01*
X002477D01*
Y009109D01*
X002577Y009009D01*
X002171Y012494D02*
X002271Y012594D01*
X002471D01*
X002571Y012494D01*
Y012094D01*
X002471Y011994D01*
X002271D01*
X002171Y012094D01*
X001971Y011994D02*
X001771D01*
X001871D01*
Y012594D01*
X001971Y012494D01*
X001472D02*
X001372Y012594D01*
X001172D01*
X001072Y012494D01*
Y012094D01*
X001172Y011994D01*
X001372D01*
X001472Y012094D01*
Y012494D01*
X00286Y011745D02*
X002959Y011845D01*
X003159D01*
X003259Y011745D01*
Y011345D01*
X003159Y011245D01*
X002959D01*
X00286Y011345D01*
X00266D02*
X00256Y011245D01*
X00236D01*
X00226Y011345D01*
Y011745D01*
X00236Y011845D01*
X00256D01*
X00266Y011745D01*
Y011645D01*
X00256Y011545D01*
X00226D01*
X033523Y01874D02*
X033623Y01884D01*
X033823D01*
X033923Y01874D01*
Y01834D01*
X033823Y01824D01*
X033623D01*
X033523Y01834D01*
X032923Y01884D02*
X033123Y01874D01*
X033323Y01854D01*
Y01834D01*
X033223Y01824D01*
X033023D01*
X032923Y01834D01*
Y01844D01*
X033023Y01854D01*
X033323D01*
X033369Y026397D02*
X033469Y026497D01*
X033669D01*
X033769Y026397D01*
Y025997D01*
X033669Y025897D01*
X033469D01*
X033369Y025997D01*
X03277Y026497D02*
X033169D01*
Y026197D01*
X032969Y026297D01*
X03287D01*
X03277Y026197D01*
Y025997D01*
X03287Y025897D01*
X033069D01*
X033169Y025997D01*
X028993Y024877D02*
X029093Y024977D01*
X029293D01*
X029393Y024877D01*
Y024477D01*
X029293Y024377D01*
X029093D01*
X028993Y024477D01*
X028493Y024377D02*
Y024977D01*
X028793Y024677D01*
X028393D01*
X0326Y023485D02*
X0327Y023585D01*
X0329D01*
X033Y023485D01*
Y023085D01*
X0329Y022985D01*
X0327D01*
X0326Y023085D01*
X0324Y023485D02*
X0323Y023585D01*
X0321D01*
X032Y023485D01*
Y023385D01*
X0321Y023285D01*
X0322D01*
X0321D01*
X032Y023185D01*
Y023085D01*
X0321Y022985D01*
X0323D01*
X0324Y023085D01*
X027923Y026177D02*
X028023Y026277D01*
X028223D01*
X028323Y026177D01*
Y025777D01*
X028223Y025677D01*
X028023D01*
X027923Y025777D01*
X027323Y025677D02*
X027723D01*
X027323Y026077D01*
Y026177D01*
X027423Y026277D01*
X027623D01*
X027723Y026177D01*
X034973Y026227D02*
X035073Y026327D01*
X035273D01*
X035373Y026227D01*
Y025827D01*
X035273Y025727D01*
X035073D01*
X034973Y025827D01*
X034773Y025727D02*
X034573D01*
X034673D01*
Y026327D01*
X034773Y026227D01*
X00705Y03821D02*
X00665Y03781D01*
X00705D02*
X00665Y03821D01*
X00705Y03801D02*
X00665D01*
X00685Y03781D02*
Y03821D01*
D22*
X-000572Y007396D02*
X-000239Y007729D01*
X-000572D02*
X-000239Y007396D01*
X-000572Y007563D02*
X-000239D01*
X-000405Y007729D02*
Y007396D01*
X025847Y026762D02*
X025514Y026428D01*
X025847D02*
X025514Y026762D01*
X025847Y026595D02*
X025514D01*
X02568Y026428D02*
Y026762D01*
D129*
X000531Y036319D02*
Y036188D01*
Y036253D01*
X000138D01*
X000204Y036319D01*
M02*
