G04*
G04 #@! TF.GenerationSoftware,Altium Limited,Altium Designer,18.1.6 (161)*
G04*
G04 Layer_Color=32768*
%FSTAX24Y24*%
%MOIN*%
G70*
G01*
G75*
%ADD13C,0.0060*%
%ADD132C,0.0039*%
%ADD133C,0.0020*%
G36*
X000404Y006777D02*
X000165D01*
Y003537D01*
X002985D01*
Y006777D01*
X002746D01*
Y007997D01*
X000404D01*
Y006777D01*
D02*
G37*
G36*
X025482Y02298D02*
X026057D01*
Y02639D01*
X025482D01*
Y026505D01*
X023712D01*
Y02639D01*
X023137D01*
Y02298D01*
X023712D01*
Y022865D01*
X025482D01*
Y02298D01*
D02*
G37*
G36*
X02908Y01813D02*
Y01887D01*
X03399D01*
Y01813D01*
X034195D01*
Y01494D01*
X03399D01*
Y0142D01*
X02908D01*
Y01494D01*
X028875D01*
Y01813D01*
X02908D01*
D02*
G37*
G36*
X032299Y026145D02*
X032602D01*
Y025843D01*
X033052D01*
Y023527D01*
X032602D01*
Y023225D01*
X032299D01*
Y022775D01*
X029984D01*
Y023225D01*
X029682D01*
Y023527D01*
X029232D01*
Y025843D01*
X029682D01*
Y026145D01*
X029984D01*
Y026595D01*
X032299D01*
Y026145D01*
D02*
G37*
G36*
X043072Y037639D02*
X043427D01*
Y037285D01*
X043507D01*
Y035944D01*
X043427D01*
Y035589D01*
X043072D01*
Y035509D01*
X041731D01*
Y035589D01*
X041377D01*
Y035944D01*
X041297D01*
Y037285D01*
X041377D01*
Y037639D01*
X041731D01*
Y037719D01*
X043072D01*
Y037639D01*
D02*
G37*
D13*
X000165Y003537D02*
Y006777D01*
Y003537D02*
X002985D01*
Y006777D01*
X002746D02*
X002985D01*
X002746D02*
Y007997D01*
X000404D02*
X002746D01*
X000404Y006777D02*
Y007997D01*
X000165Y006777D02*
X000404D01*
X026057Y02298D02*
Y02639D01*
X025482D02*
X026057D01*
X025482D02*
Y026505D01*
X023712D02*
X025482D01*
X023712Y02639D02*
Y026505D01*
X023137Y02639D02*
X023712D01*
X023137Y02298D02*
Y02639D01*
Y02298D02*
X023712D01*
Y022865D02*
Y02298D01*
Y022865D02*
X025482D01*
Y02298D01*
X026057D01*
X043072Y037639D02*
X043427D01*
X043072D02*
Y037719D01*
X041731D02*
X043072D01*
X041731Y037639D02*
Y037719D01*
X041377Y037639D02*
X041731D01*
X041377Y037285D02*
Y037639D01*
X041297Y037285D02*
X041377D01*
X041297Y035944D02*
Y037285D01*
Y035944D02*
X041377D01*
Y035589D02*
Y035944D01*
Y035589D02*
X041731D01*
Y035509D02*
Y035589D01*
Y035509D02*
X043072D01*
Y035589D01*
X043427D01*
Y035944D01*
X043507D01*
Y037285D01*
X043427D02*
X043507D01*
X043427D02*
Y037639D01*
X02908Y01887D02*
X03399D01*
Y01813D02*
Y01887D01*
Y01813D02*
X034195D01*
Y01494D02*
Y01813D01*
X03399Y01494D02*
X034195D01*
X03399Y0142D02*
Y01494D01*
X02908Y0142D02*
X03399D01*
X02908D02*
Y01494D01*
X028875D02*
X02908D01*
X028875D02*
Y01813D01*
X02908D01*
Y01887D01*
X029682Y026145D02*
X029984D01*
Y026595D01*
X032299D01*
Y026145D02*
Y026595D01*
Y026145D02*
X032602D01*
X029682Y023225D02*
X029984D01*
Y022775D02*
Y023225D01*
Y022775D02*
X032299D01*
Y023225D01*
X032602D01*
X029682D02*
Y023527D01*
X029232D02*
X029682D01*
X029232D02*
Y025843D01*
X029682D01*
Y026145D01*
X032602Y023225D02*
Y023527D01*
X033052D01*
Y025843D01*
X032602D02*
X033052D01*
X032602D02*
Y026145D01*
D132*
X004061Y009252D02*
Y012087D01*
X007486Y009252D02*
Y012087D01*
X004061Y009252D02*
X007486D01*
X004061Y012087D02*
X007486D01*
X005577Y010669D02*
X005971D01*
X005774Y010472D02*
Y010866D01*
X004075Y012126D02*
Y014961D01*
X0075Y012126D02*
Y014961D01*
X004075Y012126D02*
X0075D01*
X004075Y014961D02*
X0075D01*
X005591Y013543D02*
X005984D01*
X005787Y013346D02*
Y01374D01*
X004114Y018701D02*
Y021535D01*
X007539Y018701D02*
Y021535D01*
X004114Y018701D02*
X007539D01*
X004114Y021535D02*
X007539D01*
X00563Y020118D02*
X006024D01*
X005827Y019921D02*
Y020315D01*
X003996Y015709D02*
Y018543D01*
X007421Y015709D02*
Y018543D01*
X003996Y015709D02*
X007421D01*
X003996Y018543D02*
X007421D01*
X005512Y017126D02*
X005906D01*
X005709Y016929D02*
Y017323D01*
X040122Y03736D02*
X040822D01*
X040122Y03891D02*
X040822D01*
X040122Y03736D02*
Y03891D01*
X040822Y03736D02*
Y03891D01*
X040472Y037913D02*
Y038307D01*
X040276Y03811D02*
X040669D01*
X033206Y02573D02*
X033906D01*
X033206Y02418D02*
X033906D01*
Y02573D01*
X033206Y02418D02*
Y02573D01*
X033556Y024783D02*
Y025177D01*
X033359Y02498D02*
X033753D01*
X001146Y03488D02*
X001846D01*
X001146Y03643D02*
X001846D01*
X001146Y03488D02*
Y03643D01*
X001846Y03488D02*
Y03643D01*
X001496Y035433D02*
Y035827D01*
X001299Y03563D02*
X001693D01*
X002012Y03486D02*
X002712D01*
X002012Y03641D02*
X002712D01*
X002012Y03486D02*
Y03641D01*
X002712Y03486D02*
Y03641D01*
X002362Y035413D02*
Y035807D01*
X002165Y03561D02*
X002559D01*
X002878Y03486D02*
X003578D01*
X002878Y03641D02*
X003578D01*
X002878Y03486D02*
Y03641D01*
X003578Y03486D02*
Y03641D01*
X003228Y035413D02*
Y035807D01*
X003031Y03561D02*
X003425D01*
X003666Y034841D02*
X004366D01*
X003666Y036391D02*
X004366D01*
X003666Y034841D02*
Y036391D01*
X004366Y034841D02*
Y036391D01*
X004016Y035394D02*
Y035787D01*
X003819Y035591D02*
X004213D01*
X008354Y031136D02*
Y031836D01*
X009904Y031136D02*
Y031836D01*
X008354D02*
X009904D01*
X008354Y031136D02*
X009904D01*
X008907Y031486D02*
X009301D01*
X009104Y031289D02*
Y031683D01*
X008354Y030428D02*
Y031128D01*
X009904Y030428D02*
Y031128D01*
X008354D02*
X009904D01*
X008354Y030428D02*
X009904D01*
X008907Y030778D02*
X009301D01*
X009104Y030581D02*
Y030974D01*
X044254Y00343D02*
Y00413D01*
X042704Y00343D02*
Y00413D01*
Y00343D02*
X044254D01*
X042704Y00413D02*
X044254D01*
X043307Y00378D02*
X043701D01*
X043504Y003583D02*
Y003976D01*
X045888Y002603D02*
Y003303D01*
X044338Y002603D02*
Y003303D01*
Y002603D02*
X045888D01*
X044338Y003303D02*
X045888D01*
X044941Y002953D02*
X045335D01*
X045138Y002756D02*
Y00315D01*
X042557Y002603D02*
Y003303D01*
X044107Y002603D02*
Y003303D01*
X042557D02*
X044107D01*
X042557Y002603D02*
X044107D01*
X04311Y002953D02*
X043504D01*
X043307Y002756D02*
Y00315D01*
D133*
X025764Y037307D02*
Y037701D01*
X025567Y037504D02*
X025961D01*
X022451Y035614D02*
X029077D01*
X022451D02*
Y039394D01*
X029077D01*
Y035614D02*
Y039394D01*
X018898Y037307D02*
Y037701D01*
X018701Y037504D02*
X019094D01*
X015585Y035614D02*
X022211D01*
X015585D02*
Y039394D01*
X022211D01*
Y035614D02*
Y039394D01*
X00003Y015396D02*
X003809D01*
X00003Y01177D02*
Y015396D01*
Y01177D02*
X003809D01*
Y015396D01*
X001919Y013386D02*
Y01378D01*
X001722Y013583D02*
X002116D01*
X000026Y018978D02*
X003806D01*
X000026Y015352D02*
Y018978D01*
Y015352D02*
X003806D01*
Y018978D01*
X001916Y016969D02*
Y017362D01*
X001719Y017165D02*
X002113D01*
X01937Y002195D02*
Y002589D01*
X019173Y002392D02*
X019567D01*
X016057Y004281D02*
X022683D01*
Y000502D02*
Y004281D01*
X016057Y000502D02*
X022683D01*
X016057D02*
Y004281D01*
X012628Y002195D02*
Y002589D01*
X012431Y002392D02*
X012825D01*
X009315Y004281D02*
X015941D01*
Y000502D02*
Y004281D01*
X009315Y000502D02*
X015941D01*
X009315D02*
Y004281D01*
X015016Y01063D02*
X018764D01*
Y006535D02*
Y01063D01*
X015016Y006535D02*
X018764D01*
X015016D02*
Y01063D01*
X016693Y008583D02*
X017087D01*
X01689Y008386D02*
Y00878D01*
X018756Y01063D02*
X022504D01*
Y006535D02*
Y01063D01*
X018756Y006535D02*
X022504D01*
X018756D02*
Y01063D01*
X020433Y008583D02*
X020827D01*
X02063Y008386D02*
Y00878D01*
X001668Y022402D02*
X002062D01*
X001865Y022205D02*
Y022599D01*
X000015Y019134D02*
Y025669D01*
X003715D01*
Y019134D02*
Y025669D01*
X000015Y019134D02*
X003715D01*
X026555Y026102D02*
X028091D01*
X026555Y023031D02*
Y026102D01*
Y023031D02*
X028091D01*
Y026102D01*
X027126Y024567D02*
X02752D01*
X027323Y02437D02*
Y024764D01*
X034518Y026299D02*
X036053D01*
X034518Y023228D02*
Y026299D01*
Y023228D02*
X036053D01*
Y026299D01*
X035089Y024764D02*
X035482D01*
X035285Y024567D02*
Y024961D01*
X004705Y029764D02*
X00624D01*
Y032835D01*
X004705D02*
X00624D01*
X004705Y029764D02*
Y032835D01*
X005276Y031299D02*
X005669D01*
X005472Y031102D02*
Y031496D01*
X001791Y029764D02*
X003327D01*
Y032835D01*
X001791D02*
X003327D01*
X001791Y029764D02*
Y032835D01*
X002362Y031299D02*
X002756D01*
X002559Y031102D02*
Y031496D01*
X036909Y00878D02*
X038445D01*
X036909Y005709D02*
Y00878D01*
Y005709D02*
X038445D01*
Y00878D01*
X03748Y007244D02*
X037874D01*
X037677Y007047D02*
Y007441D01*
M02*
