G04*
G04 #@! TF.GenerationSoftware,Altium Limited,Altium Designer,18.1.6 (161)*
G04*
G04 Layer_Physical_Order=2*
G04 Layer_Color=16711680*
%FSTAX24Y24*%
%MOIN*%
G70*
G01*
G75*
%ADD11C,0.0080*%
%ADD26R,0.0550X0.0500*%
%ADD30R,0.0500X0.0550*%
%ADD37R,0.0520X0.0220*%
%ADD65O,0.0750X0.0480*%
%ADD89C,0.0150*%
%ADD90C,0.0240*%
%ADD91C,0.0570*%
%ADD92O,0.0650X0.0750*%
%ADD93R,0.0650X0.0750*%
%ADD94O,0.0750X0.0650*%
%ADD95R,0.0750X0.0650*%
%ADD96R,0.0800X0.0800*%
%ADD97C,0.0800*%
%ADD98O,0.0860X0.0600*%
%ADD99C,0.0827*%
%ADD100R,0.0827X0.0827*%
%ADD101O,0.0650X0.0900*%
%ADD102R,0.0650X0.0900*%
%ADD103O,0.0650X0.0850*%
%ADD104R,0.0650X0.0850*%
%ADD105O,0.0650X0.0850*%
%ADD106R,0.0650X0.0850*%
%ADD107R,0.0827X0.0827*%
%ADD108C,0.0600*%
%ADD109C,0.0512*%
%ADD110C,0.0768*%
%ADD111R,0.0768X0.0768*%
%ADD112C,0.0177*%
%ADD113C,0.0240*%
%ADD114R,0.1240X0.0630*%
%ADD115R,0.0370X0.0670*%
%ADD116R,0.2620X0.3040*%
%ADD117R,0.0945X0.0394*%
%ADD118R,0.0945X0.1299*%
%ADD119R,0.0256X0.1000*%
%ADD120R,0.0670X0.0210*%
%ADD121R,0.0220X0.0520*%
%ADD122O,0.0800X0.0600*%
G36*
X047244Y033008D02*
X047227Y032997D01*
X047194Y032989D01*
X04673Y033453D01*
X046729Y033453D01*
X046706Y033488D01*
X04665Y033525D01*
X046585Y033538D01*
X046519Y033525D01*
X046463Y033488D01*
X046426Y033432D01*
X046413Y033366D01*
X046426Y0333D01*
X046463Y033245D01*
X046519Y033207D01*
X046585Y033194D01*
X046633Y033204D01*
X046994Y032843D01*
Y03145D01*
X046354D01*
X046332Y03145D01*
X046306Y031489D01*
Y031825D01*
X045745D01*
X045664Y031907D01*
Y033573D01*
X045654Y03362D01*
X045628Y033659D01*
X044924Y034363D01*
Y034654D01*
X044974Y034679D01*
X045023Y034642D01*
X045111Y034605D01*
X045207Y034592D01*
X045302Y034605D01*
X045391Y034642D01*
X045467Y0347D01*
X045526Y034777D01*
X045562Y034865D01*
X045575Y034961D01*
X045562Y035056D01*
X045526Y035145D01*
X045467Y035221D01*
X045391Y035279D01*
X045302Y035316D01*
X045207Y035329D01*
X045111Y035316D01*
X045023Y035279D01*
X044946Y035221D01*
X044888Y035145D01*
X044863Y035085D01*
X044805Y035073D01*
X044395Y035483D01*
X044355Y035509D01*
X044308Y035519D01*
X044201D01*
X044193Y035526D01*
X044201Y035557D01*
X04422Y035576D01*
X044656D01*
X044662Y035567D01*
X044718Y03553D01*
X044783Y035517D01*
X044849Y03553D01*
X044905Y035567D01*
X044942Y035623D01*
X044955Y035689D01*
X044942Y035755D01*
X044908Y035806D01*
X044937Y035825D01*
X044974Y035881D01*
X044987Y035947D01*
X044974Y036012D01*
X044937Y036068D01*
X044881Y036105D01*
X044815Y036119D01*
X044749Y036105D01*
X044694Y036068D01*
X044681Y036049D01*
X04401D01*
X043956Y036086D01*
X04389Y036099D01*
X043824Y036086D01*
X043768Y036048D01*
X043731Y035993D01*
X043718Y035927D01*
X043731Y035861D01*
X043737Y035852D01*
X043714Y035808D01*
X043257D01*
Y035175D01*
X043017D01*
Y035808D01*
X042586D01*
X042567Y035854D01*
X042949Y036236D01*
X043681D01*
X043728Y036245D01*
X043768Y036272D01*
X043832Y036336D01*
X045209D01*
X045256Y036345D01*
X045295Y036372D01*
X045322Y036412D01*
X045331Y036458D01*
X045322Y036505D01*
X045309Y036524D01*
X045308Y036531D01*
X045322Y036579D01*
X045325Y036583D01*
X045391Y03661D01*
X045467Y036669D01*
X045526Y036745D01*
X045562Y036834D01*
X045575Y036929D01*
X045562Y037024D01*
X045526Y037113D01*
X045467Y037189D01*
X045391Y037248D01*
X045302Y037285D01*
X045207Y037297D01*
X045111Y037285D01*
X045023Y037248D01*
X044946Y037189D01*
X044888Y037113D01*
X044851Y037024D01*
X044839Y036929D01*
X044851Y036834D01*
X044888Y036745D01*
X044946Y036669D01*
X044996Y036631D01*
X044979Y036581D01*
X043781D01*
X043734Y036572D01*
X043695Y036545D01*
X04363Y036481D01*
X042898D01*
X042851Y036471D01*
X042811Y036445D01*
X04223Y035864D01*
X042204Y035824D01*
X042195Y035777D01*
Y035428D01*
X042071Y035305D01*
X042045Y035265D01*
X042035Y035218D01*
X042045Y035171D01*
X042064Y035143D01*
X042051Y035105D01*
X042042Y035093D01*
X041729D01*
Y035025D01*
X041624D01*
Y035237D01*
X041441D01*
Y035256D01*
X041432Y035303D01*
X041405Y035342D01*
X04114Y035608D01*
X0411Y035635D01*
X041053Y035644D01*
X040258D01*
X040204Y03568D01*
X040138Y035694D01*
X040072Y03568D01*
X040016Y035643D01*
X039979Y035587D01*
X039966Y035522D01*
X039979Y035456D01*
X040016Y0354D01*
X040072Y035363D01*
X040138Y03535D01*
X040204Y035363D01*
X040258Y035399D01*
X04068D01*
X040707Y035349D01*
X040689Y035323D01*
X040676Y035257D01*
X040659Y035237D01*
X040064D01*
Y03503D01*
X039252D01*
X039191Y035018D01*
X03914Y034984D01*
X03901Y034854D01*
X039009Y034854D01*
X038953Y034816D01*
X038916Y034761D01*
X038903Y034695D01*
X038916Y034629D01*
X038953Y034573D01*
X039009Y034536D01*
X039075Y034523D01*
X039141Y034536D01*
X039196Y034573D01*
X039234Y034629D01*
X039234Y03463D01*
X039317Y034714D01*
X040064D01*
Y034527D01*
X040148D01*
Y034396D01*
X037534D01*
X037497Y034421D01*
X037431Y034434D01*
X037365Y034421D01*
X03731Y034383D01*
X037272Y034328D01*
X037259Y034262D01*
X037272Y034196D01*
X03731Y03414D01*
X037365Y034103D01*
X037431Y03409D01*
X037497Y034103D01*
X037553Y03414D01*
X03756Y034151D01*
X039819D01*
X039855Y034101D01*
X039848Y034065D01*
X039861Y033999D01*
X039897Y033945D01*
Y031667D01*
X039887Y031651D01*
X039878Y031604D01*
X039887Y031558D01*
X039913Y031518D01*
X041777Y029654D01*
X04179Y02959D01*
X041827Y029534D01*
X041883Y029497D01*
X041949Y029484D01*
X042015Y029497D01*
X04207Y029534D01*
X042108Y02959D01*
X042121Y029656D01*
X042108Y029721D01*
X04207Y029777D01*
X042015Y029814D01*
X04195Y029827D01*
X040142Y031635D01*
Y03381D01*
X040148Y033858D01*
X040732D01*
X040735Y033841D01*
X040761Y033801D01*
X040929Y033634D01*
X040969Y033607D01*
X041015Y033598D01*
X042942D01*
X043038Y033502D01*
Y032875D01*
X042426D01*
Y032165D01*
X043038D01*
Y031437D01*
X043047Y03139D01*
X043073Y03135D01*
X043326Y031097D01*
X043221Y030992D01*
X043194Y030952D01*
X043185Y030906D01*
Y028671D01*
X043194Y028624D01*
X043221Y028585D01*
X043488Y028318D01*
X043489Y028268D01*
X043489Y028268D01*
X043489Y028268D01*
Y027558D01*
X044149D01*
Y027771D01*
X046152D01*
X046198Y027781D01*
X046238Y027807D01*
X046435Y028004D01*
X046461Y028044D01*
X046471Y028091D01*
Y028838D01*
X046467Y028854D01*
X046504Y028904D01*
X046973D01*
Y029261D01*
X047194Y029483D01*
X047227Y029475D01*
X047244Y029463D01*
Y0D01*
X0D01*
Y026985D01*
X00005Y027D01*
X000059Y026986D01*
X000278Y026767D01*
Y02608D01*
X001088D01*
Y02699D01*
X000401D01*
X000268Y027123D01*
Y029868D01*
X000579D01*
Y02879D01*
X001116D01*
X001344Y028562D01*
X001357Y028497D01*
X001394Y028441D01*
X00145Y028404D01*
X001516Y028391D01*
X001521Y028392D01*
X001542Y028345D01*
X001467Y028288D01*
X001402Y028203D01*
X001361Y028105D01*
X001347Y027999D01*
Y027749D01*
X001361Y027643D01*
X001402Y027545D01*
X001467Y02746D01*
X001552Y027395D01*
X00165Y027354D01*
X001756Y027341D01*
X001862Y027354D01*
X00196Y027395D01*
X002018Y027439D01*
X002505Y026952D01*
X002509Y026917D01*
X002505Y026889D01*
X002485Y026874D01*
X00242Y02679D01*
X002379Y026691D01*
X002365Y026585D01*
Y026485D01*
X002379Y02638D01*
X00242Y026281D01*
X002485Y026197D01*
X00257Y026132D01*
X002668Y026091D01*
X002774Y026077D01*
X00288Y026091D01*
X002978Y026132D01*
X002993Y026143D01*
X003947Y025189D01*
X003987Y025163D01*
X004034Y025153D01*
X007283D01*
X00733Y025163D01*
X00737Y025189D01*
X009161Y02698D01*
X009188Y02702D01*
X009197Y027067D01*
Y029646D01*
X009188Y029692D01*
X009161Y029732D01*
X008657Y030237D01*
X008617Y030263D01*
X00857Y030272D01*
X006174D01*
X006127Y030263D01*
X006087Y030237D01*
X005819Y029968D01*
X005807Y02995D01*
X004516D01*
Y02879D01*
X004602D01*
Y028686D01*
X004611Y028639D01*
X004613Y028637D01*
X004586Y028587D01*
X004442D01*
X004422Y028608D01*
X004382Y028634D01*
X004335Y028644D01*
X004167D01*
X004071Y02874D01*
X004087Y02879D01*
X004145D01*
Y02995D01*
X002051D01*
Y030609D01*
X002305Y030862D01*
X007036D01*
X007197Y030701D01*
X007237Y030674D01*
X007283Y030665D01*
X007471D01*
Y030432D01*
X008131D01*
Y031142D01*
X008125D01*
Y031831D01*
X007465D01*
Y031477D01*
X002398D01*
X002351Y031467D01*
X002311Y031441D01*
X001606Y030736D01*
X00158Y030696D01*
X001571Y030649D01*
Y02995D01*
X00091D01*
Y029961D01*
X0009Y030007D01*
X000874Y030047D01*
X000844Y030077D01*
X000805Y030103D01*
X000758Y030112D01*
X000216D01*
X000169Y030103D01*
X00013Y030077D01*
X000059Y030006D01*
X00005Y029992D01*
X0Y030008D01*
Y03937D01*
X047244D01*
Y033008D01*
D02*
G37*
G36*
X041729Y034713D02*
X041987D01*
X041999Y034663D01*
X041971Y034644D01*
X041944Y034604D01*
X041935Y034557D01*
X041944Y03451D01*
X041971Y034471D01*
X04201Y034444D01*
X042057Y034435D01*
X042652D01*
Y034224D01*
X042661Y034177D01*
X042688Y034137D01*
X042807Y034018D01*
X042847Y033991D01*
X042894Y033982D01*
X042941Y033991D01*
X04298Y034018D01*
X043007Y034058D01*
X043016Y034104D01*
X043007Y034151D01*
X04298Y034191D01*
X042897Y034274D01*
Y034477D01*
X043029Y034609D01*
X043056Y034649D01*
X043056Y034649D01*
X043106Y034644D01*
Y033849D01*
X043056Y033822D01*
X043039Y033834D01*
X042993Y033843D01*
X041752D01*
X041708Y033858D01*
Y033921D01*
X041729Y033963D01*
X042409D01*
Y034343D01*
X041729D01*
X041708Y034384D01*
Y034568D01*
X041624D01*
Y03478D01*
X041729D01*
Y034713D01*
D02*
G37*
G36*
X044679Y034852D02*
Y034312D01*
X044689Y034266D01*
X044715Y034226D01*
X045419Y033522D01*
Y031856D01*
X045425Y031826D01*
X045395Y031776D01*
X045D01*
X044953Y031767D01*
X044914Y03174D01*
X044732Y031558D01*
X044686Y031577D01*
Y031817D01*
X044674Y031877D01*
X044639Y031928D01*
X044449Y032118D01*
X044468Y032165D01*
X045054D01*
Y032334D01*
X045104Y032366D01*
X045148Y032358D01*
X045213Y032371D01*
X045269Y032408D01*
X045306Y032464D01*
X04532Y03253D01*
X045306Y032595D01*
X045269Y032651D01*
X045213Y032688D01*
X045148Y032701D01*
X045104Y032693D01*
X045054Y032726D01*
Y032875D01*
X044394D01*
Y032239D01*
X044348Y032219D01*
X044154Y032413D01*
Y032875D01*
X043494D01*
Y032165D01*
X043956D01*
X04437Y031751D01*
Y031526D01*
X043846D01*
X043845Y031527D01*
X04378Y03154D01*
X043714Y031527D01*
X043658Y03149D01*
X043621Y031434D01*
X043608Y031368D01*
X043621Y031302D01*
X043658Y031247D01*
X043714Y031209D01*
X043731Y031206D01*
Y031104D01*
X043684Y031085D01*
X043586Y031184D01*
X043586Y031184D01*
X043586Y031184D01*
X043282Y031487D01*
Y031844D01*
X043328Y031863D01*
X043441Y031751D01*
X043453Y031686D01*
X043491Y03163D01*
X043546Y031593D01*
X043612Y03158D01*
X043678Y031593D01*
X043734Y03163D01*
X043771Y031686D01*
X043784Y031752D01*
X043771Y031818D01*
X043734Y031874D01*
X043678Y031911D01*
X043614Y031924D01*
X043442Y032095D01*
Y033619D01*
X043433Y033666D01*
X043406Y033706D01*
X043351Y033762D01*
Y033972D01*
X043955D01*
Y034219D01*
X044027Y034291D01*
X044054Y034331D01*
X044063Y034378D01*
Y034646D01*
X044338Y034922D01*
X044365Y034961D01*
X044374Y035008D01*
Y035087D01*
X044424Y035107D01*
X044679Y034852D01*
D02*
G37*
G36*
X045626Y031445D02*
X046284D01*
X046306Y031445D01*
X046332Y031405D01*
Y031114D01*
X046306Y031075D01*
X046284Y031075D01*
X045626D01*
Y030988D01*
X045291D01*
Y031221D01*
X044806D01*
X044787Y031267D01*
X045051Y031531D01*
X045626D01*
Y031445D01*
D02*
G37*
G36*
X007465Y031121D02*
X007471D01*
Y03091D01*
X007334D01*
X007173Y031071D01*
X007133Y031097D01*
X007087Y031107D01*
X002388D01*
X002369Y031153D01*
X002448Y031232D01*
X007465D01*
Y031121D01*
D02*
G37*
G36*
X046834Y030925D02*
Y029695D01*
X046586Y029447D01*
X046323D01*
X046317Y029446D01*
X046267Y029487D01*
Y029659D01*
X046049D01*
Y029929D01*
X04604Y029976D01*
X046014Y030016D01*
X045815Y030214D01*
X045775Y030241D01*
X045728Y03025D01*
X04498D01*
X044933Y030241D01*
X044894Y030214D01*
X044431Y029752D01*
X044405Y029712D01*
X044395Y029665D01*
Y029135D01*
X044217D01*
Y029733D01*
X044677Y030193D01*
X044704Y030233D01*
X044713Y03028D01*
Y030511D01*
X045291D01*
Y030744D01*
X045626D01*
Y030695D01*
X046306D01*
Y03103D01*
X046332Y03107D01*
X046354Y03107D01*
X046689D01*
X046834Y030925D01*
D02*
G37*
G36*
X044468Y031171D02*
Y03033D01*
X044008Y02987D01*
X043981Y02983D01*
X043972Y029783D01*
Y029135D01*
X043764D01*
Y028507D01*
X043644D01*
X043429Y028722D01*
Y030855D01*
X043499Y030924D01*
X043595Y030829D01*
X043634Y030802D01*
X043681Y030793D01*
X043731D01*
Y030511D01*
X044391D01*
Y031203D01*
X044427Y031207D01*
X044468Y031171D01*
D02*
G37*
G36*
X045805Y029879D02*
Y029659D01*
X045587D01*
Y029279D01*
X04611D01*
X04613Y029254D01*
Y028934D01*
X046111Y028909D01*
X045587D01*
Y028902D01*
X045324D01*
Y029135D01*
X044664D01*
X04464Y029174D01*
Y029615D01*
X045031Y030006D01*
X045678D01*
X045805Y029879D01*
D02*
G37*
G36*
X008788Y029534D02*
Y028498D01*
X008741Y028479D01*
X008531Y028689D01*
X008492Y028715D01*
X008445Y028725D01*
X006889D01*
X006877Y02874D01*
X006901Y02879D01*
X006901D01*
Y029868D01*
X008453D01*
X008788Y029534D01*
D02*
G37*
G36*
X045587Y028529D02*
X046226D01*
Y028141D01*
X046101Y028016D01*
X044149D01*
Y028262D01*
X044394D01*
X044441Y028271D01*
X044481Y028298D01*
X044604Y028422D01*
X044614Y028437D01*
X044664Y028425D01*
Y028425D01*
X045324D01*
Y028657D01*
X045587D01*
Y028529D01*
D02*
G37*
G36*
X006551Y02874D02*
X00656Y028693D01*
X006587Y028654D01*
X006725Y028516D01*
X006764Y028489D01*
X006811Y02848D01*
X008394D01*
X008628Y028247D01*
Y027285D01*
X008574Y027232D01*
X008526Y027246D01*
X008525Y027254D01*
X008488Y027309D01*
X008432Y027347D01*
X008366Y02736D01*
X0083Y027347D01*
X008245Y027309D01*
X008207Y027254D01*
X008195Y027189D01*
X008185Y027179D01*
X006208D01*
X006111Y027277D01*
X006071Y027303D01*
X006024Y027313D01*
X00549D01*
X005152Y027651D01*
X005164Y027749D01*
Y027999D01*
X00515Y028105D01*
X00511Y028203D01*
X005045Y028288D01*
X005036Y028295D01*
X005052Y028342D01*
X005367D01*
X005563Y028145D01*
Y027458D01*
X006374D01*
Y02776D01*
X006412Y027791D01*
X006413Y027791D01*
X00658D01*
X006584Y027758D01*
X006625Y027659D01*
X00669Y027575D01*
X006774Y02751D01*
X006873Y027469D01*
X006978Y027455D01*
X007084Y027469D01*
X007183Y02751D01*
X007267Y027575D01*
X007332Y027659D01*
X007373Y027758D01*
X007387Y027863D01*
Y027963D01*
X007373Y028069D01*
X007332Y028168D01*
X007267Y028252D01*
X007183Y028317D01*
X007084Y028358D01*
X006978Y028372D01*
X006873Y028358D01*
X006774Y028317D01*
X00669Y028252D01*
X006625Y028168D01*
X006584Y028069D01*
X006536Y028078D01*
Y028338D01*
X006527Y028385D01*
X0065Y028425D01*
X006214Y028711D01*
X006174Y028738D01*
X006161Y02874D01*
X006166Y02879D01*
X006551D01*
Y02874D01*
D02*
G37*
G36*
X003027Y02848D02*
X003037Y028433D01*
X003063Y028394D01*
X00336Y028097D01*
X003347Y027999D01*
Y027749D01*
X003361Y027643D01*
X003402Y027545D01*
X003467Y02746D01*
X003552Y027395D01*
X00365Y027354D01*
X003756Y027341D01*
X003862Y027354D01*
X00396Y027395D01*
X004045Y02746D01*
X00411Y027545D01*
X00415Y027643D01*
X004164Y027749D01*
Y027999D01*
X00415Y028105D01*
X004116Y028189D01*
X004139Y028239D01*
X004218D01*
X00436Y028097D01*
X004347Y027999D01*
Y027749D01*
X004361Y027643D01*
X004402Y027545D01*
X004467Y02746D01*
X004552Y027395D01*
X00465Y027354D01*
X004756Y027341D01*
X004862Y027354D01*
X00496Y027395D01*
X005018Y027439D01*
X005258Y027199D01*
X005239Y027153D01*
X00265D01*
X002152Y027651D01*
X002164Y027749D01*
Y027999D01*
X002152Y028097D01*
X002449Y028394D01*
X002475Y028433D01*
X002485Y02848D01*
Y02879D01*
X002634D01*
Y028387D01*
X002552Y028353D01*
X002467Y028288D01*
X002402Y028203D01*
X002361Y028105D01*
X002347Y027999D01*
Y027749D01*
X002361Y027643D01*
X002402Y027545D01*
X002467Y02746D01*
X002552Y027395D01*
X00265Y027354D01*
X002756Y027341D01*
X002862Y027354D01*
X00296Y027395D01*
X003045Y02746D01*
X00311Y027545D01*
X00315Y027643D01*
X003164Y027749D01*
Y027999D01*
X00315Y028105D01*
X00311Y028203D01*
X003045Y028288D01*
X00296Y028353D01*
X002878Y028387D01*
Y02879D01*
X003027D01*
Y02848D01*
D02*
G37*
G36*
X008227Y026885D02*
X007061Y025718D01*
X006102D01*
X006074Y025761D01*
X006073Y025768D01*
X006081Y02581D01*
Y02635D01*
X006072Y026397D01*
X006046Y026437D01*
X00586Y026622D01*
X005821Y026648D01*
X005774Y026658D01*
X005727Y026648D01*
X005687Y026622D01*
X005661Y026582D01*
X005651Y026535D01*
X005661Y026489D01*
X005687Y026449D01*
X005837Y026299D01*
Y02581D01*
X005845Y025768D01*
X005844Y025761D01*
X005816Y025718D01*
X005406D01*
X005009Y026115D01*
X005012Y026165D01*
X005053Y026197D01*
X005118Y026281D01*
X005158Y02638D01*
X005172Y026485D01*
Y026585D01*
X005158Y026691D01*
X005118Y02679D01*
X005065Y026858D01*
X005086Y026908D01*
X005907D01*
X00613Y026685D01*
X00617Y026659D01*
X006217Y026649D01*
X007198D01*
X007208Y026642D01*
X007274Y026629D01*
X00734Y026642D01*
X007395Y02668D01*
X007433Y026735D01*
X007446Y026801D01*
X007433Y026867D01*
X007421Y026885D01*
X007448Y026935D01*
X008207D01*
X008227Y026885D01*
D02*
G37*
G36*
X003483Y026858D02*
X00343Y02679D01*
X003389Y026691D01*
X003375Y026585D01*
Y026485D01*
X003389Y02638D01*
X00343Y026281D01*
X003495Y026197D01*
X00358Y026132D01*
X003678Y026091D01*
X003784Y026077D01*
X00389Y026091D01*
X003988Y026132D01*
X004073Y026197D01*
X004114Y02625D01*
X004164Y026254D01*
X004973Y025444D01*
X004954Y025398D01*
X004084D01*
X003149Y026333D01*
X003168Y02638D01*
X003182Y026485D01*
Y026585D01*
X003168Y026691D01*
X003128Y02679D01*
X003075Y026858D01*
X003096Y026908D01*
X003461D01*
X003483Y026858D01*
D02*
G37*
%LPC*%
G36*
X043691Y038508D02*
X042087D01*
X04204Y038499D01*
X042Y038472D01*
X041974Y038433D01*
X041964Y038386D01*
X041974Y038339D01*
X042Y038299D01*
X04204Y038273D01*
X042087Y038263D01*
X043691D01*
X043738Y038273D01*
X043777Y038299D01*
X043804Y038339D01*
X043813Y038386D01*
X043804Y038433D01*
X043777Y038472D01*
X043738Y038499D01*
X043691Y038508D01*
D02*
G37*
G36*
X006136Y039223D02*
X002825D01*
X002764Y039211D01*
X002713Y039177D01*
X002418Y038881D01*
X002387Y038835D01*
X002325Y038809D01*
X002241Y038744D01*
X002176Y03866D01*
X002135Y038561D01*
X002121Y038456D01*
Y038356D01*
X002135Y03825D01*
X002176Y038151D01*
X002241Y038067D01*
X002325Y038002D01*
X002424Y037961D01*
X00253Y037947D01*
X002635Y037961D01*
X002734Y038002D01*
X002818Y038067D01*
X002883Y038151D01*
X002924Y03825D01*
X002938Y038356D01*
Y038456D01*
X002924Y038561D01*
X002883Y03866D01*
X002818Y038744D01*
X002797Y038761D01*
X002794Y038811D01*
X00289Y038907D01*
X004462D01*
X004466Y038857D01*
X004414Y03885D01*
X004315Y038809D01*
X004231Y038744D01*
X004166Y03866D01*
X004125Y038561D01*
X004111Y038456D01*
Y038356D01*
X004125Y03825D01*
X004166Y038151D01*
X004231Y038067D01*
X004315Y038002D01*
X004414Y037961D01*
X00452Y037947D01*
X004625Y037961D01*
X004644Y037969D01*
X004672Y037926D01*
X004457Y037711D01*
X001382D01*
X001335Y037702D01*
X001295Y037675D01*
X00124Y03762D01*
X001214Y037581D01*
X001207Y037548D01*
X000579D01*
Y036388D01*
X000665D01*
Y036321D01*
X000655Y03627D01*
X000668Y036204D01*
X000705Y036148D01*
X000761Y036111D01*
X000827Y036098D01*
X000893Y036111D01*
X000948Y036148D01*
X000986Y036204D01*
X000999Y03627D01*
X000986Y036335D01*
X00098Y036344D01*
X001003Y036388D01*
X001603D01*
X001622Y036342D01*
X001495Y036215D01*
X00143Y036202D01*
X001375Y036165D01*
X001337Y036109D01*
X001324Y036043D01*
X001337Y035978D01*
X001375Y035922D01*
X00143Y035885D01*
X001496Y035871D01*
X001562Y035885D01*
X001618Y035922D01*
X001655Y035978D01*
X001668Y036042D01*
X001852Y036226D01*
X002326D01*
X002346Y03618D01*
X002276Y03611D01*
X002251Y036073D01*
X002241Y036066D01*
X002203Y036011D01*
X00219Y035945D01*
X002203Y035879D01*
X002241Y035823D01*
X002296Y035786D01*
X002362Y035773D01*
X002428Y035786D01*
X002484Y035823D01*
X002521Y035879D01*
X002534Y035945D01*
X002521Y03601D01*
X002578Y036066D01*
X00287D01*
X002917Y036075D01*
X002956Y036102D01*
X003236Y036382D01*
X003241Y036388D01*
X003355D01*
X003374Y036342D01*
X003227Y036195D01*
X003163Y036182D01*
X003107Y036145D01*
X00307Y036089D01*
X003056Y036024D01*
X00307Y035958D01*
X003107Y035902D01*
X003163Y035865D01*
X003228Y035852D01*
X003294Y035865D01*
X00335Y035902D01*
X003387Y035958D01*
X0034Y036022D01*
X00363Y036252D01*
X003656Y036292D01*
X003666Y036339D01*
Y036388D01*
X003815D01*
Y036122D01*
X003824Y036075D01*
X003844Y036045D01*
X003844Y036043D01*
X003857Y035978D01*
X003894Y035922D01*
X00395Y035885D01*
X004016Y035871D01*
X004082Y035885D01*
X004137Y035922D01*
X004175Y035978D01*
X004188Y036043D01*
X004175Y036109D01*
X004137Y036165D01*
X004082Y036202D01*
X004059Y036207D01*
Y036388D01*
X004145D01*
Y037466D01*
X004508D01*
X004516Y037459D01*
Y036388D01*
X004604D01*
X004607Y036384D01*
X005117Y035875D01*
X005117Y035874D01*
X005154Y035818D01*
X00521Y035781D01*
X005276Y035767D01*
X005341Y035781D01*
X005397Y035818D01*
X005434Y035874D01*
X005447Y035939D01*
X005434Y036005D01*
X005397Y036061D01*
X005341Y036098D01*
X00534Y036098D01*
X005096Y036342D01*
X005115Y036388D01*
X006901D01*
Y037548D01*
X005032D01*
X005013Y037595D01*
X005056Y037637D01*
X006264D01*
X006324Y037649D01*
X006375Y037684D01*
X006603Y037911D01*
X007101D01*
X00712Y037865D01*
X007066Y037811D01*
X007032Y03776D01*
X00702Y037699D01*
Y035931D01*
X005154Y034066D01*
X000638D01*
X000637Y034066D01*
X000571Y034079D01*
X000505Y034066D01*
X000449Y034029D01*
X000412Y033973D01*
X000399Y033907D01*
X000412Y033842D01*
X000449Y033786D01*
X000505Y033749D01*
X000571Y033736D01*
X000637Y033749D01*
X000638Y033749D01*
X00522D01*
X00528Y033761D01*
X005332Y033796D01*
X007289Y035753D01*
X007324Y035805D01*
X007336Y035865D01*
Y037634D01*
X007657Y037955D01*
X007739Y037922D01*
X007844Y037908D01*
X00795Y037922D01*
X008049Y037962D01*
X008133Y038027D01*
X008198Y038112D01*
X008239Y03821D01*
X008253Y038316D01*
Y038416D01*
X008239Y038522D01*
X008198Y03862D01*
X008133Y038705D01*
X008049Y03877D01*
X00795Y038811D01*
X007844Y038825D01*
X007739Y038811D01*
X00764Y03877D01*
X007556Y038705D01*
X007491Y03862D01*
X00745Y038522D01*
X007436Y038416D01*
Y038316D01*
X00745Y03821D01*
X007454Y0382D01*
X007286Y038031D01*
X007239Y03805D01*
Y038821D01*
X006603D01*
X006247Y039177D01*
X006196Y039211D01*
X006136Y039223D01*
D02*
G37*
G36*
X046405Y037646D02*
X046135D01*
X046051Y037635D01*
X045973Y037602D01*
X045906Y037551D01*
X045855Y037484D01*
X045823Y037406D01*
X045812Y037323D01*
X045823Y037239D01*
X045855Y037161D01*
X045906Y037095D01*
X045973Y037043D01*
X046051Y037011D01*
X046135Y037D01*
X046405D01*
X046488Y037011D01*
X046566Y037043D01*
X046633Y037095D01*
X046684Y037161D01*
X046716Y037239D01*
X046727Y037323D01*
X046716Y037406D01*
X046684Y037484D01*
X046633Y037551D01*
X046566Y037602D01*
X046488Y037635D01*
X046405Y037646D01*
D02*
G37*
G36*
X039035Y036363D02*
X03897Y03635D01*
X038969Y036349D01*
X038268D01*
X038207Y036337D01*
X038156Y036303D01*
X037792Y035939D01*
X037788Y035932D01*
X037782Y035929D01*
X037745Y035873D01*
X037744Y035872D01*
X035889Y034016D01*
X021004D01*
X020943Y034004D01*
X020892Y03397D01*
X017684Y030761D01*
X017649Y03071D01*
X017637Y03065D01*
Y026134D01*
X017595Y026106D01*
X017558Y02605D01*
X017545Y025984D01*
X017558Y025918D01*
X017595Y025863D01*
X017651Y025825D01*
X017717Y025812D01*
X017782Y025825D01*
X017838Y025863D01*
X017875Y025918D01*
X017876Y02592D01*
X017907Y025951D01*
X017941Y026003D01*
X017953Y026063D01*
Y030584D01*
X021069Y0337D01*
X035955D01*
X036015Y033712D01*
X036066Y033747D01*
X037968Y035648D01*
X037969Y035648D01*
X038025Y035686D01*
X038062Y035741D01*
X038068Y035767D01*
X038333Y036033D01*
X038969D01*
X03897Y036032D01*
X039035Y036019D01*
X039101Y036032D01*
X039157Y036069D01*
X039194Y036125D01*
X039207Y036191D01*
X039194Y036257D01*
X039157Y036312D01*
X039101Y03635D01*
X039035Y036363D01*
D02*
G37*
G36*
X027165Y037953D02*
X01378D01*
X013719Y037941D01*
X013668Y037907D01*
X012981Y037221D01*
X012947Y037169D01*
X012935Y037109D01*
Y029153D01*
X012381D01*
X01232Y029141D01*
X012269Y029107D01*
X006621Y023458D01*
X006586Y023407D01*
X006574Y023346D01*
Y022441D01*
X006586Y02238D01*
X006621Y022329D01*
X00683Y02212D01*
Y021575D01*
X005954D01*
Y022245D01*
X005294D01*
Y021535D01*
X005466D01*
Y021123D01*
X005284Y02094D01*
X005237Y020959D01*
Y0213D01*
X004133D01*
Y021221D01*
X002165D01*
X002105Y021209D01*
X002054Y021175D01*
X00195Y021071D01*
X001916Y02102D01*
X001904Y020959D01*
Y020897D01*
X001598D01*
Y019969D01*
X002526D01*
Y020897D01*
X002572Y020905D01*
X003818D01*
Y018924D01*
X003727Y018832D01*
X003693Y018781D01*
X003681Y01872D01*
Y018409D01*
X002761D01*
Y018073D01*
X000681D01*
X000621Y018061D01*
X000569Y018027D01*
X00043Y017887D01*
X000395Y017836D01*
X000383Y017776D01*
Y01222D01*
X000395Y01216D01*
X00043Y012108D01*
X001025Y011513D01*
X00101Y011457D01*
X000971Y011431D01*
X000656Y011116D01*
X000622Y011064D01*
X00061Y011004D01*
Y010001D01*
X000068D01*
Y009211D01*
X000531D01*
Y007977D01*
X000424D01*
Y007147D01*
X000954D01*
Y007977D01*
X000847D01*
Y009211D01*
X001452D01*
Y005157D01*
X001462Y005111D01*
X001488Y005071D01*
X001528Y005044D01*
X001575Y005035D01*
X003071D01*
X003118Y005044D01*
X003157Y005071D01*
X004102Y006016D01*
X004129Y006056D01*
X004138Y006102D01*
Y00848D01*
X004129Y008527D01*
X004102Y008567D01*
X002976Y009693D01*
X002936Y009719D01*
X00289Y009729D01*
X002697D01*
X00265Y009719D01*
X00261Y009693D01*
X002584Y009653D01*
X002575Y009606D01*
X002584Y009559D01*
X00261Y00952D01*
X00265Y009493D01*
X002697Y009484D01*
X002839D01*
X003893Y00843D01*
Y006153D01*
X003583Y005843D01*
X003541Y005871D01*
X003548Y005906D01*
Y006969D01*
X003538Y007015D01*
X003512Y007055D01*
X003472Y007082D01*
X003425Y007091D01*
X003378Y007082D01*
X003339Y007055D01*
X003312Y007015D01*
X003303Y006969D01*
Y005956D01*
X002626Y00528D01*
X001697D01*
Y008033D01*
X001706Y008039D01*
X001774Y008028D01*
X001778Y008022D01*
X002196Y007604D01*
Y007147D01*
X002726D01*
Y007404D01*
X003119D01*
X00318Y007416D01*
X003231Y007451D01*
X003319Y007538D01*
X00378D01*
Y008199D01*
X00307D01*
Y007737D01*
X003054Y007721D01*
X002726D01*
Y007977D01*
X002269D01*
X002048Y008199D01*
Y009994D01*
X003471Y011417D01*
X00408D01*
Y011298D01*
X005184D01*
Y011417D01*
X00632D01*
X006363Y011399D01*
X006363Y011367D01*
Y010827D01*
X005184D01*
Y010946D01*
X004095D01*
Y011039D01*
X003385D01*
Y010379D01*
X004095D01*
Y010392D01*
X005184D01*
Y010511D01*
X006363D01*
Y01034D01*
X005006Y008984D01*
X004972Y008932D01*
X00496Y008872D01*
Y002756D01*
X004972Y002695D01*
X005006Y002644D01*
X0054Y00225D01*
X005451Y002216D01*
X005512Y002204D01*
X007413D01*
X007415Y002203D01*
X00748Y00219D01*
X007546Y002203D01*
X007602Y002241D01*
X007639Y002296D01*
X007652Y002362D01*
X007639Y002428D01*
X007602Y002484D01*
X007546Y002521D01*
X00748Y002534D01*
X007415Y002521D01*
X007413Y00252D01*
X005577D01*
X005276Y002821D01*
Y008806D01*
X006409Y00994D01*
X007468D01*
Y011399D01*
X007202D01*
X007187Y011449D01*
X007208Y011463D01*
X007668Y011923D01*
X007703Y011974D01*
X007715Y012035D01*
Y012784D01*
X007844Y012913D01*
X007983D01*
X008Y012863D01*
X007929Y012809D01*
X007864Y012724D01*
X007823Y012625D01*
X007809Y01252D01*
X007823Y012414D01*
X007864Y012315D01*
X007929Y012231D01*
X008013Y012166D01*
X008112Y012125D01*
X008218Y012111D01*
X008318D01*
X008423Y012125D01*
X008522Y012166D01*
X008607Y012231D01*
X008671Y012315D01*
X008691Y012362D01*
X009278D01*
X009281Y012355D01*
X009346Y01227D01*
X009431Y012205D01*
X009529Y012164D01*
X009635Y012151D01*
X009735D01*
X009841Y012164D01*
X009939Y012205D01*
X010024Y01227D01*
X010089Y012355D01*
X01013Y012453D01*
X010144Y012559D01*
X01013Y012665D01*
X010089Y012763D01*
X010024Y012848D01*
X009939Y012913D01*
X009841Y012954D01*
X009735Y012968D01*
X009635D01*
X009529Y012954D01*
X009431Y012913D01*
X009346Y012848D01*
X009281Y012763D01*
X009246Y012678D01*
X008691D01*
X008671Y012724D01*
X008607Y012809D01*
X008522Y012873D01*
X008522Y012874D01*
X008525Y012917D01*
X008526Y012926D01*
X008576Y012959D01*
X008813Y013195D01*
X008847Y013247D01*
X008859Y013307D01*
Y015289D01*
X009126Y015556D01*
X009183D01*
X009203Y01551D01*
X009267Y015426D01*
X009352Y015361D01*
X009451Y01532D01*
X009556Y015306D01*
X009656D01*
X009762Y01532D01*
X009861Y015361D01*
X009945Y015426D01*
X009962Y015447D01*
X010009Y015431D01*
Y015017D01*
X009962Y015001D01*
X009945Y015023D01*
X009861Y015088D01*
X009762Y015129D01*
X009656Y015143D01*
X009556D01*
X009451Y015129D01*
X009352Y015088D01*
X009267Y015023D01*
X009203Y014939D01*
X009162Y01484D01*
X009148Y014734D01*
X009162Y014629D01*
X009203Y01453D01*
X009267Y014446D01*
X009352Y014381D01*
X009451Y01434D01*
X009556Y014326D01*
X009656D01*
X009762Y01434D01*
X009861Y014381D01*
X009945Y014446D01*
X009962Y014467D01*
X010009Y014451D01*
Y014129D01*
X009151D01*
Y013319D01*
X010061D01*
Y013444D01*
X010128D01*
X010188Y013456D01*
X01024Y013491D01*
X010279Y01353D01*
X010313Y013581D01*
X010325Y013642D01*
Y019016D01*
X010313Y019076D01*
X010279Y019128D01*
X009966Y01944D01*
X009977Y019479D01*
X009985Y01949D01*
X010279D01*
X010302Y019475D01*
X010597Y01918D01*
X010648Y019145D01*
X010709Y019133D01*
X010907D01*
X010909Y019133D01*
X010974Y019119D01*
X01104Y019133D01*
X011096Y01917D01*
X011133Y019226D01*
X011146Y019291D01*
X011133Y019357D01*
X011096Y019413D01*
X01104Y01945D01*
X010974Y019463D01*
X010909Y01945D01*
X010907Y019449D01*
X010774D01*
X010505Y019718D01*
X010475Y019738D01*
X010454Y01976D01*
X010402Y019794D01*
X010342Y019806D01*
X008055D01*
X007835Y020026D01*
Y02252D01*
X007823Y02258D01*
X007789Y022631D01*
X007521Y022899D01*
X007521Y0229D01*
X007484Y022956D01*
X007428Y022993D01*
X007362Y023007D01*
X007296Y022993D01*
X007241Y022956D01*
X007203Y0229D01*
X00719Y022835D01*
X007203Y022769D01*
X007241Y022713D01*
X007296Y022676D01*
X007298Y022676D01*
X007519Y022454D01*
Y022283D01*
X00749Y022245D01*
X007152D01*
X00689Y022506D01*
Y023281D01*
X012124Y028515D01*
X012177Y028497D01*
X012178Y028492D01*
X00828Y024593D01*
X008253Y024553D01*
X008244Y024506D01*
Y02209D01*
X008231Y022088D01*
X008176Y022051D01*
X008138Y021995D01*
X008125Y021929D01*
X008138Y021863D01*
X008176Y021808D01*
X008231Y02177D01*
X008297Y021757D01*
X008363Y02177D01*
X008419Y021808D01*
X008456Y021863D01*
X008469Y021929D01*
X008468Y021935D01*
X008479Y021951D01*
X008488Y021998D01*
Y024456D01*
X012382Y02835D01*
X012447Y028362D01*
X012502Y0284D01*
X01254Y028455D01*
X012553Y028521D01*
X01254Y028587D01*
X012502Y028643D01*
X012447Y02868D01*
X012381Y028693D01*
X012371Y028691D01*
X012347Y028737D01*
X012446Y028837D01*
X012935D01*
Y028096D01*
X012947Y028035D01*
X012956Y028022D01*
X012959Y028005D01*
X012997Y027949D01*
X013052Y027912D01*
X013118Y027899D01*
X013184Y027912D01*
X01324Y027949D01*
X013277Y028005D01*
X013288Y028063D01*
X013314Y028077D01*
X013339Y028083D01*
X020202Y02122D01*
X020241Y021193D01*
X020288Y021184D01*
X024509D01*
X026498Y019195D01*
X026499Y019194D01*
X026522Y01916D01*
X026578Y019123D01*
X026644Y01911D01*
X026709Y019123D01*
X026765Y01916D01*
X026802Y019216D01*
X026816Y019282D01*
X026806Y019328D01*
X026852Y019352D01*
X027364Y018841D01*
X027404Y018814D01*
X027451Y018805D01*
X034172D01*
X034483Y018493D01*
Y016587D01*
X034493Y01654D01*
X034519Y016501D01*
X035765Y015255D01*
X035805Y015228D01*
X035852Y015219D01*
X037817D01*
X038372Y014664D01*
Y012369D01*
X038365Y012359D01*
X038352Y012293D01*
X038365Y012228D01*
X038402Y012172D01*
X038458Y012135D01*
X038524Y012121D01*
X038589Y012135D01*
X038645Y012172D01*
X038682Y012228D01*
X038696Y012293D01*
X038682Y012359D01*
X038645Y012415D01*
X038616Y012434D01*
Y013014D01*
X038658Y013041D01*
X038666Y01304D01*
X03873Y013027D01*
X038796Y01304D01*
X038852Y013077D01*
X038889Y013133D01*
X038897Y013173D01*
X038947Y013168D01*
Y010586D01*
X038956Y010539D01*
X038983Y0105D01*
X039296Y010187D01*
X039336Y01016D01*
X039383Y010151D01*
X040051D01*
X040505Y009696D01*
X040486Y00965D01*
X040083D01*
X040036Y009641D01*
X039996Y009614D01*
X037636Y007254D01*
X037572Y007241D01*
X037516Y007204D01*
X037479Y007148D01*
X037466Y007083D01*
X037479Y007017D01*
X037516Y006961D01*
X037572Y006924D01*
X037638Y006911D01*
X037704Y006924D01*
X037759Y006961D01*
X037797Y007017D01*
X037809Y007081D01*
X040133Y009405D01*
X045993D01*
X04604Y009415D01*
X04608Y009441D01*
X04624Y009601D01*
X046267Y009641D01*
X046276Y009688D01*
Y010575D01*
X046358Y010609D01*
X046442Y010674D01*
X046507Y010759D01*
X046548Y010857D01*
X046562Y010963D01*
Y011163D01*
X046548Y011269D01*
X046507Y011367D01*
X046442Y011452D01*
X046358Y011517D01*
X046259Y011558D01*
X046154Y011571D01*
X046048Y011558D01*
X045949Y011517D01*
X045865Y011452D01*
X0458Y011367D01*
X045759Y011269D01*
X045745Y011163D01*
Y010963D01*
X045759Y010857D01*
X0458Y010759D01*
X045865Y010674D01*
X045949Y010609D01*
X046031Y010575D01*
Y009739D01*
X045943Y00965D01*
X040905D01*
X04087Y009689D01*
X040878Y00974D01*
X040909Y00976D01*
X040946Y009816D01*
X040959Y009882D01*
X040946Y009948D01*
X040909Y010003D01*
X040853Y010041D01*
X040789Y010053D01*
X040323Y01052D01*
X040283Y010546D01*
X040236Y010555D01*
X039499D01*
X039352Y010703D01*
Y01162D01*
X039402Y011641D01*
X03947Y011589D01*
X039569Y011548D01*
X039674Y011534D01*
X039774D01*
X03988Y011548D01*
X039979Y011589D01*
X040063Y011654D01*
X040128Y011739D01*
X040169Y011837D01*
X040183Y011943D01*
X040169Y012048D01*
X040128Y012147D01*
X040063Y012232D01*
X039979Y012297D01*
X03988Y012337D01*
X039774Y012351D01*
X039674D01*
X039569Y012337D01*
X03947Y012297D01*
X039402Y012244D01*
X039352Y012265D01*
Y012548D01*
X040179D01*
Y012752D01*
X04176D01*
X042955Y011557D01*
X042951Y011491D01*
X0429Y011452D01*
X042835Y011367D01*
X042794Y011269D01*
X04278Y011163D01*
Y010963D01*
X042794Y010857D01*
X042835Y010759D01*
X0429Y010674D01*
X042985Y010609D01*
X043083Y010568D01*
X043189Y010554D01*
X043295Y010568D01*
X043393Y010609D01*
X043478Y010674D01*
X043543Y010759D01*
X043584Y010857D01*
X043597Y010963D01*
Y011163D01*
X043584Y011269D01*
X043543Y011367D01*
X043478Y011452D01*
X043393Y011517D01*
X043295Y011558D01*
X043292Y011558D01*
X043275Y011583D01*
X041898Y012961D01*
X041858Y012987D01*
X041811Y012996D01*
X040179D01*
Y013358D01*
X039352D01*
Y014855D01*
X039342Y014902D01*
X039316Y014942D01*
X037969Y016289D01*
X037959Y016305D01*
X037955Y016345D01*
X038118Y016508D01*
X038145Y016548D01*
X038154Y016595D01*
Y018396D01*
X038145Y018442D01*
X038118Y018482D01*
X037733Y018867D01*
X037744Y018893D01*
X037757Y018992D01*
X037744Y019091D01*
X037706Y019184D01*
X037658Y019247D01*
X037679Y019297D01*
X03778D01*
X038361Y018715D01*
X038373Y018699D01*
X038412Y018672D01*
X038459Y018663D01*
X038465D01*
X038511Y018672D01*
X038551Y018699D01*
X038578Y018738D01*
X038587Y018785D01*
X038578Y018832D01*
X038551Y018872D01*
X038118Y019305D01*
X038138Y019355D01*
X038146Y019355D01*
X038146Y019355D01*
X038148Y019355D01*
X03882D01*
Y019355D01*
X038864Y019341D01*
Y018407D01*
X038542Y018085D01*
X038478Y018072D01*
X038422Y018035D01*
X038385Y017979D01*
X038371Y017913D01*
X038385Y017848D01*
X038422Y017792D01*
X038478Y017755D01*
X038543Y017742D01*
X038609Y017755D01*
X038665Y017792D01*
X038702Y017848D01*
X038715Y017912D01*
X039073Y01827D01*
X039099Y018309D01*
X039109Y018356D01*
Y018619D01*
X039159Y018636D01*
X039196Y018587D01*
X039275Y018526D01*
X039368Y018488D01*
X039467Y018475D01*
X039667D01*
X039766Y018488D01*
X039859Y018526D01*
X039938Y018587D01*
X039999Y018667D01*
X040028Y018736D01*
X04047D01*
X040525Y018699D01*
X040591Y018686D01*
X040656Y018699D01*
X040712Y018737D01*
X040726Y018757D01*
X040786D01*
X040789Y018752D01*
X04127Y018271D01*
X041278Y018231D01*
X041315Y018176D01*
X041371Y018138D01*
X041437Y018125D01*
X041503Y018138D01*
X041559Y018176D01*
X041596Y018231D01*
X041609Y018297D01*
X041596Y018363D01*
X041559Y018419D01*
X041503Y018456D01*
X041437Y018469D01*
X041422Y018466D01*
X040998Y018889D01*
Y019525D01*
X041035Y01958D01*
X041048Y019646D01*
X041035Y019711D01*
X040998Y019767D01*
X040942Y019804D01*
X040876Y019818D01*
X04081Y019804D01*
X040754Y019767D01*
X040717Y019711D01*
X040704Y019646D01*
X040717Y01958D01*
X040754Y019525D01*
Y019008D01*
X040735Y018995D01*
X040704Y018985D01*
X040656Y019017D01*
X040591Y01903D01*
X040525Y019017D01*
X04047Y018981D01*
X040028D01*
X039999Y01905D01*
X039938Y019129D01*
X039859Y01919D01*
X039766Y019228D01*
X039667Y019242D01*
X039467D01*
X039368Y019228D01*
X039275Y01919D01*
X039196Y019129D01*
X039159Y019081D01*
X039109Y019098D01*
Y019753D01*
X039136Y019765D01*
X039159Y01977D01*
X039195Y019745D01*
X039242Y019736D01*
X039567D01*
X039614Y019745D01*
X039653Y019772D01*
X03968Y019811D01*
X039689Y019858D01*
X03968Y019905D01*
X039653Y019945D01*
X03964Y019959D01*
X0396Y019985D01*
X039553Y019994D01*
X039506Y019985D01*
X0395Y019981D01*
X039292D01*
X039262Y020011D01*
X039259Y020025D01*
X039233Y020064D01*
X038952Y020345D01*
X038912Y020371D01*
X038899Y020374D01*
X038669Y020604D01*
X03863Y02063D01*
X038583Y02064D01*
X038536Y02063D01*
X038496Y020604D01*
X038438Y020546D01*
X037859D01*
X037789Y020615D01*
X037799Y020676D01*
X03783Y020696D01*
X037867Y020752D01*
X037925Y020786D01*
X037943Y020783D01*
X038009Y020796D01*
X038064Y020833D01*
X038102Y020889D01*
X038115Y020955D01*
X038102Y021021D01*
X038064Y021076D01*
X038024Y021103D01*
Y025222D01*
X038066Y025251D01*
X038106Y025232D01*
Y021772D01*
X038115Y021725D01*
X038142Y021685D01*
X038228Y021599D01*
Y021087D01*
X038938D01*
Y021244D01*
X038988Y021264D01*
X039164Y021088D01*
X039135Y02105D01*
X039097Y020957D01*
X039084Y020858D01*
X039097Y020759D01*
X039135Y020667D01*
X039196Y020587D01*
X039275Y020526D01*
X039368Y020488D01*
X039467Y020475D01*
X039593D01*
X039622Y020425D01*
X039612Y020374D01*
X039625Y020308D01*
X039662Y020252D01*
X039718Y020215D01*
X039783Y020202D01*
X039849Y020215D01*
X039904Y020252D01*
X042785D01*
X042832Y020261D01*
X042872Y020287D01*
X043122Y020537D01*
X043186Y02055D01*
X043242Y020587D01*
X043279Y020643D01*
X043292Y020709D01*
X043279Y020774D01*
X043242Y02083D01*
X043186Y020867D01*
X04312Y020881D01*
X043054Y020867D01*
X042999Y02083D01*
X042961Y020774D01*
X042948Y02071D01*
X042735Y020496D01*
X039904D01*
X039894Y020503D01*
X039893Y020553D01*
X039938Y020587D01*
X039999Y020667D01*
X040037Y020759D01*
X04005Y020858D01*
X040037Y020957D01*
X039999Y02105D01*
X039938Y021129D01*
X039859Y02119D01*
X039766Y021228D01*
X039667Y021242D01*
X039467D01*
X03937Y021229D01*
X039094Y021504D01*
X039055Y02153D01*
X039008Y02154D01*
X038938D01*
Y021747D01*
X038426D01*
X038351Y021822D01*
Y023633D01*
X038397Y023652D01*
X040206Y021843D01*
X040246Y021816D01*
X040293Y021807D01*
X040647D01*
X040702Y02177D01*
X040768Y021757D01*
X040833Y02177D01*
X040889Y021808D01*
X040927Y021863D01*
X04094Y021929D01*
X040927Y021995D01*
X040889Y022051D01*
X040833Y022088D01*
X040768Y022101D01*
X040702Y022088D01*
X040647Y022051D01*
X040344D01*
X038718Y023677D01*
X038738Y023727D01*
X039191D01*
X040432Y022487D01*
X040483Y022452D01*
X040543Y02244D01*
X046128D01*
X04686Y021708D01*
Y012981D01*
X045384Y011505D01*
X04537Y011517D01*
X045323Y011536D01*
Y011803D01*
X045311Y011864D01*
X045277Y011915D01*
X045212Y01198D01*
Y012442D01*
X044552D01*
Y011732D01*
X045007D01*
Y011536D01*
X044961Y011517D01*
X044876Y011452D01*
X044812Y011367D01*
X044771Y011269D01*
X044757Y011163D01*
Y010963D01*
X044771Y010857D01*
X044812Y010759D01*
X044876Y010674D01*
X044961Y010609D01*
X04506Y010568D01*
X045165Y010554D01*
X045271Y010568D01*
X04537Y010609D01*
X045454Y010674D01*
X045519Y010759D01*
X04556Y010857D01*
X045574Y010963D01*
Y011163D01*
X045564Y011238D01*
X047129Y012804D01*
X047164Y012855D01*
X047176Y012915D01*
Y021774D01*
X047164Y021834D01*
X047129Y021885D01*
X046305Y02271D01*
X046253Y022744D01*
X046193Y022756D01*
X040609D01*
X039515Y02385D01*
Y024575D01*
X039723Y024783D01*
X040047D01*
X04005Y024733D01*
X040005Y024727D01*
X039906Y024686D01*
X039821Y024621D01*
X039756Y024537D01*
X039716Y024438D01*
X039702Y024332D01*
Y024132D01*
X039716Y024027D01*
X039756Y023928D01*
X039821Y023843D01*
X039906Y023779D01*
X040005Y023738D01*
X04011Y023724D01*
X040216Y023738D01*
X040314Y023779D01*
X040399Y023843D01*
X040464Y023928D01*
X040505Y024027D01*
X040519Y024132D01*
Y024332D01*
X040505Y024438D01*
X040464Y024537D01*
X040399Y024621D01*
X040314Y024686D01*
X040216Y024727D01*
X04017Y024733D01*
X040173Y024783D01*
X040812D01*
Y024763D01*
X040961D01*
X040971Y024713D01*
X040906Y024686D01*
X040821Y024621D01*
X040756Y024537D01*
X040716Y024438D01*
X040702Y024332D01*
Y024132D01*
X040716Y024027D01*
X040756Y023928D01*
X040821Y023843D01*
X040906Y023779D01*
X041005Y023738D01*
X04111Y023724D01*
X041216Y023738D01*
X041314Y023779D01*
X041399Y023843D01*
X041464Y023928D01*
X041505Y024027D01*
X041519Y024132D01*
Y024332D01*
X041505Y024438D01*
X041464Y024537D01*
X041399Y024621D01*
X041314Y024686D01*
X041249Y024713D01*
X041259Y024763D01*
X041472D01*
Y025391D01*
X045749D01*
X045796Y0254D01*
X045836Y025427D01*
X046071Y025662D01*
X046097Y025701D01*
X046107Y025748D01*
Y026888D01*
X046143Y026942D01*
X046156Y027008D01*
X046143Y027074D01*
X046106Y027129D01*
X04605Y027167D01*
X045984Y02718D01*
X045918Y027167D01*
X045863Y027129D01*
X045825Y027074D01*
X045812Y027008D01*
X045825Y026942D01*
X045862Y026888D01*
Y025799D01*
X045699Y025635D01*
X040842D01*
X040795Y025626D01*
X040756Y0256D01*
X040685Y025529D01*
X040659Y02549D01*
X040649Y025443D01*
Y025327D01*
X04064Y025319D01*
X038742D01*
X038688Y025356D01*
X038622Y025369D01*
X038586Y025362D01*
X038536Y025398D01*
Y02555D01*
X038669Y025683D01*
X038689Y025714D01*
X038743Y025678D01*
X038808Y025665D01*
X038876Y025596D01*
X038916Y02557D01*
X038963Y025561D01*
X040303D01*
X040357Y025524D01*
X040423Y025511D01*
X040489Y025524D01*
X040545Y025561D01*
X040582Y025617D01*
X040595Y025683D01*
X040582Y025749D01*
X040545Y025804D01*
X040489Y025842D01*
X040423Y025855D01*
X040357Y025842D01*
X040303Y025805D01*
X039364D01*
X039358Y025814D01*
X039342Y025855D01*
X039371Y025899D01*
X039384Y025965D01*
X039371Y02603D01*
X039371Y026031D01*
Y028838D01*
X039359Y028899D01*
X039324Y02895D01*
X038642Y029632D01*
Y029953D01*
X038643Y029954D01*
X038656Y03002D01*
X038643Y030086D01*
X038606Y030141D01*
X03855Y030179D01*
X038484Y030192D01*
X038419Y030179D01*
X038363Y030141D01*
X038326Y030086D01*
X038312Y03002D01*
X038326Y029954D01*
X038326Y029953D01*
Y029567D01*
X038338Y029506D01*
X038373Y029455D01*
X039055Y028773D01*
Y026031D01*
X039054Y02603D01*
X039041Y025965D01*
X039054Y025899D01*
X039083Y025855D01*
X039068Y025814D01*
X039063Y025807D01*
X039013Y025806D01*
X038981Y025838D01*
X038968Y025902D01*
X038931Y025958D01*
X038875Y025995D01*
X038809Y026009D01*
X038755Y025998D01*
X038705Y026025D01*
Y027146D01*
X038696Y027192D01*
X038669Y027232D01*
X038134Y027767D01*
X038121Y027832D01*
X038084Y027887D01*
X038028Y027925D01*
X037963Y027938D01*
X037897Y027925D01*
X037841Y027887D01*
X037804Y027832D01*
X037791Y027766D01*
X037804Y0277D01*
X037841Y027644D01*
X037897Y027607D01*
X037961Y027594D01*
X03846Y027095D01*
Y02684D01*
X03841Y026817D01*
X038373Y026842D01*
X038307Y026855D01*
X038292Y026852D01*
X037714Y027429D01*
X037675Y027456D01*
X037628Y027465D01*
X037373D01*
X037111Y027727D01*
X037072Y027753D01*
X037025Y027763D01*
X036625D01*
X036592Y027813D01*
X036601Y027854D01*
X036832Y028085D01*
X036878Y028066D01*
Y027949D01*
X037258D01*
Y028629D01*
X036928D01*
X036922Y028629D01*
X036883Y028655D01*
X036883Y028686D01*
Y029335D01*
X036815D01*
Y029449D01*
X036806Y029496D01*
X036779Y029535D01*
X03614Y030175D01*
X0361Y030202D01*
X036053Y030211D01*
X035261D01*
X035261Y030214D01*
X035213Y030331D01*
X035136Y030431D01*
X035035Y030508D01*
X034919Y030556D01*
X034793Y030573D01*
X034668Y030556D01*
X034551Y030508D01*
X034451Y030431D01*
X034374Y030331D01*
X034326Y030214D01*
X034309Y030089D01*
X034326Y029963D01*
X034374Y029847D01*
X034451Y029746D01*
X034551Y029669D01*
X034668Y029621D01*
X034793Y029604D01*
X034919Y029621D01*
X035035Y029669D01*
X035136Y029746D01*
X035213Y029847D01*
X035261Y029963D01*
X035261Y029966D01*
X036002D01*
X036571Y029398D01*
Y029335D01*
X036503D01*
Y028655D01*
X036833D01*
X036839Y028655D01*
X036878Y028629D01*
X036878Y028599D01*
Y028412D01*
X036863D01*
X036816Y028402D01*
X036776Y028376D01*
X036428Y028027D01*
X036363Y028014D01*
X036307Y027977D01*
X036297Y027962D01*
X036241Y027954D01*
X03621Y027981D01*
Y028263D01*
X036201Y02831D01*
X036174Y028349D01*
X035687Y028837D01*
X035647Y028863D01*
X0356Y028873D01*
X034922D01*
X033951Y029844D01*
X033938Y029908D01*
X033901Y029964D01*
X033845Y030001D01*
X03378Y030014D01*
X033716Y030002D01*
X033707Y030001D01*
X033666Y030027D01*
Y033189D01*
X033656Y033236D01*
X03363Y033275D01*
X033305Y0336D01*
X033265Y033627D01*
X033219Y033636D01*
X022815D01*
X022768Y033627D01*
X022728Y0336D01*
X021577Y032449D01*
X02155Y032409D01*
X021541Y032362D01*
Y028535D01*
X021475Y028485D01*
X02141Y0284D01*
X021369Y028302D01*
X021355Y028196D01*
Y027946D01*
X021369Y02784D01*
X02141Y027742D01*
X021475Y027657D01*
X02156Y027592D01*
X021658Y027551D01*
X021764Y027537D01*
X02187Y027551D01*
X021968Y027592D01*
X022053Y027657D01*
X022118Y027742D01*
X022158Y02784D01*
X022172Y027946D01*
Y028196D01*
X022158Y028302D01*
X022118Y0284D01*
X022053Y028485D01*
X021968Y02855D01*
X02187Y02859D01*
X021786Y028601D01*
Y032312D01*
X022537Y033063D01*
X022576Y033045D01*
X022584Y033039D01*
X022597Y032976D01*
X022634Y03292D01*
X02269Y032883D01*
X022756Y032869D01*
X022822Y032883D01*
X022877Y03292D01*
X022895Y032947D01*
X029223D01*
X031177Y030993D01*
Y029768D01*
X031095Y029734D01*
X03101Y02967D01*
X030945Y029585D01*
X030905Y029486D01*
X030891Y029381D01*
Y029281D01*
X030905Y029175D01*
X030945Y029076D01*
X03101Y028992D01*
X031093Y028929D01*
X031093Y028923D01*
X031077Y028879D01*
X029528D01*
X029467Y028866D01*
X029416Y028832D01*
X029347Y028763D01*
X029313Y028712D01*
X029301Y028652D01*
Y027284D01*
X023592D01*
Y027481D01*
X022932D01*
Y026771D01*
X023188D01*
Y026713D01*
X020439D01*
X019922Y027231D01*
Y027541D01*
X020169D01*
Y028601D01*
X019359D01*
Y028268D01*
X019053D01*
X019052Y028269D01*
X018986Y028282D01*
X01892Y028269D01*
X018865Y028232D01*
X018827Y028176D01*
X018814Y02811D01*
X018827Y028044D01*
X018865Y027989D01*
X01892Y027951D01*
X018986Y027938D01*
X019052Y027951D01*
X019053Y027952D01*
X019359D01*
Y027541D01*
X019606D01*
Y027165D01*
X019618Y027105D01*
X019652Y027054D01*
X020262Y026443D01*
X020314Y026409D01*
X020374Y026397D01*
X023118D01*
X023157Y02637D01*
Y026D01*
X023987D01*
Y02637D01*
X023611D01*
X023504Y026476D01*
Y026771D01*
X023592D01*
Y026968D01*
X029396D01*
X029427Y026937D01*
X029478Y026903D01*
X029539Y026891D01*
X029589D01*
X02959Y02689D01*
X029656Y026877D01*
X029721Y02689D01*
X029777Y026927D01*
X029814Y026983D01*
X029827Y027049D01*
X029814Y027114D01*
X029777Y02717D01*
X029721Y027207D01*
X029656Y02722D01*
X029655Y02722D01*
X029617Y027252D01*
Y028562D01*
X031212D01*
X031223Y028515D01*
X031124Y028475D01*
X03104Y02841D01*
X030975Y028325D01*
X030934Y028227D01*
X03092Y028121D01*
Y028021D01*
X030934Y027915D01*
X030975Y027817D01*
X03104Y027732D01*
X031124Y027667D01*
X031223Y027626D01*
X031329Y027612D01*
X031432Y027626D01*
X031445Y027626D01*
X031482Y027601D01*
Y027404D01*
X031261D01*
Y026694D01*
X031921D01*
Y027404D01*
X031727D01*
Y027795D01*
X031717Y027842D01*
X031702Y027865D01*
X031723Y027915D01*
X031737Y028021D01*
Y028121D01*
X031723Y028227D01*
X031682Y028325D01*
X031617Y02841D01*
X031533Y028475D01*
X031434Y028515D01*
X031445Y028562D01*
X032165D01*
Y0285D01*
X032104Y028475D01*
X03202Y02841D01*
X031955Y028325D01*
X031914Y028227D01*
X0319Y028121D01*
Y028021D01*
X031914Y027915D01*
X031955Y027817D01*
X03202Y027732D01*
X032104Y027667D01*
X032203Y027626D01*
X032309Y027612D01*
X032365Y02762D01*
X032388Y027572D01*
X032138Y027322D01*
X032111Y027283D01*
X032102Y027236D01*
Y027014D01*
X032111Y026967D01*
X032138Y026927D01*
X03261Y026455D01*
X032623Y026391D01*
X03266Y026335D01*
X032716Y026298D01*
X032782Y026285D01*
X032848Y026298D01*
X032903Y026335D01*
X032941Y026391D01*
X032954Y026457D01*
X032941Y026522D01*
X032903Y026578D01*
X032848Y026615D01*
X032783Y026628D01*
X032347Y027065D01*
Y027185D01*
X032841Y027679D01*
X032867Y027719D01*
X032877Y027766D01*
Y03D01*
X032867Y030047D01*
X032853Y030069D01*
Y031889D01*
X032907Y031926D01*
X032944Y031981D01*
X032957Y032047D01*
X032944Y032113D01*
X032907Y032169D01*
X032851Y032206D01*
X032785Y032219D01*
X03272Y032206D01*
X032664Y032169D01*
X032627Y032113D01*
X032614Y032047D01*
X032616Y032034D01*
X032608Y031992D01*
Y030024D01*
X032617Y029977D01*
X032632Y029955D01*
Y029786D01*
X031904D01*
Y028879D01*
X031521D01*
X031505Y028923D01*
X031505Y028929D01*
X031588Y028992D01*
X031653Y029076D01*
X031694Y029175D01*
X031708Y029281D01*
Y029381D01*
X031694Y029486D01*
X031653Y029585D01*
X031588Y02967D01*
X031503Y029734D01*
X031422Y029768D01*
Y031043D01*
X031412Y03109D01*
X031386Y03113D01*
X029407Y033109D01*
X029426Y033155D01*
X03294D01*
X032967Y033105D01*
X032961Y033097D01*
X032948Y033031D01*
X032961Y032966D01*
X032978Y032941D01*
Y032256D01*
X032987Y032209D01*
X033014Y032169D01*
X033033Y03215D01*
Y030335D01*
X032979Y030299D01*
X032942Y030243D01*
X032929Y030177D01*
X032942Y030111D01*
X032979Y030056D01*
X033035Y030018D01*
X0331Y030005D01*
X033106Y030001D01*
Y028979D01*
X03307Y028924D01*
X033056Y028858D01*
X03307Y028792D01*
X033107Y028737D01*
X033163Y028699D01*
X033228Y028686D01*
X033294Y028699D01*
X03335Y028737D01*
X033387Y028792D01*
X0334Y028858D01*
X033387Y028924D01*
X033351Y028979D01*
Y029935D01*
X033371Y02995D01*
X033421Y029925D01*
Y029301D01*
X03343Y029254D01*
X033457Y029215D01*
X034135Y028537D01*
X034133Y028522D01*
X032939Y027327D01*
X032837D01*
X032782Y027364D01*
X032717Y027377D01*
X032651Y027364D01*
X032595Y027326D01*
X032558Y027271D01*
X032545Y027205D01*
X032558Y027139D01*
X032595Y027083D01*
X032651Y027046D01*
X032717Y027033D01*
X032782Y027046D01*
X032837Y027082D01*
X032998D01*
X032998Y027082D01*
X032998Y027082D01*
X033015Y027086D01*
X033044Y027092D01*
X033044Y027092D01*
X033044Y027092D01*
X033063Y027104D01*
X033084Y027118D01*
X033084Y027118D01*
X033084Y027118D01*
X0331Y027143D01*
X03427Y028313D01*
X034368D01*
X034422Y028276D01*
X034488Y028263D01*
X034524Y02827D01*
X034574Y028234D01*
Y028148D01*
X034584Y028101D01*
X03461Y028061D01*
X034757Y027914D01*
Y026991D01*
X034767Y026944D01*
X034793Y026904D01*
X035041Y026656D01*
X035081Y026629D01*
X035128Y02662D01*
X035175Y026629D01*
X035176Y02663D01*
X036258D01*
X036312Y026593D01*
X036378Y02658D01*
X036444Y026593D01*
X036499Y02663D01*
X036537Y026686D01*
X03655Y026752D01*
X036537Y026818D01*
X036499Y026874D01*
X036444Y026911D01*
X036378Y026924D01*
X036312Y026911D01*
X036258Y026874D01*
X035169D01*
X035002Y027041D01*
Y02715D01*
X035631D01*
Y027358D01*
X036908D01*
X037663Y026603D01*
Y026232D01*
X037485Y026054D01*
X037459Y026015D01*
X036622D01*
Y025205D01*
X037449D01*
Y024923D01*
X037399Y024902D01*
X037331Y024954D01*
X037232Y024995D01*
X037127Y025009D01*
X037027D01*
X036921Y024995D01*
X036823Y024954D01*
X036738Y024889D01*
X036673Y024804D01*
X036632Y024706D01*
X036618Y0246D01*
X036632Y024495D01*
X036673Y024396D01*
X036738Y024311D01*
X036823Y024246D01*
X036854Y024233D01*
X036844Y024183D01*
X035884D01*
X035838Y024174D01*
X035798Y024147D01*
X035581Y023931D01*
X035555Y023891D01*
X035545Y023844D01*
Y023517D01*
X035389Y023361D01*
X034341D01*
X034324Y023372D01*
X034259Y023385D01*
X034222Y023378D01*
X034172Y023414D01*
Y023523D01*
X034285Y023636D01*
X034482D01*
X034529Y023645D01*
X034569Y023671D01*
X034665Y023767D01*
X034691Y023807D01*
X0347Y023854D01*
Y025353D01*
X034691Y0254D01*
X034665Y02544D01*
X034545Y025559D01*
X034506Y025585D01*
X034459Y025595D01*
X034297D01*
X03393Y025963D01*
X03389Y025989D01*
X033843Y025998D01*
X033614D01*
X033361Y026251D01*
Y026416D01*
X033505Y02656D01*
X033531Y026599D01*
X033541Y026646D01*
Y026681D01*
X033577Y026735D01*
X03359Y026801D01*
X033577Y026867D01*
X03354Y026923D01*
X033484Y02696D01*
X033418Y026973D01*
X033353Y02696D01*
X033297Y026923D01*
X033259Y026867D01*
X033246Y026801D01*
X033259Y026735D01*
X033289Y026691D01*
X033152Y026553D01*
X033125Y026513D01*
X033116Y026466D01*
Y026201D01*
X033125Y026154D01*
X033152Y026114D01*
X033476Y025789D01*
X033516Y025763D01*
X033563Y025754D01*
X033792D01*
X034112Y025434D01*
X034092Y025384D01*
X033859D01*
Y025586D01*
X033149D01*
Y024926D01*
X033828D01*
Y024724D01*
X03429D01*
X034352Y024711D01*
X034406Y024722D01*
X034456Y024696D01*
Y023905D01*
X034432Y02388D01*
X034234D01*
X034187Y023871D01*
X034148Y023844D01*
X033963Y02366D01*
X033937Y023621D01*
X033928Y023574D01*
Y023265D01*
X033881Y023245D01*
X033676Y023451D01*
X033667Y023464D01*
X03276Y024371D01*
Y024754D01*
X032751Y024801D01*
X032724Y02484D01*
X03215Y025415D01*
Y025441D01*
X032186Y025495D01*
X032199Y025561D01*
X032186Y025627D01*
X032149Y025683D01*
X032093Y02572D01*
X032028Y025733D01*
X031962Y02572D01*
X031906Y025683D01*
X031869Y025627D01*
X031856Y025561D01*
X031869Y025495D01*
X031905Y025441D01*
Y025364D01*
X031915Y025317D01*
X031941Y025278D01*
X032233Y024985D01*
X032213Y024935D01*
X031811D01*
X031765Y024926D01*
X031725Y0249D01*
X031329Y024504D01*
X031302Y024501D01*
X031219Y024585D01*
X031179Y024611D01*
X031132Y02462D01*
X029121D01*
X029101Y024667D01*
X029362Y024927D01*
X030164D01*
X030218Y02489D01*
X030284Y024877D01*
X03035Y02489D01*
X030406Y024928D01*
X030443Y024983D01*
X030456Y025049D01*
X030443Y025115D01*
X030438Y025123D01*
X030464Y025173D01*
X031614D01*
X031661Y025182D01*
X031701Y025209D01*
X03174Y025248D01*
X031753Y025267D01*
X031775Y025282D01*
X031812Y025338D01*
X031825Y025404D01*
X031812Y025469D01*
X031775Y025525D01*
X031719Y025562D01*
X031654Y025575D01*
X031588Y025562D01*
X031532Y025525D01*
X031495Y025469D01*
X031484Y025418D01*
X028555D01*
X028482Y02549D01*
X028442Y025517D01*
X028396Y025526D01*
X027746D01*
X027699Y025517D01*
X02766Y02549D01*
X027587Y025418D01*
X026567D01*
X026213Y025772D01*
X026173Y025798D01*
X026126Y025807D01*
X026037D01*
Y02587D01*
X025207D01*
Y0255D01*
X026037D01*
Y025535D01*
X026087Y025551D01*
X026384Y025254D01*
X026382Y025241D01*
X026364Y025203D01*
X026312Y025193D01*
X026256Y025155D01*
X026219Y0251D01*
X026206Y025034D01*
X026219Y024968D01*
X026256Y024912D01*
X026312Y024875D01*
X026378Y024862D01*
X026444Y024875D01*
X026464Y024889D01*
X027716D01*
Y024786D01*
X026037D01*
Y02487D01*
X025256D01*
X025215Y02487D01*
X025185Y024911D01*
X025274Y025D01*
X026037D01*
Y02537D01*
X025207D01*
Y025277D01*
X0252Y025272D01*
X02496Y025032D01*
X023987D01*
Y025344D01*
X024004Y025347D01*
X024043Y025374D01*
X024732Y026063D01*
X025207D01*
Y026D01*
X026037D01*
Y02637D01*
X025207D01*
Y026307D01*
X024682D01*
X024635Y026298D01*
X024595Y026272D01*
X024033Y02571D01*
X023987Y025729D01*
Y02587D01*
X023157D01*
Y025582D01*
X017376D01*
X016431Y026527D01*
Y032784D01*
X018122Y034474D01*
X024951D01*
X024998Y034483D01*
X025037Y03451D01*
X025049Y034528D01*
X02626Y035738D01*
X026265Y035734D01*
X026385Y035685D01*
X026514Y035668D01*
X026643Y035685D01*
X026763Y035734D01*
X026866Y035813D01*
X026945Y035917D01*
X026994Y036037D01*
X027011Y036165D01*
X026994Y036294D01*
X026945Y036414D01*
X026866Y036517D01*
X026763Y036596D01*
X026643Y036646D01*
X026514Y036663D01*
X026385Y036646D01*
X026265Y036596D01*
X026162Y036517D01*
X026083Y036414D01*
X026033Y036294D01*
X026016Y036165D01*
X026033Y036037D01*
X026083Y035917D01*
X026087Y035911D01*
X024928Y034753D01*
X024928Y034753D01*
X024911Y034807D01*
X0251Y034996D01*
X025127Y035036D01*
X025136Y035083D01*
Y035684D01*
X025143Y035685D01*
X025263Y035734D01*
X025366Y035813D01*
X025445Y035917D01*
X025494Y036037D01*
X025511Y036165D01*
X025494Y036294D01*
X025445Y036414D01*
X025366Y036517D01*
X025263Y036596D01*
X025143Y036646D01*
X025014Y036663D01*
X024885Y036646D01*
X024765Y036596D01*
X024662Y036517D01*
X024583Y036414D01*
X024533Y036294D01*
X024516Y036165D01*
X024533Y036037D01*
X024583Y035917D01*
X024662Y035813D01*
X024765Y035734D01*
X024885Y035685D01*
X024891Y035684D01*
Y035133D01*
X024637Y034879D01*
X018005D01*
X017958Y034869D01*
X017918Y034843D01*
X016063Y032987D01*
X016036Y032948D01*
X016027Y032901D01*
Y026321D01*
X016036Y026275D01*
X016063Y026235D01*
X017474Y024824D01*
X017514Y024797D01*
X01756Y024788D01*
X023157D01*
Y0245D01*
X023987D01*
Y024788D01*
X025011D01*
X025058Y024797D01*
X025098Y024824D01*
X025166Y024892D01*
X025207Y024862D01*
X025207Y024823D01*
Y0245D01*
X026037D01*
Y024542D01*
X026705D01*
X026724Y024495D01*
X026081Y023852D01*
X026037Y02387D01*
Y02387D01*
X025207D01*
Y0235D01*
X026037D01*
Y023549D01*
X026073D01*
X02612Y023558D01*
X026159Y023585D01*
X026956Y024382D01*
X028372D01*
X028401Y024376D01*
X031082D01*
X031133Y024324D01*
Y024178D01*
X031142Y024131D01*
X031169Y024092D01*
X031435Y023825D01*
Y023703D01*
X031399Y023648D01*
X031386Y023583D01*
X031399Y023517D01*
X031436Y023461D01*
X031492Y023424D01*
X031557Y023411D01*
X031623Y023424D01*
X031679Y023461D01*
X031728Y023445D01*
Y022333D01*
X031737Y022286D01*
X031764Y022246D01*
X031804Y02222D01*
X03185Y02221D01*
X031897Y02222D01*
X031937Y022246D01*
X031963Y022286D01*
X031973Y022333D01*
Y023809D01*
X031963Y023856D01*
X031937Y023896D01*
X031705Y024128D01*
X031715Y024189D01*
X031719Y024191D01*
X032113D01*
X032127Y024147D01*
X032124Y024138D01*
X032093Y024118D01*
X032056Y024062D01*
X032043Y023996D01*
X032056Y02393D01*
X032093Y023875D01*
X032098Y023871D01*
Y02206D01*
X031753D01*
X031706Y022051D01*
X031667Y022024D01*
X03129Y021648D01*
X031264Y021608D01*
X031255Y021561D01*
Y01973D01*
X031249Y019721D01*
X031238Y019666D01*
X031208Y01965D01*
X031187Y019646D01*
X031018Y019815D01*
Y021494D01*
X031054Y021548D01*
X031068Y021614D01*
X031054Y02168D01*
X031017Y021736D01*
X030961Y021773D01*
X030896Y021786D01*
X03083Y021773D01*
X030774Y021736D01*
X030737Y02168D01*
X030724Y021614D01*
X030737Y021548D01*
X030773Y021494D01*
Y019764D01*
X030783Y019717D01*
X030809Y019678D01*
X031071Y019416D01*
X031052Y01937D01*
X027654D01*
X026845Y020179D01*
Y022242D01*
X026881Y022296D01*
X026894Y022362D01*
X026881Y022428D01*
X026844Y022484D01*
X026788Y022521D01*
X026722Y022534D01*
X026657Y022521D01*
X026601Y022484D01*
X026564Y022428D01*
X026551Y022362D01*
X026564Y022296D01*
X026587Y022261D01*
X02658Y022224D01*
X02653Y022193D01*
X026496Y022199D01*
X02643Y022186D01*
X026375Y022149D01*
X026337Y022093D01*
X026324Y022028D01*
X026337Y021962D01*
X026375Y021906D01*
X026385Y021899D01*
Y021815D01*
X026335Y021779D01*
X026299Y021786D01*
X026233Y021773D01*
X026178Y021736D01*
X02614Y02168D01*
X026127Y021614D01*
X02614Y021548D01*
X026177Y021494D01*
Y020079D01*
X026186Y020032D01*
X026213Y019992D01*
X026715Y01949D01*
X02669Y019444D01*
X026644Y019453D01*
X026595Y019444D01*
X024646Y021393D01*
X024606Y02142D01*
X02456Y021429D01*
X02391D01*
X023891Y021475D01*
X025037Y022622D01*
X025064Y022661D01*
X025073Y022708D01*
Y023867D01*
X025174Y023967D01*
X025207Y024D01*
Y024D01*
X025207Y024D01*
X026037D01*
Y02437D01*
X025207D01*
Y024305D01*
X025172Y024298D01*
X025132Y024272D01*
X024864Y024004D01*
X024838Y023964D01*
X024828Y023917D01*
Y023678D01*
X024782Y023658D01*
X024669Y023772D01*
X024629Y023798D01*
X024583Y023807D01*
X023987D01*
Y02387D01*
X023157D01*
Y0235D01*
X023987D01*
Y023563D01*
X024532D01*
X024668Y023426D01*
Y023273D01*
X024622Y023254D01*
X024604Y023272D01*
X024565Y023298D01*
X024518Y023307D01*
X023987D01*
Y02337D01*
X023157D01*
Y023D01*
X023987D01*
Y023063D01*
X024467D01*
X024508Y023021D01*
Y022891D01*
X02355Y021933D01*
X023488D01*
X023486Y021946D01*
X023448Y022001D01*
X023393Y022039D01*
X023327Y022052D01*
X023261Y022039D01*
X023205Y022001D01*
X023168Y021946D01*
X023155Y02188D01*
X023168Y021814D01*
X023178Y021799D01*
X023151Y021749D01*
X020471D01*
X014017Y028203D01*
Y036689D01*
X014448Y037119D01*
X017765D01*
X018025Y036859D01*
Y036647D01*
X018019Y036646D01*
X017899Y036596D01*
X017796Y036517D01*
X017717Y036414D01*
X017667Y036294D01*
X01765Y036165D01*
X017667Y036037D01*
X017717Y035917D01*
X017796Y035813D01*
X017899Y035734D01*
X018019Y035685D01*
X018148Y035668D01*
X018276Y035685D01*
X018396Y035734D01*
X018499Y035813D01*
X018579Y035917D01*
X018628Y036037D01*
X018645Y036165D01*
X018628Y036294D01*
X018579Y036414D01*
X018499Y036517D01*
X018396Y036596D01*
X018276Y036646D01*
X01827Y036647D01*
Y036909D01*
X018261Y036956D01*
X018234Y036996D01*
X017997Y037233D01*
X018016Y037279D01*
X019182D01*
X019525Y036936D01*
Y036647D01*
X019519Y036646D01*
X019399Y036596D01*
X019296Y036517D01*
X019217Y036414D01*
X019167Y036294D01*
X01915Y036165D01*
X019167Y036037D01*
X019217Y035917D01*
X019296Y035813D01*
X019399Y035734D01*
X019519Y035685D01*
X019648Y035668D01*
X019776Y035685D01*
X019896Y035734D01*
X02Y035813D01*
X020079Y035917D01*
X020128Y036037D01*
X020145Y036165D01*
X020128Y036294D01*
X020079Y036414D01*
X02Y036517D01*
X019896Y036596D01*
X019776Y036646D01*
X01977Y036647D01*
Y036986D01*
X019761Y037033D01*
X019734Y037073D01*
X019319Y037488D01*
X019279Y037515D01*
X019232Y037524D01*
X014331D01*
X014284Y037515D01*
X014244Y037488D01*
X013649Y036892D01*
X013622Y036853D01*
X013613Y036806D01*
Y02822D01*
X013567Y028201D01*
X013459Y028309D01*
Y028954D01*
X013495Y029009D01*
X013508Y029075D01*
X013495Y029141D01*
X013458Y029196D01*
X013402Y029234D01*
X013337Y029247D01*
X013301Y02924D01*
X013251Y029276D01*
Y037043D01*
X013845Y037637D01*
X020508D01*
X02099Y037156D01*
Y036659D01*
X020654D01*
Y035672D01*
X021641D01*
Y036659D01*
X021306D01*
Y037221D01*
X021294Y037281D01*
X021259Y037333D01*
X021001Y037591D01*
X02102Y037637D01*
X0271D01*
X027856Y036881D01*
Y036659D01*
X02752D01*
Y035672D01*
X028507D01*
Y036659D01*
X028172D01*
Y036947D01*
X02816Y037007D01*
X028126Y037059D01*
X027277Y037907D01*
X027226Y037941D01*
X027165Y037953D01*
D02*
G37*
G36*
X035433Y035605D02*
X035367Y035592D01*
X035312Y035555D01*
X035274Y035499D01*
X035261Y035433D01*
X035274Y035367D01*
X035312Y035312D01*
X035367Y035274D01*
X035433Y035261D01*
X035499Y035274D01*
X035555Y035312D01*
X035592Y035367D01*
X035605Y035433D01*
X035592Y035499D01*
X035555Y035555D01*
X035499Y035592D01*
X035433Y035605D01*
D02*
G37*
G36*
X011811D02*
X011745Y035592D01*
X011689Y035555D01*
X011652Y035499D01*
X011639Y035433D01*
X011652Y035367D01*
X011689Y035312D01*
X011745Y035274D01*
X011811Y035261D01*
X011877Y035274D01*
X011933Y035312D01*
X01197Y035367D01*
X011983Y035433D01*
X01197Y035499D01*
X011933Y035555D01*
X011877Y035592D01*
X011811Y035605D01*
D02*
G37*
G36*
X046405Y03489D02*
X046135D01*
X046051Y034879D01*
X045973Y034846D01*
X045906Y034795D01*
X045855Y034728D01*
X045823Y03465D01*
X045812Y034567D01*
X045823Y034483D01*
X045855Y034406D01*
X045906Y034339D01*
X045973Y034287D01*
X046051Y034255D01*
X046135Y034244D01*
X046405D01*
X046488Y034255D01*
X046566Y034287D01*
X046633Y034339D01*
X046684Y034406D01*
X046716Y034483D01*
X046727Y034567D01*
X046716Y03465D01*
X046684Y034728D01*
X046633Y034795D01*
X046566Y034846D01*
X046488Y034879D01*
X046405Y03489D01*
D02*
G37*
G36*
X042186Y032875D02*
X041526D01*
Y032678D01*
X041221D01*
X041201Y032682D01*
X041135Y032669D01*
X041079Y032631D01*
X041042Y032576D01*
X041042Y032574D01*
X040784Y032316D01*
X04075Y032265D01*
X040738Y032205D01*
Y032008D01*
X04075Y031947D01*
X040784Y031896D01*
X042761Y029919D01*
Y028268D01*
X042589D01*
Y027558D01*
X042761D01*
Y027388D01*
X042401Y027028D01*
X040735D01*
X040483Y02728D01*
Y027545D01*
X040649Y027712D01*
X040699Y027705D01*
Y027519D01*
X041359D01*
Y028229D01*
X040699D01*
Y028032D01*
X040588D01*
X040528Y02802D01*
X040476Y027986D01*
X040213Y027723D01*
X040179Y027671D01*
X040167Y027611D01*
Y027215D01*
X040179Y027154D01*
X040213Y027103D01*
X040558Y026758D01*
X040609Y026724D01*
X040669Y026712D01*
X042466D01*
X042527Y026724D01*
X042578Y026758D01*
X043031Y027211D01*
X043065Y027262D01*
X043077Y027323D01*
Y027558D01*
X043249D01*
Y028268D01*
X043077D01*
Y029985D01*
X043065Y030045D01*
X043031Y030096D01*
X041054Y032073D01*
Y032139D01*
X041265Y032351D01*
X041267Y032351D01*
X041282Y032362D01*
X041526D01*
Y032165D01*
X042186D01*
Y032875D01*
D02*
G37*
G36*
X032411Y033075D02*
X032346Y033062D01*
X03229Y033025D01*
X032253Y032969D01*
X03224Y032905D01*
X032207Y032872D01*
X03218Y032832D01*
X032171Y032785D01*
Y03076D01*
X032135Y030706D01*
X032121Y03064D01*
X032135Y030574D01*
X032172Y030518D01*
X032228Y030481D01*
X032293Y030468D01*
X032359Y030481D01*
X032415Y030518D01*
X032452Y030574D01*
X032465Y03064D01*
X032452Y030706D01*
X032416Y03076D01*
Y032733D01*
X032477Y032745D01*
X032533Y032782D01*
X03257Y032838D01*
X032583Y032904D01*
X03257Y032969D01*
X032533Y033025D01*
X032477Y033062D01*
X032411Y033075D01*
D02*
G37*
G36*
X009025Y031831D02*
X008365D01*
Y031121D01*
X008371D01*
Y030432D01*
X009031D01*
Y031142D01*
X009025D01*
Y031831D01*
D02*
G37*
G36*
X038061Y030569D02*
X037101D01*
Y029609D01*
X038061D01*
Y030569D01*
D02*
G37*
G36*
X041787Y029016D02*
X041127D01*
Y028306D01*
X041787D01*
Y029016D01*
D02*
G37*
G36*
X028764Y028604D02*
X028658Y02859D01*
X02856Y02855D01*
X028475Y028485D01*
X02841Y0284D01*
X028369Y028302D01*
X028355Y028196D01*
Y027946D01*
X028369Y02784D01*
X02841Y027742D01*
X028475Y027657D01*
X02856Y027592D01*
X028658Y027551D01*
X028764Y027537D01*
X02887Y027551D01*
X028968Y027592D01*
X029053Y027657D01*
X029118Y027742D01*
X029158Y02784D01*
X029172Y027946D01*
Y028196D01*
X029158Y028302D01*
X029118Y0284D01*
X029053Y028485D01*
X028968Y02855D01*
X02887Y02859D01*
X028764Y028604D01*
D02*
G37*
G36*
X027764D02*
X027658Y02859D01*
X02756Y02855D01*
X027475Y028485D01*
X02741Y0284D01*
X027369Y028302D01*
X027355Y028196D01*
Y027946D01*
X027369Y02784D01*
X02741Y027742D01*
X027475Y027657D01*
X02756Y027592D01*
X027658Y027551D01*
X027764Y027537D01*
X02787Y027551D01*
X027968Y027592D01*
X028053Y027657D01*
X028118Y027742D01*
X028158Y02784D01*
X028172Y027946D01*
Y028196D01*
X028158Y028302D01*
X028118Y0284D01*
X028053Y028485D01*
X027968Y02855D01*
X02787Y02859D01*
X027764Y028604D01*
D02*
G37*
G36*
X026764D02*
X026658Y02859D01*
X02656Y02855D01*
X026475Y028485D01*
X02641Y0284D01*
X026369Y028302D01*
X026355Y028196D01*
Y027946D01*
X026369Y02784D01*
X02641Y027742D01*
X026475Y027657D01*
X02656Y027592D01*
X026658Y027551D01*
X026764Y027537D01*
X02687Y027551D01*
X026968Y027592D01*
X027053Y027657D01*
X027118Y027742D01*
X027158Y02784D01*
X027172Y027946D01*
Y028196D01*
X027158Y028302D01*
X027118Y0284D01*
X027053Y028485D01*
X026968Y02855D01*
X02687Y02859D01*
X026764Y028604D01*
D02*
G37*
G36*
X025764D02*
X025658Y02859D01*
X02556Y02855D01*
X025475Y028485D01*
X02541Y0284D01*
X025369Y028302D01*
X025355Y028196D01*
Y027946D01*
X025369Y02784D01*
X02541Y027742D01*
X025475Y027657D01*
X02556Y027592D01*
X025658Y027551D01*
X025764Y027537D01*
X02587Y027551D01*
X025968Y027592D01*
X026053Y027657D01*
X026118Y027742D01*
X026158Y02784D01*
X026172Y027946D01*
Y028196D01*
X026158Y028302D01*
X026118Y0284D01*
X026053Y028485D01*
X025968Y02855D01*
X02587Y02859D01*
X025764Y028604D01*
D02*
G37*
G36*
X024764D02*
X024658Y02859D01*
X02456Y02855D01*
X024475Y028485D01*
X02441Y0284D01*
X024369Y028302D01*
X024355Y028196D01*
Y027946D01*
X024369Y02784D01*
X02441Y027742D01*
X024475Y027657D01*
X02456Y027592D01*
X024658Y027551D01*
X024764Y027537D01*
X02487Y027551D01*
X024968Y027592D01*
X025053Y027657D01*
X025118Y027742D01*
X025158Y02784D01*
X025172Y027946D01*
Y028196D01*
X025158Y028302D01*
X025118Y0284D01*
X025053Y028485D01*
X024968Y02855D01*
X02487Y02859D01*
X024764Y028604D01*
D02*
G37*
G36*
X023764D02*
X023658Y02859D01*
X02356Y02855D01*
X023475Y028485D01*
X02341Y0284D01*
X023369Y028302D01*
X023355Y028196D01*
Y027946D01*
X023369Y02784D01*
X02341Y027742D01*
X023475Y027657D01*
X02356Y027592D01*
X023658Y027551D01*
X023764Y027537D01*
X02387Y027551D01*
X023968Y027592D01*
X024053Y027657D01*
X024118Y027742D01*
X024158Y02784D01*
X024172Y027946D01*
Y028196D01*
X024158Y028302D01*
X024118Y0284D01*
X024053Y028485D01*
X023968Y02855D01*
X02387Y02859D01*
X023764Y028604D01*
D02*
G37*
G36*
X022764D02*
X022658Y02859D01*
X02256Y02855D01*
X022475Y028485D01*
X02241Y0284D01*
X022369Y028302D01*
X022355Y028196D01*
Y027946D01*
X022369Y02784D01*
X02241Y027742D01*
X022475Y027657D01*
X02256Y027592D01*
X022658Y027551D01*
X022764Y027537D01*
X02287Y027551D01*
X022968Y027592D01*
X023053Y027657D01*
X023118Y027742D01*
X023158Y02784D01*
X023172Y027946D01*
Y028196D01*
X023158Y028302D01*
X023118Y0284D01*
X023053Y028485D01*
X022968Y02855D01*
X02287Y02859D01*
X022764Y028604D01*
D02*
G37*
G36*
X042259Y028229D02*
X041599D01*
Y027519D01*
X042259D01*
Y028229D01*
D02*
G37*
G36*
X013246Y027733D02*
X013234D01*
X013187Y027724D01*
X013147Y027697D01*
X01312Y027658D01*
X013111Y027611D01*
X01312Y027564D01*
X013136Y027542D01*
Y026654D01*
X013145Y026607D01*
X013171Y026567D01*
X013211Y026541D01*
X013258Y026531D01*
X013305Y026541D01*
X013344Y026567D01*
X013371Y026607D01*
X01338Y026654D01*
Y027587D01*
X013371Y027633D01*
X013361Y027648D01*
X013359Y027658D01*
X013333Y027697D01*
X013293Y027724D01*
X013246Y027733D01*
D02*
G37*
G36*
X037264Y026707D02*
X037198Y026694D01*
X037143Y026658D01*
X036949D01*
X036902Y026648D01*
X036862Y026622D01*
X036744Y026504D01*
X036718Y026464D01*
X036708Y026417D01*
Y026392D01*
X033988D01*
X033987Y026394D01*
X033931Y026432D01*
X033865Y026445D01*
X033799Y026432D01*
X033743Y026394D01*
X033706Y026339D01*
X033693Y026273D01*
X033706Y026207D01*
X033743Y026151D01*
X033799Y026114D01*
X033865Y026101D01*
X033931Y026114D01*
X033981Y026147D01*
X036831D01*
X036878Y026157D01*
X036917Y026183D01*
X036944Y026223D01*
X036953Y02627D01*
Y026367D01*
X036999Y026413D01*
X037143D01*
X037198Y026377D01*
X037264Y026364D01*
X03733Y026377D01*
X037385Y026414D01*
X037423Y02647D01*
X037436Y026535D01*
X037423Y026601D01*
X037385Y026657D01*
X03733Y026694D01*
X037264Y026707D01*
D02*
G37*
G36*
X037854Y033203D02*
X037789Y03319D01*
X037733Y033153D01*
X037696Y033097D01*
X037682Y033031D01*
X037696Y032966D01*
X037733Y03291D01*
X037789Y032873D01*
X037853Y03286D01*
X039543Y03117D01*
Y026614D01*
X039552Y026567D01*
X039579Y026528D01*
X039838Y026268D01*
X039851Y026204D01*
X039888Y026148D01*
X039944Y026111D01*
X04001Y026098D01*
X040076Y026111D01*
X040131Y026148D01*
X040169Y026204D01*
X040182Y02627D01*
X040169Y026335D01*
X040131Y026391D01*
X040076Y026428D01*
X040011Y026441D01*
X039788Y026665D01*
Y03122D01*
X039778Y031267D01*
X039752Y031307D01*
X038026Y033033D01*
X038013Y033097D01*
X037976Y033153D01*
X03792Y03319D01*
X037854Y033203D01*
D02*
G37*
G36*
X030319Y028193D02*
X030272Y028184D01*
X030232Y028157D01*
X030189Y028114D01*
X030163Y028075D01*
X030153Y028028D01*
Y025994D01*
X030161Y025956D01*
X030145Y025925D01*
X03013Y025906D01*
X029114D01*
X02909Y02595D01*
X029096Y025958D01*
X029109Y026024D01*
X029096Y026089D01*
X029058Y026145D01*
X029003Y026182D01*
X028938Y026195D01*
X028393Y02674D01*
X028354Y026767D01*
X028307Y026776D01*
X028152D01*
X028097Y026812D01*
X028031Y026825D01*
X027966Y026812D01*
X02791Y026775D01*
X027873Y026719D01*
X02786Y026654D01*
X027873Y026588D01*
X02791Y026532D01*
X027966Y026495D01*
X028031Y026482D01*
X028097Y026495D01*
X028152Y026531D01*
X028256D01*
X028765Y026022D01*
X028778Y025958D01*
X028784Y02595D01*
X02876Y025906D01*
X027506D01*
X027484Y025939D01*
X027428Y025976D01*
X027362Y025989D01*
X027296Y025976D01*
X027241Y025939D01*
X027203Y025883D01*
X02719Y025817D01*
X027203Y025751D01*
X027241Y025695D01*
X027296Y025658D01*
X027362Y025645D01*
X027428Y025658D01*
X027432Y025661D01*
X030349D01*
X030404Y025624D01*
X03047Y025611D01*
X030535Y025624D01*
X030591Y025662D01*
X030628Y025717D01*
X030641Y025783D01*
X030628Y025849D01*
X030591Y025905D01*
X030535Y025942D01*
X03047Y025955D01*
X03044Y025949D01*
X030397Y025992D01*
X030398Y025994D01*
Y026694D01*
X030677D01*
X030688Y026642D01*
X030725Y026586D01*
X030781Y026549D01*
X030846Y026535D01*
X030912Y026549D01*
X030968Y026586D01*
X031005Y026642D01*
X031016Y026694D01*
X031021D01*
Y027404D01*
X030398D01*
Y027977D01*
X030405Y027984D01*
X030432Y028024D01*
X030441Y028071D01*
X030432Y028118D01*
X030405Y028157D01*
X030365Y028184D01*
X030319Y028193D01*
D02*
G37*
G36*
X001693Y026658D02*
X001646Y026648D01*
X001606Y026622D01*
X00158Y026582D01*
X001571Y026535D01*
X00158Y026489D01*
X001606Y026449D01*
X003162Y024894D01*
X003201Y024867D01*
X003248Y024858D01*
X005984D01*
X006031Y024867D01*
X006071Y024894D01*
X006097Y024933D01*
X006107Y02498D01*
X006097Y025027D01*
X006071Y025067D01*
X006031Y025093D01*
X005984Y025103D01*
X003299D01*
X001779Y026622D01*
X00174Y026648D01*
X001693Y026658D01*
D02*
G37*
G36*
X035473Y025409D02*
X034763D01*
Y024749D01*
X035473D01*
Y025409D01*
D02*
G37*
G36*
X023987Y02437D02*
X023157D01*
Y024D01*
X023987D01*
Y02437D01*
D02*
G37*
G36*
X028071Y024256D02*
X027414D01*
X027367Y024247D01*
X027327Y02422D01*
X027217Y02411D01*
X02719Y02407D01*
X027181Y024023D01*
Y023564D01*
X026603Y022987D01*
X025828D01*
X025744Y02307D01*
Y023185D01*
X025735Y023232D01*
X025709Y023272D01*
X025669Y023298D01*
X025622Y023307D01*
X025575Y023298D01*
X025536Y023272D01*
X025509Y023232D01*
X0255Y023185D01*
Y02302D01*
X025509Y022973D01*
X025536Y022933D01*
X025691Y022778D01*
X025731Y022751D01*
X025778Y022742D01*
X026654D01*
X0267Y022751D01*
X02674Y022778D01*
X02739Y023427D01*
X027416Y023467D01*
X027425Y023514D01*
Y023973D01*
X027464Y024012D01*
X02802D01*
X028112Y02392D01*
X028091Y02387D01*
X027996D01*
X027953Y023879D01*
X027892Y023866D01*
X027841Y023832D01*
X027693Y023685D01*
X027659Y023633D01*
X027647Y023573D01*
Y02314D01*
X027659Y023079D01*
X027693Y023028D01*
X027965Y022756D01*
X028017Y022722D01*
X028077Y02271D01*
X028779D01*
Y022505D01*
X029489D01*
Y023165D01*
X028779D01*
Y023026D01*
X028142D01*
X027963Y023205D01*
Y023507D01*
X02801Y023554D01*
X028123D01*
X028125Y023553D01*
X02819Y02354D01*
X028256Y023553D01*
X028312Y02359D01*
X028335Y023626D01*
X028363Y023635D01*
X02839Y023638D01*
X028398Y023637D01*
X028428Y023617D01*
X028474Y023608D01*
X029124D01*
X029171Y023617D01*
X029211Y023644D01*
X029237Y023683D01*
X029246Y02373D01*
X029237Y023777D01*
X029211Y023817D01*
X029171Y023843D01*
X029124Y023853D01*
X028525D01*
X028157Y02422D01*
X028118Y024247D01*
X028071Y024256D01*
D02*
G37*
G36*
X033504Y024478D02*
X033457Y024469D01*
X033417Y024442D01*
X033391Y024403D01*
X033382Y024356D01*
X033391Y024309D01*
X033417Y024269D01*
X03362Y024067D01*
X033656Y024043D01*
X033696Y024013D01*
X033687Y023967D01*
X033696Y02392D01*
X033723Y02388D01*
X033762Y023853D01*
X033809Y023844D01*
X033996D01*
X034043Y023853D01*
X034083Y02388D01*
X03427Y024067D01*
X034296Y024107D01*
X034305Y024154D01*
X034296Y0242D01*
X03427Y02424D01*
X03423Y024267D01*
X034183Y024276D01*
X033757D01*
X03359Y024442D01*
X033551Y024469D01*
X033504Y024478D01*
D02*
G37*
G36*
X04311Y024741D02*
X043005Y024727D01*
X042906Y024686D01*
X042821Y024621D01*
X042756Y024537D01*
X042716Y024438D01*
X042702Y024332D01*
Y024132D01*
X042716Y024027D01*
X042756Y023928D01*
X042821Y023843D01*
X042906Y023779D01*
X043005Y023738D01*
X04311Y023724D01*
X043216Y023738D01*
X043314Y023779D01*
X043399Y023843D01*
X043464Y023928D01*
X043505Y024027D01*
X043519Y024132D01*
Y024332D01*
X043505Y024438D01*
X043464Y024537D01*
X043399Y024621D01*
X043314Y024686D01*
X043216Y024727D01*
X04311Y024741D01*
D02*
G37*
G36*
X04211D02*
X042005Y024727D01*
X041906Y024686D01*
X041821Y024621D01*
X041756Y024537D01*
X041716Y024438D01*
X041702Y024332D01*
Y024132D01*
X041716Y024027D01*
X041756Y023928D01*
X041821Y023843D01*
X041906Y023779D01*
X042005Y023738D01*
X04211Y023724D01*
X042216Y023738D01*
X042314Y023779D01*
X042399Y023843D01*
X042464Y023928D01*
X042505Y024027D01*
X042519Y024132D01*
Y024332D01*
X042505Y024438D01*
X042464Y024537D01*
X042399Y024621D01*
X042314Y024686D01*
X042216Y024727D01*
X04211Y024741D01*
D02*
G37*
G36*
X03158Y022796D02*
X03092D01*
Y022086D01*
X03158D01*
Y022796D01*
D02*
G37*
G36*
X002062Y022869D02*
X001941Y022853D01*
X001828Y022807D01*
X001731Y022732D01*
X001657Y022636D01*
X00161Y022523D01*
X001594Y022402D01*
X00161Y02228D01*
X001657Y022168D01*
X001731Y022071D01*
X001828Y021996D01*
X001941Y02195D01*
X002062Y021934D01*
X002183Y02195D01*
X002296Y021996D01*
X002393Y022071D01*
X002467Y022168D01*
X002514Y02228D01*
X00253Y022402D01*
X002514Y022523D01*
X002467Y022636D01*
X002393Y022732D01*
X002296Y022807D01*
X002183Y022853D01*
X002062Y022869D01*
D02*
G37*
G36*
X027903Y022069D02*
X027093D01*
Y021159D01*
X027903D01*
Y022069D01*
D02*
G37*
G36*
X028508Y022073D02*
X028402Y022059D01*
X028304Y022018D01*
X028219Y021953D01*
X028154Y021868D01*
X028114Y02177D01*
X0281Y021664D01*
Y021564D01*
X028114Y021458D01*
X028154Y02136D01*
X028219Y021275D01*
X028304Y02121D01*
X028402Y02117D01*
X028508Y021156D01*
X028614Y02117D01*
X028712Y02121D01*
X028797Y021275D01*
X028862Y02136D01*
X028903Y021458D01*
X028917Y021564D01*
Y021664D01*
X028903Y02177D01*
X028862Y021868D01*
X028797Y021953D01*
X028712Y022018D01*
X028614Y022059D01*
X028508Y022073D01*
D02*
G37*
G36*
X03068Y022796D02*
X03002D01*
Y022086D01*
X030279D01*
Y019894D01*
X030242Y019839D01*
X030229Y019774D01*
X030242Y019708D01*
X03028Y019652D01*
X030335Y019615D01*
X030401Y019602D01*
X030467Y019615D01*
X030523Y019652D01*
X03056Y019708D01*
X030573Y019774D01*
X03056Y019839D01*
X030523Y019894D01*
Y022086D01*
X03068D01*
Y022796D01*
D02*
G37*
G36*
X039667Y018242D02*
X039467D01*
X039368Y018228D01*
X039275Y01819D01*
X039196Y018129D01*
X039135Y01805D01*
X039097Y017957D01*
X039084Y017858D01*
X039097Y017759D01*
X039135Y017667D01*
X039196Y017587D01*
X039275Y017526D01*
X039368Y017488D01*
X039467Y017475D01*
X039667D01*
X039766Y017488D01*
X039859Y017526D01*
X039938Y017587D01*
X039999Y017667D01*
X040028Y017736D01*
X040122D01*
X040176Y017699D01*
X040242Y017686D01*
X040308Y017699D01*
X040364Y017737D01*
X040401Y017792D01*
X040414Y017858D01*
X040401Y017924D01*
X040364Y01798D01*
X040308Y018017D01*
X040242Y01803D01*
X040176Y018017D01*
X040122Y017981D01*
X040028D01*
X039999Y01805D01*
X039938Y018129D01*
X039859Y01819D01*
X039766Y018228D01*
X039667Y018242D01*
D02*
G37*
G36*
X034016Y017928D02*
X033306D01*
Y017766D01*
X031772D01*
X031711Y017754D01*
X03166Y01772D01*
X031365Y017425D01*
X03133Y017373D01*
X031318Y017313D01*
Y016967D01*
X031318Y016965D01*
X031304Y0169D01*
X031318Y016834D01*
X031355Y016778D01*
X031411Y016741D01*
X031476Y016728D01*
X031542Y016741D01*
X031598Y016778D01*
X031635Y016834D01*
X031648Y0169D01*
X031635Y016965D01*
X031634Y016967D01*
Y017248D01*
X031837Y01745D01*
X033306D01*
Y017268D01*
X034016D01*
Y017928D01*
D02*
G37*
G36*
X039667Y017242D02*
X039467D01*
X039368Y017228D01*
X039275Y01719D01*
X039196Y017129D01*
X039135Y01705D01*
X039097Y016957D01*
X039084Y016858D01*
X039097Y016759D01*
X039135Y016667D01*
X039196Y016587D01*
X039275Y016526D01*
X039368Y016488D01*
X039467Y016475D01*
X039667D01*
X039766Y016488D01*
X039859Y016526D01*
X039938Y016587D01*
X039999Y016667D01*
X040013Y016701D01*
X040066Y016712D01*
X040111Y016682D01*
X040177Y016669D01*
X040243Y016682D01*
X040299Y016719D01*
X040336Y016775D01*
X040349Y016841D01*
X040336Y016906D01*
X040299Y016962D01*
X040243Y016999D01*
X040177Y017012D01*
X040111Y016999D01*
X040081Y016979D01*
X040022Y016994D01*
X039999Y01705D01*
X039938Y017129D01*
X039859Y01719D01*
X039766Y017228D01*
X039667Y017242D01*
D02*
G37*
G36*
X025228Y016682D02*
X025129Y016669D01*
X025037Y016631D01*
X024957Y01657D01*
X024896Y016491D01*
X024858Y016398D01*
X024845Y016299D01*
X024858Y0162D01*
X024896Y016108D01*
X024957Y016028D01*
X025037Y015967D01*
X025129Y015929D01*
X025228Y015916D01*
X025328Y015929D01*
X02542Y015967D01*
X025499Y016028D01*
X02556Y016108D01*
X025599Y0162D01*
X025612Y016299D01*
X025599Y016398D01*
X02556Y016491D01*
X025499Y01657D01*
X02542Y016631D01*
X025328Y016669D01*
X025228Y016682D01*
D02*
G37*
G36*
X019228D02*
X019129Y016669D01*
X019037Y016631D01*
X018957Y01657D01*
X018896Y016491D01*
X018858Y016398D01*
X018845Y016299D01*
X018858Y0162D01*
X018896Y016108D01*
X018957Y016028D01*
X019037Y015967D01*
X019129Y015929D01*
X019228Y015916D01*
X019328Y015929D01*
X01942Y015967D01*
X019499Y016028D01*
X01956Y016108D01*
X019599Y0162D01*
X019612Y016299D01*
X019599Y016398D01*
X01956Y016491D01*
X019499Y01657D01*
X01942Y016631D01*
X019328Y016669D01*
X019228Y016682D01*
D02*
G37*
G36*
X021228D02*
X021129Y016669D01*
X021037Y016631D01*
X020957Y01657D01*
X020896Y016491D01*
X020858Y016398D01*
X020845Y016299D01*
X020858Y0162D01*
X020896Y016108D01*
X020957Y016028D01*
X021037Y015967D01*
X021106Y015939D01*
Y015248D01*
X021115Y015201D01*
X021142Y015162D01*
X021444Y014859D01*
X021419Y014813D01*
X021398Y014818D01*
X021332Y014804D01*
X021276Y014767D01*
X021239Y014711D01*
X021226Y014647D01*
X019529Y01295D01*
X019483Y012969D01*
Y01438D01*
X019473Y014427D01*
X019447Y014466D01*
X018079Y015834D01*
X018101Y015879D01*
X018118Y015877D01*
X018217Y01589D01*
X01831Y015928D01*
X018389Y015989D01*
X01845Y016068D01*
X018488Y016161D01*
X018501Y01626D01*
X018488Y016359D01*
X01845Y016451D01*
X018389Y016531D01*
X01831Y016592D01*
X018217Y01663D01*
X018118Y016643D01*
X018019Y01663D01*
X017926Y016592D01*
X017847Y016531D01*
X017786Y016451D01*
X017748Y016359D01*
X017735Y01626D01*
X017737Y016243D01*
X017692Y016221D01*
X017567Y016346D01*
X017527Y016373D01*
X01748Y016382D01*
X017479D01*
X01745Y016451D01*
X017389Y016531D01*
X01731Y016592D01*
X017217Y01663D01*
X017118Y016643D01*
X017019Y01663D01*
X016926Y016592D01*
X016847Y016531D01*
X016786Y016451D01*
X016748Y016359D01*
X016735Y01626D01*
X016748Y016161D01*
X016786Y016068D01*
X016847Y015989D01*
X016911Y01594D01*
X016894Y01589D01*
X016661D01*
X01646Y016091D01*
X016488Y016161D01*
X016501Y01626D01*
X016488Y016359D01*
X01645Y016451D01*
X016389Y016531D01*
X01631Y016592D01*
X016217Y01663D01*
X016118Y016643D01*
X016019Y01663D01*
X015926Y016592D01*
X015847Y016531D01*
X015786Y016451D01*
X015748Y016359D01*
X015735Y01626D01*
X015748Y016161D01*
X015786Y016068D01*
X015847Y015989D01*
X015926Y015928D01*
X016019Y01589D01*
X016118Y015877D01*
X016217Y01589D01*
X016287Y015918D01*
X016524Y015681D01*
X016563Y015655D01*
X01661Y015645D01*
X017695D01*
X017935Y015406D01*
X017918Y015352D01*
X017887Y015346D01*
X017831Y015309D01*
X017794Y015253D01*
X017781Y015187D01*
X017794Y015121D01*
X017831Y015065D01*
X017887Y015028D01*
X017888Y015028D01*
X018012Y014905D01*
Y01426D01*
X018011Y014259D01*
X017998Y014193D01*
X018Y014184D01*
X017953Y01416D01*
X017267Y014846D01*
X017216Y01488D01*
X017155Y014892D01*
X016406D01*
X016404Y014893D01*
X016339Y014906D01*
X016302Y014899D01*
X016252Y014935D01*
Y015248D01*
X016243Y015295D01*
X016217Y015334D01*
X01546Y016091D01*
X015488Y016161D01*
X015501Y01626D01*
X015488Y016359D01*
X01545Y016451D01*
X015389Y016531D01*
X01531Y016592D01*
X015217Y01663D01*
X015118Y016643D01*
X015019Y01663D01*
X014926Y016592D01*
X014847Y016531D01*
X014786Y016451D01*
X014748Y016359D01*
X014735Y01626D01*
X014748Y016161D01*
X014786Y016068D01*
X014847Y015989D01*
X014926Y015928D01*
X015019Y01589D01*
X015118Y015877D01*
X015217Y01589D01*
X015287Y015918D01*
X016008Y015197D01*
Y014648D01*
X016017Y014601D01*
X016043Y014562D01*
X017416Y013189D01*
Y011109D01*
X017407Y011096D01*
X017397Y011049D01*
Y010453D01*
X017407Y010406D01*
X017433Y010366D01*
X017582Y010217D01*
X017563Y01017D01*
X017551Y010083D01*
X017563Y009995D01*
X017596Y009913D01*
X01765Y009843D01*
X01772Y009789D01*
X017802Y009755D01*
X01789Y009744D01*
X017977Y009755D01*
X018059Y009789D01*
X018129Y009843D01*
X018183Y009913D01*
X018217Y009995D01*
X018229Y010083D01*
X018217Y01017D01*
X018183Y010252D01*
X018129Y010322D01*
X018059Y010376D01*
X017977Y01041D01*
X01789Y010421D01*
X017802Y01041D01*
X017755Y01039D01*
X017642Y010503D01*
Y011007D01*
X017651Y011021D01*
X01766Y011067D01*
Y01324D01*
X017651Y013287D01*
X017625Y013326D01*
X016425Y014526D01*
X016445Y014576D01*
X01709D01*
X01866Y013006D01*
X01866Y013005D01*
X018697Y012949D01*
X018753Y012912D01*
X018819Y012899D01*
X018855Y012906D01*
X018905Y01287D01*
Y012779D01*
X018822Y012695D01*
X018795Y012656D01*
X018786Y012609D01*
Y01185D01*
X018458Y011523D01*
X018409Y011514D01*
X018402Y011514D01*
X018389Y011531D01*
X01831Y011592D01*
X018217Y01163D01*
X018118Y011643D01*
X018019Y01163D01*
X017926Y011592D01*
X017847Y011531D01*
X017786Y011451D01*
X017748Y011359D01*
X017735Y01126D01*
X017748Y011161D01*
X017786Y011068D01*
X017847Y010989D01*
X017926Y010928D01*
X018019Y01089D01*
X018118Y010877D01*
X018217Y01089D01*
X01831Y010928D01*
X018366Y010971D01*
X018416Y010946D01*
Y009179D01*
X018033Y008796D01*
X017233D01*
X017012Y009017D01*
Y00977D01*
X017059Y009789D01*
X017129Y009843D01*
X017183Y009913D01*
X017217Y009995D01*
X017229Y010083D01*
X017217Y01017D01*
X017183Y010252D01*
X017129Y010322D01*
X017059Y010376D01*
X016977Y01041D01*
X01689Y010421D01*
X016802Y01041D01*
X01672Y010376D01*
X01665Y010322D01*
X016596Y010252D01*
X016562Y01017D01*
X016551Y010083D01*
X016562Y009995D01*
X016596Y009913D01*
X01665Y009843D01*
X01672Y009789D01*
X016767Y00977D01*
Y008967D01*
X016777Y00892D01*
X016803Y00888D01*
X017001Y008682D01*
X016982Y008636D01*
X016596D01*
X016012Y00922D01*
Y00977D01*
X016059Y009789D01*
X016129Y009843D01*
X016183Y009913D01*
X016217Y009995D01*
X016229Y010083D01*
X016217Y01017D01*
X016183Y010252D01*
X016129Y010322D01*
X016059Y010376D01*
X015977Y01041D01*
X01589Y010421D01*
X015802Y01041D01*
X01572Y010376D01*
X01565Y010322D01*
X015596Y010252D01*
X015562Y01017D01*
X015551Y010083D01*
X015562Y009995D01*
X015596Y009913D01*
X01565Y009843D01*
X01572Y009789D01*
X015767Y00977D01*
Y009169D01*
X015777Y009122D01*
X015803Y009083D01*
X016459Y008427D01*
X016498Y008401D01*
X016545Y008391D01*
X01815D01*
X018196Y008401D01*
X018236Y008427D01*
X018785Y008976D01*
X018811Y009015D01*
X01882Y009062D01*
Y01116D01*
X01887Y01117D01*
X018896Y011108D01*
X018957Y011028D01*
X019037Y010967D01*
X019129Y010929D01*
X019228Y010916D01*
X019328Y010929D01*
X01942Y010967D01*
X019458Y010996D01*
X019508Y010971D01*
Y010396D01*
X019461Y010376D01*
X01939Y010322D01*
X019337Y010252D01*
X019303Y01017D01*
X019291Y010083D01*
X019303Y009995D01*
X019337Y009913D01*
X01939Y009843D01*
X019461Y009789D01*
X019542Y009755D01*
X01963Y009744D01*
X019718Y009755D01*
X019799Y009789D01*
X019869Y009843D01*
X019923Y009913D01*
X019957Y009995D01*
X019969Y010083D01*
X019957Y01017D01*
X019923Y010252D01*
X019869Y010322D01*
X019799Y010376D01*
X019752Y010396D01*
Y011016D01*
X019844Y011108D01*
X019896D01*
X019896Y011108D01*
X019957Y011028D01*
X020037Y010967D01*
X020129Y010929D01*
X020228Y010916D01*
X020328Y010929D01*
X02042Y010967D01*
X020458Y010996D01*
X020508Y010971D01*
Y010396D01*
X020461Y010376D01*
X02039Y010322D01*
X020337Y010252D01*
X020303Y01017D01*
X020291Y010083D01*
X020303Y009995D01*
X020337Y009913D01*
X02039Y009843D01*
X020461Y009789D01*
X020542Y009755D01*
X02063Y009744D01*
X020718Y009755D01*
X020799Y009789D01*
X020869Y009843D01*
X020923Y009913D01*
X020957Y009995D01*
X020969Y010083D01*
X020957Y01017D01*
X020923Y010252D01*
X020869Y010322D01*
X020799Y010376D01*
X020752Y010396D01*
Y010983D01*
X020855Y011085D01*
X020919Y011079D01*
X020957Y011028D01*
X021037Y010967D01*
X021129Y010929D01*
X021228Y010916D01*
X021328Y010929D01*
X02142Y010967D01*
X021458Y010996D01*
X021508Y010971D01*
Y010396D01*
X021461Y010376D01*
X02139Y010322D01*
X021337Y010252D01*
X021303Y01017D01*
X021291Y010083D01*
X021303Y009995D01*
X021337Y009913D01*
X02139Y009843D01*
X021461Y009789D01*
X021542Y009755D01*
X02163Y009744D01*
X021718Y009755D01*
X021799Y009789D01*
X021869Y009843D01*
X021923Y009913D01*
X021957Y009995D01*
X021969Y010083D01*
X021957Y01017D01*
X021923Y010252D01*
X021869Y010322D01*
X021799Y010376D01*
X021752Y010396D01*
Y011038D01*
X021843Y011128D01*
X021892Y011119D01*
X021896Y011108D01*
X021957Y011028D01*
X022037Y010967D01*
X022129Y010929D01*
X022228Y010916D01*
X022328Y010929D01*
X02242Y010967D01*
X022495Y011025D01*
X02253Y011018D01*
X022545Y011013D01*
Y010744D01*
X022554Y010697D01*
X022581Y010658D01*
X022852Y010386D01*
Y009699D01*
X023762D01*
Y010509D01*
X023075D01*
X02279Y010795D01*
Y011347D01*
X022802Y011355D01*
X022848Y011325D01*
X022845Y011299D01*
X022858Y0112D01*
X022896Y011108D01*
X022957Y011028D01*
X023037Y010967D01*
X023129Y010929D01*
X023228Y010916D01*
X023328Y010929D01*
X02342Y010967D01*
X023499Y011028D01*
X02356Y011108D01*
X023599Y0112D01*
X023612Y011299D01*
X023599Y011398D01*
X02356Y011491D01*
X023543Y011514D01*
X023564Y011569D01*
X023591Y011574D01*
X023646Y011611D01*
X023684Y011667D01*
X023697Y011733D01*
X023684Y011799D01*
X023646Y011854D01*
X023591Y011892D01*
X023525Y011905D01*
X023459Y011892D01*
X023404Y011855D01*
X022973D01*
X022926Y011846D01*
X022887Y011819D01*
X022595Y011528D01*
X022546Y011525D01*
X022531Y011529D01*
X022499Y01157D01*
X02242Y011631D01*
X022328Y011669D01*
X022228Y011682D01*
X022129Y011669D01*
X022037Y011631D01*
X021957Y01157D01*
X021896Y011491D01*
X021868Y011422D01*
X021841D01*
X021794Y011412D01*
X021754Y011386D01*
X021656Y011288D01*
X02161Y011312D01*
X021599Y011398D01*
X02156Y011491D01*
X021499Y01157D01*
X02142Y011631D01*
X021328Y011669D01*
X021228Y011682D01*
X021129Y011669D01*
X021037Y011631D01*
X020957Y01157D01*
X020896Y011491D01*
X020865Y011416D01*
X020849Y011412D01*
X020809Y011386D01*
X020653Y011229D01*
X020606Y011253D01*
X020612Y011299D01*
X020599Y011398D01*
X02056Y011491D01*
X020499Y01157D01*
X02042Y011631D01*
X020328Y011669D01*
X020228Y011682D01*
X020129Y011669D01*
X020037Y011631D01*
X019957Y01157D01*
X019896Y011491D01*
X019858Y011398D01*
X019852Y011353D01*
X019793D01*
X019746Y011343D01*
X019707Y011317D01*
X019655Y011265D01*
X01961Y011287D01*
X019612Y011299D01*
X019599Y011398D01*
X01956Y011491D01*
X019499Y01157D01*
X01942Y011631D01*
X019351Y01166D01*
Y012426D01*
X021399Y014474D01*
X021463Y014487D01*
X021519Y014524D01*
X021556Y01458D01*
X02157Y014646D01*
X021565Y014667D01*
X021611Y014692D01*
X021735Y014568D01*
X021741Y014541D01*
X021778Y014485D01*
X021834Y014447D01*
X0219Y014434D01*
X021965Y014447D01*
X022021Y014485D01*
X022058Y014541D01*
X022071Y014606D01*
X022058Y014672D01*
X022021Y014728D01*
X021965Y014765D01*
X0219Y014778D01*
X021876Y014773D01*
X021351Y015299D01*
Y015939D01*
X02142Y015967D01*
X021499Y016028D01*
X02156Y016108D01*
X021599Y0162D01*
X021612Y016299D01*
X021599Y016398D01*
X02156Y016491D01*
X021499Y01657D01*
X02142Y016631D01*
X021328Y016669D01*
X021228Y016682D01*
D02*
G37*
G36*
X014118Y016643D02*
X014019Y01663D01*
X013926Y016592D01*
X013847Y016531D01*
X013786Y016451D01*
X013748Y016359D01*
X013735Y01626D01*
X013748Y016161D01*
X013786Y016068D01*
X013847Y015989D01*
X013926Y015928D01*
X014019Y01589D01*
X014118Y015877D01*
X014217Y01589D01*
X01431Y015928D01*
X014389Y015989D01*
X01445Y016068D01*
X014488Y016161D01*
X014501Y01626D01*
X014488Y016359D01*
X01445Y016451D01*
X014389Y016531D01*
X01431Y016592D01*
X014217Y01663D01*
X014118Y016643D01*
D02*
G37*
G36*
X013118D02*
X013019Y01663D01*
X012926Y016592D01*
X012847Y016531D01*
X012786Y016451D01*
X012748Y016359D01*
X012735Y01626D01*
X012748Y016161D01*
X012786Y016068D01*
X012847Y015989D01*
X012926Y015928D01*
X013019Y01589D01*
X013118Y015877D01*
X013217Y01589D01*
X01331Y015928D01*
X013389Y015989D01*
X01345Y016068D01*
X013488Y016161D01*
X013501Y01626D01*
X013488Y016359D01*
X01345Y016451D01*
X013389Y016531D01*
X01331Y016592D01*
X013217Y01663D01*
X013118Y016643D01*
D02*
G37*
G36*
X032583Y017229D02*
X032517Y017216D01*
X032461Y017179D01*
X032424Y017123D01*
X032411Y017057D01*
X032424Y016991D01*
X032461Y016936D01*
X032517Y016898D01*
X032583Y016885D01*
X032603Y016889D01*
X033575Y015917D01*
X033614Y015891D01*
X033661Y015882D01*
X034015D01*
X03407Y015845D01*
X034136Y015832D01*
X034201Y015845D01*
X034257Y015882D01*
X034294Y015938D01*
X034307Y016004D01*
X034294Y01607D01*
X034257Y016125D01*
X034201Y016163D01*
X034136Y016176D01*
X03407Y016163D01*
X034015Y016126D01*
X033712D01*
X032748Y01709D01*
X032741Y017123D01*
X032704Y017179D01*
X032648Y017216D01*
X032583Y017229D01*
D02*
G37*
G36*
X030932Y015556D02*
X030867Y015543D01*
X030811Y015505D01*
X030806Y015498D01*
X0308Y015497D01*
X03076Y01547D01*
X030386Y015096D01*
X030359Y015057D01*
X03035Y01501D01*
Y012667D01*
X030359Y012621D01*
X030386Y012581D01*
X030414Y012553D01*
X030422Y012513D01*
X030459Y012457D01*
X030515Y01242D01*
X030581Y012407D01*
X030646Y01242D01*
X030702Y012457D01*
X03074Y012513D01*
X030753Y012579D01*
X03074Y012645D01*
X030702Y0127D01*
X030646Y012738D01*
X030595Y012748D01*
Y014959D01*
X030863Y015227D01*
X030867Y015225D01*
X030932Y015212D01*
X030998Y015225D01*
X031054Y015262D01*
X031091Y015318D01*
X031104Y015384D01*
X031091Y01545D01*
X031054Y015505D01*
X030998Y015543D01*
X030932Y015556D01*
D02*
G37*
G36*
X012118Y016643D02*
X012019Y01663D01*
X011926Y016592D01*
X011847Y016531D01*
X011786Y016451D01*
X011748Y016359D01*
X011735Y01626D01*
X011748Y016161D01*
X011786Y016068D01*
X011847Y015989D01*
X011926Y015928D01*
X011996Y015899D01*
Y014782D01*
X012005Y014735D01*
X012032Y014695D01*
X012013Y014643D01*
X012008Y014642D01*
X01124Y015409D01*
Y015899D01*
X01131Y015928D01*
X011389Y015989D01*
X01145Y016068D01*
X011488Y016161D01*
X011501Y01626D01*
X011488Y016359D01*
X01145Y016451D01*
X011389Y016531D01*
X01131Y016592D01*
X011217Y01663D01*
X011118Y016643D01*
X011019Y01663D01*
X010926Y016592D01*
X010847Y016531D01*
X010786Y016451D01*
X010748Y016359D01*
X010735Y01626D01*
X010748Y016161D01*
X010786Y016068D01*
X010847Y015989D01*
X010926Y015928D01*
X010996Y015899D01*
Y015358D01*
X011005Y015311D01*
X011032Y015272D01*
X011864Y014439D01*
X010612Y013186D01*
X010585Y013147D01*
X010576Y0131D01*
Y01084D01*
X010585Y010793D01*
X010612Y010753D01*
X010805Y010559D01*
X010785Y010509D01*
X01077Y010509D01*
X009899D01*
Y009699D01*
X010809D01*
Y010469D01*
X010809Y010485D01*
X010859Y010506D01*
X010941Y010424D01*
Y009722D01*
X01095Y009676D01*
X010976Y009636D01*
X011209Y009404D01*
X011249Y009377D01*
X011295Y009368D01*
X01132D01*
X011342Y009318D01*
X011289Y009249D01*
X011248Y009151D01*
X011234Y009045D01*
X011248Y008939D01*
X011289Y008841D01*
X011301Y008826D01*
X011104Y00863D01*
X011078Y00859D01*
X011069Y008543D01*
Y00428D01*
X011019Y004259D01*
X010928Y00435D01*
X010888Y004377D01*
X010884Y004377D01*
X009945Y005316D01*
Y008512D01*
X010152Y008719D01*
X010199Y0087D01*
X010304Y008686D01*
X010404D01*
X01051Y0087D01*
X010609Y008741D01*
X010693Y008806D01*
X010758Y00889D01*
X010799Y008989D01*
X010813Y009094D01*
X010799Y0092D01*
X010758Y009299D01*
X010693Y009383D01*
X010609Y009448D01*
X01051Y009489D01*
X010404Y009503D01*
X010304D01*
X010199Y009489D01*
X0101Y009448D01*
X010015Y009383D01*
X009951Y009299D01*
X00991Y0092D01*
X009896Y009094D01*
X00991Y008989D01*
X009951Y00889D01*
X009962Y008875D01*
X009736Y00865D01*
X00971Y00861D01*
X0097Y008563D01*
Y005266D01*
X00971Y005219D01*
X009736Y005179D01*
X010646Y00427D01*
X010627Y004224D01*
X009885D01*
Y003237D01*
X010256D01*
Y002929D01*
X010265Y002882D01*
X010291Y002843D01*
X01076Y002374D01*
X0108Y002348D01*
X010846Y002338D01*
X014803D01*
X01485Y002348D01*
X01489Y002374D01*
X015529Y003014D01*
X015556Y003054D01*
X015565Y0031D01*
Y008612D01*
X015556Y008659D01*
X015529Y008699D01*
X015091Y009137D01*
X015051Y009164D01*
X015004Y009173D01*
X014768D01*
X014734Y009255D01*
X01467Y00934D01*
X014585Y009405D01*
X014486Y009445D01*
X014381Y009459D01*
X014281D01*
X014175Y009445D01*
X014076Y009405D01*
X013992Y00934D01*
X013927Y009255D01*
X013886Y009157D01*
X013877Y009089D01*
X013824Y009071D01*
X013286Y00961D01*
X013305Y009656D01*
X013447D01*
Y010466D01*
X012537D01*
X012504Y010502D01*
Y010879D01*
X012625Y010999D01*
X012651Y011039D01*
X01266Y011086D01*
Y011594D01*
X012651Y011641D01*
X012625Y011681D01*
X012573Y011732D01*
Y014449D01*
X012564Y014496D01*
X012537Y014535D01*
X01224Y014832D01*
Y015899D01*
X01231Y015928D01*
X012389Y015989D01*
X01245Y016068D01*
X012488Y016161D01*
X012501Y01626D01*
X012488Y016359D01*
X01245Y016451D01*
X012389Y016531D01*
X01231Y016592D01*
X012217Y01663D01*
X012118Y016643D01*
D02*
G37*
G36*
X045669Y017613D02*
X045604Y0176D01*
X045548Y017562D01*
X04551Y017507D01*
X045497Y017441D01*
X04551Y017375D01*
X045547Y017321D01*
Y015224D01*
X045512Y015194D01*
X045406Y01518D01*
X045308Y015139D01*
X045223Y015074D01*
X045158Y014989D01*
X045117Y014891D01*
X045103Y014785D01*
Y014585D01*
X045117Y014479D01*
X045158Y014381D01*
X045223Y014296D01*
X045308Y014231D01*
X045406Y01419D01*
X045512Y014177D01*
X045618Y01419D01*
X045716Y014231D01*
X045801Y014296D01*
X045866Y014381D01*
X045906Y014479D01*
X04592Y014585D01*
Y014785D01*
X045906Y014891D01*
X045866Y014989D01*
X045801Y015074D01*
X045792Y015081D01*
Y017321D01*
X045828Y017375D01*
X045841Y017441D01*
X045828Y017507D01*
X045791Y017562D01*
X045735Y0176D01*
X045669Y017613D01*
D02*
G37*
G36*
X044429Y020654D02*
X044363Y020641D01*
X044308Y020604D01*
X04427Y020548D01*
X044257Y020482D01*
X04427Y020417D01*
X044308Y020361D01*
X044325Y020349D01*
Y016722D01*
X043867Y016264D01*
X042969D01*
X042922Y016255D01*
X042882Y016228D01*
X041759Y015106D01*
X041716Y015139D01*
X041618Y01518D01*
X041512Y015194D01*
X041406Y01518D01*
X041308Y015139D01*
X041223Y015074D01*
X041158Y014989D01*
X041117Y014891D01*
X041103Y014785D01*
Y014585D01*
X041117Y014479D01*
X041158Y014381D01*
X041223Y014296D01*
X041308Y014231D01*
X041406Y01419D01*
X041512Y014177D01*
X041618Y01419D01*
X041716Y014231D01*
X041801Y014296D01*
X041866Y014381D01*
X041906Y014479D01*
X04192Y014585D01*
Y014785D01*
X041906Y014891D01*
X041902Y014902D01*
X043019Y016019D01*
X043793D01*
X043812Y015973D01*
X042876Y015037D01*
X042826Y015041D01*
X042801Y015074D01*
X042716Y015139D01*
X042618Y01518D01*
X042512Y015194D01*
X042406Y01518D01*
X042308Y015139D01*
X042223Y015074D01*
X042158Y014989D01*
X042117Y014891D01*
X042103Y014785D01*
Y014585D01*
X042117Y014479D01*
X042158Y014381D01*
X042223Y014296D01*
X042308Y014231D01*
X042406Y01419D01*
X042512Y014177D01*
X042618Y01419D01*
X042716Y014231D01*
X042801Y014296D01*
X042866Y014381D01*
X042906Y014479D01*
X04292Y014585D01*
Y014735D01*
X043065Y014881D01*
X043113Y014857D01*
X043103Y014785D01*
Y014585D01*
X043117Y014479D01*
X043158Y014381D01*
X043223Y014296D01*
X043308Y014231D01*
X043406Y01419D01*
X043512Y014177D01*
X043618Y01419D01*
X043716Y014231D01*
X043801Y014296D01*
X043866Y014381D01*
X043906Y014479D01*
X04392Y014585D01*
Y014785D01*
X043906Y014891D01*
X043866Y014989D01*
X043801Y015074D01*
X043801Y015074D01*
X045018Y016291D01*
X045024Y016302D01*
X045075Y016287D01*
Y015848D01*
X044425Y015199D01*
X044413Y015181D01*
X044406Y01518D01*
X044308Y015139D01*
X044223Y015074D01*
X044158Y014989D01*
X044117Y014891D01*
X044103Y014785D01*
Y014585D01*
X044117Y014479D01*
X044158Y014381D01*
X044223Y014296D01*
X044308Y014231D01*
X044406Y01419D01*
X044512Y014177D01*
X044618Y01419D01*
X044716Y014231D01*
X044801Y014296D01*
X044866Y014381D01*
X044906Y014479D01*
X04492Y014585D01*
Y014785D01*
X044906Y014891D01*
X044866Y014989D01*
X044801Y015074D01*
X044753Y01511D01*
X044749Y015176D01*
X045283Y015711D01*
X04531Y01575D01*
X045319Y015797D01*
Y018D01*
X045356Y018054D01*
X045369Y01812D01*
X045356Y018186D01*
X045318Y018242D01*
X045263Y018279D01*
X045197Y018292D01*
X045131Y018279D01*
X045103Y01826D01*
X045053Y018287D01*
Y019004D01*
X045054Y019006D01*
X045041Y019072D01*
X045003Y019127D01*
X044948Y019165D01*
X044882Y019178D01*
X044828Y019167D01*
X044778Y019195D01*
Y019653D01*
X044814Y019708D01*
X044827Y019774D01*
X044814Y019839D01*
X044777Y019895D01*
X044721Y019932D01*
X044656Y019946D01*
X044619Y019938D01*
X044569Y019974D01*
Y020389D01*
X044588Y020417D01*
X044601Y020482D01*
X044588Y020548D01*
X044551Y020604D01*
X044495Y020641D01*
X044429Y020654D01*
D02*
G37*
G36*
X031506Y015526D02*
X03144Y015513D01*
X031384Y015476D01*
X031347Y01542D01*
X031339Y01538D01*
X031301Y015342D01*
X031275Y015303D01*
X031265Y015256D01*
Y01325D01*
X031229Y013196D01*
X031216Y01313D01*
X031229Y013064D01*
X031266Y013008D01*
X031322Y012971D01*
X031388Y012958D01*
X031454Y012971D01*
X031509Y013008D01*
X031547Y013064D01*
X03156Y01313D01*
X031547Y013196D01*
X03151Y01325D01*
Y015183D01*
X031572Y015196D01*
X031627Y015233D01*
X031665Y015289D01*
X031678Y015354D01*
X031665Y01542D01*
X031627Y015476D01*
X031572Y015513D01*
X031506Y015526D01*
D02*
G37*
G36*
X01014Y011954D02*
X00923D01*
Y011668D01*
X008723D01*
Y011915D01*
X007813D01*
Y011105D01*
X008723D01*
Y011352D01*
X00923D01*
Y011144D01*
X01014D01*
Y011954D01*
D02*
G37*
G36*
X043982Y012209D02*
X043935Y0122D01*
X043895Y012173D01*
X043869Y012133D01*
X04386Y012087D01*
Y011258D01*
X043869Y011211D01*
X043895Y011172D01*
X044091Y010976D01*
X04413Y01095D01*
X044177Y010941D01*
X044224Y01095D01*
X044264Y010976D01*
X04429Y011016D01*
X0443Y011063D01*
X04429Y01111D01*
X044264Y01115D01*
X044104Y011309D01*
Y012087D01*
X044095Y012133D01*
X044068Y012173D01*
X044029Y0122D01*
X043982Y012209D01*
D02*
G37*
G36*
X016118Y011643D02*
X016019Y01163D01*
X015926Y011592D01*
X015847Y011531D01*
X015786Y011451D01*
X015748Y011359D01*
X015735Y01126D01*
X015748Y011161D01*
X015786Y011068D01*
X015847Y010989D01*
X015926Y010928D01*
X016019Y01089D01*
X016118Y010877D01*
X016217Y01089D01*
X01631Y010928D01*
X016389Y010989D01*
X01645Y011068D01*
X016488Y011161D01*
X016501Y01126D01*
X016488Y011359D01*
X01645Y011451D01*
X016389Y011531D01*
X01631Y011592D01*
X016217Y01163D01*
X016118Y011643D01*
D02*
G37*
G36*
X015118D02*
X015019Y01163D01*
X014926Y011592D01*
X014847Y011531D01*
X014786Y011451D01*
X014748Y011359D01*
X014735Y01126D01*
X014748Y011161D01*
X014786Y011068D01*
X014847Y010989D01*
X014926Y010928D01*
X015019Y01089D01*
X015118Y010877D01*
X015217Y01089D01*
X01531Y010928D01*
X015389Y010989D01*
X01545Y011068D01*
X015488Y011161D01*
X015501Y01126D01*
X015488Y011359D01*
X01545Y011451D01*
X015389Y011531D01*
X01531Y011592D01*
X015217Y01163D01*
X015118Y011643D01*
D02*
G37*
G36*
X014118D02*
X014019Y01163D01*
X013926Y011592D01*
X013847Y011531D01*
X013786Y011451D01*
X013748Y011359D01*
X013735Y01126D01*
X013748Y011161D01*
X013786Y011068D01*
X013847Y010989D01*
X013926Y010928D01*
X014019Y01089D01*
X014118Y010877D01*
X014217Y01089D01*
X01431Y010928D01*
X014389Y010989D01*
X01445Y011068D01*
X014488Y011161D01*
X014501Y01126D01*
X014488Y011359D01*
X01445Y011451D01*
X014389Y011531D01*
X01431Y011592D01*
X014217Y01163D01*
X014118Y011643D01*
D02*
G37*
G36*
X013118D02*
X013019Y01163D01*
X012926Y011592D01*
X012847Y011531D01*
X012786Y011451D01*
X012748Y011359D01*
X012735Y01126D01*
X012748Y011161D01*
X012786Y011068D01*
X012847Y010989D01*
X012926Y010928D01*
X013019Y01089D01*
X013118Y010877D01*
X013217Y01089D01*
X01331Y010928D01*
X013389Y010989D01*
X01345Y011068D01*
X013488Y011161D01*
X013501Y01126D01*
X013488Y011359D01*
X01345Y011451D01*
X013389Y011531D01*
X01331Y011592D01*
X013217Y01163D01*
X013118Y011643D01*
D02*
G37*
G36*
X041618Y011568D02*
X040808D01*
Y010558D01*
X041618D01*
Y011568D01*
D02*
G37*
G36*
X042201Y011571D02*
X042095Y011558D01*
X041997Y011517D01*
X041912Y011452D01*
X041847Y011367D01*
X041806Y011269D01*
X041792Y011163D01*
Y010963D01*
X041806Y010857D01*
X041847Y010759D01*
X041912Y010674D01*
X041997Y010609D01*
X042095Y010568D01*
X042201Y010554D01*
X042307Y010568D01*
X042405Y010609D01*
X04249Y010674D01*
X042555Y010759D01*
X042595Y010857D01*
X042609Y010963D01*
Y011163D01*
X042595Y011269D01*
X042555Y011367D01*
X04249Y011452D01*
X042405Y011517D01*
X042307Y011558D01*
X042201Y011571D01*
D02*
G37*
G36*
X026825Y017195D02*
X023002D01*
X022955Y017186D01*
X022915Y017159D01*
X022397Y016641D01*
X022328Y016669D01*
X022228Y016682D01*
X022129Y016669D01*
X022037Y016631D01*
X021957Y01657D01*
X021896Y016491D01*
X021858Y016398D01*
X021845Y016299D01*
X021858Y0162D01*
X021896Y016108D01*
X021957Y016028D01*
X022037Y015967D01*
X022129Y015929D01*
X022228Y015916D01*
X022328Y015929D01*
X02242Y015967D01*
X022499Y016028D01*
X02256Y016108D01*
X022599Y0162D01*
X022612Y016299D01*
X022599Y016398D01*
X02257Y016468D01*
X023053Y01695D01*
X026774D01*
X027919Y015806D01*
Y010057D01*
X027785Y009923D01*
X027738Y009942D01*
Y010523D01*
X027406D01*
Y011486D01*
X027397Y011533D01*
X02737Y011573D01*
X02528Y013663D01*
X025267Y013727D01*
X02523Y013783D01*
X025174Y01382D01*
X025108Y013833D01*
X025042Y01382D01*
X024987Y013783D01*
X024949Y013727D01*
X024936Y013661D01*
X024949Y013596D01*
X024987Y01354D01*
X025042Y013503D01*
X025107Y01349D01*
X027161Y011436D01*
Y010523D01*
X026828D01*
Y009795D01*
X026466D01*
X026439Y009823D01*
Y010509D01*
X025677D01*
X025658Y010556D01*
X02606Y010958D01*
X026129Y010929D01*
X026228Y010916D01*
X026328Y010929D01*
X02642Y010967D01*
X026499Y011028D01*
X02656Y011108D01*
X026599Y0112D01*
X026612Y011299D01*
X026599Y011398D01*
X02656Y011491D01*
X026499Y01157D01*
X02642Y011631D01*
X026328Y011669D01*
X026228Y011682D01*
X026129Y011669D01*
X026037Y011631D01*
X025957Y01157D01*
X025896Y011491D01*
X025858Y011398D01*
X025845Y011299D01*
X025858Y0112D01*
X025887Y011131D01*
X025817Y011061D01*
X025771Y01108D01*
Y011615D01*
X025761Y011662D01*
X025735Y011702D01*
X025431Y012006D01*
X025391Y012032D01*
X025344Y012042D01*
X024874D01*
X024351Y012564D01*
Y015939D01*
X02442Y015967D01*
X024499Y016028D01*
X02456Y016108D01*
X024599Y0162D01*
X024612Y016299D01*
X024599Y016398D01*
X02456Y016491D01*
X024499Y01657D01*
X02442Y016631D01*
X024328Y016669D01*
X024228Y016682D01*
X024129Y016669D01*
X024037Y016631D01*
X023957Y01657D01*
X023896Y016491D01*
X023858Y016398D01*
X023845Y016299D01*
X023858Y0162D01*
X023896Y016108D01*
X023957Y016028D01*
X024037Y015967D01*
X024106Y015939D01*
Y012514D01*
X024115Y012467D01*
X024123Y012456D01*
X024084Y012424D01*
X023351Y013157D01*
Y015939D01*
X02342Y015967D01*
X023499Y016028D01*
X02356Y016108D01*
X023599Y0162D01*
X023612Y016299D01*
X023599Y016398D01*
X02356Y016491D01*
X023499Y01657D01*
X02342Y016631D01*
X023328Y016669D01*
X023228Y016682D01*
X023129Y016669D01*
X023037Y016631D01*
X022957Y01657D01*
X022896Y016491D01*
X022858Y016398D01*
X022845Y016299D01*
X022858Y0162D01*
X022896Y016108D01*
X022957Y016028D01*
X023037Y015967D01*
X023106Y015939D01*
Y013106D01*
X023115Y01306D01*
X023142Y01302D01*
X024037Y012125D01*
X02405Y01206D01*
X024087Y012004D01*
X024143Y011967D01*
X024209Y011954D01*
X024275Y011967D01*
X02433Y012004D01*
X024368Y01206D01*
X024379Y012119D01*
X024402Y012132D01*
X024429Y01214D01*
X024736Y011833D01*
X024776Y011806D01*
X024823Y011797D01*
X025294D01*
X025395Y011696D01*
X025367Y011653D01*
X025328Y011669D01*
X025228Y011682D01*
X025129Y011669D01*
X025037Y011631D01*
X024957Y01157D01*
X024896Y011491D01*
X024867Y011421D01*
X024825Y011412D01*
X024786Y011386D01*
X024656Y011257D01*
X024609Y01128D01*
X024612Y011299D01*
X024599Y011398D01*
X02456Y011491D01*
X024499Y01157D01*
X02442Y011631D01*
X024328Y011669D01*
X024228Y011682D01*
X024129Y011669D01*
X024037Y011631D01*
X023957Y01157D01*
X023896Y011491D01*
X023858Y011398D01*
X023845Y011299D01*
X023858Y0112D01*
X023896Y011108D01*
X023957Y011028D01*
X024037Y010967D01*
X024129Y010929D01*
X024228Y010916D01*
X024248Y010918D01*
X024271Y010871D01*
X02391Y01051D01*
X023883Y01047D01*
X023874Y010423D01*
Y008854D01*
X023509Y00849D01*
X023463Y008509D01*
X023357Y008523D01*
X023257D01*
X023151Y008509D01*
X023053Y008468D01*
X022968Y008403D01*
X022903Y008319D01*
X022863Y00822D01*
X022859Y008196D01*
X022809Y0082D01*
Y008424D01*
X023105Y008719D01*
X023151Y0087D01*
X023257Y008686D01*
X023357D01*
X023463Y0087D01*
X023561Y008741D01*
X023646Y008806D01*
X023711Y00889D01*
X023752Y008989D01*
X023766Y009094D01*
X023752Y0092D01*
X023711Y009299D01*
X023646Y009383D01*
X023561Y009448D01*
X023463Y009489D01*
X023357Y009503D01*
X023257D01*
X023151Y009489D01*
X023053Y009448D01*
X022968Y009383D01*
X022903Y009299D01*
X022863Y0092D01*
X022849Y009094D01*
X022863Y008989D01*
X022903Y00889D01*
X022915Y008875D01*
X0226Y008561D01*
X022574Y008521D01*
X022565Y008474D01*
Y007415D01*
X021571Y006422D01*
X01963D01*
X019583Y006412D01*
X019543Y006386D01*
X018579Y005421D01*
X018553Y005382D01*
X018543Y005335D01*
Y004581D01*
X017815Y003853D01*
X017613D01*
Y004224D01*
X016627D01*
Y003237D01*
X017613D01*
Y003608D01*
X017866D01*
X017913Y003617D01*
X017952Y003644D01*
X01808Y003772D01*
X018125Y00375D01*
X018122Y00373D01*
X018139Y003602D01*
X018189Y003481D01*
X018268Y003378D01*
X018371Y003299D01*
X018491Y00325D01*
X01862Y003233D01*
X018749Y00325D01*
X018869Y003299D01*
X018972Y003378D01*
X019051Y003481D01*
X019101Y003602D01*
X019118Y00373D01*
X019101Y003859D01*
X019051Y003979D01*
X019047Y003984D01*
X019346Y004284D01*
X01939Y004288D01*
X019693Y003984D01*
X019689Y003979D01*
X019639Y003859D01*
X019622Y00373D01*
X019639Y003602D01*
X019689Y003481D01*
X019768Y003378D01*
X019871Y003299D01*
X019991Y00325D01*
X02012Y003233D01*
X020249Y00325D01*
X020369Y003299D01*
X020472Y003378D01*
X020551Y003481D01*
X020601Y003602D01*
X020618Y00373D01*
X020601Y003859D01*
X020551Y003979D01*
X020472Y004082D01*
X020369Y004161D01*
X020249Y004211D01*
X02012Y004228D01*
X019991Y004211D01*
X019871Y004161D01*
X019866Y004157D01*
X019542Y004481D01*
Y005586D01*
X019813Y005857D01*
X021242D01*
X021261Y005811D01*
X020809Y005359D01*
X020783Y005319D01*
X020773Y005272D01*
Y004455D01*
X020783Y004408D01*
X020809Y004368D01*
X021193Y003984D01*
X021189Y003979D01*
X021139Y003859D01*
X021122Y00373D01*
X021139Y003602D01*
X021189Y003481D01*
X021268Y003378D01*
X021371Y003299D01*
X021491Y00325D01*
X02162Y003233D01*
X021749Y00325D01*
X021869Y003299D01*
X021972Y003378D01*
X022051Y003481D01*
X022101Y003602D01*
X022118Y00373D01*
X022101Y003859D01*
X022051Y003979D01*
X021972Y004082D01*
X021869Y004161D01*
X021749Y004211D01*
X02162Y004228D01*
X021491Y004211D01*
X021371Y004161D01*
X021366Y004157D01*
X021018Y004505D01*
Y005222D01*
X021493Y005697D01*
X021971D01*
X022017Y005706D01*
X022057Y005733D01*
X023446Y007122D01*
X025866D01*
X025913Y007131D01*
X025953Y007158D01*
X026875Y00808D01*
X026902Y00812D01*
X026911Y008166D01*
Y008783D01*
X026946Y008818D01*
X027029Y008754D01*
X027128Y008714D01*
X027233Y0087D01*
X027333D01*
X027439Y008714D01*
X027538Y008754D01*
X027622Y008819D01*
X027687Y008904D01*
X027728Y009002D01*
X027742Y009108D01*
X027728Y009214D01*
X027687Y009312D01*
X027622Y009397D01*
X027538Y009462D01*
X027439Y009503D01*
X027448Y009551D01*
X027708D01*
X027755Y00956D01*
X027795Y009587D01*
X028128Y00992D01*
X028154Y009959D01*
X028164Y010006D01*
Y015856D01*
X028154Y015903D01*
X028128Y015943D01*
X026911Y017159D01*
X026872Y017186D01*
X026825Y017195D01*
D02*
G37*
G36*
X014786Y010466D02*
X013876D01*
Y009656D01*
X014786D01*
Y010466D01*
D02*
G37*
G36*
X004587Y009931D02*
X00374D01*
X003693Y009922D01*
X003654Y009895D01*
X003627Y009855D01*
X003618Y009809D01*
X003627Y009762D01*
X003654Y009722D01*
X003693Y009696D01*
X00374Y009686D01*
X004536D01*
X004546Y009677D01*
X004585Y009651D01*
X004632Y009641D01*
X004679Y009651D01*
X004719Y009677D01*
X004745Y009717D01*
X004754Y009764D01*
X004745Y009811D01*
X004719Y00985D01*
X004674Y009895D01*
X004634Y009922D01*
X004587Y009931D01*
D02*
G37*
G36*
X023622Y006077D02*
X023556Y006064D01*
X023501Y006027D01*
X023463Y005971D01*
X02345Y005906D01*
X023463Y00584D01*
X023501Y005784D01*
X023556Y005747D01*
X023622Y005734D01*
X023688Y005747D01*
X023744Y005784D01*
X023781Y00584D01*
X023794Y005906D01*
X023781Y005971D01*
X023744Y006027D01*
X023688Y006064D01*
X023622Y006077D01*
D02*
G37*
G36*
X040787Y004936D02*
X040722Y004923D01*
X040666Y004885D01*
X040629Y00483D01*
X040616Y004764D01*
X040629Y004698D01*
X040666Y004642D01*
X040675Y004636D01*
Y004134D01*
X040684Y004087D01*
X040711Y004047D01*
X040891Y003867D01*
X040904Y003802D01*
X040941Y003747D01*
X040997Y003709D01*
X041063Y003696D01*
X041129Y003709D01*
X041185Y003747D01*
X041222Y003802D01*
X041235Y003868D01*
X041222Y003934D01*
X041185Y00399D01*
X041129Y004027D01*
X041064Y00404D01*
X04092Y004185D01*
Y004658D01*
X040946Y004698D01*
X040959Y004764D01*
X040946Y00483D01*
X040909Y004885D01*
X040853Y004923D01*
X040787Y004936D01*
D02*
G37*
G36*
X042059Y003172D02*
X041249D01*
Y002262D01*
X042059D01*
Y003172D01*
D02*
G37*
G36*
X040644Y003175D02*
X040538Y003161D01*
X040439Y00312D01*
X040355Y003055D01*
X04029Y002971D01*
X040249Y002872D01*
X040235Y002767D01*
Y002667D01*
X040249Y002561D01*
X04029Y002462D01*
X040355Y002378D01*
X040439Y002313D01*
X040538Y002272D01*
X040644Y002258D01*
X040749Y002272D01*
X040848Y002313D01*
X040932Y002378D01*
X040997Y002462D01*
X041038Y002561D01*
X041052Y002667D01*
Y002767D01*
X041038Y002872D01*
X040997Y002971D01*
X040932Y003055D01*
X040848Y00312D01*
X040749Y003161D01*
X040644Y003175D01*
D02*
G37*
G36*
X039664D02*
X039558Y003161D01*
X039459Y00312D01*
X039375Y003055D01*
X03931Y002971D01*
X039269Y002872D01*
X039255Y002767D01*
Y002667D01*
X039269Y002561D01*
X03931Y002462D01*
X039375Y002378D01*
X039459Y002313D01*
X039558Y002272D01*
X039664Y002258D01*
X039769Y002272D01*
X039868Y002313D01*
X039952Y002378D01*
X040017Y002462D01*
X040058Y002561D01*
X040072Y002667D01*
Y002767D01*
X040058Y002872D01*
X040017Y002971D01*
X039952Y003055D01*
X039868Y00312D01*
X039769Y003161D01*
X039664Y003175D01*
D02*
G37*
%LPD*%
G36*
X005476Y038857D02*
X005424Y03885D01*
X005325Y038809D01*
X005241Y038744D01*
X005176Y03866D01*
X005135Y038561D01*
X005121Y038456D01*
Y038356D01*
X005135Y03825D01*
X005154Y038203D01*
X005064Y038113D01*
X004909D01*
X004906Y038112D01*
X004885Y038138D01*
X004876Y038157D01*
X004914Y03825D01*
X004928Y038356D01*
Y038456D01*
X004914Y038561D01*
X004873Y03866D01*
X004808Y038744D01*
X004724Y038809D01*
X004625Y03885D01*
X004573Y038857D01*
X004577Y038907D01*
X005472D01*
X005476Y038857D01*
D02*
G37*
G36*
X006429Y038548D02*
Y038185D01*
X006198Y037953D01*
X005752D01*
X005735Y037998D01*
X005736Y038003D01*
X005818Y038067D01*
X005883Y038151D01*
X005924Y03825D01*
X005938Y038356D01*
Y038456D01*
X005924Y038561D01*
X005883Y03866D01*
X005818Y038744D01*
X005734Y038809D01*
X005635Y03885D01*
X005583Y038857D01*
X005587Y038907D01*
X00607D01*
X006429Y038548D01*
D02*
G37*
G36*
X033716Y029683D02*
X033778Y029671D01*
X034654Y028795D01*
X034622Y028756D01*
X034621Y028757D01*
X034575Y028766D01*
X034402D01*
X034355Y028757D01*
X034315Y02873D01*
X034303Y028717D01*
X0343D01*
X033666Y029352D01*
Y029658D01*
X033707Y029684D01*
X033716Y029683D01*
D02*
G37*
G36*
X03814Y026657D02*
X038148Y026617D01*
X038186Y026562D01*
X038241Y026524D01*
X038307Y026511D01*
X038373Y026524D01*
X03841Y026549D01*
X03846Y026526D01*
Y025821D01*
X038327Y025687D01*
X0383Y025648D01*
X038291Y025601D01*
Y025556D01*
X038241Y025541D01*
X038232Y025555D01*
X038176Y025592D01*
X038171Y025593D01*
X038138Y02565D01*
X038144Y025683D01*
X038131Y025749D01*
X038094Y025804D01*
X038038Y025842D01*
X037972Y025855D01*
X037907Y025842D01*
X037851Y025804D01*
X037814Y025749D01*
X037801Y025683D01*
X037814Y025617D01*
X037819Y02561D01*
X037815Y025606D01*
X037789Y025566D01*
X037779Y025519D01*
Y023948D01*
X037489D01*
X037469Y023998D01*
X037658Y024188D01*
X037685Y024228D01*
X037694Y024275D01*
Y025917D01*
X037872Y026095D01*
X037898Y026134D01*
X037908Y026181D01*
Y026654D01*
X037898Y0267D01*
X037872Y02674D01*
X037438Y027174D01*
X037457Y02722D01*
X037577D01*
X03814Y026657D01*
D02*
G37*
G36*
X023157Y025032D02*
X017611D01*
X017356Y025288D01*
X017377Y025338D01*
X023157D01*
Y025032D01*
D02*
G37*
G36*
X039518Y025024D02*
X03923Y024737D01*
X038705D01*
Y023761D01*
X038655Y02374D01*
X038536Y023859D01*
Y024996D01*
X038586Y025032D01*
X038622Y025025D01*
X038688Y025038D01*
X038742Y025075D01*
X039497D01*
X039518Y025024D01*
D02*
G37*
G36*
X036937Y023666D02*
X03623D01*
X03621Y023691D01*
X036196Y023757D01*
X036159Y023812D01*
X036103Y02385D01*
X036038Y023863D01*
X035972Y02385D01*
X035916Y023812D01*
X035879Y023757D01*
X035866Y023691D01*
X035879Y023625D01*
X035879Y023625D01*
X035836Y023581D01*
X03579Y023601D01*
Y023794D01*
X035935Y023939D01*
X036937D01*
Y023666D01*
D02*
G37*
G36*
X033298Y023261D02*
Y023238D01*
X033308Y023191D01*
X033318Y023176D01*
X033291Y023126D01*
X032815D01*
X032545Y023395D01*
Y023948D01*
X032592Y023967D01*
X033298Y023261D01*
D02*
G37*
G36*
X035478Y023085D02*
Y022176D01*
X035431Y022157D01*
X035191Y022397D01*
Y022421D01*
X035182Y022468D01*
X035155Y022507D01*
X034997Y022666D01*
X034993Y022685D01*
X034956Y022741D01*
X0349Y022778D01*
X034834Y022791D01*
X034769Y022778D01*
X034713Y022741D01*
X034676Y022685D01*
X034662Y022619D01*
X034676Y022553D01*
X034699Y022519D01*
X034712Y022492D01*
X034702Y022445D01*
X034684Y022418D01*
X034675Y022375D01*
X034654Y022348D01*
X034622Y022339D01*
X034578Y022348D01*
X034513Y022335D01*
X034457Y022298D01*
X03442Y022242D01*
X034416Y022225D01*
X034362Y022209D01*
X034308Y022263D01*
Y022697D01*
X034299Y022744D01*
X034272Y022783D01*
X034172Y022883D01*
Y023012D01*
X034222Y023048D01*
X034259Y023041D01*
X034324Y023054D01*
X03438Y023091D01*
X034396Y023116D01*
X03544D01*
X035478Y023085D01*
D02*
G37*
G36*
X036937Y023138D02*
X037779D01*
Y022836D01*
X037748Y022826D01*
X037729Y022823D01*
X037646Y022887D01*
X037547Y022928D01*
X037442Y022942D01*
X037342D01*
X037236Y022928D01*
X037137Y022887D01*
X037053Y022822D01*
X036988Y022738D01*
X036947Y022639D01*
X036933Y022533D01*
X036947Y022428D01*
X036988Y022329D01*
X037053Y022244D01*
X037137Y02218D01*
X037234Y02214D01*
Y021932D01*
X037188Y021913D01*
X036345Y022756D01*
Y023269D01*
X036335Y023316D01*
X036309Y023355D01*
X036285Y023371D01*
X036301Y023421D01*
X036937D01*
Y023138D01*
D02*
G37*
G36*
X0361Y023202D02*
Y022705D01*
X036109Y022658D01*
X036136Y022619D01*
X037156Y021599D01*
Y021181D01*
X037165Y021134D01*
X037191Y021095D01*
X037378Y020908D01*
X037378Y020904D01*
Y020846D01*
X037331Y020827D01*
X037286Y020873D01*
X037246Y020899D01*
X0372Y020908D01*
X036708D01*
Y021536D01*
X036048D01*
Y021444D01*
X036002Y021425D01*
X035882Y021545D01*
Y023055D01*
X03605Y023223D01*
X0361Y023202D01*
D02*
G37*
G36*
X005044Y020701D02*
X004738Y020395D01*
X004134D01*
Y020747D01*
X005025D01*
X005044Y020701D01*
D02*
G37*
G36*
X00749Y021535D02*
X007519Y021497D01*
Y020848D01*
X006416D01*
Y020276D01*
X005237D01*
Y020395D01*
X005237D01*
X005222Y020432D01*
X005736Y020946D01*
X00577Y020997D01*
X005782Y021057D01*
Y021259D01*
X00716D01*
X00722Y021271D01*
X007272Y021306D01*
X007306Y021357D01*
X007318Y021417D01*
Y021535D01*
X00749D01*
D02*
G37*
G36*
X035992Y0207D02*
X036031Y020673D01*
X036078Y020664D01*
X037149D01*
X037425Y020388D01*
X037402Y02034D01*
X037374Y020344D01*
X037114D01*
X037015Y020331D01*
X036922Y020293D01*
X036843Y020232D01*
X036782Y020152D01*
X036744Y02006D01*
X036731Y019961D01*
X036744Y019861D01*
X036782Y019769D01*
X036843Y01969D01*
X036922Y019629D01*
X037015Y01959D01*
X037007Y019542D01*
X036868D01*
X036362Y020047D01*
X036322Y020074D01*
X036276Y020083D01*
X036229Y020074D01*
X036189Y020047D01*
X036163Y020007D01*
X036153Y019961D01*
X036163Y019914D01*
X036189Y019874D01*
X03673Y019333D01*
X03677Y019306D01*
X03681Y019298D01*
X036813Y019296D01*
X036822Y019279D01*
X036831Y019247D01*
X036788Y019192D01*
X03676Y019187D01*
X036731Y019192D01*
X036677Y019263D01*
X036597Y019324D01*
X036505Y019362D01*
X036406Y019375D01*
X036146D01*
X036046Y019362D01*
X035954Y019324D01*
X035898Y019281D01*
X035848Y019306D01*
Y020532D01*
X035839Y020579D01*
X035812Y020619D01*
X035562Y020869D01*
Y021064D01*
X035609Y021083D01*
X035992Y0207D01*
D02*
G37*
G36*
X032124Y021765D02*
X031823Y021464D01*
X031796Y021425D01*
X031787Y021378D01*
Y019815D01*
X031751Y019761D01*
X031738Y019695D01*
X031751Y019629D01*
X031776Y019592D01*
X031752Y019542D01*
X031592D01*
X031566Y019583D01*
X031567Y019592D01*
X031579Y019656D01*
X031566Y019721D01*
X031529Y019777D01*
X031499Y019797D01*
Y021511D01*
X031804Y021815D01*
X032103D01*
X032124Y021765D01*
D02*
G37*
G36*
X033505Y02276D02*
Y022519D01*
X033514Y022472D01*
X03354Y022433D01*
X033743Y02223D01*
Y021396D01*
X033753Y021349D01*
X033779Y021309D01*
X034963Y020125D01*
Y019561D01*
X034953Y019553D01*
X034913Y019539D01*
X034869Y019568D01*
X034803Y019581D01*
X034737Y019568D01*
X034683Y019532D01*
X034528D01*
X034516Y01953D01*
X032938D01*
X032937Y01953D01*
X032934Y019534D01*
X032919Y019586D01*
X032941Y019619D01*
X032954Y019685D01*
X032941Y019751D01*
X032935Y01976D01*
X033582Y020407D01*
X033609Y020447D01*
X033618Y020494D01*
Y022007D01*
X033655Y022061D01*
X033668Y022127D01*
X033655Y022193D01*
X033617Y022249D01*
X033562Y022286D01*
X033496Y022299D01*
X03343Y022286D01*
X033374Y022249D01*
X033337Y022193D01*
X033324Y022127D01*
X033337Y022061D01*
X033373Y022007D01*
Y020544D01*
X032695Y019866D01*
X032669Y019827D01*
X032665Y01981D01*
X03266Y019807D01*
X032623Y019751D01*
X03261Y019685D01*
X032623Y019619D01*
X032641Y019592D01*
X032615Y019542D01*
X032067D01*
X032043Y019592D01*
X032068Y019629D01*
X032081Y019695D01*
X032068Y019761D01*
X032032Y019815D01*
Y021327D01*
X032428Y021723D01*
X032958D01*
X033005Y021732D01*
X033044Y021759D01*
X033226Y021941D01*
X033253Y021981D01*
X033262Y022027D01*
Y022675D01*
X033299Y022729D01*
X033312Y022795D01*
X033304Y022832D01*
X033336Y022875D01*
X033387Y022878D01*
X033505Y02276D01*
D02*
G37*
G36*
X006416Y019389D02*
X007521D01*
Y019444D01*
X007567Y019463D01*
X007721Y019309D01*
X007702Y019263D01*
X007503D01*
Y019016D01*
X004134D01*
Y019841D01*
X004804D01*
X004825Y019791D01*
X004599Y019565D01*
X004572Y019525D01*
X004563Y019478D01*
Y019213D01*
X004572Y019166D01*
X004599Y019126D01*
X004638Y0191D01*
X004685Y01909D01*
X004732Y0191D01*
X004772Y019126D01*
X004798Y019166D01*
X004807Y019213D01*
Y019428D01*
X005002Y019623D01*
X00501D01*
X005057Y019632D01*
X005097Y019659D01*
X005123Y019698D01*
X005132Y019745D01*
X005123Y019792D01*
X00515Y019841D01*
X005237D01*
Y01996D01*
X006416D01*
Y019389D01*
D02*
G37*
G36*
X010009Y01895D02*
Y018879D01*
X009959Y018864D01*
X009954Y018872D01*
X009898Y018909D01*
X009833Y018922D01*
X009767Y018909D01*
X009711Y018872D01*
X009674Y018816D01*
X009661Y01875D01*
X009674Y018684D01*
X009675Y018683D01*
Y017792D01*
X009167Y017284D01*
X007403D01*
Y017823D01*
X007403Y017856D01*
X007445Y017873D01*
X007478D01*
X0075Y017848D01*
X007514Y017743D01*
X007555Y017644D01*
X00762Y017559D01*
X007704Y017494D01*
X007803Y017454D01*
X007908Y01744D01*
X008008D01*
X008114Y017454D01*
X008213Y017494D01*
X008297Y017559D01*
X008362Y017644D01*
X008403Y017743D01*
X008417Y017848D01*
X008403Y017954D01*
X008362Y018053D01*
X008297Y018137D01*
X008213Y018202D01*
X008114Y018243D01*
X008008Y018257D01*
X007908D01*
X007803Y018243D01*
X007704Y018202D01*
X007688Y01819D01*
X005119D01*
Y018308D01*
X004047D01*
X004014Y018308D01*
X003997Y018351D01*
Y018655D01*
X004042Y0187D01*
X007503D01*
Y018453D01*
X008414D01*
Y01918D01*
X009779D01*
X010009Y01895D01*
D02*
G37*
G36*
X036788Y018792D02*
X036843Y018721D01*
X036917Y018664D01*
X036922Y018641D01*
X036921Y018607D01*
X036912Y0186D01*
X036637Y018325D01*
X036597Y018356D01*
X036505Y018394D01*
X036406Y018407D01*
X036146D01*
X036046Y018394D01*
X035954Y018356D01*
X035898Y018313D01*
X035848Y018337D01*
Y018679D01*
X035898Y018703D01*
X035954Y01866D01*
X036046Y018622D01*
X036146Y018609D01*
X036406D01*
X036505Y018622D01*
X036597Y01866D01*
X036677Y018721D01*
X036731Y018792D01*
X03676Y018797D01*
X036788Y018792D01*
D02*
G37*
G36*
Y017824D02*
X036843Y017753D01*
X036922Y017692D01*
X037015Y017653D01*
X037114Y01764D01*
X037374D01*
X037473Y017653D01*
X037566Y017692D01*
X037645Y017753D01*
X037699Y017823D01*
X037736Y017817D01*
X037749Y01781D01*
Y017269D01*
X037736Y017262D01*
X037699Y017256D01*
X037645Y017326D01*
X037566Y017387D01*
X037473Y017425D01*
X037374Y017438D01*
X037114D01*
X037015Y017425D01*
X036922Y017387D01*
X036843Y017326D01*
X036788Y017255D01*
X03676Y01725D01*
X036731Y017255D01*
X036677Y017326D01*
X036597Y017387D01*
X036505Y017425D01*
X036406Y017438D01*
X036146D01*
X036075Y017429D01*
X035848Y017656D01*
Y01771D01*
X035898Y017735D01*
X035954Y017692D01*
X036046Y017653D01*
X036146Y01764D01*
X036406D01*
X036505Y017653D01*
X036597Y017692D01*
X036677Y017753D01*
X036731Y017824D01*
X03676Y017828D01*
X036788Y017824D01*
D02*
G37*
G36*
X006298Y017856D02*
X006298Y017823D01*
Y017284D01*
X005119D01*
Y017403D01*
X004014D01*
X003997Y017445D01*
Y017712D01*
X004014Y017755D01*
X004047Y017755D01*
X005119D01*
Y017873D01*
X006255D01*
X006298Y017856D01*
D02*
G37*
G36*
X010009Y017622D02*
Y015997D01*
X009962Y015981D01*
X009945Y016003D01*
X009861Y016068D01*
X009762Y016109D01*
X009656Y016123D01*
X009556D01*
X009451Y016109D01*
X009352Y016068D01*
X009267Y016003D01*
X009203Y015919D01*
X009183Y015872D01*
X009061D01*
X009Y01586D01*
X008949Y015826D01*
X008589Y015466D01*
X008555Y015415D01*
X008543Y015354D01*
Y013373D01*
X008399Y013229D01*
X007778D01*
X007718Y013217D01*
X007666Y013183D01*
X007528Y013044D01*
X007482Y013063D01*
Y014273D01*
X007121D01*
Y01496D01*
X007293D01*
Y01567D01*
X006633D01*
Y01496D01*
X006805D01*
Y014273D01*
X006377D01*
Y013701D01*
X005198D01*
Y01382D01*
X004339D01*
X004313Y01387D01*
X004323Y013884D01*
X005181D01*
X005228Y013893D01*
X005268Y013919D01*
X00615Y014801D01*
X006176Y014841D01*
X006185Y014887D01*
Y015315D01*
X006176Y015362D01*
X00615Y015401D01*
X00611Y015428D01*
X006063Y015437D01*
X006016Y015428D01*
X005976Y015401D01*
X00595Y015362D01*
X005941Y015315D01*
Y01501D01*
X005679D01*
Y015709D01*
X005507D01*
Y016968D01*
X006298D01*
Y016396D01*
X007403D01*
Y016968D01*
X009232D01*
X009293Y01698D01*
X009344Y017014D01*
X009944Y017615D01*
X009959Y017637D01*
X010009Y017622D01*
D02*
G37*
G36*
X005191Y015709D02*
X005019D01*
Y01501D01*
X004966D01*
X004622Y015354D01*
X004653Y015386D01*
X00468Y015426D01*
X004689Y015472D01*
Y016173D01*
X00471Y016203D01*
X004719Y01625D01*
Y016693D01*
X00471Y01674D01*
X004683Y016779D01*
X004653Y016799D01*
X004663Y016849D01*
X005119D01*
Y016968D01*
X005191D01*
Y015709D01*
D02*
G37*
G36*
X004539Y016799D02*
X00451Y016779D01*
X004483Y01674D01*
X004474Y016693D01*
Y016298D01*
X004454Y016267D01*
X004445Y01622D01*
Y015523D01*
X004362Y015441D01*
X004336Y015401D01*
X004326Y015354D01*
X004336Y015308D01*
X004362Y015268D01*
X004829Y014801D01*
X004867Y014776D01*
X004868Y014772D01*
X004855Y014726D01*
X004093D01*
Y014491D01*
X004002D01*
X003997Y014497D01*
Y016807D01*
X004014Y016849D01*
X00453D01*
X004539Y016799D01*
D02*
G37*
G36*
X004093Y014172D02*
X004206D01*
X004211Y014122D01*
X004195Y014119D01*
X004156Y014092D01*
X00389Y013827D01*
X003863Y013787D01*
X003854Y01374D01*
Y013307D01*
X003863Y01326D01*
X00389Y013221D01*
X004559Y012551D01*
X004599Y012525D01*
X004646Y012515D01*
X005551D01*
X005598Y012525D01*
X005638Y012551D01*
X005664Y012591D01*
X005674Y012638D01*
X005664Y012685D01*
X005638Y012724D01*
X005598Y012751D01*
X005551Y01276D01*
X004696D01*
X004236Y01322D01*
X004255Y013266D01*
X005198D01*
Y013385D01*
X006377D01*
Y012814D01*
X007399D01*
Y0121D01*
X007031Y011733D01*
X005184D01*
Y011852D01*
X00408D01*
Y011733D01*
X003977D01*
X003655Y012055D01*
X003604Y012089D01*
X003543Y012101D01*
X003331D01*
X00252Y012912D01*
Y01394D01*
X002714Y014135D01*
X002764Y014114D01*
Y013839D01*
X003751D01*
Y014175D01*
X004093D01*
Y014172D01*
D02*
G37*
G36*
X002761Y017422D02*
X003681D01*
Y014826D01*
X002764D01*
Y014491D01*
X002689D01*
X002628Y014479D01*
X002577Y014444D01*
X00225Y014118D01*
X002216Y014066D01*
X002204Y014006D01*
Y012846D01*
X002216Y012786D01*
X00225Y012735D01*
X003154Y011831D01*
X003205Y011797D01*
X003266Y011785D01*
X003432D01*
X003433Y011783D01*
X003406Y011733D01*
X003406D01*
X003345Y011721D01*
X003294Y011687D01*
X001778Y010171D01*
X001774Y010164D01*
X001706Y010153D01*
X001697Y01016D01*
Y010363D01*
X001752Y010418D01*
X001778Y010457D01*
X001788Y010504D01*
Y01063D01*
X002409Y011252D01*
X002436Y011292D01*
X002445Y011339D01*
X002436Y011385D01*
X002409Y011425D01*
X00237Y011452D01*
X002323Y011461D01*
X002276Y011452D01*
X002236Y011425D01*
X001803Y010992D01*
X001753Y011012D01*
Y011694D01*
X001291D01*
X000699Y012286D01*
Y01771D01*
X000747Y017757D01*
X002761D01*
Y017422D01*
D02*
G37*
G36*
X001093Y01104D02*
Y010984D01*
X001299D01*
Y010657D01*
X001298Y010656D01*
X001285Y010591D01*
X001298Y010525D01*
X001335Y010469D01*
X001391Y010432D01*
X001454Y010419D01*
X001452Y010414D01*
Y010001D01*
X000926D01*
Y010938D01*
X001047Y011059D01*
X001093Y01104D01*
D02*
G37*
G36*
X018905Y014436D02*
Y013279D01*
X018855Y013258D01*
X018136Y013977D01*
X018161Y014023D01*
X01817Y014021D01*
X018235Y014035D01*
X018291Y014072D01*
X018328Y014128D01*
X018342Y014193D01*
X018328Y014259D01*
X018328Y01426D01*
Y014942D01*
X018378Y014963D01*
X018905Y014436D01*
D02*
G37*
G36*
X012328Y014398D02*
Y011682D01*
X012338Y011635D01*
X01231Y011596D01*
X012305Y011594D01*
X012217Y01163D01*
X012118Y011643D01*
X012019Y01163D01*
X011926Y011592D01*
X011847Y011531D01*
X011786Y011451D01*
X011748Y011359D01*
X011735Y01126D01*
X011748Y011161D01*
X011786Y011068D01*
X011847Y010989D01*
X011926Y010928D01*
X012019Y01089D01*
X012118Y010877D01*
X01221Y010889D01*
X012235Y010878D01*
X01226Y010862D01*
Y009801D01*
X012269Y009755D01*
X012295Y009715D01*
X012481Y009529D01*
X012521Y009503D01*
X012567Y009494D01*
X012827D01*
X012836Y009445D01*
X012738Y009405D01*
X012653Y00934D01*
X012588Y009255D01*
X012548Y009157D01*
X012534Y009051D01*
X012548Y008945D01*
X012588Y008847D01*
X012653Y008762D01*
X012738Y008697D01*
X012836Y008656D01*
X012942Y008642D01*
X013042D01*
X013102Y00865D01*
X01314Y008617D01*
Y008517D01*
X013093Y008473D01*
X013042Y008479D01*
X012942D01*
X012836Y008465D01*
X01279Y008446D01*
X01231Y008926D01*
Y009229D01*
X012301Y009276D01*
X012274Y009316D01*
X012014Y009577D01*
X012006Y009642D01*
X012012Y00965D01*
X012148D01*
Y01046D01*
X011238D01*
Y009843D01*
X011188Y009817D01*
X011185Y009818D01*
Y010475D01*
X011176Y010522D01*
X01115Y010561D01*
X01082Y010891D01*
Y013049D01*
X012039Y014267D01*
X012103Y01428D01*
X012159Y014317D01*
X012196Y014373D01*
X012209Y014439D01*
X012207Y014448D01*
X012253Y014473D01*
X012328Y014398D01*
D02*
G37*
G36*
X012112Y008778D02*
X0126Y00829D01*
X012588Y008275D01*
X012548Y008177D01*
X012534Y008071D01*
X012548Y007965D01*
X012588Y007867D01*
X012653Y007782D01*
X012738Y007717D01*
X012836Y007676D01*
X012942Y007662D01*
X013042D01*
X013148Y007676D01*
X013246Y007717D01*
X013315Y00777D01*
X013365Y007748D01*
Y00539D01*
X012132Y004157D01*
X012127Y004161D01*
X012007Y004211D01*
X011878Y004228D01*
X011749Y004211D01*
X011629Y004161D01*
X011526Y004082D01*
X011447Y003979D01*
X011397Y003859D01*
X011382Y003742D01*
X011352Y003723D01*
X011332Y003717D01*
X011313Y003731D01*
Y008492D01*
X011491Y00867D01*
X011537Y008651D01*
X011643Y008637D01*
X011743D01*
X011849Y008651D01*
X011947Y008691D01*
X012032Y008756D01*
X012053Y008784D01*
X012112Y008778D01*
D02*
G37*
G36*
X013713Y008836D02*
Y008684D01*
X013723Y008637D01*
X013749Y008597D01*
X01399Y008357D01*
X013927Y008275D01*
X013886Y008177D01*
X013872Y008071D01*
X013886Y007965D01*
X013927Y007867D01*
X013992Y007782D01*
X014076Y007717D01*
X014175Y007676D01*
X014281Y007662D01*
X014381D01*
X014486Y007676D01*
X014585Y007717D01*
X01467Y007782D01*
X014734Y007867D01*
X014775Y007965D01*
X014789Y008071D01*
X014775Y008177D01*
X014734Y008275D01*
X01467Y00836D01*
X014585Y008425D01*
X014486Y008465D01*
X01442Y008474D01*
X014417Y008478D01*
X014378Y008505D01*
X014331Y008514D01*
X014179D01*
X014Y008693D01*
X014033Y008731D01*
X014076Y008697D01*
X014175Y008656D01*
X014281Y008642D01*
X014381D01*
X014486Y008656D01*
X014585Y008697D01*
X01467Y008762D01*
X014734Y008847D01*
X014768Y008929D01*
X014954D01*
X015321Y008562D01*
Y004046D01*
X015271Y004029D01*
X01523Y004082D01*
X015127Y004161D01*
X015007Y004211D01*
X014878Y004228D01*
X014749Y004211D01*
X014629Y004161D01*
X014526Y004082D01*
X014447Y003979D01*
X014397Y003859D01*
X01438Y00373D01*
X014397Y003602D01*
X014447Y003481D01*
X014451Y003476D01*
X013911Y002937D01*
X012823D01*
X012804Y002983D01*
X013124Y003303D01*
X013129Y003299D01*
X013249Y00325D01*
X013378Y003233D01*
X013507Y00325D01*
X013627Y003299D01*
X01373Y003378D01*
X013809Y003481D01*
X013859Y003602D01*
X013876Y00373D01*
X013859Y003859D01*
X013809Y003979D01*
X01373Y004082D01*
X013627Y004161D01*
X013507Y004211D01*
X013378Y004228D01*
X013249Y004211D01*
X013129Y004161D01*
X013026Y004082D01*
X012947Y003979D01*
X012897Y003859D01*
X01288Y00373D01*
X012897Y003602D01*
X012947Y003481D01*
X012951Y003476D01*
X012571Y003097D01*
X01193D01*
X011837Y00319D01*
X011859Y003235D01*
X011878Y003233D01*
X012007Y00325D01*
X012127Y003299D01*
X01223Y003378D01*
X012309Y003481D01*
X012359Y003602D01*
X012376Y00373D01*
X012359Y003859D01*
X012309Y003979D01*
X012305Y003984D01*
X013574Y005253D01*
X0136Y005293D01*
X013609Y005339D01*
Y008255D01*
X0136Y008302D01*
X013574Y008342D01*
X013384Y008531D01*
Y008832D01*
X013396Y008847D01*
X013437Y008945D01*
X013448Y009031D01*
X013498Y009051D01*
X013713Y008836D01*
D02*
G37*
G36*
X011727Y002728D02*
X011766Y002701D01*
X011813Y002692D01*
X013962D01*
X014009Y002701D01*
X014049Y002728D01*
X014624Y003303D01*
X014629Y003299D01*
X014749Y00325D01*
X014878Y003233D01*
X015007Y00325D01*
X015127Y003299D01*
X01523Y003378D01*
X015271Y003431D01*
X015321Y003414D01*
Y003151D01*
X014752Y002583D01*
X010897D01*
X0105Y00298D01*
Y003237D01*
X010871D01*
Y003518D01*
X010918Y003537D01*
X011727Y002728D01*
D02*
G37*
G36*
X044809Y016567D02*
Y016429D01*
X043566Y015186D01*
X043512Y015194D01*
X04344Y015184D01*
X043416Y015231D01*
X044742Y016557D01*
X044759Y016582D01*
X044809Y016567D01*
D02*
G37*
G36*
X024908Y011092D02*
X024957Y011028D01*
X025037Y010967D01*
X025129Y010929D01*
X025228Y010916D01*
X025328Y010929D01*
X02542Y010967D01*
X025448Y010988D01*
X025481Y010951D01*
X025029Y010499D01*
X024311D01*
X024292Y010546D01*
X02485Y011104D01*
X024908Y011092D01*
D02*
G37*
G36*
X026329Y009587D02*
X026369Y00956D01*
X026416Y009551D01*
X027119D01*
X027128Y009503D01*
X027029Y009462D01*
X026945Y009397D01*
X02688Y009312D01*
X026839Y009214D01*
X026825Y009108D01*
X026833Y009051D01*
X026702Y00892D01*
X026675Y008881D01*
X026666Y008834D01*
Y008217D01*
X025815Y007366D01*
X024795D01*
X024776Y007413D01*
X024901Y007537D01*
X024919D01*
X024966Y007546D01*
X025006Y007573D01*
X025267Y007834D01*
X025293Y007873D01*
X025302Y00792D01*
Y007939D01*
X025798Y008435D01*
X025825Y008474D01*
X025834Y008521D01*
Y008652D01*
X02588Y008693D01*
X025934Y008686D01*
X026034D01*
X02614Y0087D01*
X026239Y008741D01*
X026323Y008806D01*
X026388Y00889D01*
X026429Y008989D01*
X026443Y009094D01*
X026429Y0092D01*
X026388Y009299D01*
X026323Y009383D01*
X026239Y009448D01*
X02614Y009489D01*
X026034Y009503D01*
X025934D01*
X025829Y009489D01*
X02573Y009448D01*
X025654Y00939D01*
X025604Y009405D01*
Y009699D01*
X026216D01*
X026329Y009587D01*
D02*
G37*
G36*
X02423Y010419D02*
Y009689D01*
X02514D01*
Y010264D01*
X025314Y010438D01*
X02536Y010419D01*
Y008952D01*
X024887Y00848D01*
X024841Y008499D01*
X024735Y008513D01*
X024635D01*
X024623Y008511D01*
X024601Y008556D01*
X024721Y008676D01*
X024735D01*
X024841Y00869D01*
X024939Y008731D01*
X025024Y008796D01*
X025089Y00888D01*
X02513Y008979D01*
X025144Y009084D01*
X02513Y00919D01*
X025089Y009289D01*
X025024Y009373D01*
X024939Y009438D01*
X024841Y009479D01*
X024735Y009493D01*
X024635D01*
X024529Y009479D01*
X024431Y009438D01*
X024346Y009373D01*
X024281Y009289D01*
X02424Y00919D01*
X024227Y009084D01*
X02424Y008979D01*
X024281Y00888D01*
X024346Y008796D01*
X0244Y008754D01*
X024403Y008704D01*
X023813Y008115D01*
X023763Y008135D01*
X023752Y00822D01*
X023711Y008319D01*
X023699Y008334D01*
X024083Y008717D01*
X024109Y008757D01*
X024118Y008803D01*
Y010373D01*
X024184Y010438D01*
X02423Y010419D01*
D02*
G37*
G36*
X024228Y008116D02*
X024227Y008104D01*
X02424Y007999D01*
X024281Y0079D01*
X024346Y007816D01*
X024431Y007751D01*
X024529Y00771D01*
X024635Y007696D01*
X024648D01*
X024667Y00765D01*
X024544Y007526D01*
X024018D01*
X024018Y007526D01*
X023633D01*
X023618Y007576D01*
X023628Y007583D01*
X024183Y008138D01*
X024228Y008116D01*
D02*
G37*
G36*
X019138Y005568D02*
Y004421D01*
X018874Y004157D01*
X018869Y004161D01*
X018749Y004211D01*
X01862Y004228D01*
X018601Y004225D01*
X018579Y00427D01*
X018752Y004444D01*
X018779Y004483D01*
X018788Y00453D01*
Y005284D01*
X019091Y005588D01*
X019138Y005568D01*
D02*
G37*
%LPC*%
G36*
X044321Y03466D02*
X044274Y03465D01*
X044234Y034624D01*
X044208Y034584D01*
X044199Y034537D01*
Y034411D01*
X044165Y034378D01*
X044139Y034338D01*
X04413Y034291D01*
X044139Y034245D01*
X044165Y034205D01*
X044205Y034178D01*
X044252Y034169D01*
X044299Y034178D01*
X044338Y034205D01*
X044407Y034274D01*
X044434Y034313D01*
X044443Y03436D01*
Y034537D01*
X044434Y034584D01*
X044407Y034624D01*
X044368Y03465D01*
X044321Y03466D01*
D02*
G37*
%LPD*%
D11*
X034186Y022212D02*
Y022697D01*
Y022212D02*
X034508Y02189D01*
X035069Y022347D02*
X03544Y021976D01*
X035069Y022347D02*
Y022421D01*
X03544Y020818D02*
Y021976D01*
X034871Y022619D02*
X035069Y022421D01*
X034834Y022619D02*
X034871D01*
X034843Y022347D02*
Y022352D01*
X034611Y022144D02*
X034819D01*
X034578Y022176D02*
X034611Y022144D01*
X034819D02*
X03512Y021843D01*
X034843Y022347D02*
X03528Y021909D01*
X036222Y022705D02*
Y023269D01*
X042943Y034696D02*
Y034783D01*
X039242Y019858D02*
X039567D01*
X03783Y019419D02*
X038465Y018785D01*
X013234Y027611D02*
X013258Y027587D01*
X037278Y021181D02*
Y02165D01*
X036222Y022705D02*
X037278Y02165D01*
X03576Y023106D02*
X036197Y023543D01*
X004916Y014887D02*
X006063D01*
X004449Y015354D02*
X004916Y014887D01*
X039146Y019954D02*
Y019978D01*
X038865Y020258D02*
X039146Y019978D01*
X038842Y020258D02*
X038865D01*
X038583Y020517D02*
X038842Y020258D01*
X039553Y019872D02*
X039567Y019858D01*
X038459Y018785D02*
X038465D01*
X038489Y020423D02*
X038583Y020517D01*
X037808Y020423D02*
X038489D01*
X0375Y020732D02*
X037808Y020423D01*
X0375Y020732D02*
Y020904D01*
X037504Y020909D01*
Y020955D01*
X037278Y021181D02*
X037504Y020955D01*
X024682Y026185D02*
X025622D01*
X023957Y02546D02*
X024682Y026185D01*
X017325Y02546D02*
X023957D01*
X016309Y026476D02*
X017325Y02546D01*
X016309Y026476D02*
Y032835D01*
X016149Y026321D02*
Y032901D01*
Y026321D02*
X01756Y02491D01*
X016149Y032901D02*
X018005Y034756D01*
X01756Y02491D02*
X025011D01*
X025286Y025185D01*
X018005Y034756D02*
X024688D01*
X025014Y035083D01*
Y036165D01*
X016309Y032835D02*
X018071Y034596D01*
X024945D01*
X024951D01*
X024945D02*
X026514Y036165D01*
X025286Y025185D02*
X025622D01*
X032244Y024488D02*
X033421Y023311D01*
X031811Y024813D02*
X032244D01*
X031415Y024417D02*
X031811Y024813D01*
X032244Y024488D02*
Y024813D01*
X03389Y022766D02*
X034026Y022631D01*
X03389Y022766D02*
Y023064D01*
X033581Y023373D02*
X03389Y023064D01*
X033581Y023373D02*
Y023377D01*
X032638Y02432D02*
X033581Y023377D01*
X032638Y02432D02*
Y024754D01*
X032028Y025364D02*
X032638Y024754D01*
X032028Y025364D02*
Y025561D01*
X034348Y021231D02*
X035246Y020333D01*
X034348Y021231D02*
Y021823D01*
X034026Y022146D02*
Y022631D01*
Y022146D02*
X034348Y021823D01*
X03405Y023574D02*
X034234Y023758D01*
X03405Y022833D02*
X034186Y022697D01*
X03405Y022833D02*
Y023574D01*
X034234Y023758D02*
X034482D01*
X034508Y021427D02*
X034911Y021024D01*
X034508Y021427D02*
Y02189D01*
X034525Y019407D02*
X034528Y019409D01*
X032899Y019407D02*
X034525D01*
X034528Y019409D02*
X034803D01*
X032887Y019419D02*
X032899Y019407D01*
X034926Y01672D02*
Y018677D01*
X034355Y019247D02*
X034926Y018677D01*
X027603Y019247D02*
X034355D01*
X034766Y016653D02*
Y01861D01*
X034289Y019087D02*
X034766Y01861D01*
X027537Y019087D02*
X034289D01*
X0356Y021264D02*
Y023172D01*
X036078Y020786D02*
X0372D01*
X0356Y021264D02*
X036078Y020786D01*
X036073Y021181D02*
X036378D01*
X03576Y021494D02*
X036073Y021181D01*
X03576Y021494D02*
Y023106D01*
X0356Y023172D02*
X036038Y02361D01*
X040876Y018839D02*
Y019646D01*
Y018839D02*
X041427Y018287D01*
X036276Y019961D02*
X036817Y019419D01*
X03783D01*
X03528Y020752D02*
Y021909D01*
X03512Y020685D02*
Y021843D01*
X039146Y019954D02*
X039242Y019858D01*
X039783Y020374D02*
X042785D01*
X04312Y020709D01*
X043982Y011258D02*
X044177Y011063D01*
X043982Y011258D02*
Y012087D01*
X022667Y010744D02*
X023307Y010104D01*
X022667Y010744D02*
Y011427D01*
X02518Y00792D02*
Y00799D01*
X024919Y007659D02*
X02518Y00792D01*
X02485Y007659D02*
X024919D01*
X024595Y007404D02*
X02485Y007659D01*
X024018Y007404D02*
X024595D01*
X025712Y008521D02*
Y008733D01*
X02518Y00799D02*
X025712Y008521D01*
Y008733D02*
X025984Y009006D01*
Y009094D01*
X023307Y008114D02*
X023996Y008803D01*
Y010423D01*
X024685Y008813D02*
Y009084D01*
X023541Y007669D02*
X024685Y008813D01*
X019696Y006139D02*
X021838D01*
X019762Y005979D02*
X021904D01*
X021442Y005819D02*
X021971D01*
X023395Y007244D01*
X025866D01*
X032608Y017057D02*
X033661Y016004D01*
X032583Y017057D02*
X032608D01*
X033661Y016004D02*
X034136D01*
X044931Y016378D02*
Y019006D01*
X032293Y032785D02*
X032411Y032904D01*
X032293Y03064D02*
Y032785D01*
X030846Y026707D02*
Y026893D01*
X037628Y027343D02*
X038297Y026673D01*
X031604Y027018D02*
Y027795D01*
X030691Y027049D02*
X030846Y026893D01*
X001575Y005157D02*
Y010414D01*
X001665Y010504D01*
Y010681D01*
X002323Y011339D01*
X002677Y005157D02*
X003071D01*
X001575D02*
X002677D01*
X003425Y005906D02*
Y006969D01*
X002677Y005157D02*
X003425Y005906D01*
X003071Y005157D02*
X004016Y006102D01*
Y00848D01*
X00289Y009606D02*
X004016Y00848D01*
X002697Y009606D02*
X00289D01*
X004587Y009809D02*
X004632Y009764D01*
X00374Y009809D02*
X004587D01*
X004567Y015472D02*
Y01622D01*
X004449Y015354D02*
X004567Y015472D01*
X003976Y013307D02*
X004646Y012638D01*
X003976Y013307D02*
Y01374D01*
X004242Y014006D01*
X005181D01*
X006063Y014887D01*
Y015315D01*
X007274Y026781D02*
X007283Y026772D01*
X007274Y026781D02*
Y026801D01*
X006217Y026772D02*
X007283D01*
X005958Y02703D02*
X006217Y026772D01*
X013258Y026654D02*
Y027587D01*
X008366Y021998D02*
Y024506D01*
X012381Y028521D01*
X013234Y027611D02*
X013246D01*
X014397Y037242D02*
X017816D01*
X014331Y037402D02*
X019232D01*
X013895Y03674D02*
X014397Y037242D01*
X017816D02*
X018148Y036909D01*
X013735Y036806D02*
X014331Y037402D01*
X019232D02*
X019648Y036986D01*
X018148Y036165D02*
Y036909D01*
X013895Y028152D02*
Y03674D01*
X019648Y036165D02*
Y036986D01*
X013735Y028086D02*
Y036806D01*
X013895Y028152D02*
X020421Y021627D01*
X013735Y028086D02*
X020354Y021467D01*
X013337Y028258D02*
X020288Y021307D01*
X020421Y021627D02*
X023643D01*
X020354Y021467D02*
X023709D01*
X013337Y028258D02*
Y029075D01*
X020288Y021307D02*
X02456D01*
X023329Y007404D02*
X024018D01*
X021904Y005979D02*
X023329Y007404D01*
X021838Y006139D02*
X023368Y007669D01*
X023541D01*
X020896Y005272D02*
X021442Y005819D01*
X020896Y004455D02*
Y005272D01*
Y004455D02*
X02162Y00373D01*
X01942Y005637D02*
X019762Y005979D01*
X01942Y004431D02*
Y005637D01*
Y004431D02*
X02012Y00373D01*
X01926Y00437D02*
Y005703D01*
X019696Y006139D01*
X021622Y006299D02*
X022687Y007364D01*
X01963Y006299D02*
X021622D01*
X018666Y005335D02*
X01963Y006299D01*
X018666Y00453D02*
Y005335D01*
X022687Y007364D02*
Y008474D01*
X000787Y036309D02*
Y036969D01*
Y036309D02*
X000827Y03627D01*
X001181Y036969D02*
X001327Y037114D01*
Y037534D01*
X005114Y03799D02*
X00553Y038406D01*
X004909Y03799D02*
X005114D01*
X004508Y037589D02*
X004909Y03799D01*
X001382Y037589D02*
X004508D01*
X001327Y037534D02*
X001382Y037589D01*
X026654Y022864D02*
X027303Y023514D01*
X025778Y022864D02*
X026654D01*
X025622Y02302D02*
X025778Y022864D01*
X025622Y02302D02*
Y023185D01*
X033421Y023238D02*
Y023311D01*
X034482Y023758D02*
X034578Y023854D01*
X033809Y023967D02*
X033996D01*
X034183Y024154D01*
X003248Y02498D02*
X005984D01*
X042898Y036358D02*
X043681D01*
X042317Y035777D02*
X042898Y036358D01*
X042317Y035378D02*
Y035777D01*
X042158Y035218D02*
X042317Y035378D01*
X042137Y034903D02*
X042287Y035053D01*
X042069Y034903D02*
X042137D01*
X042287Y035053D02*
X043475D01*
X042938Y034714D02*
Y034779D01*
X042943Y034783D01*
X042775Y034528D02*
X042943Y034696D01*
X043171Y034834D02*
X043181D01*
X043171D02*
X043228Y034777D01*
Y033711D02*
Y034777D01*
Y033711D02*
X04332Y033619D01*
X043475Y035053D02*
X043615Y034912D01*
X005774Y026535D02*
X005959Y02635D01*
Y02581D02*
Y02635D01*
X001693Y026535D02*
X003248Y02498D01*
X006673Y02874D02*
Y02939D01*
X007111Y025596D02*
X00875Y027234D01*
X005355Y025596D02*
X007111D01*
X004764Y026187D02*
X005355Y025596D01*
X007178Y025436D02*
X00891Y027168D01*
X005155Y025436D02*
X007178D01*
X004055Y026535D02*
X005155Y025436D01*
X007283Y025276D02*
X009075Y027067D01*
X004034Y025276D02*
X007283D01*
X002774Y026535D02*
X004034Y025276D01*
X002599Y02703D02*
X005958D01*
X001756Y027874D02*
X002599Y02703D01*
X028071Y024134D02*
X028474Y02373D01*
X029124D01*
X004646Y012638D02*
X005551D01*
X004567Y01622D02*
X004596Y01625D01*
Y016693D01*
X004952Y019745D02*
X00501D01*
X004685Y019478D02*
X004952Y019745D01*
X004685Y019213D02*
Y019478D01*
X006158Y027057D02*
X008235D01*
X006024Y02719D02*
X006158Y027057D01*
X008235D02*
X008366Y027188D01*
X005439Y02719D02*
X006024D01*
X004756Y027874D02*
X005439Y02719D01*
X008297Y021929D02*
X008366Y021998D01*
X027303Y023514D02*
Y024023D01*
X027414Y024134D01*
X028071D01*
X030276Y028028D02*
X030319Y028071D01*
X030276Y025994D02*
Y028028D01*
X044321Y03436D02*
Y034537D01*
X044252Y034291D02*
X044321Y03436D01*
X042775Y034224D02*
X042894Y034104D01*
X042775Y034224D02*
Y034528D01*
X042745Y034557D02*
X042775Y034528D01*
X042057Y034557D02*
X042745D01*
X043781Y036458D02*
X045209D01*
X043681Y036358D02*
X043781Y036458D01*
X042087Y038386D02*
X043691D01*
X031654Y025335D02*
Y025404D01*
X031415Y024244D02*
Y024417D01*
Y024244D02*
X03185Y023809D01*
Y022333D02*
Y023809D01*
X031255Y024178D02*
X031557Y023876D01*
Y023583D02*
Y023876D01*
X031255Y024178D02*
Y024375D01*
X031132Y024498D02*
X031255Y024375D01*
X036863Y028289D02*
X037068D01*
X036429Y027856D02*
X036863Y028289D01*
X036349Y02764D02*
X037025D01*
X036088Y027902D02*
Y028263D01*
Y027902D02*
X036349Y02764D01*
X03592Y027736D02*
X035925D01*
X035276Y02838D02*
X03592Y027736D01*
X033968Y026273D02*
X033971Y02627D01*
X033865Y026273D02*
X033968D01*
X036831Y02627D02*
Y026417D01*
X033971Y02627D02*
X036831D01*
X033706Y024154D02*
X034183D01*
X026722Y020128D02*
Y022362D01*
X03314Y022027D02*
Y022795D01*
X034578Y023854D02*
Y025353D01*
X033504Y024356D02*
X033706Y024154D01*
X037887Y020098D02*
X038799D01*
X0372Y020786D02*
X037887Y020098D01*
X001181Y028898D02*
Y02937D01*
Y028898D02*
X001516Y028563D01*
X007738Y031354D02*
X00788Y031496D01*
X001693Y029488D02*
Y030649D01*
X002398Y031354D01*
X007738D01*
X001929Y029409D02*
Y030659D01*
X002254Y030984D01*
X007087D01*
X008711Y030778D02*
X00873Y030797D01*
X007283Y030787D02*
X007801D01*
X007087Y030984D02*
X007283Y030787D01*
X00875Y027234D02*
Y028297D01*
X008445Y028602D02*
X00875Y028297D01*
X006811Y028602D02*
X008445D01*
X006673Y02874D02*
X006811Y028602D01*
X006299Y02937D02*
Y029925D01*
X006364Y02999D01*
X008504D01*
X00857Y03015D02*
X009075Y029646D01*
X005906Y029882D02*
X006174Y03015D01*
X00857D01*
X008504Y02999D02*
X00891Y029584D01*
Y027168D02*
Y029584D01*
X009075Y027067D02*
Y029646D01*
X005906Y02937D02*
Y029882D01*
X003784Y026535D02*
X004055D01*
X004764Y026187D02*
Y026535D01*
X014128Y008392D02*
X014331D01*
X012382Y01093D02*
X012538Y011086D01*
X012382Y009801D02*
Y01093D01*
X012451Y011682D02*
X012538Y011594D01*
X012451Y011682D02*
Y014449D01*
X012538Y011086D02*
Y011594D01*
X012118Y014782D02*
X012451Y014449D01*
X012382Y009801D02*
X012567Y009616D01*
X013836Y008684D02*
X014128Y008392D01*
X013836Y008684D02*
Y008887D01*
X014331Y008071D02*
Y008392D01*
X013106Y009616D02*
X013836Y008887D01*
X012567Y009616D02*
X013106D01*
X013262Y00848D02*
Y009051D01*
Y00848D02*
X013487Y008255D01*
Y005339D02*
Y008255D01*
X017538Y011067D02*
Y01324D01*
X01752Y011049D02*
X017538Y011067D01*
X01752Y010453D02*
Y011049D01*
X01613Y014648D02*
X017538Y01324D01*
X012118Y014782D02*
Y01626D01*
X011063Y009722D02*
X011295Y00949D01*
X011927D01*
X011063Y009722D02*
Y010475D01*
X012188Y008875D02*
X012992Y008071D01*
X012188Y008875D02*
Y009229D01*
X011927Y00949D02*
X012188Y009229D01*
X010698Y01084D02*
X011063Y010475D01*
X010698Y01084D02*
Y0131D01*
X012037Y014439D01*
X011118Y015358D02*
Y01626D01*
Y015358D02*
X012037Y014439D01*
X01752Y010453D02*
X01789Y010083D01*
X018538Y009129D02*
Y011429D01*
X018908Y011799D01*
X018698Y011363D02*
X019068Y011733D01*
X018698Y009062D02*
Y011363D01*
X018083Y008674D02*
X018538Y009129D01*
X01815Y008514D02*
X018698Y009062D01*
X01613Y014648D02*
Y015248D01*
X015118Y01626D02*
X01613Y015248D01*
X01689Y008967D02*
Y010083D01*
Y008967D02*
X017183Y008674D01*
X018083D01*
X019228Y011299D02*
Y012476D01*
X018908Y011799D02*
Y012609D01*
X019027Y012728D01*
Y014486D01*
X017746Y015768D02*
X019027Y014486D01*
X01661Y015768D02*
X017746D01*
X016118Y01626D02*
X01661Y015768D01*
X016545Y008514D02*
X01815D01*
X01589Y009169D02*
Y010083D01*
Y009169D02*
X016545Y008514D01*
X019068Y011733D02*
Y012543D01*
X01936Y012835D01*
Y01438D01*
X01748Y01626D02*
X01936Y01438D01*
X017118Y01626D02*
X01748D01*
X013962Y002814D02*
X014878Y00373D01*
X011813Y002814D02*
X013962D01*
X010955Y003673D02*
X011813Y002814D01*
X010955Y003673D02*
Y00415D01*
X010841Y004264D02*
X010955Y00415D01*
X010825Y004264D02*
X010841D01*
X009823Y005266D02*
X010825Y004264D01*
X011191Y008543D02*
X011693Y009045D01*
X011191Y003663D02*
Y008543D01*
Y003663D02*
X01188Y002974D01*
X012622D01*
X013378Y00373D01*
X009823Y005266D02*
Y008563D01*
X010354Y009094D01*
X011878Y00373D02*
X013487Y005339D01*
X012992Y009051D02*
X013262D01*
X010378Y002929D02*
Y00373D01*
Y002929D02*
X010846Y002461D01*
X014803D01*
X015443Y0031D01*
Y008612D01*
X015004Y009051D02*
X015443Y008612D01*
X014331Y009051D02*
X015004D01*
X024018Y007404D02*
X024018Y007404D01*
X027063Y009108D02*
X027283D01*
X026788Y008834D02*
X027063Y009108D01*
X026788Y008166D02*
Y008834D01*
X025866Y007244D02*
X026788Y008166D01*
X022687Y008474D02*
X023307Y009094D01*
X017866Y00373D02*
X018666Y00453D01*
X01712Y00373D02*
X017866D01*
X01862D02*
X01926Y00437D01*
X023996Y010423D02*
X024872Y011299D01*
X025228D01*
X024685Y010094D02*
X024797D01*
X025648Y010945D01*
Y011615D01*
X025344Y011919D02*
X025648Y011615D01*
X024823Y011919D02*
X025344D01*
X024228Y012514D02*
X024823Y011919D01*
X025984Y010104D02*
X026416Y009673D01*
X030472Y012667D02*
X030581Y012559D01*
X025482Y010553D02*
X026228Y011299D01*
X025482Y008902D02*
Y010553D01*
X024685Y008104D02*
X025482Y008902D01*
X026416Y009673D02*
X027708D01*
X028041Y010006D01*
Y015856D01*
X026825Y017073D02*
X028041Y015856D01*
X023002Y017073D02*
X026825D01*
X022228Y016299D02*
X023002Y017073D01*
X006673Y02939D02*
X006693Y02937D01*
X031614Y025295D02*
X031654Y025335D01*
X032764Y023004D02*
X033434D01*
X032423Y023345D02*
X032764Y023004D01*
X033627Y022519D02*
Y022811D01*
X033434Y023004D02*
X033627Y022811D01*
X032192Y024313D02*
X032423Y024082D01*
Y023345D02*
Y024082D01*
X032958Y021845D02*
X03314Y022027D01*
X031641Y024313D02*
X032192D01*
X031624Y024331D02*
X031641Y024313D01*
X028401Y024498D02*
X031132D01*
X03222Y022011D02*
Y02399D01*
X032215Y023996D02*
X03222Y02399D01*
Y022011D02*
X032222Y022009D01*
X026516Y025295D02*
X027638D01*
X026126Y025685D02*
X026516Y025295D01*
X025622Y025685D02*
X026126D01*
X038494Y012264D02*
Y014715D01*
X027362Y025783D02*
X03047D01*
X026401Y025011D02*
X028092D01*
X027362Y025783D02*
Y025817D01*
X028504Y025295D02*
X031614D01*
X028396Y025404D02*
X028504Y025295D01*
X027638D02*
X027746Y025404D01*
X028396D01*
X028926Y024664D02*
X029311Y025049D01*
X025643Y024664D02*
X028926D01*
X025622Y024685D02*
X025643Y024664D01*
X029311Y025049D02*
X030284D01*
X026073Y023671D02*
X026905Y024504D01*
X028396D01*
X028401Y024498D01*
X030896Y019764D02*
Y021614D01*
Y019764D02*
X031242Y019417D01*
X023572Y023185D02*
X024518D01*
X024631Y023072D01*
Y022841D02*
Y023072D01*
X023601Y021811D02*
X024631Y022841D01*
X023396Y021811D02*
X023601D01*
X023327Y02188D02*
X023396Y021811D01*
X026722Y020128D02*
X027603Y019247D01*
X026508Y020116D02*
X027537Y019087D01*
X026508Y020116D02*
Y022016D01*
X026496Y022028D02*
X026508Y022016D01*
X027498Y021614D02*
X027717Y021833D01*
X022756Y033041D02*
X022784Y033069D01*
X029274D01*
X021663Y032362D02*
X022815Y033514D01*
X021663Y028171D02*
Y032362D01*
X022815Y033514D02*
X033219D01*
X02456Y021307D02*
X026585Y019282D01*
X024951Y023917D02*
X025219Y024185D01*
X024951Y022708D02*
Y023917D01*
X025219Y024185D02*
X025622D01*
X023572Y023685D02*
X024583D01*
X024791Y023477D01*
Y022774D02*
Y023477D01*
X023643Y021627D02*
X024791Y022774D01*
X026378Y025034D02*
X026401Y025011D01*
X028307Y026654D02*
X028937Y026024D01*
X028031Y026654D02*
X028307D01*
X038494Y012264D02*
X038524Y012293D01*
X037868Y015341D02*
X038494Y014715D01*
X035852Y015341D02*
X037868D01*
X034606Y016587D02*
X035852Y015341D01*
X03873Y013199D02*
Y014803D01*
X038032Y015501D02*
X03873Y014803D01*
X038197Y015661D02*
X039069Y014789D01*
X037879Y016206D02*
X039229Y014855D01*
X035984Y015661D02*
X038197D01*
X039069Y010586D02*
Y014789D01*
X035892Y016206D02*
X037879D01*
X039229Y010652D02*
Y014855D01*
X035918Y015501D02*
X038032D01*
X034766Y016653D02*
X035918Y015501D01*
X040101Y010273D02*
X040847Y009528D01*
X040083D02*
X040847D01*
X037638Y007083D02*
X040083Y009528D01*
X039383Y010273D02*
X040101D01*
X040847Y009528D02*
X045993D01*
X039069Y010586D02*
X039383Y010273D01*
X040236Y010433D02*
X040787Y009882D01*
X039449Y010433D02*
X040236D01*
X039229Y010652D02*
X039449Y010433D01*
X034222Y018927D02*
X034606Y018544D01*
Y016587D02*
Y018544D01*
X034926Y01672D02*
X035984Y015661D01*
X035086Y016786D02*
X035956Y015915D01*
X036998D01*
X035086Y016786D02*
Y020176D01*
X035246Y016852D02*
X035892Y016206D01*
X035246Y016852D02*
Y020333D01*
X037802Y016366D02*
X038031Y016595D01*
X035959Y016366D02*
X037802D01*
X035406Y016919D02*
X035959Y016366D01*
X038031Y016595D02*
Y018396D01*
X035566Y016985D02*
X036025Y016526D01*
X037736D01*
X037871Y016661D01*
Y018329D01*
X036508Y018024D02*
X036998Y018514D01*
X036276Y018024D02*
X036508D01*
X037687Y018514D02*
X037871Y018329D01*
X036998Y018514D02*
X037687D01*
X037435Y018992D02*
X038031Y018396D01*
X037244Y018992D02*
X037435D01*
X038986Y018356D02*
Y019911D01*
X038543Y017913D02*
X038986Y018356D01*
X038799Y020098D02*
X038986Y019911D01*
X035726Y017605D02*
X036276Y017055D01*
X035726Y017605D02*
Y020532D01*
X031417Y019419D02*
X032887D01*
X035406Y016919D02*
Y0204D01*
X035566Y016985D02*
Y020466D01*
X036038Y02361D02*
Y023691D01*
X035884Y024061D02*
X037358D01*
X035668Y023844D02*
X035884Y024061D01*
X037358D02*
X037572Y024275D01*
X03528Y020752D02*
X035566Y020466D01*
X03512Y020685D02*
X035406Y0204D01*
X033866Y021396D02*
X035086Y020176D01*
X033496Y020494D02*
Y022127D01*
X03544Y020818D02*
X035726Y020532D01*
X033866Y021396D02*
Y02228D01*
X036197Y023543D02*
X037392D01*
X040797Y004134D02*
Y004764D01*
X040787D02*
X040797D01*
Y004134D02*
X041063Y003868D01*
X043499Y031097D02*
X043681Y030915D01*
X04316Y031437D02*
X043499Y031097D01*
X043307Y030906D02*
X043499Y031097D01*
X043307Y028671D02*
Y030906D01*
Y028671D02*
X043594Y028385D01*
X044394D01*
X044518Y028508D01*
Y029665D01*
X04498Y030128D01*
X045728D01*
X045927Y029929D01*
Y029469D02*
Y029929D01*
X04316Y031437D02*
Y033553D01*
X04332Y032044D02*
Y033619D01*
Y032044D02*
X043612Y031752D01*
X042993Y03372D02*
X04316Y033553D01*
X041015Y03372D02*
X042993D01*
X043839Y027894D02*
X046152D01*
X046348Y028091D01*
Y028838D01*
X046253Y028933D02*
X046348Y028838D01*
X046253Y028933D02*
Y029254D01*
X046323Y029324D01*
X046637D01*
X046956Y029644D01*
Y030976D01*
X046672Y03126D02*
X046956Y030976D01*
X046585Y033366D02*
X046644D01*
X047116Y032894D01*
Y029578D02*
Y032894D01*
X046633Y029094D02*
X047116Y029578D01*
X045867Y02878D02*
X045927Y028719D01*
X044994Y02878D02*
X045867D01*
X045Y031654D02*
X045744D01*
X044591Y031244D02*
X045Y031654D01*
X045541Y031856D02*
X045744Y031654D01*
X045948D01*
X045966Y031635D01*
X044591Y03028D02*
Y031244D01*
X044094Y029783D02*
X044591Y03028D01*
X044094Y02878D02*
Y029783D01*
X041053Y035522D02*
X041319Y035256D01*
X040138Y035522D02*
X041053D01*
X040417Y034274D02*
X040478Y034213D01*
X037443Y034274D02*
X040417D01*
X037431Y034262D02*
X037443Y034274D01*
X04002Y031624D02*
Y034065D01*
X04Y031604D02*
X04002Y031624D01*
X041314Y034903D02*
X041319Y034907D01*
X041294Y034882D02*
X041314Y034903D01*
X041319Y034907D02*
Y035256D01*
X04Y031604D02*
X041949Y029656D01*
X041457Y028661D02*
X041476D01*
X043819Y027913D02*
X043839Y027894D01*
X044802Y034312D02*
Y034903D01*
Y034312D02*
X045541Y033573D01*
X044252Y035008D02*
Y035138D01*
X044185Y035205D02*
X044252Y035138D01*
X043835Y035205D02*
X044185D01*
X043941Y034697D02*
X044252Y035008D01*
X043615Y034162D02*
X043726D01*
X043941Y034378D01*
Y034697D01*
X045541Y031856D02*
Y033573D01*
X044308Y035396D02*
X044802Y034903D01*
X044043Y035396D02*
X044308D01*
X044026Y035413D02*
X044043Y035396D01*
X044815Y035937D02*
Y035947D01*
X044035Y035699D02*
X044774D01*
X044783Y035679D02*
Y035689D01*
X044774Y035699D02*
X044783Y035689D01*
X04389Y035927D02*
X044805D01*
X044734Y03253D02*
X045148D01*
X043587Y035453D02*
X043835Y035205D01*
X044724Y03252D02*
X044734Y03253D01*
X045948Y030866D02*
X045966Y030885D01*
X044961Y030866D02*
X045948D01*
X043681Y030915D02*
X044011D01*
X040848Y033888D02*
Y035257D01*
Y033888D02*
X041015Y03372D01*
X041378Y034213D02*
X041438Y034153D01*
X042069D01*
X04264Y035415D02*
X04265D01*
X042687Y035453D01*
X044011Y030915D02*
X044061Y030866D01*
X044429Y020482D02*
X044447Y020464D01*
Y016671D02*
Y020464D01*
X043917Y016142D02*
X044447Y016671D01*
X038413Y023809D02*
X040293Y021929D01*
X040768D01*
X037572Y024275D02*
Y025967D01*
X033169Y033278D02*
X033307Y03314D01*
X022933Y033278D02*
X033169D01*
X044805Y035927D02*
X044815Y035937D01*
X041314Y034903D02*
X042069D01*
X033307Y03314D02*
Y03314D01*
Y03314D02*
X033329Y033118D01*
Y03011D02*
Y033118D01*
X033228Y03001D02*
X033329Y03011D01*
X033228Y028858D02*
Y03001D01*
X03035Y022441D02*
X030401Y02239D01*
Y019774D02*
Y02239D01*
X026585Y019282D02*
X026644D01*
X029274Y033069D02*
X031299Y031043D01*
Y029331D02*
Y031043D01*
X038963Y025683D02*
X040423D01*
X038809Y025837D02*
X038963Y025683D01*
X041427Y018287D02*
X041437Y018297D01*
X038297Y026673D02*
X038307Y026683D01*
X038413Y025601D02*
X038583Y02577D01*
X038413Y023809D02*
Y025601D01*
X038622Y025197D02*
X04064D01*
X040677Y02516D01*
X038583Y02577D02*
Y027146D01*
X037323Y027343D02*
X037628D01*
X037025Y02764D02*
X037323Y027343D01*
X0356Y02875D02*
X036088Y028263D01*
X034872Y02875D02*
X0356D01*
X03378Y029843D02*
X034872Y02875D01*
X03488Y026991D02*
X035128Y026742D01*
X03488Y026991D02*
Y027965D01*
X034697Y028148D02*
X03488Y027965D01*
X034697Y028148D02*
Y028521D01*
X034575Y028644D02*
X034697Y028521D01*
X034402Y028644D02*
X034575D01*
X034353Y028595D02*
X034402Y028644D01*
X034249Y028595D02*
X034353D01*
X033543Y029301D02*
X034249Y028595D01*
X033543Y029301D02*
Y033189D01*
X033219Y033514D02*
X033543Y033189D01*
X031329Y028071D02*
X031604Y027795D01*
X037902Y020996D02*
Y025519D01*
Y020996D02*
X037943Y020955D01*
X037972Y02559D02*
Y025683D01*
X037902Y025519D02*
X037972Y02559D01*
X03811Y025433D02*
Y02544D01*
X038134Y025464D01*
X038228Y025369D01*
Y021772D02*
Y025369D01*
Y021772D02*
X038583Y021417D01*
X039008D02*
X039567Y020858D01*
X038583Y021417D02*
X039008D01*
X039567Y018858D02*
X040591D01*
X039567Y017858D02*
X040242D01*
X039567Y016858D02*
X039585Y016841D01*
X040177D01*
X042969Y016142D02*
X043917D01*
X041512Y014685D02*
X042969Y016142D01*
X044656Y016644D02*
Y019774D01*
X042697Y014685D02*
X044656Y016644D01*
X042512Y014685D02*
X042697D01*
X044882Y019006D02*
X044931D01*
X043512Y014959D02*
X044931Y016378D01*
X045669Y014843D02*
Y017441D01*
X045512Y014685D02*
X045669Y014843D01*
X045197Y015797D02*
Y01812D01*
X044512Y015112D02*
X045197Y015797D01*
X044512Y014685D02*
Y015112D01*
X043512Y014685D02*
Y014959D01*
X030472Y012667D02*
Y01501D01*
X030581Y012559D02*
Y012579D01*
X030846Y015384D02*
X030932D01*
X030472Y01501D02*
X030846Y015384D01*
X031388Y01313D02*
Y015256D01*
X031486Y015354D01*
X031506D01*
X019228Y012476D02*
X021398Y014646D01*
X021841Y011299D02*
X022228D01*
X02163Y011089D02*
X021841Y011299D01*
X02163Y010083D02*
Y011089D01*
X020896Y011299D02*
X021228D01*
X02063Y011033D02*
X020896Y011299D01*
X02063Y010083D02*
Y011033D01*
X020159Y01123D02*
X020228Y011299D01*
X019793Y01123D02*
X020159D01*
X01963Y011067D02*
X019793Y01123D01*
X01963Y010083D02*
Y011067D01*
X024228Y012514D02*
Y016299D01*
X027283Y010118D02*
Y011486D01*
X025108Y013661D02*
X027283Y011486D01*
X02187Y014606D02*
X0219D01*
X021228Y015248D02*
X02187Y014606D01*
X021228Y015248D02*
Y016299D01*
X022667Y011427D02*
X022973Y011733D01*
X023525D01*
X023228Y013106D02*
X024209Y012126D01*
X023228Y013106D02*
Y016299D01*
X031396Y019656D02*
X031407D01*
X031377Y019674D02*
X031396Y019656D01*
X031909Y021378D02*
X032377Y021845D01*
X031909Y019695D02*
Y021378D01*
X032782Y01978D02*
X033496Y020494D01*
X032782Y019685D02*
Y01978D01*
X027451Y018927D02*
X034222D01*
X026299Y020079D02*
X027451Y018927D01*
X031377Y019674D02*
Y021561D01*
X031415Y019417D02*
X031417Y019419D01*
X031242Y019417D02*
X031415D01*
X03215Y021938D02*
X032222Y022009D01*
X023709Y021467D02*
X024951Y022708D01*
X045993Y009528D02*
X046154Y009688D01*
Y011063D01*
X026299Y020079D02*
Y021614D01*
X039665Y026614D02*
Y03122D01*
Y026614D02*
X04001Y02627D01*
X035138Y026752D02*
X036378D01*
X035128Y026742D02*
X035138Y026752D01*
X033238Y026201D02*
Y026466D01*
Y026201D02*
X033563Y025876D01*
X033843D01*
X034247Y025472D01*
X034459D02*
X034578Y025353D01*
X034247Y025472D02*
X034459D01*
X032377Y021845D02*
X032958D01*
X031377Y021561D02*
X031753Y021938D01*
X032994Y027209D02*
X03422Y028435D01*
X032994Y027209D02*
X032998Y027205D01*
X032717D02*
X032998D01*
X034259Y023213D02*
X034284Y023238D01*
X03544D01*
X035668Y023466D01*
Y023844D01*
X034259Y023213D02*
X034309D01*
X033418Y026646D02*
Y026801D01*
X033238Y026466D02*
X033418Y026646D01*
X037572Y025967D02*
X037785Y026181D01*
Y026654D01*
X037963Y027766D02*
X038583Y027146D01*
X037854Y033031D02*
X039665Y03122D01*
X036831Y026417D02*
X036949Y026535D01*
X037264D01*
X034352Y024883D02*
Y024894D01*
X036959Y02748D02*
X037785Y026654D01*
X035276Y02748D02*
X036959D01*
X032224Y027014D02*
X032782Y026457D01*
X034213Y025034D02*
X034352Y024894D01*
X03422Y028435D02*
X034488D01*
X036053Y030089D02*
X036693Y029449D01*
X03485Y030089D02*
X036053D01*
X031753Y021938D02*
X03215D01*
X033627Y022519D02*
X033866Y02228D01*
X032224Y027014D02*
Y027236D01*
X032754Y027766D01*
X0331Y033012D02*
X03312Y033031D01*
X03273Y031992D02*
X032785Y032047D01*
X033155Y030232D02*
Y032201D01*
X0331Y030177D02*
X033155Y030232D01*
X0331Y032256D02*
Y033012D01*
Y032256D02*
X033155Y032201D01*
X03273Y030024D02*
Y031992D01*
Y030024D02*
X032754Y03D01*
Y027766D02*
Y03D01*
X021663Y028171D02*
X021764Y028071D01*
X025622Y023685D02*
X025636Y023671D01*
X026073D01*
X043189Y011063D02*
Y011496D01*
X041811Y012874D02*
X043189Y011496D01*
X039803Y012874D02*
X041811D01*
X039724Y012953D02*
X039803Y012874D01*
X000787Y036969D02*
X000827Y037008D01*
X00261Y036823D02*
X002756Y036969D01*
X00261Y036419D02*
Y036823D01*
X00254Y036349D02*
X00261Y036419D01*
X001801Y036349D02*
X00254D01*
X00287Y036188D02*
X00315Y036468D01*
X002527Y036188D02*
X00287D01*
X002362Y036024D02*
X002527Y036188D01*
X001496Y036043D02*
X001801Y036349D01*
X002362Y035945D02*
Y036024D01*
X00315Y036468D02*
Y036969D01*
X003543Y036339D02*
Y036969D01*
X003228Y036024D02*
X003543Y036339D01*
X003937Y036122D02*
Y036969D01*
Y036122D02*
X004016Y036043D01*
X001929Y029409D02*
X001969Y02937D01*
X006127Y028625D02*
X006413Y028338D01*
X004785Y028625D02*
X006127D01*
X001575Y02937D02*
X001693Y029488D01*
X004392Y028465D02*
X005417D01*
X004335Y028521D02*
X004392Y028465D01*
X004117Y028521D02*
X004335D01*
X003937Y028701D02*
X004117Y028521D01*
X003937Y028701D02*
Y02937D01*
X004023Y028361D02*
X004269D01*
X00394Y028444D02*
X004023Y028361D01*
X003603Y028444D02*
X00394D01*
X003543Y028504D02*
X003603Y028444D01*
X004269Y028361D02*
X004756Y027874D01*
X004724Y028686D02*
X004785Y028625D01*
X004724Y028686D02*
Y02937D01*
X005417Y028465D02*
X005968Y027913D01*
X004724Y02937D02*
X004724Y02937D01*
X006413Y027913D02*
Y028338D01*
Y027913D02*
X006978D01*
X003543Y028504D02*
Y02937D01*
X00315Y02848D02*
Y02937D01*
Y02848D02*
X003756Y027874D01*
X002756D02*
Y02937D01*
X002362Y02848D02*
Y02937D01*
X001756Y027874D02*
X002362Y02848D01*
X000787Y02937D02*
Y029961D01*
X000758Y02999D02*
X000787Y029961D01*
X000216Y02999D02*
X000758D01*
X000146Y02992D02*
X000216Y02999D01*
X000146Y027073D02*
Y02992D01*
Y027073D02*
X000683Y026535D01*
X045984Y025748D02*
Y027008D01*
X045749Y025513D02*
X045984Y025748D01*
X040842Y025513D02*
X045749D01*
X040772Y025443D02*
X040842Y025513D01*
X040772Y025254D02*
Y025443D01*
X040677Y02516D02*
X040772Y025254D01*
X036693Y028995D02*
Y029449D01*
X014331Y008071D02*
X01437Y008031D01*
D26*
X003425Y007868D02*
D03*
Y006969D02*
D03*
X00374Y010709D02*
D03*
Y009809D02*
D03*
X033661Y016698D02*
D03*
Y017598D02*
D03*
X035276Y02748D02*
D03*
Y02838D02*
D03*
X035118Y025079D02*
D03*
Y024179D02*
D03*
X028071Y025034D02*
D03*
Y024134D02*
D03*
X034183Y025054D02*
D03*
Y024154D02*
D03*
X029134Y023735D02*
D03*
Y022835D02*
D03*
X033504Y024356D02*
D03*
Y025256D02*
D03*
X038583Y021417D02*
D03*
Y020517D02*
D03*
X038465Y019685D02*
D03*
Y018785D02*
D03*
D30*
X001423Y011339D02*
D03*
X002323D02*
D03*
X006963Y015315D02*
D03*
X006063D02*
D03*
X00716Y02189D02*
D03*
X00626D02*
D03*
X005624D02*
D03*
X004724D02*
D03*
X005349Y015354D02*
D03*
X004449D02*
D03*
X007795Y031476D02*
D03*
X008695D02*
D03*
X007801Y030787D02*
D03*
X008701D02*
D03*
X023262Y027126D02*
D03*
X022362D02*
D03*
X031591Y027049D02*
D03*
X030691D02*
D03*
X03035Y022441D02*
D03*
X03125D02*
D03*
X03185Y022333D02*
D03*
X03275D02*
D03*
X044882Y012087D02*
D03*
X043982D02*
D03*
X041142Y025118D02*
D03*
X042042D02*
D03*
X036378Y021181D02*
D03*
X037278D02*
D03*
X044994Y02878D02*
D03*
X044094D02*
D03*
X044061Y030866D02*
D03*
X044961D02*
D03*
X041294Y034882D02*
D03*
X040394D02*
D03*
X041378Y034213D02*
D03*
X040478D02*
D03*
X043587Y035453D02*
D03*
X042687D02*
D03*
X041457Y028661D02*
D03*
X040557D02*
D03*
X043819Y027913D02*
D03*
X042919D02*
D03*
X041929Y027874D02*
D03*
X041029D02*
D03*
X044724Y03252D02*
D03*
X043824D02*
D03*
X042756D02*
D03*
X041856D02*
D03*
D37*
X046633Y029094D02*
D03*
X045927Y029469D02*
D03*
Y028719D02*
D03*
X046672Y03126D02*
D03*
X045966Y031635D02*
D03*
Y030885D02*
D03*
X042775Y034528D02*
D03*
X042069Y034903D02*
D03*
Y034153D02*
D03*
X044321Y034537D02*
D03*
X043615Y034912D02*
D03*
Y034162D02*
D03*
D65*
X04627Y037323D02*
D03*
Y034567D02*
D03*
D89*
X039252Y034872D02*
X040423D01*
X017795Y026063D02*
Y03065D01*
X017717Y025984D02*
X017795Y026063D01*
Y03065D02*
X021004Y033858D01*
X028077Y022868D02*
X029134D01*
X019685Y02811D02*
X019705Y02813D01*
X018986Y02811D02*
X019685D01*
X038929Y024213D02*
X039657Y024941D01*
X038929Y024213D02*
X040543Y022598D01*
X003543Y011943D02*
X003911Y011575D01*
X003266Y011943D02*
X003543D01*
X002362Y012846D02*
X003266Y011943D01*
X003406Y011575D02*
X003911D01*
X004632D01*
X002689Y014333D02*
X003258D01*
X002362Y014006D02*
X002689Y014333D01*
X002362Y012846D02*
Y014006D01*
X003258Y014333D02*
X003937D01*
X005512Y002362D02*
X00748D01*
X005118Y002756D02*
X005512Y002362D01*
X013093Y028995D02*
Y037109D01*
Y028096D02*
Y028995D01*
X012381D02*
X013093D01*
X006732Y023346D02*
X012381Y028995D01*
X013093Y028096D02*
X013118Y028071D01*
X020573Y037795D02*
X027165D01*
X021148Y036165D02*
Y037221D01*
X020573Y037795D02*
X021148Y037221D01*
X01378Y037795D02*
X020573D01*
X028014Y036165D02*
Y036947D01*
X027165Y037795D02*
X028014Y036947D01*
X021004Y033858D02*
X035955D01*
X037904Y035807D01*
X013093Y037109D02*
X01378Y037795D01*
X007178Y035865D02*
Y037699D01*
X00522Y033907D02*
X007178Y035865D01*
X000571Y033907D02*
X00522D01*
X007178Y037699D02*
X007844Y038366D01*
X005118Y008872D02*
X006916Y010669D01*
X005118Y002756D02*
Y008872D01*
X006136Y039065D02*
X006834Y038366D01*
X002825Y039065D02*
X006136D01*
X00253Y03877D02*
X002825Y039065D01*
X00253Y038406D02*
Y03877D01*
X006264Y037795D02*
X006834Y038366D01*
X00499Y037795D02*
X006264D01*
X004724Y03753D02*
X00499Y037795D01*
X004724Y036969D02*
Y03753D01*
X007136Y020118D02*
X007916Y019338D01*
X007677Y019961D02*
X00799Y019648D01*
X007677Y019961D02*
Y02252D01*
X007916Y019338D02*
X009845D01*
X007362Y022835D02*
X007677Y02252D01*
X00378Y010669D02*
X004632D01*
X00374Y010709D02*
X00378Y010669D01*
X00189Y010059D02*
X003406Y011575D01*
X00189Y008133D02*
Y010059D01*
X017953Y015187D02*
X01817Y01497D01*
Y014193D02*
Y01497D01*
X017155Y014734D02*
X018819Y013071D01*
X016339Y014734D02*
X017155D01*
X003119Y007562D02*
X003425Y007868D01*
X002461Y007562D02*
X003119D01*
X027961Y023712D02*
X02819D01*
X027953Y02372D02*
X027961Y023712D01*
X027805Y023573D02*
X027953Y02372D01*
X027805Y02314D02*
Y023573D01*
Y02314D02*
X028077Y022868D01*
X029539Y027049D02*
X029656D01*
X02946Y027127D02*
X029539Y027049D01*
X031772Y017608D02*
X033671D01*
X037699Y020827D02*
X037709Y020818D01*
X037699Y020827D02*
Y021504D01*
X037392Y021812D02*
X037699Y021504D01*
X037392Y021812D02*
Y022533D01*
X019705Y02813D02*
X019764Y028071D01*
X009845Y019338D02*
X010167Y019016D01*
X00799Y019648D02*
X010342D01*
X010384Y019606D01*
X009833Y017726D02*
Y01875D01*
X009232Y017126D02*
X009833Y017726D01*
X00685Y017126D02*
X009232D01*
X043824Y03252D02*
X044528Y031817D01*
X040896Y032205D02*
X041201Y03251D01*
X040896Y032008D02*
Y032205D01*
Y032008D02*
X042919Y029985D01*
Y027913D02*
Y029985D01*
X041919Y027874D02*
X041929D01*
X042919Y027323D02*
Y027913D01*
X042466Y02687D02*
X042919Y027323D01*
X040669Y02687D02*
X042466D01*
X040325Y027215D02*
X040669Y02687D01*
X040325Y027215D02*
Y027611D01*
X040588Y027874D01*
X041029D01*
X039075Y034695D02*
X039252Y034872D01*
X041211Y03252D02*
X041856D01*
X041201Y03251D02*
X041211Y03252D01*
X04378Y031368D02*
X044439D01*
X044528Y031457D01*
Y031817D01*
X037904Y035807D02*
Y035827D01*
X038268Y036191D01*
X039035D01*
X029528Y02872D02*
X032234D01*
X037244Y019961D02*
X03752Y019685D01*
X038465D01*
X031476Y017313D02*
X031772Y017608D01*
X031476Y0169D02*
Y017313D01*
X004719Y036496D02*
X004724D01*
X010709Y019291D02*
X010974D01*
X023346Y026571D02*
Y027042D01*
Y026411D02*
Y026571D01*
X02333Y026555D02*
X023346Y026571D01*
X020374Y026555D02*
X02333D01*
X019764Y027165D02*
X020374Y026555D01*
X019764Y027165D02*
Y028071D01*
X006969Y020118D02*
X007136D01*
X045165Y011063D02*
X047018Y012915D01*
X046193Y022598D02*
X047018Y021774D01*
Y012915D02*
Y021774D01*
X040965Y024941D02*
X041142Y025118D01*
X039657Y024941D02*
X040965D01*
X00189Y008133D02*
X002461Y007562D01*
X007557Y012035D02*
Y012849D01*
X007778Y013071D01*
X008465D01*
X007096Y011575D02*
X007557Y012035D01*
X004632Y011575D02*
X007096D01*
X001457Y010591D02*
Y011265D01*
X003839Y01872D02*
X003976Y018858D01*
X003839Y014431D02*
Y01872D01*
Y014431D02*
X003937Y014333D01*
X002165Y021063D02*
X003937D01*
X002062Y020959D02*
X002165Y021063D01*
X010128Y013602D02*
X010167Y013642D01*
Y019016D01*
X009728Y013602D02*
X010128D01*
X009606Y013724D02*
X009728Y013602D01*
X001403Y011319D02*
X001457Y011265D01*
X001083Y011319D02*
X001403D01*
X000768Y011004D02*
X001083Y011319D01*
X000768Y009606D02*
Y011004D01*
X000541Y01222D02*
Y017776D01*
Y01222D02*
X001423Y011339D01*
X000541Y017776D02*
X000681Y017915D01*
X003255D01*
X004719Y036496D02*
X005276Y035939D01*
X004724Y036496D02*
Y036969D01*
X038484Y029567D02*
Y03002D01*
X033504Y025285D02*
Y025324D01*
X039213Y025965D02*
Y028838D01*
X038484Y029567D02*
X039213Y028838D01*
X029459Y027126D02*
Y028652D01*
X032234Y02872D02*
X032323Y028632D01*
Y028085D02*
Y028632D01*
X029459Y028652D02*
X029528Y02872D01*
X029459Y027126D02*
X02946Y027127D01*
X032234Y029256D02*
X032309Y029331D01*
X032234Y02872D02*
Y029256D01*
X032309Y028071D02*
X032323Y028085D01*
X023262Y027126D02*
X029459D01*
X029134Y022835D02*
Y022868D01*
X032283Y028046D02*
X032309Y028071D01*
X023262Y027126D02*
X023346Y027042D01*
Y026411D02*
X023572Y026185D01*
X006732Y022441D02*
Y023346D01*
Y022441D02*
X00716Y022013D01*
Y02189D02*
Y022013D01*
X010394Y019606D02*
X010709Y019291D01*
X010384Y019606D02*
X010394D01*
X00716Y021417D02*
Y02189D01*
X005624Y021417D02*
X00716D01*
X005624D02*
Y02189D01*
X040543Y022598D02*
X046193D01*
X044882Y012087D02*
X045165Y011803D01*
Y011063D02*
Y011803D01*
X004567Y018032D02*
X007775D01*
X007958Y017848D01*
X008465Y013071D02*
X008701Y013307D01*
Y015354D01*
X006963Y013577D02*
Y015315D01*
X005624Y021057D02*
Y021417D01*
X004685Y020118D02*
X005624Y021057D01*
X004685Y020118D02*
X006969D01*
X009061Y015714D02*
X009606D01*
X008701Y015354D02*
X009061Y015714D01*
X005276Y017126D02*
X00685D01*
X004567D02*
X005276D01*
X005349Y017053D01*
Y015354D02*
Y017053D01*
X003937Y014333D02*
X00453D01*
X009646Y01252D02*
X009685Y012559D01*
X008268Y01252D02*
X009646D01*
Y01151D02*
X009685Y011549D01*
X008268Y01151D02*
X009646D01*
X003937Y021063D02*
X004646D01*
X003937D02*
X003976Y021024D01*
Y018858D02*
Y021024D01*
Y018858D02*
X007958D01*
X004646Y013543D02*
X006929D01*
X004632Y010669D02*
X006916D01*
X000689Y009528D02*
X000768Y009606D01*
X000689Y007562D02*
Y009528D01*
X001403Y011319D02*
X001423Y011339D01*
X00453Y014333D02*
X004646Y014449D01*
X004646Y021063D02*
X004685Y021024D01*
X002062Y020433D02*
Y020959D01*
D90*
X046405Y037323D02*
D03*
X046135D02*
D03*
X046405Y034567D02*
D03*
X046135D02*
D03*
D91*
X045207Y036929D02*
D03*
Y034961D02*
D03*
D92*
X032309Y028071D02*
D03*
X031329D02*
D03*
X031299Y029331D02*
D03*
X030319D02*
D03*
X028508Y021614D02*
D03*
X029488D02*
D03*
X001693Y026535D02*
D03*
X00553Y038406D02*
D03*
X00452D02*
D03*
X00354D02*
D03*
X00253D02*
D03*
X006978Y027913D02*
D03*
X007958D02*
D03*
X007844Y038366D02*
D03*
X002774Y026535D02*
D03*
X003784D02*
D03*
X004764D02*
D03*
X005774D02*
D03*
X040644Y002717D02*
D03*
X039664D02*
D03*
D93*
X030319Y028071D02*
D03*
X032309Y029331D02*
D03*
X027498Y021614D02*
D03*
X000683Y026535D02*
D03*
X005968Y027913D02*
D03*
X006834Y038366D02*
D03*
X041654Y002717D02*
D03*
D94*
X007958Y017848D02*
D03*
X037392Y022533D02*
D03*
X037077Y0246D02*
D03*
X008268Y01252D02*
D03*
X009685Y012559D02*
D03*
X009606Y014734D02*
D03*
Y015714D02*
D03*
X012992Y009051D02*
D03*
Y008071D02*
D03*
X014331Y009051D02*
D03*
Y008071D02*
D03*
X010354Y009094D02*
D03*
Y008114D02*
D03*
X011693Y009045D02*
D03*
Y008065D02*
D03*
X024685Y009084D02*
D03*
Y008104D02*
D03*
X023307Y009094D02*
D03*
Y008114D02*
D03*
X027283Y009108D02*
D03*
Y008128D02*
D03*
X025984Y009094D02*
D03*
Y008114D02*
D03*
X039724Y011943D02*
D03*
Y010963D02*
D03*
D95*
X007958Y018858D02*
D03*
X037392Y023543D02*
D03*
X037077Y02561D02*
D03*
X008268Y01151D02*
D03*
X009685Y011549D02*
D03*
X009606Y013724D02*
D03*
X012992Y010061D02*
D03*
X014331D02*
D03*
X010354Y010104D02*
D03*
X011693Y010055D02*
D03*
X024685Y010094D02*
D03*
X023307Y010104D02*
D03*
X027283Y010118D02*
D03*
X025984Y010104D02*
D03*
X039724Y012953D02*
D03*
D96*
X037581Y030089D02*
D03*
D97*
X034793D02*
D03*
D98*
X036276Y019961D02*
D03*
X037244D02*
D03*
X036276Y018992D02*
D03*
X037244D02*
D03*
X036276Y018024D02*
D03*
X037244D02*
D03*
X036276Y017055D02*
D03*
X037244D02*
D03*
D99*
X023514Y036165D02*
D03*
X025014D02*
D03*
X026514D02*
D03*
X016648D02*
D03*
X018148D02*
D03*
X019648D02*
D03*
X003258Y012833D02*
D03*
X003255Y016415D02*
D03*
X02162Y00373D02*
D03*
X02012D02*
D03*
X01862D02*
D03*
X014878D02*
D03*
X013378D02*
D03*
X011878D02*
D03*
D100*
X028014Y036165D02*
D03*
X021148D02*
D03*
X01712Y00373D02*
D03*
X010378D02*
D03*
D101*
X028764Y028071D02*
D03*
X027764D02*
D03*
X025764D02*
D03*
X023764D02*
D03*
X020764D02*
D03*
X021764D02*
D03*
X022764D02*
D03*
X024764D02*
D03*
X026764D02*
D03*
X004756Y027874D02*
D03*
X001756D02*
D03*
X002756D02*
D03*
X003756D02*
D03*
D102*
X019764Y028071D02*
D03*
X000756Y027874D02*
D03*
D103*
X042512Y014685D02*
D03*
X045512D02*
D03*
X044512D02*
D03*
X043512D02*
D03*
X041512D02*
D03*
D104*
X046512D02*
D03*
D105*
X04411Y024232D02*
D03*
X04311D02*
D03*
X04211D02*
D03*
X04111D02*
D03*
X04011D02*
D03*
X046154Y011063D02*
D03*
X045165D02*
D03*
X044177D02*
D03*
X043189D02*
D03*
X042201D02*
D03*
D106*
X03911Y024232D02*
D03*
X041213Y011063D02*
D03*
D107*
X003258Y014333D02*
D03*
X003255Y017915D02*
D03*
D108*
X011118Y01626D02*
D03*
Y01126D02*
D03*
X012118D02*
D03*
X013118D02*
D03*
X014118D02*
D03*
X015118D02*
D03*
X016118D02*
D03*
X017118D02*
D03*
X018118D02*
D03*
Y01626D02*
D03*
X017118D02*
D03*
X016118D02*
D03*
X015118D02*
D03*
X014118D02*
D03*
X013118D02*
D03*
X012118D02*
D03*
X026228Y011299D02*
D03*
Y016299D02*
D03*
X025228D02*
D03*
X024228D02*
D03*
X023228D02*
D03*
X022228D02*
D03*
X021228D02*
D03*
X020228D02*
D03*
X019228D02*
D03*
Y011299D02*
D03*
X020228D02*
D03*
X021228D02*
D03*
X022228D02*
D03*
X023228D02*
D03*
X024228D02*
D03*
X025228D02*
D03*
D109*
X01589Y010083D02*
D03*
X01689D02*
D03*
X01789D02*
D03*
Y007083D02*
D03*
X01689D02*
D03*
X01589D02*
D03*
X01963Y010083D02*
D03*
X02063D02*
D03*
X02163D02*
D03*
Y007083D02*
D03*
X02063D02*
D03*
X01963D02*
D03*
D110*
X002062Y022402D02*
D03*
Y02437D02*
D03*
D111*
Y020433D02*
D03*
D112*
X034834Y022619D02*
D03*
X034843Y022352D02*
D03*
X034578Y022176D02*
D03*
X036222Y023269D02*
D03*
X002323Y011339D02*
D03*
X039553Y019872D02*
D03*
X038459Y018785D02*
D03*
X018986Y02811D02*
D03*
X032244Y024813D02*
D03*
X034803Y019409D02*
D03*
X039783Y020374D02*
D03*
X032583Y017057D02*
D03*
X032293Y03064D02*
D03*
X030846Y026707D02*
D03*
X004724Y02189D02*
D03*
X00748Y002362D02*
D03*
X007274Y026801D02*
D03*
X013258Y026654D02*
D03*
X012381Y028521D02*
D03*
X013118Y028071D02*
D03*
X013246Y027611D02*
D03*
X017717Y025984D02*
D03*
X023622Y005906D02*
D03*
X035433Y035433D02*
D03*
X011811D02*
D03*
X000827Y03627D02*
D03*
X000571Y033907D02*
D03*
X033421Y023238D02*
D03*
X033809Y023967D02*
D03*
X005984Y02498D02*
D03*
X042158Y035218D02*
D03*
X042938Y034714D02*
D03*
X043181Y034834D02*
D03*
X005959Y02581D02*
D03*
X005551Y012638D02*
D03*
X004596Y016693D02*
D03*
X00501Y019745D02*
D03*
X008297Y021929D02*
D03*
X027303Y023514D02*
D03*
X029124Y02373D02*
D03*
X030276Y025994D02*
D03*
X044252Y034291D02*
D03*
X042894Y034104D02*
D03*
X042057Y034557D02*
D03*
X045209Y036458D02*
D03*
X043681Y036358D02*
D03*
X043691Y038386D02*
D03*
X042087D02*
D03*
X031654Y025404D02*
D03*
X032028Y025561D02*
D03*
X036429Y027856D02*
D03*
X035925Y027736D02*
D03*
X034183Y024154D02*
D03*
X035108Y024183D02*
D03*
X03185Y022333D02*
D03*
X026722Y022362D02*
D03*
X03314Y022795D02*
D03*
X04312Y020709D02*
D03*
X036378Y021181D02*
D03*
X040876Y019646D02*
D03*
X001516Y028563D02*
D03*
X008711Y030778D02*
D03*
X008695Y031476D02*
D03*
X012037Y014439D02*
D03*
X017953Y015187D02*
D03*
X01817Y014193D02*
D03*
X031624Y024331D02*
D03*
X032215Y023996D02*
D03*
X031557Y023583D02*
D03*
X02819Y023712D02*
D03*
X029656Y027049D02*
D03*
X030284Y025049D02*
D03*
X030896Y021614D02*
D03*
X023327Y02188D02*
D03*
X026496Y022028D02*
D03*
X022756Y033041D02*
D03*
X013337Y029075D02*
D03*
X026378Y025034D02*
D03*
X03047Y025783D02*
D03*
X027362Y025817D02*
D03*
X038524Y012293D02*
D03*
X03873Y013199D02*
D03*
X036998Y015915D02*
D03*
X038543Y017913D02*
D03*
X034911Y021024D02*
D03*
X033496Y022127D02*
D03*
X036038Y023691D02*
D03*
X037709Y020818D02*
D03*
X040787Y004764D02*
D03*
X041063Y003868D02*
D03*
X009833Y01875D02*
D03*
X046585Y033366D02*
D03*
X04002Y034065D02*
D03*
X037431Y034262D02*
D03*
X040138Y035522D02*
D03*
X041949Y029656D02*
D03*
X041476Y028661D02*
D03*
X043839Y027894D02*
D03*
X041919Y027874D02*
D03*
X039075Y034695D02*
D03*
X044815Y035947D02*
D03*
X044035Y035699D02*
D03*
X044783Y035689D02*
D03*
X04389Y035927D02*
D03*
X045148Y03253D02*
D03*
X044026Y035413D02*
D03*
X042756Y03252D02*
D03*
X041201Y03251D02*
D03*
X04378Y031368D02*
D03*
X043612Y031752D02*
D03*
X040848Y035257D02*
D03*
X04264Y035415D02*
D03*
X040768Y021929D02*
D03*
X040423Y034872D02*
D03*
X037904Y035807D02*
D03*
X039035Y036191D02*
D03*
X008366Y027188D02*
D03*
X022933Y033278D02*
D03*
X033228Y028858D02*
D03*
X030401Y019774D02*
D03*
X026644Y019282D02*
D03*
X040423Y025683D02*
D03*
X041437Y018297D02*
D03*
X038809Y025837D02*
D03*
X038307Y026683D02*
D03*
X038622Y025197D02*
D03*
X03378Y029843D02*
D03*
X03811Y025433D02*
D03*
X040591Y018858D02*
D03*
X040242Y017858D02*
D03*
X040177Y016841D02*
D03*
X044429Y020482D02*
D03*
X044656Y019774D02*
D03*
X044882Y019006D02*
D03*
X045669Y017441D02*
D03*
X045197Y01812D02*
D03*
X031476Y0169D02*
D03*
X030581Y012579D02*
D03*
X030932Y015384D02*
D03*
X031388Y01313D02*
D03*
X031506Y015354D02*
D03*
X021398Y014646D02*
D03*
X025108Y013661D02*
D03*
X0219Y014606D02*
D03*
X023525Y011733D02*
D03*
X024209Y012126D02*
D03*
X031407Y019656D02*
D03*
X031909Y019695D02*
D03*
X032782Y019685D02*
D03*
X010974Y019291D02*
D03*
X001457Y010591D02*
D03*
X036378Y026752D02*
D03*
X032717Y027205D02*
D03*
X034259Y023213D02*
D03*
X03275Y022333D02*
D03*
X033418Y026801D02*
D03*
X033504Y025285D02*
D03*
X033671Y017608D02*
D03*
X034136Y016004D02*
D03*
X037943Y020955D02*
D03*
X037972Y025683D02*
D03*
X039213Y025965D02*
D03*
X04001Y02627D02*
D03*
X037264Y026535D02*
D03*
X034352Y024883D02*
D03*
X033865Y026273D02*
D03*
X032782Y026457D02*
D03*
X035226Y025089D02*
D03*
X034488Y028435D02*
D03*
X032411Y032904D02*
D03*
X03312Y033031D02*
D03*
X032785Y032047D02*
D03*
X0331Y030177D02*
D03*
X031604Y027018D02*
D03*
X037963Y027766D02*
D03*
X038484Y03002D02*
D03*
X037854Y033031D02*
D03*
X028937Y026024D02*
D03*
X028092Y025011D02*
D03*
X03125Y022441D02*
D03*
X037638Y007083D02*
D03*
X026299Y021614D02*
D03*
X006929Y013543D02*
D03*
X005276Y035939D02*
D03*
X002362Y035945D02*
D03*
X001496Y036043D02*
D03*
X003228Y036024D02*
D03*
X004016Y036043D02*
D03*
X028031Y026654D02*
D03*
X040787Y009882D02*
D03*
X045984Y027008D02*
D03*
X029134Y022868D02*
D03*
X007362Y022835D02*
D03*
X016339Y014734D02*
D03*
X018819Y013071D02*
D03*
D113*
X046135Y037323D02*
X046405D01*
X046135Y034567D02*
X046405D01*
D114*
X002697Y009606D02*
D03*
X000768D02*
D03*
D115*
X000689Y007562D02*
D03*
X002461D02*
D03*
D116*
X001575Y005157D02*
D03*
D117*
X004632Y009764D02*
D03*
Y010669D02*
D03*
Y011575D02*
D03*
X004646Y012638D02*
D03*
Y013543D02*
D03*
Y014449D02*
D03*
X004685Y019213D02*
D03*
Y020118D02*
D03*
Y021024D02*
D03*
X004567Y01622D02*
D03*
Y017126D02*
D03*
Y018032D02*
D03*
D118*
X006916Y010669D02*
D03*
X006929Y013543D02*
D03*
X006969Y020118D02*
D03*
X00685Y017126D02*
D03*
D119*
X000394Y02937D02*
D03*
X000787D02*
D03*
X001181D02*
D03*
X001575D02*
D03*
X001969D02*
D03*
X002362D02*
D03*
X002756D02*
D03*
X00315D02*
D03*
X003543D02*
D03*
X003937D02*
D03*
X004331D02*
D03*
X004724D02*
D03*
X005118D02*
D03*
X005512D02*
D03*
X005906D02*
D03*
X006299D02*
D03*
X006693D02*
D03*
Y036969D02*
D03*
X006299D02*
D03*
X005906D02*
D03*
X005512D02*
D03*
X005118D02*
D03*
X004724D02*
D03*
X004331D02*
D03*
X003937D02*
D03*
X003543D02*
D03*
X00315D02*
D03*
X002756D02*
D03*
X002362D02*
D03*
X001969D02*
D03*
X001575D02*
D03*
X001181D02*
D03*
X000787D02*
D03*
X000394D02*
D03*
D120*
X025622Y026185D02*
D03*
Y025685D02*
D03*
Y025185D02*
D03*
Y024685D02*
D03*
Y024185D02*
D03*
Y023685D02*
D03*
Y023185D02*
D03*
X023572D02*
D03*
Y023685D02*
D03*
Y024185D02*
D03*
Y024685D02*
D03*
Y025185D02*
D03*
Y025685D02*
D03*
Y026185D02*
D03*
D121*
X036693Y028995D02*
D03*
X036318Y028289D02*
D03*
X037068D02*
D03*
D122*
X039567Y016858D02*
D03*
Y017858D02*
D03*
Y018858D02*
D03*
Y019858D02*
D03*
Y020858D02*
D03*
M02*
