G04*
G04 #@! TF.GenerationSoftware,Altium Limited,Altium Designer,18.1.6 (161)*
G04*
G04 Layer_Color=16711935*
%FSTAX24Y24*%
%MOIN*%
G70*
G01*
G75*
%ADD49R,0.0630X0.0580*%
%ADD52R,0.0580X0.0630*%
%ADD59R,0.0600X0.0300*%
%ADD65O,0.0750X0.0480*%
%ADD66C,0.0320*%
%ADD67C,0.0650*%
%ADD68O,0.0730X0.0830*%
%ADD69R,0.0730X0.0830*%
%ADD70O,0.0830X0.0730*%
%ADD71R,0.0830X0.0730*%
%ADD72R,0.0880X0.0880*%
%ADD73C,0.0880*%
%ADD74O,0.0940X0.0680*%
%ADD75C,0.0907*%
%ADD76R,0.0907X0.0907*%
%ADD77O,0.0730X0.0980*%
%ADD78R,0.0730X0.0980*%
%ADD79O,0.0730X0.0930*%
%ADD80R,0.0730X0.0930*%
%ADD81O,0.0730X0.0930*%
%ADD82R,0.0730X0.0930*%
%ADD83R,0.0907X0.0907*%
%ADD84C,0.0680*%
%ADD85C,0.0592*%
%ADD86C,0.0848*%
%ADD87R,0.0848X0.0848*%
%ADD88C,0.0257*%
%ADD115R,0.0370X0.0670*%
%ADD116R,0.2620X0.3040*%
%ADD120R,0.0670X0.0210*%
%ADD123R,0.1320X0.0710*%
%ADD124R,0.1025X0.0474*%
%ADD125R,0.1025X0.1379*%
%ADD126R,0.0336X0.1080*%
%ADD127R,0.0300X0.0600*%
%ADD128O,0.0880X0.0680*%
D49*
X003425Y007868D02*
D03*
Y006969D02*
D03*
X00374Y010709D02*
D03*
Y009809D02*
D03*
X033661Y016698D02*
D03*
Y017598D02*
D03*
X035276Y02748D02*
D03*
Y02838D02*
D03*
X035118Y025079D02*
D03*
Y024179D02*
D03*
X028071Y025034D02*
D03*
Y024134D02*
D03*
X034183Y025054D02*
D03*
Y024154D02*
D03*
X029134Y023735D02*
D03*
Y022835D02*
D03*
X033504Y024356D02*
D03*
Y025256D02*
D03*
X038583Y021417D02*
D03*
Y020517D02*
D03*
X038465Y019685D02*
D03*
Y018785D02*
D03*
D52*
X001423Y011339D02*
D03*
X002323D02*
D03*
X006963Y015315D02*
D03*
X006063D02*
D03*
X00716Y02189D02*
D03*
X00626D02*
D03*
X005624D02*
D03*
X004724D02*
D03*
X005349Y015354D02*
D03*
X004449D02*
D03*
X007795Y031476D02*
D03*
X008695D02*
D03*
X007801Y030787D02*
D03*
X008701D02*
D03*
X023262Y027126D02*
D03*
X022362D02*
D03*
X031591Y027049D02*
D03*
X030691D02*
D03*
X03035Y022441D02*
D03*
X03125D02*
D03*
X03185Y022333D02*
D03*
X03275D02*
D03*
X044882Y012087D02*
D03*
X043982D02*
D03*
X041142Y025118D02*
D03*
X042042D02*
D03*
X036378Y021181D02*
D03*
X037278D02*
D03*
X044994Y02878D02*
D03*
X044094D02*
D03*
X044061Y030866D02*
D03*
X044961D02*
D03*
X041294Y034882D02*
D03*
X040394D02*
D03*
X041378Y034213D02*
D03*
X040478D02*
D03*
X043587Y035453D02*
D03*
X042687D02*
D03*
X041457Y028661D02*
D03*
X040557D02*
D03*
X043819Y027913D02*
D03*
X042919D02*
D03*
X041929Y027874D02*
D03*
X041029D02*
D03*
X044724Y03252D02*
D03*
X043824D02*
D03*
X042756D02*
D03*
X041856D02*
D03*
D59*
X046633Y029094D02*
D03*
X045927Y029469D02*
D03*
Y028719D02*
D03*
X046672Y03126D02*
D03*
X045966Y031635D02*
D03*
Y030885D02*
D03*
X042775Y034528D02*
D03*
X042069Y034903D02*
D03*
Y034153D02*
D03*
X044321Y034537D02*
D03*
X043615Y034912D02*
D03*
Y034162D02*
D03*
D65*
X04627Y037323D02*
D03*
Y034567D02*
D03*
D66*
X046405Y037323D02*
D03*
X046135D02*
D03*
X046405Y034567D02*
D03*
X046135D02*
D03*
D67*
X045207Y036929D02*
D03*
Y034961D02*
D03*
D68*
X032309Y028071D02*
D03*
X031329D02*
D03*
X031299Y029331D02*
D03*
X030319D02*
D03*
X028508Y021614D02*
D03*
X029488D02*
D03*
X001693Y026535D02*
D03*
X00553Y038406D02*
D03*
X00452D02*
D03*
X00354D02*
D03*
X00253D02*
D03*
X006978Y027913D02*
D03*
X007958D02*
D03*
X007844Y038366D02*
D03*
X002774Y026535D02*
D03*
X003784D02*
D03*
X004764D02*
D03*
X005774D02*
D03*
X040644Y002717D02*
D03*
X039664D02*
D03*
D69*
X030319Y028071D02*
D03*
X032309Y029331D02*
D03*
X027498Y021614D02*
D03*
X000683Y026535D02*
D03*
X005968Y027913D02*
D03*
X006834Y038366D02*
D03*
X041654Y002717D02*
D03*
D70*
X007958Y017848D02*
D03*
X037392Y022533D02*
D03*
X037077Y0246D02*
D03*
X008268Y01252D02*
D03*
X009685Y012559D02*
D03*
X009606Y014734D02*
D03*
Y015714D02*
D03*
X012992Y009051D02*
D03*
Y008071D02*
D03*
X014331Y009051D02*
D03*
Y008071D02*
D03*
X010354Y009094D02*
D03*
Y008114D02*
D03*
X011693Y009045D02*
D03*
Y008065D02*
D03*
X024685Y009084D02*
D03*
Y008104D02*
D03*
X023307Y009094D02*
D03*
Y008114D02*
D03*
X027283Y009108D02*
D03*
Y008128D02*
D03*
X025984Y009094D02*
D03*
Y008114D02*
D03*
X039724Y011943D02*
D03*
Y010963D02*
D03*
D71*
X007958Y018858D02*
D03*
X037392Y023543D02*
D03*
X037077Y02561D02*
D03*
X008268Y01151D02*
D03*
X009685Y011549D02*
D03*
X009606Y013724D02*
D03*
X012992Y010061D02*
D03*
X014331D02*
D03*
X010354Y010104D02*
D03*
X011693Y010055D02*
D03*
X024685Y010094D02*
D03*
X023307Y010104D02*
D03*
X027283Y010118D02*
D03*
X025984Y010104D02*
D03*
X039724Y012953D02*
D03*
D72*
X037581Y030089D02*
D03*
D73*
X034793D02*
D03*
D74*
X036276Y019961D02*
D03*
X037244D02*
D03*
X036276Y018992D02*
D03*
X037244D02*
D03*
X036276Y018024D02*
D03*
X037244D02*
D03*
X036276Y017055D02*
D03*
X037244D02*
D03*
D75*
X023514Y036165D02*
D03*
X025014D02*
D03*
X026514D02*
D03*
X016648D02*
D03*
X018148D02*
D03*
X019648D02*
D03*
X003258Y012833D02*
D03*
X003255Y016415D02*
D03*
X02162Y00373D02*
D03*
X02012D02*
D03*
X01862D02*
D03*
X014878D02*
D03*
X013378D02*
D03*
X011878D02*
D03*
D76*
X028014Y036165D02*
D03*
X021148D02*
D03*
X01712Y00373D02*
D03*
X010378D02*
D03*
D77*
X028764Y028071D02*
D03*
X027764D02*
D03*
X025764D02*
D03*
X023764D02*
D03*
X020764D02*
D03*
X021764D02*
D03*
X022764D02*
D03*
X024764D02*
D03*
X026764D02*
D03*
X004756Y027874D02*
D03*
X001756D02*
D03*
X002756D02*
D03*
X003756D02*
D03*
D78*
X019764Y028071D02*
D03*
X000756Y027874D02*
D03*
D79*
X042512Y014685D02*
D03*
X045512D02*
D03*
X044512D02*
D03*
X043512D02*
D03*
X041512D02*
D03*
D80*
X046512D02*
D03*
D81*
X04411Y024232D02*
D03*
X04311D02*
D03*
X04211D02*
D03*
X04111D02*
D03*
X04011D02*
D03*
X046154Y011063D02*
D03*
X045165D02*
D03*
X044177D02*
D03*
X043189D02*
D03*
X042201D02*
D03*
D82*
X03911Y024232D02*
D03*
X041213Y011063D02*
D03*
D83*
X003258Y014333D02*
D03*
X003255Y017915D02*
D03*
D84*
X011118Y01626D02*
D03*
Y01126D02*
D03*
X012118D02*
D03*
X013118D02*
D03*
X014118D02*
D03*
X015118D02*
D03*
X016118D02*
D03*
X017118D02*
D03*
X018118D02*
D03*
Y01626D02*
D03*
X017118D02*
D03*
X016118D02*
D03*
X015118D02*
D03*
X014118D02*
D03*
X013118D02*
D03*
X012118D02*
D03*
X026228Y011299D02*
D03*
Y016299D02*
D03*
X025228D02*
D03*
X024228D02*
D03*
X023228D02*
D03*
X022228D02*
D03*
X021228D02*
D03*
X020228D02*
D03*
X019228D02*
D03*
Y011299D02*
D03*
X020228D02*
D03*
X021228D02*
D03*
X022228D02*
D03*
X023228D02*
D03*
X024228D02*
D03*
X025228D02*
D03*
D85*
X01589Y010083D02*
D03*
X01689D02*
D03*
X01789D02*
D03*
Y007083D02*
D03*
X01689D02*
D03*
X01589D02*
D03*
X01963Y010083D02*
D03*
X02063D02*
D03*
X02163D02*
D03*
Y007083D02*
D03*
X02063D02*
D03*
X01963D02*
D03*
D86*
X002062Y022402D02*
D03*
Y02437D02*
D03*
D87*
Y020433D02*
D03*
D88*
X034834Y022619D02*
D03*
X034843Y022352D02*
D03*
X034578Y022176D02*
D03*
X036222Y023269D02*
D03*
X002323Y011339D02*
D03*
X039553Y019872D02*
D03*
X038459Y018785D02*
D03*
X018986Y02811D02*
D03*
X032244Y024813D02*
D03*
X034803Y019409D02*
D03*
X039783Y020374D02*
D03*
X032583Y017057D02*
D03*
X032293Y03064D02*
D03*
X030846Y026707D02*
D03*
X004724Y02189D02*
D03*
X00748Y002362D02*
D03*
X007274Y026801D02*
D03*
X013258Y026654D02*
D03*
X012381Y028521D02*
D03*
X013118Y028071D02*
D03*
X013246Y027611D02*
D03*
X017717Y025984D02*
D03*
X023622Y005906D02*
D03*
X035433Y035433D02*
D03*
X011811D02*
D03*
X000827Y03627D02*
D03*
X000571Y033907D02*
D03*
X033421Y023238D02*
D03*
X033809Y023967D02*
D03*
X005984Y02498D02*
D03*
X042158Y035218D02*
D03*
X042938Y034714D02*
D03*
X043181Y034834D02*
D03*
X005959Y02581D02*
D03*
X005551Y012638D02*
D03*
X004596Y016693D02*
D03*
X00501Y019745D02*
D03*
X008297Y021929D02*
D03*
X027303Y023514D02*
D03*
X029124Y02373D02*
D03*
X030276Y025994D02*
D03*
X044252Y034291D02*
D03*
X042894Y034104D02*
D03*
X042057Y034557D02*
D03*
X045209Y036458D02*
D03*
X043681Y036358D02*
D03*
X043691Y038386D02*
D03*
X042087D02*
D03*
X031654Y025404D02*
D03*
X032028Y025561D02*
D03*
X036429Y027856D02*
D03*
X035925Y027736D02*
D03*
X034183Y024154D02*
D03*
X035108Y024183D02*
D03*
X03185Y022333D02*
D03*
X026722Y022362D02*
D03*
X03314Y022795D02*
D03*
X04312Y020709D02*
D03*
X036378Y021181D02*
D03*
X040876Y019646D02*
D03*
X001516Y028563D02*
D03*
X008711Y030778D02*
D03*
X008695Y031476D02*
D03*
X012037Y014439D02*
D03*
X017953Y015187D02*
D03*
X01817Y014193D02*
D03*
X031624Y024331D02*
D03*
X032215Y023996D02*
D03*
X031557Y023583D02*
D03*
X02819Y023712D02*
D03*
X029656Y027049D02*
D03*
X030284Y025049D02*
D03*
X030896Y021614D02*
D03*
X023327Y02188D02*
D03*
X026496Y022028D02*
D03*
X022756Y033041D02*
D03*
X013337Y029075D02*
D03*
X026378Y025034D02*
D03*
X03047Y025783D02*
D03*
X027362Y025817D02*
D03*
X038524Y012293D02*
D03*
X03873Y013199D02*
D03*
X036998Y015915D02*
D03*
X038543Y017913D02*
D03*
X034911Y021024D02*
D03*
X033496Y022127D02*
D03*
X036038Y023691D02*
D03*
X037709Y020818D02*
D03*
X040787Y004764D02*
D03*
X041063Y003868D02*
D03*
X009833Y01875D02*
D03*
X046585Y033366D02*
D03*
X04002Y034065D02*
D03*
X037431Y034262D02*
D03*
X040138Y035522D02*
D03*
X041949Y029656D02*
D03*
X041476Y028661D02*
D03*
X043839Y027894D02*
D03*
X041919Y027874D02*
D03*
X039075Y034695D02*
D03*
X044815Y035947D02*
D03*
X044035Y035699D02*
D03*
X044783Y035689D02*
D03*
X04389Y035927D02*
D03*
X045148Y03253D02*
D03*
X044026Y035413D02*
D03*
X042756Y03252D02*
D03*
X041201Y03251D02*
D03*
X04378Y031368D02*
D03*
X043612Y031752D02*
D03*
X040848Y035257D02*
D03*
X04264Y035415D02*
D03*
X040768Y021929D02*
D03*
X040423Y034872D02*
D03*
X037904Y035807D02*
D03*
X039035Y036191D02*
D03*
X008366Y027188D02*
D03*
X022933Y033278D02*
D03*
X033228Y028858D02*
D03*
X030401Y019774D02*
D03*
X026644Y019282D02*
D03*
X040423Y025683D02*
D03*
X041437Y018297D02*
D03*
X038809Y025837D02*
D03*
X038307Y026683D02*
D03*
X038622Y025197D02*
D03*
X03378Y029843D02*
D03*
X03811Y025433D02*
D03*
X040591Y018858D02*
D03*
X040242Y017858D02*
D03*
X040177Y016841D02*
D03*
X044429Y020482D02*
D03*
X044656Y019774D02*
D03*
X044882Y019006D02*
D03*
X045669Y017441D02*
D03*
X045197Y01812D02*
D03*
X031476Y0169D02*
D03*
X030581Y012579D02*
D03*
X030932Y015384D02*
D03*
X031388Y01313D02*
D03*
X031506Y015354D02*
D03*
X021398Y014646D02*
D03*
X025108Y013661D02*
D03*
X0219Y014606D02*
D03*
X023525Y011733D02*
D03*
X024209Y012126D02*
D03*
X031407Y019656D02*
D03*
X031909Y019695D02*
D03*
X032782Y019685D02*
D03*
X010974Y019291D02*
D03*
X001457Y010591D02*
D03*
X036378Y026752D02*
D03*
X032717Y027205D02*
D03*
X034259Y023213D02*
D03*
X03275Y022333D02*
D03*
X033418Y026801D02*
D03*
X033504Y025285D02*
D03*
X033671Y017608D02*
D03*
X034136Y016004D02*
D03*
X037943Y020955D02*
D03*
X037972Y025683D02*
D03*
X039213Y025965D02*
D03*
X04001Y02627D02*
D03*
X037264Y026535D02*
D03*
X034352Y024883D02*
D03*
X033865Y026273D02*
D03*
X032782Y026457D02*
D03*
X035226Y025089D02*
D03*
X034488Y028435D02*
D03*
X032411Y032904D02*
D03*
X03312Y033031D02*
D03*
X032785Y032047D02*
D03*
X0331Y030177D02*
D03*
X031604Y027018D02*
D03*
X037963Y027766D02*
D03*
X038484Y03002D02*
D03*
X037854Y033031D02*
D03*
X028937Y026024D02*
D03*
X028092Y025011D02*
D03*
X03125Y022441D02*
D03*
X037638Y007083D02*
D03*
X026299Y021614D02*
D03*
X006929Y013543D02*
D03*
X005276Y035939D02*
D03*
X002362Y035945D02*
D03*
X001496Y036043D02*
D03*
X003228Y036024D02*
D03*
X004016Y036043D02*
D03*
X028031Y026654D02*
D03*
X040787Y009882D02*
D03*
X045984Y027008D02*
D03*
X029134Y022868D02*
D03*
X007362Y022835D02*
D03*
X016339Y014734D02*
D03*
X018819Y013071D02*
D03*
D115*
X000689Y007562D02*
D03*
X002461D02*
D03*
D116*
X001575Y005157D02*
D03*
D120*
X025622Y026185D02*
D03*
Y025685D02*
D03*
Y025185D02*
D03*
Y024685D02*
D03*
Y024185D02*
D03*
Y023685D02*
D03*
Y023185D02*
D03*
X023572D02*
D03*
Y023685D02*
D03*
Y024185D02*
D03*
Y024685D02*
D03*
Y025185D02*
D03*
Y025685D02*
D03*
Y026185D02*
D03*
D123*
X002697Y009606D02*
D03*
X000768D02*
D03*
D124*
X004632Y009764D02*
D03*
Y010669D02*
D03*
Y011575D02*
D03*
X004646Y012638D02*
D03*
Y013543D02*
D03*
Y014449D02*
D03*
X004685Y019213D02*
D03*
Y020118D02*
D03*
Y021024D02*
D03*
X004567Y01622D02*
D03*
Y017126D02*
D03*
Y018032D02*
D03*
D125*
X006916Y010669D02*
D03*
X006929Y013543D02*
D03*
X006969Y020118D02*
D03*
X00685Y017126D02*
D03*
D126*
X000394Y02937D02*
D03*
X000787D02*
D03*
X001181D02*
D03*
X001575D02*
D03*
X001969D02*
D03*
X002362D02*
D03*
X002756D02*
D03*
X00315D02*
D03*
X003543D02*
D03*
X003937D02*
D03*
X004331D02*
D03*
X004724D02*
D03*
X005118D02*
D03*
X005512D02*
D03*
X005906D02*
D03*
X006299D02*
D03*
X006693D02*
D03*
Y036969D02*
D03*
X006299D02*
D03*
X005906D02*
D03*
X005512D02*
D03*
X005118D02*
D03*
X004724D02*
D03*
X004331D02*
D03*
X003937D02*
D03*
X003543D02*
D03*
X00315D02*
D03*
X002756D02*
D03*
X002362D02*
D03*
X001969D02*
D03*
X001575D02*
D03*
X001181D02*
D03*
X000787D02*
D03*
X000394D02*
D03*
D127*
X036693Y028995D02*
D03*
X036318Y028289D02*
D03*
X037068D02*
D03*
D128*
X039567Y016858D02*
D03*
Y017858D02*
D03*
Y018858D02*
D03*
Y019858D02*
D03*
Y020858D02*
D03*
M02*
