G04*
G04 #@! TF.GenerationSoftware,Altium Limited,Altium Designer,18.1.6 (161)*
G04*
G04 Layer_Color=8421504*
%FSTAX24Y24*%
%MOIN*%
G70*
G01*
G75*
%ADD23R,0.0150X0.0150*%
%ADD24R,0.0750X0.0590*%
%ADD25R,0.0530X0.0160*%
%ADD26R,0.0550X0.0500*%
%ADD27R,0.0870X0.0500*%
%ADD28R,0.0080X0.0340*%
%ADD29R,0.0340X0.0080*%
%ADD30R,0.0500X0.0550*%
%ADD31O,0.0400X0.0600*%
%ADD32O,0.0600X0.0400*%
%ADD33R,0.0472X0.0433*%
%ADD34R,0.0787X0.0787*%
%ADD35R,0.0787X0.0512*%
%ADD36R,0.0600X0.0210*%
%ADD37R,0.0520X0.0220*%
%ADD38R,0.0210X0.0710*%
%ADD39R,0.0500X0.0870*%
%ADD40R,0.0591X0.0787*%
%ADD41R,0.0070X0.0460*%
%ADD42R,0.0460X0.0070*%
%ADD43R,0.0433X0.0472*%
%ADD44R,0.0394X0.0394*%
%ADD45R,0.0600X0.0394*%
G36*
X046645Y036863D02*
X045895D01*
Y037323D01*
X046645D01*
Y036863D01*
D02*
G37*
G36*
X043022Y036654D02*
X042441D01*
Y037235D01*
X043022D01*
Y036654D01*
D02*
G37*
G36*
X042362D02*
X041781D01*
Y037235D01*
X042362D01*
Y036654D01*
D02*
G37*
G36*
X043022Y035994D02*
X042441D01*
Y036575D01*
X043022D01*
Y035994D01*
D02*
G37*
G36*
X042362D02*
X041781D01*
Y036575D01*
X042362D01*
Y035994D01*
D02*
G37*
G36*
X046645Y034567D02*
X045895D01*
Y035027D01*
X046645D01*
Y034567D01*
D02*
G37*
D23*
X027559Y002717D02*
D03*
D24*
X04627Y036339D02*
D03*
Y035551D02*
D03*
D25*
X045217Y036457D02*
D03*
Y036201D02*
D03*
Y035945D02*
D03*
Y035689D02*
D03*
Y035433D02*
D03*
D26*
X001457Y03347D02*
D03*
Y03437D02*
D03*
X002362Y03347D02*
D03*
Y03437D02*
D03*
X003189Y033509D02*
D03*
Y034409D02*
D03*
X004055Y033504D02*
D03*
Y034404D02*
D03*
X044508Y037535D02*
D03*
Y038435D02*
D03*
X040472Y036063D02*
D03*
Y036963D02*
D03*
X033228Y027958D02*
D03*
Y028858D02*
D03*
X019724Y012008D02*
D03*
Y012908D02*
D03*
X028386Y024955D02*
D03*
Y024055D02*
D03*
X005276Y035939D02*
D03*
Y035039D02*
D03*
X004055Y03162D02*
D03*
Y03252D02*
D03*
X001299Y031698D02*
D03*
Y032598D02*
D03*
X004134Y029887D02*
D03*
Y030787D02*
D03*
X001299Y030866D02*
D03*
Y029966D02*
D03*
X046378Y003813D02*
D03*
Y002913D02*
D03*
X037667Y005374D02*
D03*
Y004474D02*
D03*
X037657Y003888D02*
D03*
Y002988D02*
D03*
D27*
X037913Y037126D02*
D03*
Y035826D02*
D03*
D28*
X042992Y035719D02*
D03*
X042795D02*
D03*
X042598D02*
D03*
X042402D02*
D03*
X042205D02*
D03*
X042008D02*
D03*
X041811D02*
D03*
Y037509D02*
D03*
X042008D02*
D03*
X042205D02*
D03*
X042402D02*
D03*
X042598D02*
D03*
X042795D02*
D03*
X042992D02*
D03*
D29*
X041507Y036024D02*
D03*
Y03622D02*
D03*
Y036417D02*
D03*
Y036614D02*
D03*
Y036811D02*
D03*
Y037008D02*
D03*
Y037205D02*
D03*
X043297D02*
D03*
Y037008D02*
D03*
Y036811D02*
D03*
Y036614D02*
D03*
Y036417D02*
D03*
Y03622D02*
D03*
Y036024D02*
D03*
D30*
X04252Y034567D02*
D03*
X04162D02*
D03*
X042795Y038386D02*
D03*
X043695D02*
D03*
X046205Y038425D02*
D03*
X045305D02*
D03*
X042087Y038386D02*
D03*
X041187D02*
D03*
X020906Y029409D02*
D03*
X020006D02*
D03*
X007958Y019921D02*
D03*
X008859D02*
D03*
X005984Y019803D02*
D03*
X006884D02*
D03*
X00685Y021969D02*
D03*
X00595D02*
D03*
X013892Y015472D02*
D03*
X012992D02*
D03*
X015551Y015462D02*
D03*
X014651D02*
D03*
X017362Y015433D02*
D03*
X016462D02*
D03*
X02225Y012126D02*
D03*
X02315D02*
D03*
X020596D02*
D03*
X021496D02*
D03*
X034498Y027333D02*
D03*
X033598D02*
D03*
X045585Y00378D02*
D03*
X044685D02*
D03*
X041063Y003858D02*
D03*
X040163D02*
D03*
D31*
X045984Y027008D02*
D03*
X045197D02*
D03*
X044409D02*
D03*
X043622D02*
D03*
X042835D02*
D03*
X042047D02*
D03*
X04126D02*
D03*
X040472D02*
D03*
Y033307D02*
D03*
X04126D02*
D03*
X042047D02*
D03*
X042835D02*
D03*
X043622D02*
D03*
X044409D02*
D03*
X045197D02*
D03*
X045984D02*
D03*
D32*
X039748Y028189D02*
D03*
Y028976D02*
D03*
Y029764D02*
D03*
Y030551D02*
D03*
Y031339D02*
D03*
Y032126D02*
D03*
D33*
X040472Y037697D02*
D03*
Y038524D02*
D03*
X033556Y025394D02*
D03*
Y024567D02*
D03*
X001496Y035217D02*
D03*
Y036043D02*
D03*
X002362Y035197D02*
D03*
Y036024D02*
D03*
X003228Y035197D02*
D03*
Y036024D02*
D03*
X004016Y035177D02*
D03*
Y036004D02*
D03*
D34*
X03937Y035394D02*
D03*
Y036969D02*
D03*
D35*
X04311Y016811D02*
D03*
Y020748D02*
D03*
Y019961D02*
D03*
Y019173D02*
D03*
Y017598D02*
D03*
Y018386D02*
D03*
D36*
X005752Y02124D02*
D03*
Y020492D02*
D03*
X006847Y02124D02*
D03*
Y020866D02*
D03*
Y020492D02*
D03*
D37*
X008053Y021477D02*
D03*
Y020727D02*
D03*
X008759Y021102D02*
D03*
D38*
X033785Y018415D02*
D03*
X033285D02*
D03*
X032785D02*
D03*
X032285D02*
D03*
X031785D02*
D03*
X031285D02*
D03*
X030785D02*
D03*
X030285D02*
D03*
X029785D02*
D03*
X029285D02*
D03*
Y014655D02*
D03*
X029785D02*
D03*
X030285D02*
D03*
X030785D02*
D03*
X031285D02*
D03*
X031785D02*
D03*
X032285D02*
D03*
X032785D02*
D03*
X033285D02*
D03*
X033785D02*
D03*
D39*
X01817Y01252D02*
D03*
X01687D02*
D03*
X01935Y015236D02*
D03*
X02065D02*
D03*
D40*
X027323Y02563D02*
D03*
Y023504D02*
D03*
X035285Y025827D02*
D03*
Y023701D02*
D03*
X005472Y030236D02*
D03*
Y032362D02*
D03*
X002559Y030236D02*
D03*
Y032362D02*
D03*
X037677Y008307D02*
D03*
Y006181D02*
D03*
D41*
X032224Y023045D02*
D03*
X032028D02*
D03*
X031831D02*
D03*
X031634D02*
D03*
X031437D02*
D03*
X03124D02*
D03*
X031043D02*
D03*
X030846D02*
D03*
X03065D02*
D03*
X030453D02*
D03*
X030256D02*
D03*
X030059D02*
D03*
Y026325D02*
D03*
X030256D02*
D03*
X030453D02*
D03*
X03065D02*
D03*
X030846D02*
D03*
X031043D02*
D03*
X03124D02*
D03*
X031437D02*
D03*
X031634D02*
D03*
X031831D02*
D03*
X032028D02*
D03*
X032224D02*
D03*
D42*
X029502Y023602D02*
D03*
Y023799D02*
D03*
Y023996D02*
D03*
Y024193D02*
D03*
Y02439D02*
D03*
Y024587D02*
D03*
Y024783D02*
D03*
Y02498D02*
D03*
Y025177D02*
D03*
Y025374D02*
D03*
Y025571D02*
D03*
Y025768D02*
D03*
X032782D02*
D03*
Y025571D02*
D03*
Y025374D02*
D03*
Y025177D02*
D03*
Y02498D02*
D03*
Y024783D02*
D03*
Y024587D02*
D03*
Y02439D02*
D03*
Y024193D02*
D03*
Y023996D02*
D03*
Y023799D02*
D03*
Y023602D02*
D03*
D43*
X008691Y031486D02*
D03*
X009518D02*
D03*
X008691Y030778D02*
D03*
X009518D02*
D03*
X043917Y00378D02*
D03*
X043091D02*
D03*
X045551Y002953D02*
D03*
X044724D02*
D03*
X042894D02*
D03*
X04372D02*
D03*
D44*
X046693Y004764D02*
D03*
X046102D02*
D03*
X045512D02*
D03*
X044921D02*
D03*
X044331D02*
D03*
X04374D02*
D03*
X04315D02*
D03*
X042559D02*
D03*
X041968D02*
D03*
X041378D02*
D03*
X040787D02*
D03*
X040197D02*
D03*
X039606D02*
D03*
Y009882D02*
D03*
X040197D02*
D03*
X040787D02*
D03*
X041378D02*
D03*
X041968D02*
D03*
X042559D02*
D03*
X04315D02*
D03*
X04374D02*
D03*
X044331D02*
D03*
X044921D02*
D03*
X045512D02*
D03*
X046102D02*
D03*
X046693D02*
D03*
D45*
X038917Y005256D02*
D03*
Y005846D02*
D03*
Y006437D02*
D03*
Y007028D02*
D03*
Y007618D02*
D03*
Y008209D02*
D03*
Y008799D02*
D03*
Y00939D02*
D03*
M02*
