G04*
G04 #@! TF.GenerationSoftware,Altium Limited,Altium Designer,18.1.6 (161)*
G04*
G04 Layer_Color=8388736*
%FSTAX24Y24*%
%MOIN*%
G70*
G01*
G75*
%ADD28R,0.0080X0.0340*%
%ADD29R,0.0340X0.0080*%
%ADD38R,0.0210X0.0710*%
%ADD41R,0.0070X0.0460*%
%ADD42R,0.0460X0.0070*%
%ADD46R,0.0230X0.0230*%
%ADD47R,0.0830X0.0670*%
%ADD48R,0.0610X0.0240*%
%ADD49R,0.0630X0.0580*%
%ADD50R,0.0950X0.0580*%
%ADD51R,0.1000X0.1000*%
%ADD52R,0.0580X0.0630*%
%ADD53O,0.0480X0.0680*%
%ADD54O,0.0680X0.0480*%
%ADD55R,0.0552X0.0513*%
%ADD56R,0.0867X0.0867*%
%ADD57R,0.0867X0.0592*%
%ADD58R,0.0680X0.0290*%
%ADD59R,0.0600X0.0300*%
%ADD60R,0.0580X0.0950*%
%ADD61R,0.0671X0.0867*%
%ADD62R,0.0513X0.0552*%
%ADD63R,0.0474X0.0474*%
%ADD64R,0.0680X0.0474*%
%ADD65O,0.0750X0.0480*%
%ADD66C,0.0320*%
%ADD67C,0.0650*%
%ADD68O,0.0730X0.0830*%
%ADD69R,0.0730X0.0830*%
%ADD70O,0.0830X0.0730*%
%ADD71R,0.0830X0.0730*%
%ADD72R,0.0880X0.0880*%
%ADD73C,0.0880*%
%ADD74O,0.0940X0.0680*%
%ADD75C,0.0907*%
%ADD76R,0.0907X0.0907*%
%ADD77O,0.0730X0.0980*%
%ADD78R,0.0730X0.0980*%
%ADD79O,0.0730X0.0930*%
%ADD80R,0.0730X0.0930*%
%ADD81O,0.0730X0.0930*%
%ADD82R,0.0730X0.0930*%
%ADD83R,0.0907X0.0907*%
%ADD84C,0.0680*%
%ADD85C,0.0592*%
%ADD86C,0.0848*%
%ADD87R,0.0848X0.0848*%
%ADD88C,0.0257*%
G36*
X046645Y035027D02*
X045895D01*
Y034295D01*
X046645D01*
Y035027D01*
D02*
G37*
G36*
Y036863D02*
X045895D01*
Y037595D01*
X046645D01*
Y036863D01*
D02*
G37*
D28*
X042992Y035719D02*
D03*
X042795D02*
D03*
X042598D02*
D03*
X042402D02*
D03*
X042205D02*
D03*
X042008D02*
D03*
X041811D02*
D03*
Y037509D02*
D03*
X042008D02*
D03*
X042205D02*
D03*
X042402D02*
D03*
X042598D02*
D03*
X042795D02*
D03*
X042992D02*
D03*
D29*
X041507Y036024D02*
D03*
Y03622D02*
D03*
Y036417D02*
D03*
Y036614D02*
D03*
Y036811D02*
D03*
Y037008D02*
D03*
Y037205D02*
D03*
X043297D02*
D03*
Y037008D02*
D03*
Y036811D02*
D03*
Y036614D02*
D03*
Y036417D02*
D03*
Y03622D02*
D03*
Y036024D02*
D03*
D38*
X033785Y018415D02*
D03*
X033285D02*
D03*
X032785D02*
D03*
X032285D02*
D03*
X031785D02*
D03*
X031285D02*
D03*
X030785D02*
D03*
X030285D02*
D03*
X029785D02*
D03*
X029285D02*
D03*
Y014655D02*
D03*
X029785D02*
D03*
X030285D02*
D03*
X030785D02*
D03*
X031285D02*
D03*
X031785D02*
D03*
X032285D02*
D03*
X032785D02*
D03*
X033285D02*
D03*
X033785D02*
D03*
D41*
X032224Y023045D02*
D03*
X032028D02*
D03*
X031831D02*
D03*
X031634D02*
D03*
X031437D02*
D03*
X03124D02*
D03*
X031043D02*
D03*
X030846D02*
D03*
X03065D02*
D03*
X030453D02*
D03*
X030256D02*
D03*
X030059D02*
D03*
Y026325D02*
D03*
X030256D02*
D03*
X030453D02*
D03*
X03065D02*
D03*
X030846D02*
D03*
X031043D02*
D03*
X03124D02*
D03*
X031437D02*
D03*
X031634D02*
D03*
X031831D02*
D03*
X032028D02*
D03*
X032224D02*
D03*
D42*
X029502Y023602D02*
D03*
Y023799D02*
D03*
Y023996D02*
D03*
Y024193D02*
D03*
Y02439D02*
D03*
Y024587D02*
D03*
Y024783D02*
D03*
Y02498D02*
D03*
Y025177D02*
D03*
Y025374D02*
D03*
Y025571D02*
D03*
Y025768D02*
D03*
X032782D02*
D03*
Y025571D02*
D03*
Y025374D02*
D03*
Y025177D02*
D03*
Y02498D02*
D03*
Y024783D02*
D03*
Y024587D02*
D03*
Y02439D02*
D03*
Y024193D02*
D03*
Y023996D02*
D03*
Y023799D02*
D03*
Y023602D02*
D03*
D46*
X027559Y002717D02*
D03*
D47*
X04627Y036339D02*
D03*
Y035551D02*
D03*
D48*
X045217Y036457D02*
D03*
Y036201D02*
D03*
Y035945D02*
D03*
Y035689D02*
D03*
Y035433D02*
D03*
D49*
X001457Y03347D02*
D03*
Y03437D02*
D03*
X002362Y03347D02*
D03*
Y03437D02*
D03*
X003189Y033509D02*
D03*
Y034409D02*
D03*
X004055Y033504D02*
D03*
Y034404D02*
D03*
X044508Y037535D02*
D03*
Y038435D02*
D03*
X040472Y036063D02*
D03*
Y036963D02*
D03*
X033228Y027958D02*
D03*
Y028858D02*
D03*
X019724Y012008D02*
D03*
Y012908D02*
D03*
X028386Y024955D02*
D03*
Y024055D02*
D03*
X005276Y035939D02*
D03*
Y035039D02*
D03*
X004055Y03162D02*
D03*
Y03252D02*
D03*
X001299Y031698D02*
D03*
Y032598D02*
D03*
X004134Y029887D02*
D03*
Y030787D02*
D03*
X001299Y030866D02*
D03*
Y029966D02*
D03*
X046378Y003813D02*
D03*
Y002913D02*
D03*
X037667Y005374D02*
D03*
Y004474D02*
D03*
X037657Y003888D02*
D03*
Y002988D02*
D03*
D50*
X037913Y037126D02*
D03*
Y035826D02*
D03*
D51*
X042402Y036614D02*
D03*
D52*
X04252Y034567D02*
D03*
X04162D02*
D03*
X042795Y038386D02*
D03*
X043695D02*
D03*
X046205Y038425D02*
D03*
X045305D02*
D03*
X042087Y038386D02*
D03*
X041187D02*
D03*
X020906Y029409D02*
D03*
X020006D02*
D03*
X007958Y019921D02*
D03*
X008859D02*
D03*
X005984Y019803D02*
D03*
X006884D02*
D03*
X00685Y021969D02*
D03*
X00595D02*
D03*
X013892Y015472D02*
D03*
X012992D02*
D03*
X015551Y015462D02*
D03*
X014651D02*
D03*
X017362Y015433D02*
D03*
X016462D02*
D03*
X02225Y012126D02*
D03*
X02315D02*
D03*
X020596D02*
D03*
X021496D02*
D03*
X034498Y027333D02*
D03*
X033598D02*
D03*
X045585Y00378D02*
D03*
X044685D02*
D03*
X041063Y003858D02*
D03*
X040163D02*
D03*
D53*
X045984Y027008D02*
D03*
X045197D02*
D03*
X044409D02*
D03*
X043622D02*
D03*
X042835D02*
D03*
X042047D02*
D03*
X04126D02*
D03*
X040472D02*
D03*
Y033307D02*
D03*
X04126D02*
D03*
X042047D02*
D03*
X042835D02*
D03*
X043622D02*
D03*
X044409D02*
D03*
X045197D02*
D03*
X045984D02*
D03*
D54*
X039748Y028189D02*
D03*
Y028976D02*
D03*
Y029764D02*
D03*
Y030551D02*
D03*
Y031339D02*
D03*
Y032126D02*
D03*
D55*
X040472Y037697D02*
D03*
Y038524D02*
D03*
X033556Y025394D02*
D03*
Y024567D02*
D03*
X001496Y035217D02*
D03*
Y036043D02*
D03*
X002362Y035197D02*
D03*
Y036024D02*
D03*
X003228Y035197D02*
D03*
Y036024D02*
D03*
X004016Y035177D02*
D03*
Y036004D02*
D03*
D56*
X03937Y035394D02*
D03*
Y036969D02*
D03*
D57*
X04311Y016811D02*
D03*
Y020748D02*
D03*
Y019961D02*
D03*
Y019173D02*
D03*
Y017598D02*
D03*
Y018386D02*
D03*
D58*
X005752Y02124D02*
D03*
Y020492D02*
D03*
X006847Y02124D02*
D03*
Y020866D02*
D03*
Y020492D02*
D03*
D59*
X008053Y021477D02*
D03*
Y020727D02*
D03*
X008759Y021102D02*
D03*
D60*
X01817Y01252D02*
D03*
X01687D02*
D03*
X01935Y015236D02*
D03*
X02065D02*
D03*
D61*
X027323Y02563D02*
D03*
Y023504D02*
D03*
X035285Y025827D02*
D03*
Y023701D02*
D03*
X005472Y030236D02*
D03*
Y032362D02*
D03*
X002559Y030236D02*
D03*
Y032362D02*
D03*
X037677Y008307D02*
D03*
Y006181D02*
D03*
D62*
X008691Y031486D02*
D03*
X009518D02*
D03*
X008691Y030778D02*
D03*
X009518D02*
D03*
X043917Y00378D02*
D03*
X043091D02*
D03*
X045551Y002953D02*
D03*
X044724D02*
D03*
X042894D02*
D03*
X04372D02*
D03*
D63*
X046693Y004764D02*
D03*
X046102D02*
D03*
X045512D02*
D03*
X044921D02*
D03*
X044331D02*
D03*
X04374D02*
D03*
X04315D02*
D03*
X042559D02*
D03*
X041968D02*
D03*
X041378D02*
D03*
X040787D02*
D03*
X040197D02*
D03*
X039606D02*
D03*
Y009882D02*
D03*
X040197D02*
D03*
X040787D02*
D03*
X041378D02*
D03*
X041968D02*
D03*
X042559D02*
D03*
X04315D02*
D03*
X04374D02*
D03*
X044331D02*
D03*
X044921D02*
D03*
X045512D02*
D03*
X046102D02*
D03*
X046693D02*
D03*
D64*
X038917Y005256D02*
D03*
Y005846D02*
D03*
Y006437D02*
D03*
Y007028D02*
D03*
Y007618D02*
D03*
Y008209D02*
D03*
Y008799D02*
D03*
Y00939D02*
D03*
D65*
X04627Y037323D02*
D03*
Y034567D02*
D03*
D66*
X046405Y037323D02*
D03*
X046135D02*
D03*
X046405Y034567D02*
D03*
X046135D02*
D03*
D67*
X045207Y036929D02*
D03*
Y034961D02*
D03*
D68*
X032309Y028071D02*
D03*
X031329D02*
D03*
X031299Y029331D02*
D03*
X030319D02*
D03*
X028508Y021614D02*
D03*
X029488D02*
D03*
X001693Y026535D02*
D03*
X00553Y038406D02*
D03*
X00452D02*
D03*
X00354D02*
D03*
X00253D02*
D03*
X006978Y027913D02*
D03*
X007958D02*
D03*
X007844Y038366D02*
D03*
X002774Y026535D02*
D03*
X003784D02*
D03*
X004764D02*
D03*
X005774D02*
D03*
X040644Y002717D02*
D03*
X039664D02*
D03*
D69*
X030319Y028071D02*
D03*
X032309Y029331D02*
D03*
X027498Y021614D02*
D03*
X000683Y026535D02*
D03*
X005968Y027913D02*
D03*
X006834Y038366D02*
D03*
X041654Y002717D02*
D03*
D70*
X007958Y017848D02*
D03*
X037392Y022533D02*
D03*
X037077Y0246D02*
D03*
X008268Y01252D02*
D03*
X009685Y012559D02*
D03*
X009606Y014734D02*
D03*
Y015714D02*
D03*
X012992Y009051D02*
D03*
Y008071D02*
D03*
X014331Y009051D02*
D03*
Y008071D02*
D03*
X010354Y009094D02*
D03*
Y008114D02*
D03*
X011693Y009045D02*
D03*
Y008065D02*
D03*
X024685Y009084D02*
D03*
Y008104D02*
D03*
X023307Y009094D02*
D03*
Y008114D02*
D03*
X027283Y009108D02*
D03*
Y008128D02*
D03*
X025984Y009094D02*
D03*
Y008114D02*
D03*
X039724Y011943D02*
D03*
Y010963D02*
D03*
D71*
X007958Y018858D02*
D03*
X037392Y023543D02*
D03*
X037077Y02561D02*
D03*
X008268Y01151D02*
D03*
X009685Y011549D02*
D03*
X009606Y013724D02*
D03*
X012992Y010061D02*
D03*
X014331D02*
D03*
X010354Y010104D02*
D03*
X011693Y010055D02*
D03*
X024685Y010094D02*
D03*
X023307Y010104D02*
D03*
X027283Y010118D02*
D03*
X025984Y010104D02*
D03*
X039724Y012953D02*
D03*
D72*
X037581Y030089D02*
D03*
D73*
X034793D02*
D03*
D74*
X036276Y019961D02*
D03*
X037244D02*
D03*
X036276Y018992D02*
D03*
X037244D02*
D03*
X036276Y018024D02*
D03*
X037244D02*
D03*
X036276Y017055D02*
D03*
X037244D02*
D03*
D75*
X023514Y036165D02*
D03*
X025014D02*
D03*
X026514D02*
D03*
X016648D02*
D03*
X018148D02*
D03*
X019648D02*
D03*
X003258Y012833D02*
D03*
X003255Y016415D02*
D03*
X02162Y00373D02*
D03*
X02012D02*
D03*
X01862D02*
D03*
X014878D02*
D03*
X013378D02*
D03*
X011878D02*
D03*
D76*
X028014Y036165D02*
D03*
X021148D02*
D03*
X01712Y00373D02*
D03*
X010378D02*
D03*
D77*
X028764Y028071D02*
D03*
X027764D02*
D03*
X025764D02*
D03*
X023764D02*
D03*
X020764D02*
D03*
X021764D02*
D03*
X022764D02*
D03*
X024764D02*
D03*
X026764D02*
D03*
X004756Y027874D02*
D03*
X001756D02*
D03*
X002756D02*
D03*
X003756D02*
D03*
D78*
X019764Y028071D02*
D03*
X000756Y027874D02*
D03*
D79*
X042512Y014685D02*
D03*
X045512D02*
D03*
X044512D02*
D03*
X043512D02*
D03*
X041512D02*
D03*
D80*
X046512D02*
D03*
D81*
X04411Y024232D02*
D03*
X04311D02*
D03*
X04211D02*
D03*
X04111D02*
D03*
X04011D02*
D03*
X046154Y011063D02*
D03*
X045165D02*
D03*
X044177D02*
D03*
X043189D02*
D03*
X042201D02*
D03*
D82*
X03911Y024232D02*
D03*
X041213Y011063D02*
D03*
D83*
X003258Y014333D02*
D03*
X003255Y017915D02*
D03*
D84*
X011118Y01626D02*
D03*
Y01126D02*
D03*
X012118D02*
D03*
X013118D02*
D03*
X014118D02*
D03*
X015118D02*
D03*
X016118D02*
D03*
X017118D02*
D03*
X018118D02*
D03*
Y01626D02*
D03*
X017118D02*
D03*
X016118D02*
D03*
X015118D02*
D03*
X014118D02*
D03*
X013118D02*
D03*
X012118D02*
D03*
X026228Y011299D02*
D03*
Y016299D02*
D03*
X025228D02*
D03*
X024228D02*
D03*
X023228D02*
D03*
X022228D02*
D03*
X021228D02*
D03*
X020228D02*
D03*
X019228D02*
D03*
Y011299D02*
D03*
X020228D02*
D03*
X021228D02*
D03*
X022228D02*
D03*
X023228D02*
D03*
X024228D02*
D03*
X025228D02*
D03*
D85*
X01589Y010083D02*
D03*
X01689D02*
D03*
X01789D02*
D03*
Y007083D02*
D03*
X01689D02*
D03*
X01589D02*
D03*
X01963Y010083D02*
D03*
X02063D02*
D03*
X02163D02*
D03*
Y007083D02*
D03*
X02063D02*
D03*
X01963D02*
D03*
D86*
X002062Y022402D02*
D03*
Y02437D02*
D03*
D87*
Y020433D02*
D03*
D88*
X034834Y022619D02*
D03*
X034843Y022352D02*
D03*
X034578Y022176D02*
D03*
X036222Y023269D02*
D03*
X002323Y011339D02*
D03*
X039553Y019872D02*
D03*
X038459Y018785D02*
D03*
X018986Y02811D02*
D03*
X032244Y024813D02*
D03*
X034803Y019409D02*
D03*
X039783Y020374D02*
D03*
X032583Y017057D02*
D03*
X032293Y03064D02*
D03*
X030846Y026707D02*
D03*
X004724Y02189D02*
D03*
X00748Y002362D02*
D03*
X007274Y026801D02*
D03*
X013258Y026654D02*
D03*
X012381Y028521D02*
D03*
X013118Y028071D02*
D03*
X013246Y027611D02*
D03*
X017717Y025984D02*
D03*
X023622Y005906D02*
D03*
X035433Y035433D02*
D03*
X011811D02*
D03*
X000827Y03627D02*
D03*
X000571Y033907D02*
D03*
X033421Y023238D02*
D03*
X033809Y023967D02*
D03*
X005984Y02498D02*
D03*
X042158Y035218D02*
D03*
X042938Y034714D02*
D03*
X043181Y034834D02*
D03*
X005959Y02581D02*
D03*
X005551Y012638D02*
D03*
X004596Y016693D02*
D03*
X00501Y019745D02*
D03*
X008297Y021929D02*
D03*
X027303Y023514D02*
D03*
X029124Y02373D02*
D03*
X030276Y025994D02*
D03*
X044252Y034291D02*
D03*
X042894Y034104D02*
D03*
X042057Y034557D02*
D03*
X045209Y036458D02*
D03*
X043681Y036358D02*
D03*
X043691Y038386D02*
D03*
X042087D02*
D03*
X031654Y025404D02*
D03*
X032028Y025561D02*
D03*
X036429Y027856D02*
D03*
X035925Y027736D02*
D03*
X034183Y024154D02*
D03*
X035108Y024183D02*
D03*
X03185Y022333D02*
D03*
X026722Y022362D02*
D03*
X03314Y022795D02*
D03*
X04312Y020709D02*
D03*
X036378Y021181D02*
D03*
X040876Y019646D02*
D03*
X001516Y028563D02*
D03*
X008711Y030778D02*
D03*
X008695Y031476D02*
D03*
X012037Y014439D02*
D03*
X017953Y015187D02*
D03*
X01817Y014193D02*
D03*
X031624Y024331D02*
D03*
X032215Y023996D02*
D03*
X031557Y023583D02*
D03*
X02819Y023712D02*
D03*
X029656Y027049D02*
D03*
X030284Y025049D02*
D03*
X030896Y021614D02*
D03*
X023327Y02188D02*
D03*
X026496Y022028D02*
D03*
X022756Y033041D02*
D03*
X013337Y029075D02*
D03*
X026378Y025034D02*
D03*
X03047Y025783D02*
D03*
X027362Y025817D02*
D03*
X038524Y012293D02*
D03*
X03873Y013199D02*
D03*
X036998Y015915D02*
D03*
X038543Y017913D02*
D03*
X034911Y021024D02*
D03*
X033496Y022127D02*
D03*
X036038Y023691D02*
D03*
X037709Y020818D02*
D03*
X040787Y004764D02*
D03*
X041063Y003868D02*
D03*
X009833Y01875D02*
D03*
X046585Y033366D02*
D03*
X04002Y034065D02*
D03*
X037431Y034262D02*
D03*
X040138Y035522D02*
D03*
X041949Y029656D02*
D03*
X041476Y028661D02*
D03*
X043839Y027894D02*
D03*
X041919Y027874D02*
D03*
X039075Y034695D02*
D03*
X044815Y035947D02*
D03*
X044035Y035699D02*
D03*
X044783Y035689D02*
D03*
X04389Y035927D02*
D03*
X045148Y03253D02*
D03*
X044026Y035413D02*
D03*
X042756Y03252D02*
D03*
X041201Y03251D02*
D03*
X04378Y031368D02*
D03*
X043612Y031752D02*
D03*
X040848Y035257D02*
D03*
X04264Y035415D02*
D03*
X040768Y021929D02*
D03*
X040423Y034872D02*
D03*
X037904Y035807D02*
D03*
X039035Y036191D02*
D03*
X008366Y027188D02*
D03*
X022933Y033278D02*
D03*
X033228Y028858D02*
D03*
X030401Y019774D02*
D03*
X026644Y019282D02*
D03*
X040423Y025683D02*
D03*
X041437Y018297D02*
D03*
X038809Y025837D02*
D03*
X038307Y026683D02*
D03*
X038622Y025197D02*
D03*
X03378Y029843D02*
D03*
X03811Y025433D02*
D03*
X040591Y018858D02*
D03*
X040242Y017858D02*
D03*
X040177Y016841D02*
D03*
X044429Y020482D02*
D03*
X044656Y019774D02*
D03*
X044882Y019006D02*
D03*
X045669Y017441D02*
D03*
X045197Y01812D02*
D03*
X031476Y0169D02*
D03*
X030581Y012579D02*
D03*
X030932Y015384D02*
D03*
X031388Y01313D02*
D03*
X031506Y015354D02*
D03*
X021398Y014646D02*
D03*
X025108Y013661D02*
D03*
X0219Y014606D02*
D03*
X023525Y011733D02*
D03*
X024209Y012126D02*
D03*
X031407Y019656D02*
D03*
X031909Y019695D02*
D03*
X032782Y019685D02*
D03*
X010974Y019291D02*
D03*
X001457Y010591D02*
D03*
X036378Y026752D02*
D03*
X032717Y027205D02*
D03*
X034259Y023213D02*
D03*
X03275Y022333D02*
D03*
X033418Y026801D02*
D03*
X033504Y025285D02*
D03*
X033671Y017608D02*
D03*
X034136Y016004D02*
D03*
X037943Y020955D02*
D03*
X037972Y025683D02*
D03*
X039213Y025965D02*
D03*
X04001Y02627D02*
D03*
X037264Y026535D02*
D03*
X034352Y024883D02*
D03*
X033865Y026273D02*
D03*
X032782Y026457D02*
D03*
X035226Y025089D02*
D03*
X034488Y028435D02*
D03*
X032411Y032904D02*
D03*
X03312Y033031D02*
D03*
X032785Y032047D02*
D03*
X0331Y030177D02*
D03*
X031604Y027018D02*
D03*
X037963Y027766D02*
D03*
X038484Y03002D02*
D03*
X037854Y033031D02*
D03*
X028937Y026024D02*
D03*
X028092Y025011D02*
D03*
X03125Y022441D02*
D03*
X037638Y007083D02*
D03*
X026299Y021614D02*
D03*
X006929Y013543D02*
D03*
X005276Y035939D02*
D03*
X002362Y035945D02*
D03*
X001496Y036043D02*
D03*
X003228Y036024D02*
D03*
X004016Y036043D02*
D03*
X028031Y026654D02*
D03*
X040787Y009882D02*
D03*
X045984Y027008D02*
D03*
X029134Y022868D02*
D03*
X007362Y022835D02*
D03*
X016339Y014734D02*
D03*
X018819Y013071D02*
D03*
M02*
