M48
;Layer_Color=9474304
;FILE_FORMAT=2:4
INCH,LZ
;TYPE=PLATED
T1F00S00C0.0118
T2F00S00C0.0240
T3F00S00C0.0315
T4F00S00C0.0330
T5F00S00C0.0360
T6F00S00C0.0420
T7F00S00C0.0433
T8F00S00C0.0512
T9F00S00C0.0551
%
T01
X00748Y002362
X006929Y013543
X005551Y012638
X002323Y011339
X001457Y010591
X012037Y014439
X016339Y014734
X017953Y015187
X01817Y014193
X018819Y013071
X021398Y014646
X0219Y014606
X025108Y013661
X024209Y012126
X023525Y011733
X023622Y005906
X030581Y012579
X030932Y015384
X031506Y015354
X031388Y01313
X03873Y013199
X038524Y012293
X040787Y009882
X040787Y004764
X041063Y003868
X037638Y007083
X036998Y015915
X034136Y016004
X033671Y017608
X032583Y017057
X031476Y0169
X031407Y019656
X031909Y019695
X032782Y019685
X034803Y019409
X034911Y021024
X034843Y022352
X034834Y022619
X034578Y022176
X033496Y022127
X03275Y022333
X03314Y022795
X033421Y023238
X034259Y023213
X034183Y024154
X033809Y023967
X034352Y024883
X035226Y025089
X035108Y024183
X036038Y023691
X036222Y023269
X036378Y021181
X037709Y020818
X037943Y020955
X039783Y020374
X039553Y019872
X040876Y019646
X040591Y018858
X040242Y017858
X040177Y016841
X038543Y017913
X038459Y018785
X041437Y018297
X045197Y01812
X045669Y017441
X044882Y019006
X044656Y019774
X044429Y020482
X04312Y020709
X040768Y021929
X040423Y025683
X04001Y02627
X039213Y025965
X038809Y025837
X038622Y025197
X03811Y025433
X037972Y025683
X038307Y026683
X037264Y026535
X036378Y026752
X036429Y027856
X035925Y027736
X037963Y027766
X038484Y03002
X041949Y029656
X041476Y028661
X041919Y027874
X043839Y027894
X045984Y027008
X033418Y026801
X033865Y026273
X032782Y026457
X032717Y027205
X031604Y027018
X031654Y025404
X032028Y025561
X032244Y024813
X032215Y023996
X031624Y024331
X031557Y023583
X03125Y022441
X03185Y022333
X033504Y025285
X033228Y028858
X0331Y030177
X03378Y029843
X034488Y028435
X032293Y03064
X030846Y026707
X030276Y025994
X03047Y025783
X030284Y025049
X028092Y025011
X02819Y023712
X029124Y02373
X029134Y022868
X027303Y023514
X026722Y022362
X026496Y022028
X026299Y021614
X026644Y019282
X030401Y019774
X030896Y021614
X028937Y026024
X028031Y026654
X027362Y025817
X026378Y025034
X029656Y027049
X023327Y02188
X017717Y025984
X018986Y02811
X013118Y028071
X013246Y027611
X013258Y026654
X013337Y029075
X012381Y028521
X008366Y027188
X007274Y026801
X005959Y02581
X005984Y02498
X007362Y022835
X008297Y021929
X004724Y02189
X00501Y019745
X004596Y016693
X009833Y01875
X010974Y019291
X008711Y030778
X001516Y028563
X000571Y033907
X000827Y03627
X001496Y036043
X002362Y035945
X003228Y036024
X004016Y036043
X005276Y035939
X011811Y035433
X008695Y031476
X022756Y033041
X022933Y033278
X032411Y032904
X03312Y033031
X032785Y032047
X035433Y035433
X037904Y035807
X039035Y036191
X039075Y034695
X040423Y034872
X040848Y035257
X040138Y035522
X04002Y034065
X042057Y034557
X042158Y035218
X04264Y035415
X042938Y034714
X043181Y034834
X042894Y034104
X044252Y034291
X044026Y035413
X044035Y035699
X04389Y035927
X043681Y036358
X044815Y035947
X044783Y035689
X045209Y036458
X043691Y038386
X042087
X042756Y03252
X041201Y03251
X043612Y031752
X04378Y031368
X045148Y03253
X046585Y033366
X037854Y033031
X037431Y034262
T02
X046135Y034567
X046405
Y037323
X046135
T03
X01589Y007083
X01689
X01789
X01963
X02063
X02163
Y010083
X02063
X01963
X01789
X01689
X01589
T04
X045207Y034961
Y036929
T05
X010354Y008114
Y009094
Y010104
X011693Y010055
Y009045
Y008065
X012992Y008071
Y009051
Y010061
X014331
Y009051
Y008071
X009685Y011549
Y012559
X009606Y013724
Y014734
X008268Y01252
Y01151
X023307Y010104
Y009094
Y008114
X024685Y008104
Y009084
Y010094
X025984Y010104
Y009094
Y008114
X027283Y008128
Y009108
Y010118
X039724Y010963
Y011943
Y012953
X041213Y011063
X042201
X043189
X044177
X045165
X046154
X046512Y014685
X045512
X044512
X043512
X042512
X041512
X041654Y002717
X040644
X039664
X037244Y017055
Y018024
Y018992
Y019961
X036276
Y018992
Y018024
Y017055
X037392Y022533
Y023543
X037077Y0246
Y02561
X03911Y024232
X04011
X04111
X04211
X04311
X04411
X037581Y030089
X034793
X032309Y029331
X031299
X031329Y028071
X032309
X030319
X030319Y029331
X029488Y021614
X028508
X027498
X007958Y018858
Y017848
X009606Y015714
X007958Y027913
X006978
X005968
X004756Y027874
X003756
X002756
X001756
X000756
X000683Y026535
X001693
X002774
X003784
X004764
X005774
X00553Y038406
X00452
X00354
X00253
X006834Y038366
X007844
T06
X019764Y028071
X020764
X021764
X022764
X023764
X024764
X025764
X026764
X027764
X028764
T07
X011118Y01126
X012118
X013118
X014118
X015118
X016118
X017118
X018118
X019228Y011299
X020228
X021228
X022228
X023228
X024228
X025228
X026228
Y016299
X025228
X024228
X023228
X022228
X021228
X020228
X019228
X018118Y01626
X017118
X016118
X015118
X014118
X013118
X012118
X011118
T08
X002062Y020433
Y022402
Y02437
T09
X010378Y00373
X011878
X013378
X014878
X003258Y012833
Y014333
X01712Y00373
X01862
X02012
X02162
X003255Y016415
Y017915
X016648Y036165
X018148
X019648
X021148
X023514
X025014
X026514
X028014
M30
